G04 (created by PCBNEW-RS274X (2012-apr-16-27)-stable) date lun 12 may 2014 23:04:42 CEST*
G01*
G70*
G90*
%MOIN*%
G04 Gerber Fmt 3.4, Leading zero omitted, Abs format*
%FSLAX34Y34*%
G04 APERTURE LIST*
%ADD10C,0.000200*%
%ADD11R,0.060000X0.060000*%
%ADD12C,0.060000*%
%ADD13C,0.055000*%
%ADD14C,0.070000*%
%ADD15R,0.070000X0.070000*%
%ADD16C,0.039400*%
%ADD17C,0.023600*%
G04 APERTURE END LIST*
G54D10*
G54D11*
X80500Y-46000D03*
X80500Y-47000D03*
G54D12*
X85500Y-46000D03*
X81500Y-47000D03*
X86500Y-46000D03*
X82500Y-47000D03*
X87500Y-46000D03*
X83500Y-47000D03*
X88500Y-46000D03*
X84500Y-47000D03*
X89500Y-46000D03*
X85500Y-47000D03*
X90500Y-46000D03*
X86500Y-47000D03*
X91500Y-46000D03*
X87500Y-47000D03*
X92500Y-46000D03*
X88500Y-47000D03*
X93500Y-46000D03*
X89500Y-47000D03*
X94500Y-46000D03*
X90500Y-47000D03*
X95500Y-46000D03*
X91500Y-47000D03*
X92500Y-47000D03*
X96500Y-46000D03*
X93500Y-47000D03*
X95500Y-47000D03*
X96500Y-47000D03*
X97500Y-47000D03*
X98500Y-47000D03*
X97500Y-46000D03*
X98500Y-46000D03*
X81500Y-46000D03*
X82500Y-46000D03*
X83500Y-46000D03*
X84500Y-46000D03*
X99500Y-46000D03*
X99500Y-47000D03*
X94500Y-47000D03*
X100500Y-46000D03*
X100500Y-47000D03*
G54D11*
X101500Y-46000D03*
X101500Y-47000D03*
X102500Y-46000D03*
X102500Y-47000D03*
X80500Y-27000D03*
X80500Y-28000D03*
G54D12*
X85500Y-27000D03*
X81500Y-28000D03*
X86500Y-27000D03*
X82500Y-28000D03*
X87500Y-27000D03*
X83500Y-28000D03*
X88500Y-27000D03*
X84500Y-28000D03*
X89500Y-27000D03*
X85500Y-28000D03*
X90500Y-27000D03*
X86500Y-28000D03*
X91500Y-27000D03*
X87500Y-28000D03*
X92500Y-27000D03*
X88500Y-28000D03*
X93500Y-27000D03*
X89500Y-28000D03*
X94500Y-27000D03*
X90500Y-28000D03*
X95500Y-27000D03*
X91500Y-28000D03*
X92500Y-28000D03*
X96500Y-27000D03*
X93500Y-28000D03*
X95500Y-28000D03*
X96500Y-28000D03*
X97500Y-28000D03*
X98500Y-28000D03*
X97500Y-27000D03*
X98500Y-27000D03*
X81500Y-27000D03*
X82500Y-27000D03*
X83500Y-27000D03*
X84500Y-27000D03*
X99500Y-27000D03*
X99500Y-28000D03*
X94500Y-28000D03*
X100500Y-27000D03*
X100500Y-28000D03*
X101500Y-27000D03*
X101500Y-28000D03*
X102500Y-27000D03*
X102500Y-28000D03*
G54D11*
X84000Y-32000D03*
X83000Y-32000D03*
G54D12*
X84000Y-31000D03*
X83000Y-31000D03*
X84000Y-30000D03*
X83000Y-30000D03*
G54D11*
X86000Y-32000D03*
X85000Y-32000D03*
G54D12*
X86000Y-31000D03*
X85000Y-31000D03*
X86000Y-30000D03*
X85000Y-30000D03*
X90000Y-32000D03*
X90000Y-31000D03*
G54D11*
X90000Y-30000D03*
G54D12*
X92000Y-32000D03*
X92000Y-31000D03*
G54D11*
X92000Y-30000D03*
G54D13*
X98000Y-41000D03*
X98000Y-38000D03*
X95000Y-41000D03*
X95000Y-38000D03*
X99500Y-41000D03*
X99500Y-38000D03*
X96500Y-41000D03*
X96500Y-38000D03*
G54D12*
X102500Y-32500D03*
X102500Y-31500D03*
X102500Y-30500D03*
G54D11*
X102500Y-29500D03*
G54D12*
X80500Y-32500D03*
X80500Y-31500D03*
G54D11*
X80500Y-30500D03*
G54D12*
X80500Y-29500D03*
X104500Y-32500D03*
X104500Y-31500D03*
G54D11*
X104500Y-30500D03*
G54D12*
X104500Y-29500D03*
X88000Y-32000D03*
X88000Y-31000D03*
G54D11*
X88000Y-30000D03*
X97000Y-30000D03*
G54D12*
X97000Y-31000D03*
X97000Y-32000D03*
G54D11*
X98500Y-43000D03*
G54D12*
X97500Y-43000D03*
G54D11*
X80500Y-44000D03*
G54D12*
X85500Y-44000D03*
X86500Y-44000D03*
X87500Y-44000D03*
X88500Y-44000D03*
X89500Y-44000D03*
X90500Y-44000D03*
X91500Y-44000D03*
X92500Y-44000D03*
X93500Y-44000D03*
X94500Y-44000D03*
X95500Y-44000D03*
X96500Y-44000D03*
X97500Y-44000D03*
X98500Y-44000D03*
X81500Y-44000D03*
X82500Y-44000D03*
X83500Y-44000D03*
X84500Y-44000D03*
X99500Y-44000D03*
G54D11*
X80500Y-34000D03*
G54D12*
X85500Y-34000D03*
X86500Y-34000D03*
X87500Y-34000D03*
X88500Y-34000D03*
X89500Y-34000D03*
X90500Y-34000D03*
X91500Y-34000D03*
X92500Y-34000D03*
X93500Y-34000D03*
X94500Y-34000D03*
X95500Y-34000D03*
X96500Y-34000D03*
X97500Y-34000D03*
X98500Y-34000D03*
X81500Y-34000D03*
X82500Y-34000D03*
X83500Y-34000D03*
X84500Y-34000D03*
X99500Y-34000D03*
G54D11*
X99500Y-35000D03*
G54D12*
X94500Y-35000D03*
X93500Y-35000D03*
X92500Y-35000D03*
X91500Y-35000D03*
X90500Y-35000D03*
X89500Y-35000D03*
X88500Y-35000D03*
X87500Y-35000D03*
X86500Y-35000D03*
X85500Y-35000D03*
X84500Y-35000D03*
X83500Y-35000D03*
X82500Y-35000D03*
X81500Y-35000D03*
X98500Y-35000D03*
X97500Y-35000D03*
X96500Y-35000D03*
X95500Y-35000D03*
X80500Y-35000D03*
G54D14*
X85500Y-38000D03*
G54D15*
X85500Y-39000D03*
G54D14*
X85500Y-40000D03*
G54D12*
X82000Y-41000D03*
G54D11*
X82000Y-40000D03*
X82000Y-38000D03*
G54D12*
X82000Y-37000D03*
G54D16*
X82000Y-37000D02*
X84500Y-37000D01*
X84500Y-37000D02*
X85500Y-38000D01*
X98500Y-43000D02*
X98500Y-44000D01*
X98500Y-44000D02*
X99500Y-44000D01*
X82000Y-41000D02*
X84500Y-41000D01*
X84500Y-41000D02*
X85500Y-40000D01*
X80500Y-28000D02*
X81500Y-29000D01*
X87000Y-29000D02*
X88000Y-30000D01*
X81500Y-29000D02*
X87000Y-29000D01*
X88000Y-30000D02*
X90000Y-30000D01*
X90000Y-30000D02*
X92000Y-30000D01*
X92000Y-30000D02*
X97000Y-30000D01*
X97000Y-30000D02*
X97500Y-29500D01*
X97500Y-29500D02*
X102500Y-29500D01*
X96500Y-44000D02*
X97500Y-44000D01*
X101000Y-45000D02*
X98500Y-45000D01*
X81500Y-40000D02*
X79500Y-42000D01*
X79500Y-42000D02*
X79500Y-45000D01*
X80500Y-27000D02*
X80500Y-28000D01*
X82000Y-40000D02*
X83000Y-39000D01*
X82000Y-38000D02*
X82000Y-40000D01*
X82000Y-40000D02*
X81500Y-40000D01*
X97500Y-44000D02*
X97500Y-43000D01*
X98500Y-45000D02*
X97500Y-44000D01*
X101500Y-46000D02*
X101500Y-45500D01*
X79500Y-45000D02*
X80500Y-46000D01*
X101500Y-45500D02*
X101000Y-45000D01*
X83000Y-39000D02*
X85500Y-39000D01*
X80500Y-47000D02*
X80500Y-46000D01*
G54D17*
X88000Y-32000D02*
X86500Y-33500D01*
X86500Y-33500D02*
X86500Y-34000D01*
X86500Y-34000D02*
X86500Y-35000D01*
X86500Y-35000D02*
X86500Y-34000D01*
X92000Y-32000D02*
X91500Y-32000D01*
X89500Y-33000D02*
X88500Y-34000D01*
X90500Y-33000D02*
X89500Y-33000D01*
X91500Y-32000D02*
X90500Y-33000D01*
X88500Y-34000D02*
X88500Y-35000D01*
X90000Y-32000D02*
X89500Y-32000D01*
X89500Y-32000D02*
X87500Y-34000D01*
X87500Y-35000D02*
X87500Y-34000D01*
M02*
