G04 (created by PCBNEW-RS274X (2012-apr-16-27)-stable) date lun 12 may 2014 23:04:42 CEST*
G01*
G70*
G90*
%MOIN*%
G04 Gerber Fmt 3.4, Leading zero omitted, Abs format*
%FSLAX34Y34*%
G04 APERTURE LIST*
%ADD10C,0.000200*%
%ADD11C,0.015000*%
G04 APERTURE END LIST*
G54D10*
G54D11*
X73000Y-39000D02*
X73000Y-46000D01*
X80000Y-39000D02*
X73000Y-39000D01*
X80000Y-32500D02*
X80000Y-39000D01*
X79500Y-32500D02*
X80000Y-32500D01*
X73000Y-32500D02*
X79500Y-32500D01*
X73000Y-28000D02*
X73000Y-32500D01*
X75000Y-48000D02*
X103000Y-48000D01*
X75000Y-26000D02*
X103000Y-26000D01*
X75000Y-26000D02*
X74826Y-26008D01*
X74653Y-26031D01*
X74483Y-26069D01*
X74316Y-26121D01*
X74155Y-26188D01*
X74001Y-26268D01*
X73853Y-26362D01*
X73715Y-26468D01*
X73586Y-26586D01*
X73468Y-26715D01*
X73362Y-26853D01*
X73268Y-27001D01*
X73188Y-27155D01*
X73121Y-27316D01*
X73069Y-27483D01*
X73031Y-27653D01*
X73008Y-27826D01*
X73000Y-28000D01*
X73000Y-46000D02*
X73008Y-46174D01*
X73031Y-46347D01*
X73069Y-46517D01*
X73121Y-46684D01*
X73188Y-46845D01*
X73268Y-46999D01*
X73362Y-47147D01*
X73468Y-47285D01*
X73586Y-47414D01*
X73715Y-47532D01*
X73853Y-47638D01*
X74001Y-47732D01*
X74155Y-47812D01*
X74316Y-47879D01*
X74483Y-47931D01*
X74653Y-47969D01*
X74826Y-47992D01*
X75000Y-48000D01*
X107000Y-30000D02*
X106984Y-29652D01*
X106939Y-29306D01*
X106863Y-28965D01*
X106758Y-28632D01*
X106625Y-28310D01*
X106464Y-28001D01*
X106276Y-27706D01*
X106064Y-27429D01*
X105828Y-27172D01*
X105571Y-26936D01*
X105294Y-26724D01*
X105000Y-26536D01*
X104690Y-26375D01*
X104368Y-26242D01*
X104035Y-26137D01*
X103694Y-26061D01*
X103348Y-26016D01*
X103000Y-26000D01*
X107000Y-30000D02*
X107000Y-30500D01*
X103000Y-48000D02*
X103348Y-47984D01*
X103694Y-47939D01*
X104035Y-47863D01*
X104368Y-47758D01*
X104690Y-47625D01*
X105000Y-47464D01*
X105294Y-47276D01*
X105571Y-47064D01*
X105828Y-46828D01*
X106064Y-46571D01*
X106276Y-46294D01*
X106464Y-45999D01*
X106625Y-45690D01*
X106758Y-45368D01*
X106863Y-45035D01*
X106939Y-44694D01*
X106984Y-44348D01*
X107000Y-44000D01*
X107000Y-44000D02*
X107000Y-30500D01*
M02*
