M48
INCH,TZ
T1C0.032
T2C0.040
T3C0.045
%
G90
G05
T1
X80500Y-27000
X80500Y-34000
X80500Y-44000
X80500Y-46000
X82000Y-37000
X82000Y-38000
X82000Y-40000
X82000Y-41000
X95000Y-38000
X95000Y-41000
X96500Y-38000
X96500Y-41000
X98000Y-38000
X98000Y-41000
X99500Y-35000
X99500Y-38000
X99500Y-41000
T2
X80500Y-28000
X80500Y-29500
X80500Y-30500
X80500Y-31500
X80500Y-32500
X80500Y-35000
X80500Y-47000
X81500Y-27000
X81500Y-28000
X81500Y-34000
X81500Y-35000
X81500Y-44000
X81500Y-46000
X81500Y-47000
X82500Y-27000
X82500Y-28000
X82500Y-34000
X82500Y-35000
X82500Y-44000
X82500Y-46000
X82500Y-47000
X83000Y-30000
X83000Y-31000
X83000Y-32000
X83500Y-27000
X83500Y-28000
X83500Y-34000
X83500Y-35000
X83500Y-44000
X83500Y-46000
X83500Y-47000
X84000Y-30000
X84000Y-31000
X84000Y-32000
X84500Y-27000
X84500Y-28000
X84500Y-34000
X84500Y-35000
X84500Y-44000
X84500Y-46000
X84500Y-47000
X85000Y-30000
X85000Y-31000
X85000Y-32000
X85500Y-27000
X85500Y-28000
X85500Y-34000
X85500Y-35000
X85500Y-44000
X85500Y-46000
X85500Y-47000
X86000Y-30000
X86000Y-31000
X86000Y-32000
X86500Y-27000
X86500Y-28000
X86500Y-34000
X86500Y-35000
X86500Y-44000
X86500Y-46000
X86500Y-47000
X87500Y-27000
X87500Y-28000
X87500Y-34000
X87500Y-35000
X87500Y-44000
X87500Y-46000
X87500Y-47000
X88000Y-30000
X88000Y-31000
X88000Y-32000
X88500Y-27000
X88500Y-28000
X88500Y-34000
X88500Y-35000
X88500Y-44000
X88500Y-46000
X88500Y-47000
X89500Y-27000
X89500Y-28000
X89500Y-34000
X89500Y-35000
X89500Y-44000
X89500Y-46000
X89500Y-47000
X90000Y-30000
X90000Y-31000
X90000Y-32000
X90500Y-27000
X90500Y-28000
X90500Y-34000
X90500Y-35000
X90500Y-44000
X90500Y-46000
X90500Y-47000
X91500Y-27000
X91500Y-28000
X91500Y-34000
X91500Y-35000
X91500Y-44000
X91500Y-46000
X91500Y-47000
X92000Y-30000
X92000Y-31000
X92000Y-32000
X92500Y-27000
X92500Y-28000
X92500Y-34000
X92500Y-35000
X92500Y-44000
X92500Y-46000
X92500Y-47000
X93500Y-27000
X93500Y-28000
X93500Y-34000
X93500Y-35000
X93500Y-44000
X93500Y-46000
X93500Y-47000
X94500Y-27000
X94500Y-28000
X94500Y-34000
X94500Y-35000
X94500Y-44000
X94500Y-46000
X94500Y-47000
X95500Y-27000
X95500Y-28000
X95500Y-34000
X95500Y-35000
X95500Y-44000
X95500Y-46000
X95500Y-47000
X96500Y-27000
X96500Y-28000
X96500Y-34000
X96500Y-35000
X96500Y-44000
X96500Y-46000
X96500Y-47000
X97000Y-30000
X97000Y-31000
X97000Y-32000
X97500Y-27000
X97500Y-28000
X97500Y-34000
X97500Y-35000
X97500Y-43000
X97500Y-44000
X97500Y-46000
X97500Y-47000
X98500Y-27000
X98500Y-28000
X98500Y-34000
X98500Y-35000
X98500Y-43000
X98500Y-44000
X98500Y-46000
X98500Y-47000
X99500Y-27000
X99500Y-28000
X99500Y-34000
X99500Y-44000
X99500Y-46000
X99500Y-47000
X100500Y-27000
X100500Y-28000
X100500Y-46000
X100500Y-47000
X101500Y-27000
X101500Y-28000
X101500Y-46000
X101500Y-47000
X102500Y-27000
X102500Y-28000
X102500Y-29500
X102500Y-30500
X102500Y-31500
X102500Y-32500
X102500Y-46000
X102500Y-47000
X104500Y-29500
X104500Y-30500
X104500Y-31500
X104500Y-32500
T3
X85500Y-38000
X85500Y-39000
X85500Y-40000
T0
M30
