solid OpenSCAD_Model
  facet normal -1 0 0
    outer loop
      vertex -23 7.88777 6.66056
      vertex -23 -16.6 35
      vertex -23 61.9 0
    endloop
  endfacet
  facet normal -1 0 0
    outer loop
      vertex -23 61.9 0
      vertex -23 -16.6 35
      vertex -23 11.2122 35
    endloop
  endfacet
  facet normal -1 0 0
    outer loop
      vertex -23 61.9 0
      vertex -23 11.2122 35
      vertex -23 61.9 16.5511
    endloop
  endfacet
  facet normal -1 0 0
    outer loop
      vertex -23 -16.6 0
      vertex -23 -16.6 35
      vertex -23 4.01258 6.22393
    endloop
  endfacet
  facet normal -1 0 0
    outer loop
      vertex -23 -16.6 0
      vertex -23 4.01258 6.22393
      vertex -23 4.58579 4.58579
    endloop
  endfacet
  facet normal -1 0 0
    outer loop
      vertex -23 -16.6 0
      vertex -23 4.58579 4.58579
      vertex -23 6.22393 4.01258
    endloop
  endfacet
  facet normal -1 0 0
    outer loop
      vertex -23 -16.6 0
      vertex -23 6.22393 4.01258
      vertex -23 61.9 0
    endloop
  endfacet
  facet normal -1 0 0
    outer loop
      vertex -23 7.88777 6.66056
      vertex -23 61.9 0
      vertex -23 7.69345 4.93594
    endloop
  endfacet
  facet normal -1 0 0
    outer loop
      vertex -23 6.66056 7.88777
      vertex -23 -16.6 35
      vertex -23 7.88777 6.66056
    endloop
  endfacet
  facet normal -1 0 0
    outer loop
      vertex -23 4.93594 7.69345
      vertex -23 -16.6 35
      vertex -23 6.66056 7.88777
    endloop
  endfacet
  facet normal -1 0 0
    outer loop
      vertex -23 4.01258 6.22393
      vertex -23 -16.6 35
      vertex -23 4.93594 7.69345
    endloop
  endfacet
  facet normal -1 0 0
    outer loop
      vertex -23 7.69345 4.93594
      vertex -23 61.9 0
      vertex -23 6.22393 4.01258
    endloop
  endfacet
  facet normal 0 -1 0
    outer loop
      vertex -23 -16.6 35
      vertex -23 -16.6 0
      vertex -18 -16.6 0
    endloop
  endfacet
  facet normal 0 -1 0
    outer loop
      vertex 18 -16.6 31
      vertex -23 -16.6 35
      vertex -18 -16.6 31
    endloop
  endfacet
  facet normal 0 -1 0
    outer loop
      vertex -18 -16.6 31
      vertex -23 -16.6 35
      vertex -18 -16.6 0
    endloop
  endfacet
  facet normal 0 -1 0
    outer loop
      vertex 23 -16.6 35
      vertex -23 -16.6 35
      vertex 18 -16.6 31
    endloop
  endfacet
  facet normal 0 -1 0
    outer loop
      vertex 23 -16.6 0
      vertex 18 -16.6 31
      vertex 18 -16.6 0
    endloop
  endfacet
  facet normal 0 -1 0
    outer loop
      vertex 23 -16.6 35
      vertex 18 -16.6 31
      vertex 23 -16.6 0
    endloop
  endfacet
  facet normal 0 0 -1
    outer loop
      vertex -18 -10 0
      vertex -18 -16.6 0
      vertex -19 -10 0
    endloop
  endfacet
  facet normal 0 0 -1
    outer loop
      vertex 18 58 0
      vertex -23 61.9 0
      vertex 23 61.9 0
    endloop
  endfacet
  facet normal 0 0 -1
    outer loop
      vertex 18 10 0
      vertex 23 61.9 0
      vertex 23 10 0
    endloop
  endfacet
  facet normal 0 0 -1
    outer loop
      vertex -18 58 0
      vertex -23 61.9 0
      vertex 18 58 0
    endloop
  endfacet
  facet normal 0 0 -1
    outer loop
      vertex -19 -6 0
      vertex -23 61.9 0
      vertex -18 -6 0
    endloop
  endfacet
  facet normal 0 0 -1
    outer loop
      vertex -23 61.9 0
      vertex -18 58 0
      vertex -18 -6 0
    endloop
  endfacet
  facet normal 0 0 -1
    outer loop
      vertex -23 -16.6 0
      vertex -23 61.9 0
      vertex -19 -6 0
    endloop
  endfacet
  facet normal 0 0 -1
    outer loop
      vertex -23 -16.6 0
      vertex -19 -6 0
      vertex -19 -10 0
    endloop
  endfacet
  facet normal 0 0 -1
    outer loop
      vertex -23 -16.6 0
      vertex -19 -10 0
      vertex -18 -16.6 0
    endloop
  endfacet
  facet normal 0 0 -1
    outer loop
      vertex 18 58 0
      vertex 23 61.9 0
      vertex 18 10 0
    endloop
  endfacet
  facet normal 0 1 0
    outer loop
      vertex -23 61.9 0
      vertex -23 61.9 16.5511
      vertex 23 61.9 0
    endloop
  endfacet
  facet normal 0 1 0
    outer loop
      vertex 23 61.9 0
      vertex -23 61.9 16.5511
      vertex 23 61.9 16.5511
    endloop
  endfacet
  facet normal 0 0.34202 0.939693
    outer loop
      vertex 23 11.2122 35
      vertex 23 61.9 16.5511
      vertex -23 61.9 16.5511
    endloop
  endfacet
  facet normal 0 0.34202 0.939693
    outer loop
      vertex -23 11.2122 35
      vertex 23 11.2122 35
      vertex -23 61.9 16.5511
    endloop
  endfacet
  facet normal 0 0 1
    outer loop
      vertex -23 11.2122 35
      vertex -23 -16.6 35
      vertex 23 -16.6 35
    endloop
  endfacet
  facet normal 0 0 1
    outer loop
      vertex 23 11.2122 35
      vertex -23 11.2122 35
      vertex 23 -16.6 35
    endloop
  endfacet
  facet normal -2.00055e-016 0.943883 0.330279
    outer loop
      vertex -18 4.58579 4.58579
      vertex -23 4.58579 4.58579
      vertex -18 4.01258 6.22393
    endloop
  endfacet
  facet normal -2.00055e-016 0.943883 0.330279
    outer loop
      vertex -18 4.01258 6.22393
      vertex -23 4.58579 4.58579
      vertex -23 4.01258 6.22393
    endloop
  endfacet
  facet normal -4.94096e-017 0.846724 -0.532032
    outer loop
      vertex -18 4.93594 7.69345
      vertex -18 4.01258 6.22393
      vertex -23 4.93594 7.69345
    endloop
  endfacet
  facet normal -4.94096e-017 0.846724 -0.532032
    outer loop
      vertex -23 4.93594 7.69345
      vertex -18 4.01258 6.22393
      vertex -23 4.01258 6.22393
    endloop
  endfacet
  facet normal 1.38443e-016 0.111964 -0.993712
    outer loop
      vertex -18 6.66056 7.88777
      vertex -18 4.93594 7.69345
      vertex -23 6.66056 7.88777
    endloop
  endfacet
  facet normal 1.38443e-016 0.111964 -0.993712
    outer loop
      vertex -23 6.66056 7.88777
      vertex -18 4.93594 7.69345
      vertex -23 4.93594 7.69345
    endloop
  endfacet
  facet normal 2.22045e-016 -0.707107 -0.707107
    outer loop
      vertex -23 7.88777 6.66056
      vertex -18 7.88777 6.66056
      vertex -18 6.66056 7.88777
    endloop
  endfacet
  facet normal 2.22045e-016 -0.707107 -0.707107
    outer loop
      vertex -23 6.66056 7.88777
      vertex -23 7.88777 6.66056
      vertex -18 6.66056 7.88777
    endloop
  endfacet
  facet normal 1.38443e-016 -0.993712 0.111964
    outer loop
      vertex -18 7.69345 4.93594
      vertex -18 7.88777 6.66056
      vertex -23 7.88777 6.66056
    endloop
  endfacet
  facet normal 1.38443e-016 -0.993712 0.111964
    outer loop
      vertex -23 7.69345 4.93594
      vertex -18 7.69345 4.93594
      vertex -23 7.88777 6.66056
    endloop
  endfacet
  facet normal -4.94096e-017 -0.532032 0.846724
    outer loop
      vertex -18 6.22393 4.01258
      vertex -18 7.69345 4.93594
      vertex -23 7.69345 4.93594
    endloop
  endfacet
  facet normal -4.94096e-017 -0.532032 0.846724
    outer loop
      vertex -23 6.22393 4.01258
      vertex -18 6.22393 4.01258
      vertex -23 7.69345 4.93594
    endloop
  endfacet
  facet normal -2.00055e-016 0.330279 0.943883
    outer loop
      vertex -18 4.58579 4.58579
      vertex -18 6.22393 4.01258
      vertex -23 6.22393 4.01258
    endloop
  endfacet
  facet normal -2.00055e-016 0.330279 0.943883
    outer loop
      vertex -23 4.58579 4.58579
      vertex -18 4.58579 4.58579
      vertex -23 6.22393 4.01258
    endloop
  endfacet
  facet normal 1 0 0
    outer loop
      vertex 23 -16.6 35
      vertex 23 -16.6 0
      vertex 23 2 0
    endloop
  endfacet
  facet normal 1 0 0
    outer loop
      vertex 23 2.10913 6
      vertex 23 -16.6 35
      vertex 23 2 6
    endloop
  endfacet
  facet normal 1 0 0
    outer loop
      vertex 23 2 6
      vertex 23 -16.6 35
      vertex 23 2 0
    endloop
  endfacet
  facet normal 1 0 0
    outer loop
      vertex 23 2.06552 6.72102
      vertex 23 -16.6 35
      vertex 23 2.10913 6
    endloop
  endfacet
  facet normal 1 0 0
    outer loop
      vertex 23 2.85127 8.46687
      vertex 23 -16.6 35
      vertex 23 2.06552 6.72102
    endloop
  endfacet
  facet normal 1 0 0
    outer loop
      vertex 23 3.39677 8.89425
      vertex 23 -16.6 35
      vertex 23 2.85127 8.46687
    endloop
  endfacet
  facet normal 1 0 0
    outer loop
      vertex 23 3.34603 8.96159
      vertex 23 -16.6 35
      vertex 23 3.39677 8.89425
    endloop
  endfacet
  facet normal 1 0 0
    outer loop
      vertex 23 15.2171 17.9071
      vertex 23 -16.6 35
      vertex 23 3.34603 8.96159
    endloop
  endfacet
  facet normal 1 0 0
    outer loop
      vertex 23 15.6986 18.3886
      vertex 23 -16.6 35
      vertex 23 15.2171 17.9071
    endloop
  endfacet
  facet normal 1 0 0
    outer loop
      vertex 23 15.898 18.4202
      vertex 23 -16.6 35
      vertex 23 15.6986 18.3886
    endloop
  endfacet
  facet normal 1 0 0
    outer loop
      vertex 23 16.1242 18.5906
      vertex 23 -16.6 35
      vertex 23 15.898 18.4202
    endloop
  endfacet
  facet normal 1 0 0
    outer loop
      vertex 23 16.9195 18.582
      vertex 23 -16.6 35
      vertex 23 16.1242 18.5906
    endloop
  endfacet
  facet normal 1 0 0
    outer loop
      vertex 23 16.9195 18.582
      vertex 23 16.1242 18.5906
      vertex 23 16.2148 18.4704
    endloop
  endfacet
  facet normal 1 0 0
    outer loop
      vertex 23 61.9 0
      vertex 23 -16.6 35
      vertex 23 16.9195 18.582
    endloop
  endfacet
  facet normal 1 0 0
    outer loop
      vertex 23 61.9 0
      vertex 23 16.9195 18.582
      vertex 23 18.0208 18.0208
    endloop
  endfacet
  facet normal 1 0 0
    outer loop
      vertex 23 61.9 0
      vertex 23 18.0208 18.0208
      vertex 23 18.582 16.9195
    endloop
  endfacet
  facet normal 1 0 0
    outer loop
      vertex 23 18.5906 16.1242
      vertex 23 18.582 16.9195
      vertex 23 18.4704 16.2148
    endloop
  endfacet
  facet normal 1 0 0
    outer loop
      vertex 23 61.9 0
      vertex 23 18.582 16.9195
      vertex 23 18.5906 16.1242
    endloop
  endfacet
  facet normal 1 0 0
    outer loop
      vertex 23 18.3886 15.6986
      vertex 23 18.5906 16.1242
      vertex 23 18.4202 15.898
    endloop
  endfacet
  facet normal 1 0 0
    outer loop
      vertex 23 61.9 0
      vertex 23 18.5906 16.1242
      vertex 23 18.3886 15.6986
    endloop
  endfacet
  facet normal 1 0 0
    outer loop
      vertex 23 10 4.72404
      vertex 23 18.3886 15.6986
      vertex 23 17.9071 15.2171
    endloop
  endfacet
  facet normal 1 0 0
    outer loop
      vertex 23 10 0
      vertex 23 18.3886 15.6986
      vertex 23 10 4.72404
    endloop
  endfacet
  facet normal 1 0 0
    outer loop
      vertex 23 61.9 0
      vertex 23 18.3886 15.6986
      vertex 23 10 0
    endloop
  endfacet
  facet normal 1 0 0
    outer loop
      vertex 23 61.9 16.5511
      vertex 23 -16.6 35
      vertex 23 61.9 0
    endloop
  endfacet
  facet normal 1 0 0
    outer loop
      vertex 23 11.2122 35
      vertex 23 -16.6 35
      vertex 23 61.9 16.5511
    endloop
  endfacet
  facet normal 0 0 -1
    outer loop
      vertex 18 -16.6 0
      vertex 18 -10 0
      vertex 23 -16.6 0
    endloop
  endfacet
  facet normal 0 0 -1
    outer loop
      vertex 23 -16.6 0
      vertex 18 -10 0
      vertex 19 -10 0
    endloop
  endfacet
  facet normal 0 0 -1
    outer loop
      vertex 23 -16.6 0
      vertex 19 -10 0
      vertex 19 -6 0
    endloop
  endfacet
  facet normal 0 0 -1
    outer loop
      vertex 19 -6 0
      vertex 18 -6 0
      vertex 18 2 0
    endloop
  endfacet
  facet normal 0 0 -1
    outer loop
      vertex 19 -6 0
      vertex 18 2 0
      vertex 23 -16.6 0
    endloop
  endfacet
  facet normal 0 0 -1
    outer loop
      vertex 23 -16.6 0
      vertex 18 2 0
      vertex 23 2 0
    endloop
  endfacet
  facet normal -1 0 0
    outer loop
      vertex 18 -10 31
      vertex 18 -10 0
      vertex 18 -16.6 31
    endloop
  endfacet
  facet normal -1 0 0
    outer loop
      vertex 18 -16.6 31
      vertex 18 -10 0
      vertex 18 -16.6 0
    endloop
  endfacet
  facet normal 0 0 -1
    outer loop
      vertex -18 -6 31
      vertex -18 14 31
      vertex 18 14 31
    endloop
  endfacet
  facet normal 0 0 -1
    outer loop
      vertex -18 -6 31
      vertex 18 14 31
      vertex 18 -6 31
    endloop
  endfacet
  facet normal 0 0 -1
    outer loop
      vertex -18 -6 31
      vertex 19 -10 31
      vertex -19 -6 31
    endloop
  endfacet
  facet normal 0 0 -1
    outer loop
      vertex 18 -6 31
      vertex 19 -6 31
      vertex 19 -10 31
    endloop
  endfacet
  facet normal 0 0 -1
    outer loop
      vertex 18 -6 31
      vertex 19 -10 31
      vertex -18 -6 31
    endloop
  endfacet
  facet normal 0 0 -1
    outer loop
      vertex 19 -10 31
      vertex 18 -10 31
      vertex -19 -6 31
    endloop
  endfacet
  facet normal 0 0 -1
    outer loop
      vertex 18 -10 31
      vertex 18 -16.6 31
      vertex -19 -6 31
    endloop
  endfacet
  facet normal 0 0 -1
    outer loop
      vertex 18 -16.6 31
      vertex -18 -16.6 31
      vertex -18 -10 31
    endloop
  endfacet
  facet normal 0 0 -1
    outer loop
      vertex 18 -16.6 31
      vertex -18 -10 31
      vertex -19 -6 31
    endloop
  endfacet
  facet normal 0 0 -1
    outer loop
      vertex -19 -10 31
      vertex -19 -6 31
      vertex -18 -10 31
    endloop
  endfacet
  facet normal 1 0 0
    outer loop
      vertex -18 -10 0
      vertex -18 -10 31
      vertex -18 -16.6 31
    endloop
  endfacet
  facet normal 1 0 0
    outer loop
      vertex -18 -16.6 0
      vertex -18 -10 0
      vertex -18 -16.6 31
    endloop
  endfacet
  facet normal 0 1 0
    outer loop
      vertex -18 -10 31
      vertex -18 -10 0
      vertex -19 -10 31
    endloop
  endfacet
  facet normal 0 1 0
    outer loop
      vertex -19 -10 31
      vertex -18 -10 0
      vertex -19 -10 0
    endloop
  endfacet
  facet normal 1 0 0
    outer loop
      vertex -19 -6 0
      vertex -19 -6 31
      vertex -19 -10 31
    endloop
  endfacet
  facet normal 1 0 0
    outer loop
      vertex -19 -10 0
      vertex -19 -6 0
      vertex -19 -10 31
    endloop
  endfacet
  facet normal 0 -1 0
    outer loop
      vertex -18 -6 0
      vertex -18 -6 31
      vertex -19 -6 31
    endloop
  endfacet
  facet normal 0 -1 0
    outer loop
      vertex -19 -6 0
      vertex -18 -6 0
      vertex -19 -6 31
    endloop
  endfacet
  facet normal 1 0 0
    outer loop
      vertex -18 14 29.343
      vertex -18 -6 31
      vertex -18 58 0
    endloop
  endfacet
  facet normal 1 0 0
    outer loop
      vertex -18 58 0
      vertex -18 58 15
      vertex -18 53.4071 15
    endloop
  endfacet
  facet normal 1 0 0
    outer loop
      vertex -18 14 29.343
      vertex -18 58 0
      vertex -18 53.4071 15
    endloop
  endfacet
  facet normal 1 0 0
    outer loop
      vertex -18 14 31
      vertex -18 -6 31
      vertex -18 14 29.343
    endloop
  endfacet
  facet normal 1 0 0
    outer loop
      vertex -18 6.22393 4.01258
      vertex -18 -6 0
      vertex -18 58 0
    endloop
  endfacet
  facet normal 1 0 0
    outer loop
      vertex -18 6.22393 4.01258
      vertex -18 4.58579 4.58579
      vertex -18 -6 0
    endloop
  endfacet
  facet normal 1 0 0
    outer loop
      vertex -18 -6 31
      vertex -18 -6 0
      vertex -18 4.01258 6.22393
    endloop
  endfacet
  facet normal 1 0 0
    outer loop
      vertex -18 7.88777 6.66056
      vertex -18 7.69345 4.93594
      vertex -18 58 0
    endloop
  endfacet
  facet normal 1 0 0
    outer loop
      vertex -18 -6 31
      vertex -18 4.01258 6.22393
      vertex -18 4.93594 7.69345
    endloop
  endfacet
  facet normal 1 0 0
    outer loop
      vertex -18 -6 31
      vertex -18 6.66056 7.88777
      vertex -18 58 0
    endloop
  endfacet
  facet normal 1 0 0
    outer loop
      vertex -18 -6 31
      vertex -18 4.93594 7.69345
      vertex -18 6.66056 7.88777
    endloop
  endfacet
  facet normal 1 0 0
    outer loop
      vertex -18 7.69345 4.93594
      vertex -18 6.22393 4.01258
      vertex -18 58 0
    endloop
  endfacet
  facet normal 1 0 0
    outer loop
      vertex -18 4.01258 6.22393
      vertex -18 -6 0
      vertex -18 4.58579 4.58579
    endloop
  endfacet
  facet normal 1 0 0
    outer loop
      vertex -18 6.66056 7.88777
      vertex -18 7.88777 6.66056
      vertex -18 58 0
    endloop
  endfacet
  facet normal 0 -1 0
    outer loop
      vertex 18 58 0
      vertex 18 58 15
      vertex -18 58 15
    endloop
  endfacet
  facet normal 0 -1 0
    outer loop
      vertex -18 58 0
      vertex 18 58 0
      vertex -18 58 15
    endloop
  endfacet
  facet normal -1 0 0
    outer loop
      vertex 18 14 31
      vertex 18 14 29.343
      vertex 18 -6 31
    endloop
  endfacet
  facet normal -1 0 0
    outer loop
      vertex 18 -6 31
      vertex 18 14 29.343
      vertex 18 53.4071 15
    endloop
  endfacet
  facet normal -1 0 0
    outer loop
      vertex 18 53.4071 15
      vertex 18 58 15
      vertex 18 58 0
    endloop
  endfacet
  facet normal -1 0 0
    outer loop
      vertex 18 53.4071 15
      vertex 18 58 0
      vertex 18 -6 31
    endloop
  endfacet
  facet normal -1 0 0
    outer loop
      vertex 18 10 6
      vertex 18 58 0
      vertex 18 10 0
    endloop
  endfacet
  facet normal -1 0 0
    outer loop
      vertex 18 9.9927 6.24151
      vertex 18 58 0
      vertex 18 10 6
    endloop
  endfacet
  facet normal -1 0 0
    outer loop
      vertex 18 9.42313 8.06935
      vertex 18 58 0
      vertex 18 9.9927 6.24151
    endloop
  endfacet
  facet normal -1 0 0
    outer loop
      vertex 18 6.24151 9.9927
      vertex 18 -6 31
      vertex 18 8.06935 9.42313
    endloop
  endfacet
  facet normal -1 0 0
    outer loop
      vertex 18 -6 31
      vertex 18 58 0
      vertex 18 9.42313 8.06935
    endloop
  endfacet
  facet normal -1 0 0
    outer loop
      vertex 18 -6 31
      vertex 18 9.42313 8.06935
      vertex 18 8.06935 9.42313
    endloop
  endfacet
  facet normal -1 0 0
    outer loop
      vertex 18 4.35835 9.6476
      vertex 18 -6 31
      vertex 18 6.24151 9.9927
    endloop
  endfacet
  facet normal -1 0 0
    outer loop
      vertex 18 -6 31
      vertex 18 4.35835 9.6476
      vertex 18 2.85127 8.46687
    endloop
  endfacet
  facet normal -1 0 0
    outer loop
      vertex 18 2.85127 8.46687
      vertex 18 2.06552 6.72102
      vertex 18 -6 31
    endloop
  endfacet
  facet normal -1 0 0
    outer loop
      vertex 18 2.06552 6.72102
      vertex 18 2.10913 6
      vertex 18 -6 31
    endloop
  endfacet
  facet normal -1 0 0
    outer loop
      vertex 18 -6 31
      vertex 18 2.10913 6
      vertex 18 2 6
    endloop
  endfacet
  facet normal -1 0 0
    outer loop
      vertex 18 2 6
      vertex 18 2 0
      vertex 18 -6 31
    endloop
  endfacet
  facet normal -1 0 0
    outer loop
      vertex 18 -6 31
      vertex 18 2 0
      vertex 18 -6 0
    endloop
  endfacet
  facet normal -1 0 0
    outer loop
      vertex 18 9.9927 6.24151
      vertex 18 10 6
      vertex 18 9.94844 6
    endloop
  endfacet
  facet normal 0 -1 0
    outer loop
      vertex 23 10 0
      vertex 23 10 4.72404
      vertex 20.5 10 4.72404
    endloop
  endfacet
  facet normal 0 -1 0
    outer loop
      vertex 18 10 6
      vertex 23 10 0
      vertex 20.5 10 4.72404
    endloop
  endfacet
  facet normal 0 -1 0
    outer loop
      vertex 20.5 10 6
      vertex 18 10 6
      vertex 20.5 10 4.72404
    endloop
  endfacet
  facet normal 0 -1 0
    outer loop
      vertex 18 10 6
      vertex 18 10 0
      vertex 23 10 0
    endloop
  endfacet
  facet normal 0 -0.798636 0.601815
    outer loop
      vertex 23 10 4.72404
      vertex 23 17.9071 15.2171
      vertex 20.5 17.9071 15.2171
    endloop
  endfacet
  facet normal 0 -0.798636 0.601815
    outer loop
      vertex 20.5 10 4.72404
      vertex 23 10 4.72404
      vertex 20.5 17.9071 15.2171
    endloop
  endfacet
  facet normal 0 -0.798636 0.601815
    outer loop
      vertex 20.5 17.9453 15.2679
      vertex 20.5 10 4.72404
      vertex 20.5 17.9071 15.2171
    endloop
  endfacet
  facet normal 0 -0.707107 0.707107
    outer loop
      vertex 20.5 17.9071 15.2171
      vertex 23 17.9071 15.2171
      vertex 23 18.3886 15.6986
    endloop
  endfacet
  facet normal 0 -0.707107 0.707107
    outer loop
      vertex 20.5 18.3886 15.6986
      vertex 20.5 17.9071 15.2171
      vertex 23 18.3886 15.6986
    endloop
  endfacet
  facet normal 1.30514e-016 -0.987688 0.156435
    outer loop
      vertex 20.5 18.3886 15.6986
      vertex 23 18.3886 15.6986
      vertex 23 18.4202 15.898
    endloop
  endfacet
  facet normal 1.30514e-016 -0.987688 0.156435
    outer loop
      vertex 20.5 18.4704 16.2148
      vertex 20.5 18.3886 15.6986
      vertex 20.5 18.4202 15.898
    endloop
  endfacet
  facet normal 1.30514e-016 -0.987688 0.156435
    outer loop
      vertex 20.5 18.4202 15.898
      vertex 20.5 18.3886 15.6986
      vertex 23 18.4202 15.898
    endloop
  endfacet
  facet normal 1.30514e-016 -0.987688 0.156435
    outer loop
      vertex 20.5 18.582 16.9195
      vertex 20.5 18.3886 15.6986
      vertex 20.5 18.4704 16.2148
    endloop
  endfacet
  facet normal 1.30514e-016 -0.987688 0.156435
    outer loop
      vertex 23 18.582 16.9195
      vertex 20.5 18.4704 16.2148
      vertex 23 18.4704 16.2148
    endloop
  endfacet
  facet normal 1.30514e-016 -0.987688 0.156435
    outer loop
      vertex 20.5 18.582 16.9195
      vertex 20.5 18.4704 16.2148
      vertex 23 18.582 16.9195
    endloop
  endfacet
  facet normal 0 -0.798636 0.601815
    outer loop
      vertex 23 18.4202 15.898
      vertex 23 18.5906 16.1242
      vertex 20.5 18.5906 16.1242
    endloop
  endfacet
  facet normal 0 -0.798636 0.601815
    outer loop
      vertex 20.5 18.4202 15.898
      vertex 23 18.4202 15.898
      vertex 20.5 18.5906 16.1242
    endloop
  endfacet
  facet normal 0 -0.601815 -0.798636
    outer loop
      vertex 23 18.5906 16.1242
      vertex 23 18.4704 16.2148
      vertex 20.5 18.5906 16.1242
    endloop
  endfacet
  facet normal 0 -0.601815 -0.798636
    outer loop
      vertex 20.5 18.5906 16.1242
      vertex 23 18.4704 16.2148
      vertex 20.5 18.4704 16.2148
    endloop
  endfacet
  facet normal 2.11177e-016 -0.891006 -0.453991
    outer loop
      vertex 20.5 18.582 16.9195
      vertex 23 18.582 16.9195
      vertex 23 18.0208 18.0208
    endloop
  endfacet
  facet normal 2.11177e-016 -0.891006 -0.453991
    outer loop
      vertex 20.5 18.0208 18.0208
      vertex 20.5 18.582 16.9195
      vertex 23 18.0208 18.0208
    endloop
  endfacet
  facet normal 2.11177e-016 -0.453991 -0.891006
    outer loop
      vertex 23 16.9195 18.582
      vertex 20.5 16.9195 18.582
      vertex 23 18.0208 18.0208
    endloop
  endfacet
  facet normal 2.11177e-016 -0.453991 -0.891006
    outer loop
      vertex 23 18.0208 18.0208
      vertex 20.5 16.9195 18.582
      vertex 20.5 18.0208 18.0208
    endloop
  endfacet
  facet normal 1.30514e-016 0.156435 -0.987688
    outer loop
      vertex 23 16.2148 18.4704
      vertex 20.5 16.2148 18.4704
      vertex 23 16.9195 18.582
    endloop
  endfacet
  facet normal 1.30514e-016 0.156435 -0.987688
    outer loop
      vertex 20.5 16.9195 18.582
      vertex 20.5 16.2148 18.4704
      vertex 20.5 15.6986 18.3886
    endloop
  endfacet
  facet normal 1.30514e-016 0.156435 -0.987688
    outer loop
      vertex 23 15.6986 18.3886
      vertex 20.5 15.898 18.4202
      vertex 23 15.898 18.4202
    endloop
  endfacet
  facet normal 1.30514e-016 0.156435 -0.987688
    outer loop
      vertex 20.5 15.6986 18.3886
      vertex 20.5 15.898 18.4202
      vertex 23 15.6986 18.3886
    endloop
  endfacet
  facet normal 1.30514e-016 0.156435 -0.987688
    outer loop
      vertex 20.5 16.2148 18.4704
      vertex 20.5 15.898 18.4202
      vertex 20.5 15.6986 18.3886
    endloop
  endfacet
  facet normal 1.30514e-016 0.156435 -0.987688
    outer loop
      vertex 23 16.9195 18.582
      vertex 20.5 16.2148 18.4704
      vertex 20.5 16.9195 18.582
    endloop
  endfacet
  facet normal 0 -0.798636 -0.601815
    outer loop
      vertex 23 16.1242 18.5906
      vertex 20.5 16.1242 18.5906
      vertex 20.5 16.2148 18.4704
    endloop
  endfacet
  facet normal 0 -0.798636 -0.601815
    outer loop
      vertex 23 16.2148 18.4704
      vertex 23 16.1242 18.5906
      vertex 20.5 16.2148 18.4704
    endloop
  endfacet
  facet normal 0 0.601815 -0.798636
    outer loop
      vertex 20.5 15.898 18.4202
      vertex 20.5 16.1242 18.5906
      vertex 23 15.898 18.4202
    endloop
  endfacet
  facet normal 0 0.601815 -0.798636
    outer loop
      vertex 23 15.898 18.4202
      vertex 20.5 16.1242 18.5906
      vertex 23 16.1242 18.5906
    endloop
  endfacet
  facet normal 0 0.707107 -0.707107
    outer loop
      vertex 23 15.2171 17.9071
      vertex 20.5 15.2171 17.9071
      vertex 23 15.6986 18.3886
    endloop
  endfacet
  facet normal 0 0.707107 -0.707107
    outer loop
      vertex 23 15.6986 18.3886
      vertex 20.5 15.2171 17.9071
      vertex 20.5 15.6986 18.3886
    endloop
  endfacet
  facet normal 0 0.601815 -0.798636
    outer loop
      vertex 20.5 3.34603 8.96159
      vertex 20.5 15.2171 17.9071
      vertex 23 3.34603 8.96159
    endloop
  endfacet
  facet normal 0 0.601815 -0.798636
    outer loop
      vertex 20.5 3.34603 8.96159
      vertex 20.5 15.2679 17.9453
      vertex 20.5 15.2171 17.9071
    endloop
  endfacet
  facet normal 0 0.601815 -0.798636
    outer loop
      vertex 23 15.2171 17.9071
      vertex 23 3.34603 8.96159
      vertex 20.5 15.2171 17.9071
    endloop
  endfacet
  facet normal 0 0.798636 0.601815
    outer loop
      vertex 20.5 3.34603 8.96159
      vertex 23 3.34603 8.96159
      vertex 20.5 3.39677 8.89425
    endloop
  endfacet
  facet normal 0 0.798636 0.601815
    outer loop
      vertex 20.5 3.39677 8.89425
      vertex 23 3.34603 8.96159
      vertex 23 3.39677 8.89425
    endloop
  endfacet
  facet normal 2.67644e-017 0.616719 -0.787183
    outer loop
      vertex 20.5 4.35835 9.6476
      vertex 20.5 3.39677 8.89425
      vertex 18 4.35835 9.6476
    endloop
  endfacet
  facet normal 2.67644e-017 0.616719 -0.787183
    outer loop
      vertex 23 2.85127 8.46687
      vertex 20.5 3.39677 8.89425
      vertex 23 3.39677 8.89425
    endloop
  endfacet
  facet normal 2.67644e-017 0.616719 -0.787183
    outer loop
      vertex 18 2.85127 8.46687
      vertex 20.5 3.39677 8.89425
      vertex 23 2.85127 8.46687
    endloop
  endfacet
  facet normal 2.67644e-017 0.616719 -0.787183
    outer loop
      vertex 18 4.35835 9.6476
      vertex 20.5 3.39677 8.89425
      vertex 18 2.85127 8.46687
    endloop
  endfacet
  facet normal -7.87381e-017 0.9119 -0.410413
    outer loop
      vertex 23 2.85127 8.46687
      vertex 23 2.06552 6.72102
      vertex 18 2.85127 8.46687
    endloop
  endfacet
  facet normal -7.87381e-017 0.9119 -0.410413
    outer loop
      vertex 18 2.85127 8.46687
      vertex 23 2.06552 6.72102
      vertex 18 2.06552 6.72102
    endloop
  endfacet
  facet normal -1.66203e-016 0.998176 0.0603783
    outer loop
      vertex 23 2.10913 6
      vertex 18 2.10913 6
      vertex 23 2.06552 6.72102
    endloop
  endfacet
  facet normal -1.66203e-016 0.998176 0.0603783
    outer loop
      vertex 23 2.06552 6.72102
      vertex 18 2.10913 6
      vertex 18 2.06552 6.72102
    endloop
  endfacet
  facet normal 0 0 -1
    outer loop
      vertex 23 2.10913 6
      vertex 23 2 6
      vertex 18 2.10913 6
    endloop
  endfacet
  facet normal 0 0 -1
    outer loop
      vertex 18 2.10913 6
      vertex 23 2 6
      vertex 18 2 6
    endloop
  endfacet
  facet normal 0 1 0
    outer loop
      vertex 23 2 6
      vertex 23 2 0
      vertex 18 2 6
    endloop
  endfacet
  facet normal 0 1 0
    outer loop
      vertex 18 2 6
      vertex 23 2 0
      vertex 18 2 0
    endloop
  endfacet
  facet normal 0 -1 0
    outer loop
      vertex 19 -6 0
      vertex 19 -6 31
      vertex 18 -6 31
    endloop
  endfacet
  facet normal 0 -1 0
    outer loop
      vertex 18 -6 0
      vertex 19 -6 0
      vertex 18 -6 31
    endloop
  endfacet
  facet normal -1 0 0
    outer loop
      vertex 19 -6 31
      vertex 19 -6 0
      vertex 19 -10 31
    endloop
  endfacet
  facet normal -1 0 0
    outer loop
      vertex 19 -10 31
      vertex 19 -6 0
      vertex 19 -10 0
    endloop
  endfacet
  facet normal 0 1 0
    outer loop
      vertex 19 -10 31
      vertex 19 -10 0
      vertex 18 -10 31
    endloop
  endfacet
  facet normal 0 1 0
    outer loop
      vertex 18 -10 31
      vertex 19 -10 0
      vertex 18 -10 0
    endloop
  endfacet
  facet normal 0 -1 0
    outer loop
      vertex 18 14 29.343
      vertex 18 14 31
      vertex -18 14 31
    endloop
  endfacet
  facet normal 0 -1 0
    outer loop
      vertex -18 14 29.343
      vertex 18 14 29.343
      vertex -18 14 31
    endloop
  endfacet
  facet normal 0 -0.34202 -0.939693
    outer loop
      vertex 18 53.4071 15
      vertex 18 14 29.343
      vertex -18 53.4071 15
    endloop
  endfacet
  facet normal 0 -0.34202 -0.939693
    outer loop
      vertex -18 53.4071 15
      vertex 18 14 29.343
      vertex -18 14 29.343
    endloop
  endfacet
  facet normal 0 0 -1
    outer loop
      vertex 18 58 15
      vertex 18 53.4071 15
      vertex -18 58 15
    endloop
  endfacet
  facet normal 0 0 -1
    outer loop
      vertex -18 58 15
      vertex 18 53.4071 15
      vertex -18 53.4071 15
    endloop
  endfacet
  facet normal 1.26136e-016 0.180255 -0.98362
    outer loop
      vertex 20.5 6.24151 9.9927
      vertex 20.5 4.35835 9.6476
      vertex 18 6.24151 9.9927
    endloop
  endfacet
  facet normal 1.26136e-016 0.180255 -0.98362
    outer loop
      vertex 18 6.24151 9.9927
      vertex 20.5 4.35835 9.6476
      vertex 18 4.35835 9.6476
    endloop
  endfacet
  facet normal 1.96611e-016 -0.297503 -0.954721
    outer loop
      vertex 20.5 8.06935 9.42313
      vertex 20.5 6.24151 9.9927
      vertex 18 8.06935 9.42313
    endloop
  endfacet
  facet normal 1.96611e-016 -0.297503 -0.954721
    outer loop
      vertex 18 8.06935 9.42313
      vertex 20.5 6.24151 9.9927
      vertex 18 6.24151 9.9927
    endloop
  endfacet
  facet normal 2.22045e-016 -0.707107 -0.707107
    outer loop
      vertex 18 9.42313 8.06935
      vertex 20.5 9.42313 8.06935
      vertex 20.5 8.06935 9.42313
    endloop
  endfacet
  facet normal 2.22045e-016 -0.707107 -0.707107
    outer loop
      vertex 18 8.06935 9.42313
      vertex 18 9.42313 8.06935
      vertex 20.5 8.06935 9.42313
    endloop
  endfacet
  facet normal 1.96611e-016 -0.954721 -0.297503
    outer loop
      vertex 18 9.9927 6.24151
      vertex 20.5 9.9927 6.24151
      vertex 20.5 9.42313 8.06935
    endloop
  endfacet
  facet normal 1.96611e-016 -0.954721 -0.297503
    outer loop
      vertex 18 9.42313 8.06935
      vertex 18 9.9927 6.24151
      vertex 20.5 9.42313 8.06935
    endloop
  endfacet
  facet normal 1.26136e-016 -0.98362 0.180255
    outer loop
      vertex 20.5 9.94844 6
      vertex 20.5 9.9927 6.24151
      vertex 18 9.9927 6.24151
    endloop
  endfacet
  facet normal 1.26136e-016 -0.98362 0.180255
    outer loop
      vertex 18 9.94844 6
      vertex 20.5 9.94844 6
      vertex 18 9.9927 6.24151
    endloop
  endfacet
  facet normal 0 0 -1
    outer loop
      vertex 20.5 10 6
      vertex 20.5 9.94844 6
      vertex 18 10 6
    endloop
  endfacet
  facet normal 0 0 -1
    outer loop
      vertex 18 10 6
      vertex 20.5 9.94844 6
      vertex 18 9.94844 6
    endloop
  endfacet
  facet normal 1 0 0
    outer loop
      vertex 20.5 17.9453 15.2679
      vertex 20.5 4.35835 9.6476
      vertex 20.5 6.24151 9.9927
    endloop
  endfacet
  facet normal 1 0 0
    outer loop
      vertex 20.5 9.42313 8.06935
      vertex 20.5 17.9453 15.2679
      vertex 20.5 8.06935 9.42313
    endloop
  endfacet
  facet normal 1 0 0
    outer loop
      vertex 20.5 8.06935 9.42313
      vertex 20.5 17.9453 15.2679
      vertex 20.5 6.24151 9.9927
    endloop
  endfacet
  facet normal 1 0 0
    outer loop
      vertex 20.5 3.39677 8.89425
      vertex 20.5 4.35835 9.6476
      vertex 20.5 3.34603 8.96159
    endloop
  endfacet
  facet normal 1 0 0
    outer loop
      vertex 20.5 9.9927 6.24151
      vertex 20.5 17.9453 15.2679
      vertex 20.5 9.42313 8.06935
    endloop
  endfacet
  facet normal 1 0 0
    outer loop
      vertex 20.5 10 6
      vertex 20.5 17.9453 15.2679
      vertex 20.5 9.9927 6.24151
    endloop
  endfacet
  facet normal 1 0 0
    outer loop
      vertex 20.5 9.94844 6
      vertex 20.5 10 6
      vertex 20.5 9.9927 6.24151
    endloop
  endfacet
  facet normal 1 0 0
    outer loop
      vertex 20.5 10 4.72404
      vertex 20.5 17.9453 15.2679
      vertex 20.5 10 6
    endloop
  endfacet
  facet normal 1 0 0
    outer loop
      vertex 20.5 17.9453 15.2679
      vertex 20.5 15.2679 17.9453
      vertex 20.5 4.35835 9.6476
    endloop
  endfacet
  facet normal 1 0 0
    outer loop
      vertex 20.5 15.2679 17.9453
      vertex 20.5 3.34603 8.96159
      vertex 20.5 4.35835 9.6476
    endloop
  endfacet
  facet normal 1 1.25385e-016 1.25385e-016
    outer loop
      vertex 20.5 15.2679 17.9453
      vertex 20.5 15.6986 18.3886
      vertex 20.5 15.2171 17.9071
    endloop
  endfacet
  facet normal 1 1.25385e-016 1.25385e-016
    outer loop
      vertex 20.5 16.9195 18.582
      vertex 20.5 15.6986 18.3886
      vertex 20.5 15.2679 17.9453
    endloop
  endfacet
  facet normal 1 1.25385e-016 1.25385e-016
    outer loop
      vertex 20.5 18.3886 15.6986
      vertex 20.5 16.9195 18.582
      vertex 20.5 17.9453 15.2679
    endloop
  endfacet
  facet normal 1 1.25385e-016 1.25385e-016
    outer loop
      vertex 20.5 18.3886 15.6986
      vertex 20.5 17.9453 15.2679
      vertex 20.5 17.9071 15.2171
    endloop
  endfacet
  facet normal 1 1.25385e-016 1.25385e-016
    outer loop
      vertex 20.5 18.582 16.9195
      vertex 20.5 16.9195 18.582
      vertex 20.5 18.3886 15.6986
    endloop
  endfacet
  facet normal 1 1.25385e-016 1.25385e-016
    outer loop
      vertex 20.5 18.0208 18.0208
      vertex 20.5 16.9195 18.582
      vertex 20.5 18.582 16.9195
    endloop
  endfacet
  facet normal 1 1.25385e-016 1.25385e-016
    outer loop
      vertex 20.5 15.2679 17.9453
      vertex 20.5 17.9453 15.2679
      vertex 20.5 16.9195 18.582
    endloop
  endfacet
  facet normal 1 0 0
    outer loop
      vertex 20.5 18.5906 16.1242
      vertex 20.5 18.4704 16.2148
      vertex 20.5 18.4202 15.898
    endloop
  endfacet
  facet normal 1 0 0
    outer loop
      vertex 20.5 16.2148 18.4704
      vertex 20.5 16.1242 18.5906
      vertex 20.5 15.898 18.4202
    endloop
  endfacet
endsolid OpenSCAD_Model
