solid OpenSCAD_Model
  facet normal -1 0 0
    outer loop
      vertex 0 18 4
      vertex 0 18 0
      vertex 0 17 4
    endloop
  endfacet
  facet normal -1 0 0
    outer loop
      vertex 0 18 8
      vertex 0 15.5 12
      vertex 0 18 12
    endloop
  endfacet
  facet normal -1 0 0
    outer loop
      vertex 0 17 8
      vertex 0 15.5 12
      vertex 0 18 8
    endloop
  endfacet
  facet normal -1 0 0
    outer loop
      vertex 0 15.5 0
      vertex 0 15.5 12
      vertex 0 17 4
    endloop
  endfacet
  facet normal -1 0 0
    outer loop
      vertex 0 15.5 0
      vertex 0 17 4
      vertex 0 18 0
    endloop
  endfacet
  facet normal -1 0 0
    outer loop
      vertex 0 17 4
      vertex 0 15.5 12
      vertex 0 17 8
    endloop
  endfacet
  facet normal 0 -1 0
    outer loop
      vertex 15.5 15.5 0
      vertex 15.5 15.5 12
      vertex 0 15.5 12
    endloop
  endfacet
  facet normal 0 -1 0
    outer loop
      vertex 0 15.5 0
      vertex 15.5 15.5 0
      vertex 0 15.5 12
    endloop
  endfacet
  facet normal 0 0 -1
    outer loop
      vertex 0 15.5 0
      vertex 0 18 0
      vertex 15.5 15.5 0
    endloop
  endfacet
  facet normal 0 0 -1
    outer loop
      vertex 15.5 15.5 0
      vertex 0 18 0
      vertex 18 18 0
    endloop
  endfacet
  facet normal 0 0 -1
    outer loop
      vertex 15.5 15.5 0
      vertex 18 18 0
      vertex 18 0 0
    endloop
  endfacet
  facet normal 0 0 -1
    outer loop
      vertex 15.5 15.5 0
      vertex 18 0 0
      vertex 15.5 0 0
    endloop
  endfacet
  facet normal 0 1 0
    outer loop
      vertex 0 18 0
      vertex 0 18 4
      vertex 18 18 0
    endloop
  endfacet
  facet normal 0 1 0
    outer loop
      vertex 18 18 0
      vertex 0 18 4
      vertex 18 18 4
    endloop
  endfacet
  facet normal 0 0 1
    outer loop
      vertex 0 18 4
      vertex 0 17 4
      vertex 17 17 4
    endloop
  endfacet
  facet normal 0 0 1
    outer loop
      vertex 18 18 4
      vertex 0 18 4
      vertex 17 17 4
    endloop
  endfacet
  facet normal 0 0 1
    outer loop
      vertex 17 0 4
      vertex 18 0 4
      vertex 17 17 4
    endloop
  endfacet
  facet normal 0 0 1
    outer loop
      vertex 18 0 4
      vertex 18 18 4
      vertex 17 17 4
    endloop
  endfacet
  facet normal 0 1 0
    outer loop
      vertex 0 17 4
      vertex 0 17 8
      vertex 17 17 4
    endloop
  endfacet
  facet normal 0 1 0
    outer loop
      vertex 17 17 4
      vertex 0 17 8
      vertex 17 17 8
    endloop
  endfacet
  facet normal 0 0 -1
    outer loop
      vertex 0 17 8
      vertex 0 18 8
      vertex 17 17 8
    endloop
  endfacet
  facet normal 0 0 -1
    outer loop
      vertex 17 17 8
      vertex 0 18 8
      vertex 18 18 8
    endloop
  endfacet
  facet normal 0 0 -1
    outer loop
      vertex 17 17 8
      vertex 18 18 8
      vertex 18 0 8
    endloop
  endfacet
  facet normal 0 0 -1
    outer loop
      vertex 17 17 8
      vertex 18 0 8
      vertex 17 0 8
    endloop
  endfacet
  facet normal 0 1 0
    outer loop
      vertex 0 18 8
      vertex 0 18 12
      vertex 18 18 8
    endloop
  endfacet
  facet normal 0 1 0
    outer loop
      vertex 18 18 8
      vertex 0 18 12
      vertex 18 18 12
    endloop
  endfacet
  facet normal 0 0 1
    outer loop
      vertex 0 18 12
      vertex 0 15.5 12
      vertex 15.5 15.5 12
    endloop
  endfacet
  facet normal 0 0 1
    outer loop
      vertex 18 18 12
      vertex 0 18 12
      vertex 15.5 15.5 12
    endloop
  endfacet
  facet normal 0 0 1
    outer loop
      vertex 15.5 0 12
      vertex 18 0 12
      vertex 15.5 15.5 12
    endloop
  endfacet
  facet normal 0 0 1
    outer loop
      vertex 18 0 12
      vertex 18 18 12
      vertex 15.5 15.5 12
    endloop
  endfacet
  facet normal -1 0 0
    outer loop
      vertex 15.5 15.5 12
      vertex 15.5 15.5 0
      vertex 15.5 0 12
    endloop
  endfacet
  facet normal -1 0 0
    outer loop
      vertex 15.5 0 12
      vertex 15.5 15.5 0
      vertex 15.5 0 0
    endloop
  endfacet
  facet normal 0 -1 0
    outer loop
      vertex 17 0 4
      vertex 15.5 0 0
      vertex 18 0 0
    endloop
  endfacet
  facet normal 0 -1 0
    outer loop
      vertex 17 0 4
      vertex 17 0 8
      vertex 15.5 0 12
    endloop
  endfacet
  facet normal 0 -1 0
    outer loop
      vertex 15.5 0 12
      vertex 15.5 0 0
      vertex 17 0 4
    endloop
  endfacet
  facet normal 0 -1 0
    outer loop
      vertex 18 0 8
      vertex 15.5 0 12
      vertex 17 0 8
    endloop
  endfacet
  facet normal 0 -1 0
    outer loop
      vertex 18 0 12
      vertex 15.5 0 12
      vertex 18 0 8
    endloop
  endfacet
  facet normal 0 -1 0
    outer loop
      vertex 18 0 4
      vertex 17 0 4
      vertex 18 0 0
    endloop
  endfacet
  facet normal 1 0 0
    outer loop
      vertex 18 0 4
      vertex 18 0 0
      vertex 18 18 0
    endloop
  endfacet
  facet normal 1 0 0
    outer loop
      vertex 18 18 4
      vertex 18 0 4
      vertex 18 18 0
    endloop
  endfacet
  facet normal 1 0 0
    outer loop
      vertex 17 0 8
      vertex 17 0 4
      vertex 17 17 4
    endloop
  endfacet
  facet normal 1 0 0
    outer loop
      vertex 17 17 8
      vertex 17 0 8
      vertex 17 17 4
    endloop
  endfacet
  facet normal 1 0 0
    outer loop
      vertex 18 0 12
      vertex 18 0 8
      vertex 18 18 8
    endloop
  endfacet
  facet normal 1 0 0
    outer loop
      vertex 18 18 12
      vertex 18 0 12
      vertex 18 18 8
    endloop
  endfacet
endsolid OpenSCAD_Model
