solid OpenSCAD_Model
  facet normal -1 0 0
    outer loop
      vertex 0 0 0
      vertex 0 0 15
      vertex 0 34 0
    endloop
  endfacet
  facet normal -1 0 0
    outer loop
      vertex 0 34 0
      vertex 0 0 15
      vertex 0 34 15
    endloop
  endfacet
  facet normal 0 -1 0
    outer loop
      vertex 0 0 15
      vertex 0 0 0
      vertex 50 0 0
    endloop
  endfacet
  facet normal 0 -1 0
    outer loop
      vertex 40.5365 0 5.07341
      vertex 0 0 15
      vertex 50 0 0
    endloop
  endfacet
  facet normal 0 -1 0
    outer loop
      vertex 39.5 0 6.5
      vertex 0 0 15
      vertex 39.7865 0 5.61832
    endloop
  endfacet
  facet normal 0 -1 0
    outer loop
      vertex 39.7865 0 7.38168
      vertex 0 0 15
      vertex 39.5 0 6.5
    endloop
  endfacet
  facet normal 0 -1 0
    outer loop
      vertex 50 0 15
      vertex 0 0 15
      vertex 39.7865 0 7.38168
    endloop
  endfacet
  facet normal 0 -1 0
    outer loop
      vertex 41.4635 0 7.92659
      vertex 42.2135 0 7.38168
      vertex 50 0 15
    endloop
  endfacet
  facet normal 0 -1 0
    outer loop
      vertex 50 0 15
      vertex 39.7865 0 7.38168
      vertex 40.5365 0 7.92659
    endloop
  endfacet
  facet normal 0 -1 0
    outer loop
      vertex 41.4635 0 5.07341
      vertex 40.5365 0 5.07341
      vertex 50 0 0
    endloop
  endfacet
  facet normal 0 -1 0
    outer loop
      vertex 50 0 15
      vertex 42.2135 0 7.38168
      vertex 50 0 0
    endloop
  endfacet
  facet normal 0 -1 0
    outer loop
      vertex 42.2135 0 7.38168
      vertex 42.5 0 6.5
      vertex 50 0 0
    endloop
  endfacet
  facet normal 0 -1 0
    outer loop
      vertex 42.5 0 6.5
      vertex 42.2135 0 5.61832
      vertex 50 0 0
    endloop
  endfacet
  facet normal 0 -1 0
    outer loop
      vertex 42.2135 0 5.61832
      vertex 41.4635 0 5.07341
      vertex 50 0 0
    endloop
  endfacet
  facet normal 0 -1 0
    outer loop
      vertex 39.7865 0 5.61832
      vertex 0 0 15
      vertex 40.5365 0 5.07341
    endloop
  endfacet
  facet normal 0 -1 0
    outer loop
      vertex 40.5365 0 7.92659
      vertex 41.4635 0 7.92659
      vertex 50 0 15
    endloop
  endfacet
  facet normal 0 0 -1
    outer loop
      vertex 18 25 0
      vertex 0 34 0
      vertex 18 34 0
    endloop
  endfacet
  facet normal 0 0 -1
    outer loop
      vertex 12.3708 26.1413 0
      vertex 0 34 0
      vertex 18 25 0
    endloop
  endfacet
  facet normal 0 0 -1
    outer loop
      vertex 0 0 0
      vertex 24 5 0
      vertex 50 0 0
    endloop
  endfacet
  facet normal 0 0 -1
    outer loop
      vertex 6.97082 8.29466 0
      vertex 24 5 0
      vertex 6.37082 7.85873 0
    endloop
  endfacet
  facet normal 0 0 -1
    outer loop
      vertex 0 0 0
      vertex 0 34 0
      vertex 4.8 9 0
    endloop
  endfacet
  facet normal 0 0 -1
    outer loop
      vertex 0 0 0
      vertex 4.8 9 0
      vertex 5.02918 8.29466 0
    endloop
  endfacet
  facet normal 0 0 -1
    outer loop
      vertex 7.2 9 0
      vertex 11.6292 7.85873 0
      vertex 6.97082 8.29466 0
    endloop
  endfacet
  facet normal 0 0 -1
    outer loop
      vertex 0 0 0
      vertex 5.02918 8.29466 0
      vertex 5.62918 7.85873 0
    endloop
  endfacet
  facet normal 0 0 -1
    outer loop
      vertex 0 0 0
      vertex 5.62918 7.85873 0
      vertex 24 5 0
    endloop
  endfacet
  facet normal 0 0 -1
    outer loop
      vertex 5.62918 7.85873 0
      vertex 6.37082 7.85873 0
      vertex 24 5 0
    endloop
  endfacet
  facet normal 0 0 -1
    outer loop
      vertex 11.6292 7.85873 0
      vertex 24 5 0
      vertex 6.97082 8.29466 0
    endloop
  endfacet
  facet normal 0 0 -1
    outer loop
      vertex 12.9708 8.29466 0
      vertex 24 5 0
      vertex 12.3708 7.85873 0
    endloop
  endfacet
  facet normal 0 0 -1
    outer loop
      vertex 5.62918 15.8587 0
      vertex 6.97082 9.70534 0
      vertex 5.02918 16.2947 0
    endloop
  endfacet
  facet normal 0 0 -1
    outer loop
      vertex 5.62918 10.1413 0
      vertex 0 34 0
      vertex 6.37082 10.1413 0
    endloop
  endfacet
  facet normal 0 0 -1
    outer loop
      vertex 5.02918 9.70534 0
      vertex 0 34 0
      vertex 5.62918 10.1413 0
    endloop
  endfacet
  facet normal 0 0 -1
    outer loop
      vertex 4.8 9 0
      vertex 0 34 0
      vertex 5.02918 9.70534 0
    endloop
  endfacet
  facet normal 0 0 -1
    outer loop
      vertex 6.37082 10.1413 0
      vertex 0 34 0
      vertex 4.8 17 0
    endloop
  endfacet
  facet normal 0 0 -1
    outer loop
      vertex 6.37082 10.1413 0
      vertex 4.8 17 0
      vertex 6.97082 9.70534 0
    endloop
  endfacet
  facet normal 0 0 -1
    outer loop
      vertex 5.62918 15.8587 0
      vertex 7.2 9 0
      vertex 6.97082 9.70534 0
    endloop
  endfacet
  facet normal 0 0 -1
    outer loop
      vertex 4.8 17 0
      vertex 5.02918 16.2947 0
      vertex 6.97082 9.70534 0
    endloop
  endfacet
  facet normal 0 0 -1
    outer loop
      vertex 12.9708 9.70534 0
      vertex 5.62918 15.8587 0
      vertex 24 5 0
    endloop
  endfacet
  facet normal 0 0 -1
    outer loop
      vertex 6.37082 23.8587 0
      vertex 11.6292 18.1413 0
      vertex 5.62918 23.8587 0
    endloop
  endfacet
  facet normal 0 0 -1
    outer loop
      vertex 5.62918 15.8587 0
      vertex 6.37082 15.8587 0
      vertex 24 5 0
    endloop
  endfacet
  facet normal 0 0 -1
    outer loop
      vertex 5.02918 17.7053 0
      vertex 0 34 0
      vertex 5.62918 18.1413 0
    endloop
  endfacet
  facet normal 0 0 -1
    outer loop
      vertex 6.37082 15.8587 0
      vertex 6.97082 16.2947 0
      vertex 24 5 0
    endloop
  endfacet
  facet normal 0 0 -1
    outer loop
      vertex 5.62918 18.1413 0
      vertex 0 34 0
      vertex 6.37082 18.1413 0
    endloop
  endfacet
  facet normal 0 0 -1
    outer loop
      vertex 6.97082 16.2947 0
      vertex 7.2 17 0
      vertex 24 5 0
    endloop
  endfacet
  facet normal 0 0 -1
    outer loop
      vertex 7.2 17 0
      vertex 6.97082 17.7053 0
      vertex 24 5 0
    endloop
  endfacet
  facet normal 0 0 -1
    outer loop
      vertex 6.37082 18.1413 0
      vertex 0 34 0
      vertex 6.97082 17.7053 0
    endloop
  endfacet
  facet normal 0 0 -1
    outer loop
      vertex 6.97082 17.7053 0
      vertex 0 34 0
      vertex 4.8 25 0
    endloop
  endfacet
  facet normal 0 0 -1
    outer loop
      vertex 6.97082 17.7053 0
      vertex 4.8 25 0
      vertex 5.02918 24.2947 0
    endloop
  endfacet
  facet normal 0 0 -1
    outer loop
      vertex 11.6292 7.85873 0
      vertex 7.2 9 0
      vertex 11.0292 8.29466 0
    endloop
  endfacet
  facet normal 0 0 -1
    outer loop
      vertex 12.3708 18.1413 0
      vertex 6.97082 24.2947 0
      vertex 12.9708 17.7053 0
    endloop
  endfacet
  facet normal 0 0 -1
    outer loop
      vertex 5.02918 25.7053 0
      vertex 0 34 0
      vertex 5.62918 26.1413 0
    endloop
  endfacet
  facet normal 0 0 -1
    outer loop
      vertex 11.6292 18.1413 0
      vertex 6.97082 24.2947 0
      vertex 12.3708 18.1413 0
    endloop
  endfacet
  facet normal 0 0 -1
    outer loop
      vertex 12.9708 17.7053 0
      vertex 7.2 25 0
      vertex 24 5 0
    endloop
  endfacet
  facet normal 0 0 -1
    outer loop
      vertex 5.62918 26.1413 0
      vertex 0 34 0
      vertex 6.37082 26.1413 0
    endloop
  endfacet
  facet normal 0 0 -1
    outer loop
      vertex 50 5 0
      vertex 50 0 0
      vertex 24 5 0
    endloop
  endfacet
  facet normal 0 0 -1
    outer loop
      vertex 12.3708 7.85873 0
      vertex 24 5 0
      vertex 11.6292 7.85873 0
    endloop
  endfacet
  facet normal 0 0 -1
    outer loop
      vertex 4.8 25 0
      vertex 0 34 0
      vertex 5.02918 25.7053 0
    endloop
  endfacet
  facet normal 0 0 -1
    outer loop
      vertex 7.2 9 0
      vertex 5.62918 15.8587 0
      vertex 10.8 9 0
    endloop
  endfacet
  facet normal 0 0 -1
    outer loop
      vertex 7.2 9 0
      vertex 10.8 9 0
      vertex 11.0292 8.29466 0
    endloop
  endfacet
  facet normal 0 0 -1
    outer loop
      vertex 4.8 17 0
      vertex 0 34 0
      vertex 5.02918 17.7053 0
    endloop
  endfacet
  facet normal 0 0 -1
    outer loop
      vertex 13.2 9 0
      vertex 24 5 0
      vertex 12.9708 8.29466 0
    endloop
  endfacet
  facet normal 0 0 -1
    outer loop
      vertex 10.8 17 0
      vertex 5.02918 24.2947 0
      vertex 11.0292 17.7053 0
    endloop
  endfacet
  facet normal 0 0 -1
    outer loop
      vertex 11.6292 10.1413 0
      vertex 5.62918 15.8587 0
      vertex 12.3708 10.1413 0
    endloop
  endfacet
  facet normal 0 0 -1
    outer loop
      vertex 12.3708 10.1413 0
      vertex 5.62918 15.8587 0
      vertex 12.9708 9.70534 0
    endloop
  endfacet
  facet normal 0 0 -1
    outer loop
      vertex 13.2 9 0
      vertex 12.9708 9.70534 0
      vertex 24 5 0
    endloop
  endfacet
  facet normal 0 0 -1
    outer loop
      vertex 11.0292 9.70534 0
      vertex 5.62918 15.8587 0
      vertex 11.6292 10.1413 0
    endloop
  endfacet
  facet normal 0 0 -1
    outer loop
      vertex 10.8 9 0
      vertex 5.62918 15.8587 0
      vertex 11.0292 9.70534 0
    endloop
  endfacet
  facet normal 0 0 -1
    outer loop
      vertex 6.97082 17.7053 0
      vertex 5.02918 24.2947 0
      vertex 10.8 17 0
    endloop
  endfacet
  facet normal 0 0 -1
    outer loop
      vertex 11.6292 26.1413 0
      vertex 0 34 0
      vertex 12.3708 26.1413 0
    endloop
  endfacet
  facet normal 0 0 -1
    outer loop
      vertex 6.97082 17.7053 0
      vertex 10.8 17 0
      vertex 11.0292 16.2947 0
    endloop
  endfacet
  facet normal 0 0 -1
    outer loop
      vertex 6.97082 17.7053 0
      vertex 11.0292 16.2947 0
      vertex 24 5 0
    endloop
  endfacet
  facet normal 0 0 -1
    outer loop
      vertex 11.0292 16.2947 0
      vertex 11.6292 15.8587 0
      vertex 24 5 0
    endloop
  endfacet
  facet normal 0 0 -1
    outer loop
      vertex 12.3708 15.8587 0
      vertex 24 5 0
      vertex 11.6292 15.8587 0
    endloop
  endfacet
  facet normal 0 0 -1
    outer loop
      vertex 12.9708 16.2947 0
      vertex 24 5 0
      vertex 12.3708 15.8587 0
    endloop
  endfacet
  facet normal 0 0 -1
    outer loop
      vertex 13.2 17 0
      vertex 24 5 0
      vertex 12.9708 16.2947 0
    endloop
  endfacet
  facet normal 0 0 -1
    outer loop
      vertex 11.0292 17.7053 0
      vertex 5.62918 23.8587 0
      vertex 11.6292 18.1413 0
    endloop
  endfacet
  facet normal 0 0 -1
    outer loop
      vertex 12.9708 17.7053 0
      vertex 24 5 0
      vertex 13.2 17 0
    endloop
  endfacet
  facet normal 0 0 -1
    outer loop
      vertex 6.97082 24.2947 0
      vertex 7.2 25 0
      vertex 12.9708 17.7053 0
    endloop
  endfacet
  facet normal 0 0 -1
    outer loop
      vertex 11.6292 18.1413 0
      vertex 6.37082 23.8587 0
      vertex 6.97082 24.2947 0
    endloop
  endfacet
  facet normal 0 0 -1
    outer loop
      vertex 6.97082 25.7053 0
      vertex 24 5 0
      vertex 7.2 25 0
    endloop
  endfacet
  facet normal 0 0 -1
    outer loop
      vertex 6.37082 26.1413 0
      vertex 0 34 0
      vertex 6.97082 25.7053 0
    endloop
  endfacet
  facet normal 0 0 -1
    outer loop
      vertex 11.0292 17.7053 0
      vertex 5.02918 24.2947 0
      vertex 5.62918 23.8587 0
    endloop
  endfacet
  facet normal 0 0 -1
    outer loop
      vertex 6.97082 25.7053 0
      vertex 0 34 0
      vertex 10.8 25 0
    endloop
  endfacet
  facet normal 0 0 -1
    outer loop
      vertex 6.97082 25.7053 0
      vertex 10.8 25 0
      vertex 11.0292 24.2947 0
    endloop
  endfacet
  facet normal 0 0 -1
    outer loop
      vertex 6.97082 25.7053 0
      vertex 11.0292 24.2947 0
      vertex 11.6292 23.8587 0
    endloop
  endfacet
  facet normal 0 0 -1
    outer loop
      vertex 11.0292 25.7053 0
      vertex 0 34 0
      vertex 11.6292 26.1413 0
    endloop
  endfacet
  facet normal 0 0 -1
    outer loop
      vertex 12.9708 25.7053 0
      vertex 12.3708 26.1413 0
      vertex 18 25 0
    endloop
  endfacet
  facet normal 0 0 -1
    outer loop
      vertex 10.8 25 0
      vertex 0 34 0
      vertex 11.0292 25.7053 0
    endloop
  endfacet
  facet normal 0 0 -1
    outer loop
      vertex 24 5 0
      vertex 6.97082 25.7053 0
      vertex 11.6292 23.8587 0
    endloop
  endfacet
  facet normal 0 0 -1
    outer loop
      vertex 24 5 0
      vertex 11.6292 23.8587 0
      vertex 12.3708 23.8587 0
    endloop
  endfacet
  facet normal 0 0 -1
    outer loop
      vertex 24 5 0
      vertex 12.3708 23.8587 0
      vertex 12.9708 24.2947 0
    endloop
  endfacet
  facet normal 0 0 -1
    outer loop
      vertex 24 5 0
      vertex 12.9708 24.2947 0
      vertex 13.2 25 0
    endloop
  endfacet
  facet normal 0 0 -1
    outer loop
      vertex 24 5 0
      vertex 13.2 25 0
      vertex 12.9708 25.7053 0
    endloop
  endfacet
  facet normal 0 0 -1
    outer loop
      vertex 24 5 0
      vertex 12.9708 25.7053 0
      vertex 18 25 0
    endloop
  endfacet
  facet normal 0 0 -1
    outer loop
      vertex 24 5 0
      vertex 18 25 0
      vertex 24 25 0
    endloop
  endfacet
  facet normal 0 1 0
    outer loop
      vertex 0 34 0
      vertex 0 34 15
      vertex 18 34 0
    endloop
  endfacet
  facet normal 0 1 0
    outer loop
      vertex 18 34 12.99
      vertex 0 34 15
      vertex 44 34 15
    endloop
  endfacet
  facet normal 0 1 0
    outer loop
      vertex 18 34 0
      vertex 0 34 15
      vertex 18 34 12.99
    endloop
  endfacet
  facet normal 0 1 0
    outer loop
      vertex 18 34 12.99
      vertex 44 34 15
      vertex 44 34 12.99
    endloop
  endfacet
  facet normal 0 0 1
    outer loop
      vertex 1 2 15
      vertex 0 0 15
      vertex 50 0 15
    endloop
  endfacet
  facet normal 0 0 1
    outer loop
      vertex 15 31 15
      vertex 50 0 15
      vertex 44 25 15
    endloop
  endfacet
  facet normal 0 0 1
    outer loop
      vertex 15 31 15
      vertex 15 2 15
      vertex 50 0 15
    endloop
  endfacet
  facet normal 0 0 1
    outer loop
      vertex 50 25 15
      vertex 44 25 15
      vertex 50 0 15
    endloop
  endfacet
  facet normal 0 0 1
    outer loop
      vertex 15 2 15
      vertex 1 2 15
      vertex 50 0 15
    endloop
  endfacet
  facet normal 0 0 1
    outer loop
      vertex 0 34 15
      vertex 0 0 15
      vertex 1 2 15
    endloop
  endfacet
  facet normal 0 0 1
    outer loop
      vertex 0 34 15
      vertex 1 2 15
      vertex 1 31 15
    endloop
  endfacet
  facet normal 0 0 1
    outer loop
      vertex 1 31 15
      vertex 15 31 15
      vertex 0 34 15
    endloop
  endfacet
  facet normal 0 0 1
    outer loop
      vertex 15 31 15
      vertex 44 34 15
      vertex 0 34 15
    endloop
  endfacet
  facet normal 0 0 1
    outer loop
      vertex 44 25 15
      vertex 44 34 15
      vertex 15 31 15
    endloop
  endfacet
  facet normal 1 0 0
    outer loop
      vertex 50 0 15
      vertex 50 0 0
      vertex 50 5 0
    endloop
  endfacet
  facet normal 1 0 0
    outer loop
      vertex 50 13 12.99
      vertex 50 0 15
      vertex 50 5 12.99
    endloop
  endfacet
  facet normal 1 0 0
    outer loop
      vertex 50 5 12.99
      vertex 50 0 15
      vertex 50 5 0
    endloop
  endfacet
  facet normal 1 0 0
    outer loop
      vertex 50 25 15
      vertex 50 0 15
      vertex 50 13 12.99
    endloop
  endfacet
  facet normal 1 0 0
    outer loop
      vertex 50 25 8
      vertex 50 13 12.99
      vertex 50 13 8
    endloop
  endfacet
  facet normal 1 0 0
    outer loop
      vertex 50 25 15
      vertex 50 13 12.99
      vertex 50 25 8
    endloop
  endfacet
  facet normal 0.587785 -1.79638e-016 0.809017
    outer loop
      vertex 40.5365 0 5.07341
      vertex 40.5365 2.5 5.07342
      vertex 39.7865 2.5 5.61832
    endloop
  endfacet
  facet normal 0.587785 -1.79638e-016 0.809017
    outer loop
      vertex 39.7865 0 5.61832
      vertex 40.5365 0 5.07341
      vertex 39.7865 2.5 5.61832
    endloop
  endfacet
  facet normal 0.951056 -6.86157e-017 0.309017
    outer loop
      vertex 39.7865 0 5.61832
      vertex 39.7865 2.5 5.61832
      vertex 39.5 2.5 6.5
    endloop
  endfacet
  facet normal 0.951056 -6.86157e-017 0.309017
    outer loop
      vertex 39.5 0 6.5
      vertex 39.7865 0 5.61832
      vertex 39.5 2.5 6.5
    endloop
  endfacet
  facet normal 0 -2.22045e-016 1
    outer loop
      vertex 41.4635 0 5.07341
      vertex 41.4635 2.5 5.07342
      vertex 40.5365 2.5 5.07342
    endloop
  endfacet
  facet normal 0 -2.22045e-016 1
    outer loop
      vertex 40.5365 0 5.07341
      vertex 41.4635 0 5.07341
      vertex 40.5365 2.5 5.07342
    endloop
  endfacet
  facet normal -0.587785 -1.79638e-016 0.809017
    outer loop
      vertex 42.2135 0 5.61832
      vertex 42.2135 2.5 5.61832
      vertex 41.4635 2.5 5.07342
    endloop
  endfacet
  facet normal -0.587785 -1.79638e-016 0.809017
    outer loop
      vertex 41.4635 0 5.07341
      vertex 42.2135 0 5.61832
      vertex 41.4635 2.5 5.07342
    endloop
  endfacet
  facet normal -0.951056 -6.86157e-017 0.309017
    outer loop
      vertex 42.5 2.5 6.5
      vertex 42.2135 2.5 5.61832
      vertex 42.5 0 6.5
    endloop
  endfacet
  facet normal -0.951056 -6.86157e-017 0.309017
    outer loop
      vertex 42.5 0 6.5
      vertex 42.2135 2.5 5.61832
      vertex 42.2135 0 5.61832
    endloop
  endfacet
  facet normal -0.951056 6.86157e-017 -0.309017
    outer loop
      vertex 42.5 2.5 6.5
      vertex 42.5 0 6.5
      vertex 42.2135 2.5 7.38168
    endloop
  endfacet
  facet normal -0.951056 6.86157e-017 -0.309017
    outer loop
      vertex 42.2135 2.5 7.38168
      vertex 42.5 0 6.5
      vertex 42.2135 0 7.38168
    endloop
  endfacet
  facet normal -0.587785 1.79638e-016 -0.809017
    outer loop
      vertex 42.2135 2.5 7.38168
      vertex 42.2135 0 7.38168
      vertex 41.4635 2.5 7.92659
    endloop
  endfacet
  facet normal -0.587785 1.79638e-016 -0.809017
    outer loop
      vertex 41.4635 2.5 7.92659
      vertex 42.2135 0 7.38168
      vertex 41.4635 0 7.92659
    endloop
  endfacet
  facet normal 0 2.22045e-016 -1
    outer loop
      vertex 41.4635 2.5 7.92659
      vertex 41.4635 0 7.92659
      vertex 40.5365 2.5 7.92659
    endloop
  endfacet
  facet normal 0 2.22045e-016 -1
    outer loop
      vertex 40.5365 2.5 7.92659
      vertex 41.4635 0 7.92659
      vertex 40.5365 0 7.92659
    endloop
  endfacet
  facet normal 0.587785 1.79638e-016 -0.809017
    outer loop
      vertex 40.5365 2.5 7.92659
      vertex 40.5365 0 7.92659
      vertex 39.7865 2.5 7.38168
    endloop
  endfacet
  facet normal 0.587785 1.79638e-016 -0.809017
    outer loop
      vertex 39.7865 2.5 7.38168
      vertex 40.5365 0 7.92659
      vertex 39.7865 0 7.38168
    endloop
  endfacet
  facet normal 0.951056 6.86157e-017 -0.309017
    outer loop
      vertex 39.5 2.5 6.5
      vertex 39.7865 2.5 7.38168
      vertex 39.7865 0 7.38168
    endloop
  endfacet
  facet normal 0.951056 6.86157e-017 -0.309017
    outer loop
      vertex 39.5 0 6.5
      vertex 39.5 2.5 6.5
      vertex 39.7865 0 7.38168
    endloop
  endfacet
  facet normal 0 1 0
    outer loop
      vertex 40.1502 5 3.8846
      vertex 50 5 0
      vertex 24 5 0
    endloop
  endfacet
  facet normal 0 1 0
    outer loop
      vertex 43.2248 5 4.88359
      vertex 50 5 0
      vertex 41.8498 5 3.8846
    endloop
  endfacet
  facet normal 0 1 0
    outer loop
      vertex 24 5 12.99
      vertex 38.7752 5 4.88359
      vertex 24 5 0
    endloop
  endfacet
  facet normal 0 1 0
    outer loop
      vertex 38.7752 5 4.88359
      vertex 40.1502 5 3.8846
      vertex 24 5 0
    endloop
  endfacet
  facet normal 0 1 0
    outer loop
      vertex 41.8498 5 3.8846
      vertex 50 5 0
      vertex 40.1502 5 3.8846
    endloop
  endfacet
  facet normal 0 1 0
    outer loop
      vertex 50 5 12.99
      vertex 50 5 0
      vertex 43.2248 5 4.88359
    endloop
  endfacet
  facet normal 0 1 0
    outer loop
      vertex 50 5 12.99
      vertex 43.2248 5 4.88359
      vertex 43.75 5 6.5
    endloop
  endfacet
  facet normal 0 1 0
    outer loop
      vertex 50 5 12.99
      vertex 43.75 5 6.5
      vertex 43.2248 5 8.11641
    endloop
  endfacet
  facet normal 0 1 0
    outer loop
      vertex 50 5 12.99
      vertex 43.2248 5 8.11641
      vertex 41.8498 5 9.1154
    endloop
  endfacet
  facet normal 0 1 0
    outer loop
      vertex 50 5 12.99
      vertex 41.8498 5 9.1154
      vertex 24 5 12.99
    endloop
  endfacet
  facet normal 0 1 0
    outer loop
      vertex 41.8498 5 9.1154
      vertex 40.1502 5 9.1154
      vertex 24 5 12.99
    endloop
  endfacet
  facet normal 0 1 0
    outer loop
      vertex 38.25 5 6.5
      vertex 24 5 12.99
      vertex 38.7752 5 8.11641
    endloop
  endfacet
  facet normal 0 1 0
    outer loop
      vertex 38.7752 5 8.11641
      vertex 24 5 12.99
      vertex 40.1502 5 9.1154
    endloop
  endfacet
  facet normal 0 1 0
    outer loop
      vertex 38.7752 5 4.88359
      vertex 24 5 12.99
      vertex 38.25 5 6.5
    endloop
  endfacet
  facet normal 1 0 0
    outer loop
      vertex 24 25 0
      vertex 24 25 12.99
      vertex 24 5 12.99
    endloop
  endfacet
  facet normal 1 0 0
    outer loop
      vertex 24 5 0
      vertex 24 25 0
      vertex 24 5 12.99
    endloop
  endfacet
  facet normal 0 1 0
    outer loop
      vertex 20.191 25 5.91222
      vertex 24 25 0
      vertex 18 25 0
    endloop
  endfacet
  facet normal 0 1 0
    outer loop
      vertex 20.691 25 5.54894
      vertex 24 25 0
      vertex 20.191 25 5.91222
    endloop
  endfacet
  facet normal 0 1 0
    outer loop
      vertex 20 25 6.5
      vertex 20.191 25 5.91222
      vertex 18 25 0
    endloop
  endfacet
  facet normal 0 1 0
    outer loop
      vertex 21.309 25 5.54894
      vertex 24 25 0
      vertex 20.691 25 5.54894
    endloop
  endfacet
  facet normal 0 1 0
    outer loop
      vertex 22 25 6.5
      vertex 24 25 0
      vertex 21.809 25 5.91222
    endloop
  endfacet
  facet normal 0 1 0
    outer loop
      vertex 24 25 12.99
      vertex 24 25 0
      vertex 22 25 6.5
    endloop
  endfacet
  facet normal 0 1 0
    outer loop
      vertex 20.691 25 7.45106
      vertex 18 25 12.99
      vertex 21.309 25 7.45106
    endloop
  endfacet
  facet normal 0 1 0
    outer loop
      vertex 24 25 12.99
      vertex 21.809 25 7.08779
      vertex 18 25 12.99
    endloop
  endfacet
  facet normal 0 1 0
    outer loop
      vertex 21.809 25 7.08779
      vertex 21.309 25 7.45106
      vertex 18 25 12.99
    endloop
  endfacet
  facet normal 0 1 0
    outer loop
      vertex 21.809 25 7.08779
      vertex 24 25 12.99
      vertex 22 25 6.5
    endloop
  endfacet
  facet normal 0 1 0
    outer loop
      vertex 20.191 25 7.08779
      vertex 18 25 12.99
      vertex 20.691 25 7.45106
    endloop
  endfacet
  facet normal 0 1 0
    outer loop
      vertex 20 25 6.5
      vertex 18 25 12.99
      vertex 20.191 25 7.08779
    endloop
  endfacet
  facet normal 0 1 0
    outer loop
      vertex 18 25 12.99
      vertex 20 25 6.5
      vertex 18 25 0
    endloop
  endfacet
  facet normal 0 1 0
    outer loop
      vertex 21.809 25 5.91222
      vertex 24 25 0
      vertex 21.309 25 5.54894
    endloop
  endfacet
  facet normal 1 0 0
    outer loop
      vertex 18 34 0
      vertex 18 34 12.99
      vertex 18 25 12.99
    endloop
  endfacet
  facet normal 1 0 0
    outer loop
      vertex 18 25 0
      vertex 18 34 0
      vertex 18 25 12.99
    endloop
  endfacet
  facet normal 0.951056 0.309018 0
    outer loop
      vertex 4.8 9 3
      vertex 5.02918 8.29466 3
      vertex 5.02918 8.29466 0
    endloop
  endfacet
  facet normal 0.951056 0.309018 0
    outer loop
      vertex 4.8 9 0
      vertex 4.8 9 3
      vertex 5.02918 8.29466 0
    endloop
  endfacet
  facet normal 0.951056 -0.309018 0
    outer loop
      vertex 5.02918 9.70534 0
      vertex 5.02918 9.70534 3
      vertex 4.8 9 3
    endloop
  endfacet
  facet normal 0.951056 -0.309018 0
    outer loop
      vertex 4.8 9 0
      vertex 5.02918 9.70534 0
      vertex 4.8 9 3
    endloop
  endfacet
  facet normal 0.587786 -0.809017 0
    outer loop
      vertex 5.62918 10.1413 0
      vertex 5.62918 10.1413 3
      vertex 5.02918 9.70534 3
    endloop
  endfacet
  facet normal 0.587786 -0.809017 0
    outer loop
      vertex 5.02918 9.70534 0
      vertex 5.62918 10.1413 0
      vertex 5.02918 9.70534 3
    endloop
  endfacet
  facet normal 0 -1 0
    outer loop
      vertex 6.37082 10.1413 0
      vertex 6.37082 10.1413 3
      vertex 5.62918 10.1413 3
    endloop
  endfacet
  facet normal 0 -1 0
    outer loop
      vertex 5.62918 10.1413 0
      vertex 6.37082 10.1413 0
      vertex 5.62918 10.1413 3
    endloop
  endfacet
  facet normal -0.587786 -0.809017 0
    outer loop
      vertex 6.97082 9.70534 0
      vertex 6.97082 9.70534 3
      vertex 6.37082 10.1413 3
    endloop
  endfacet
  facet normal -0.587786 -0.809017 0
    outer loop
      vertex 6.37082 10.1413 0
      vertex 6.97082 9.70534 0
      vertex 6.37082 10.1413 3
    endloop
  endfacet
  facet normal -0.951056 -0.309018 0
    outer loop
      vertex 7.2 9 3
      vertex 6.97082 9.70534 3
      vertex 7.2 9 0
    endloop
  endfacet
  facet normal -0.951056 -0.309018 0
    outer loop
      vertex 7.2 9 0
      vertex 6.97082 9.70534 3
      vertex 6.97082 9.70534 0
    endloop
  endfacet
  facet normal -0.951056 0.309018 0
    outer loop
      vertex 7.2 9 3
      vertex 7.2 9 0
      vertex 6.97082 8.29466 3
    endloop
  endfacet
  facet normal -0.951056 0.309018 0
    outer loop
      vertex 6.97082 8.29466 3
      vertex 7.2 9 0
      vertex 6.97082 8.29466 0
    endloop
  endfacet
  facet normal -0.587786 0.809017 0
    outer loop
      vertex 6.97082 8.29466 3
      vertex 6.97082 8.29466 0
      vertex 6.37082 7.85873 3
    endloop
  endfacet
  facet normal -0.587786 0.809017 0
    outer loop
      vertex 6.37082 7.85873 3
      vertex 6.97082 8.29466 0
      vertex 6.37082 7.85873 0
    endloop
  endfacet
  facet normal 0 1 0
    outer loop
      vertex 6.37082 7.85873 3
      vertex 6.37082 7.85873 0
      vertex 5.62918 7.85873 3
    endloop
  endfacet
  facet normal 0 1 0
    outer loop
      vertex 5.62918 7.85873 3
      vertex 6.37082 7.85873 0
      vertex 5.62918 7.85873 0
    endloop
  endfacet
  facet normal 0.587786 0.809017 0
    outer loop
      vertex 5.62918 7.85873 3
      vertex 5.62918 7.85873 0
      vertex 5.02918 8.29466 3
    endloop
  endfacet
  facet normal 0.587786 0.809017 0
    outer loop
      vertex 5.02918 8.29466 3
      vertex 5.62918 7.85873 0
      vertex 5.02918 8.29466 0
    endloop
  endfacet
  facet normal 0.951056 0.309018 0
    outer loop
      vertex 4.8 17 3
      vertex 5.02918 16.2947 3
      vertex 5.02918 16.2947 0
    endloop
  endfacet
  facet normal 0.951056 0.309018 0
    outer loop
      vertex 4.8 17 0
      vertex 4.8 17 3
      vertex 5.02918 16.2947 0
    endloop
  endfacet
  facet normal 0.951056 -0.309018 0
    outer loop
      vertex 5.02918 17.7053 0
      vertex 5.02918 17.7053 3
      vertex 4.8 17 3
    endloop
  endfacet
  facet normal 0.951056 -0.309018 0
    outer loop
      vertex 4.8 17 0
      vertex 5.02918 17.7053 0
      vertex 4.8 17 3
    endloop
  endfacet
  facet normal 0.587786 -0.809017 0
    outer loop
      vertex 5.62918 18.1413 0
      vertex 5.62918 18.1413 3
      vertex 5.02918 17.7053 3
    endloop
  endfacet
  facet normal 0.587786 -0.809017 0
    outer loop
      vertex 5.02918 17.7053 0
      vertex 5.62918 18.1413 0
      vertex 5.02918 17.7053 3
    endloop
  endfacet
  facet normal 0 -1 0
    outer loop
      vertex 6.37082 18.1413 0
      vertex 6.37082 18.1413 3
      vertex 5.62918 18.1413 3
    endloop
  endfacet
  facet normal 0 -1 0
    outer loop
      vertex 5.62918 18.1413 0
      vertex 6.37082 18.1413 0
      vertex 5.62918 18.1413 3
    endloop
  endfacet
  facet normal -0.587786 -0.809017 0
    outer loop
      vertex 6.97082 17.7053 0
      vertex 6.97082 17.7053 3
      vertex 6.37082 18.1413 3
    endloop
  endfacet
  facet normal -0.587786 -0.809017 0
    outer loop
      vertex 6.37082 18.1413 0
      vertex 6.97082 17.7053 0
      vertex 6.37082 18.1413 3
    endloop
  endfacet
  facet normal -0.951056 -0.309018 0
    outer loop
      vertex 7.2 17 3
      vertex 6.97082 17.7053 3
      vertex 7.2 17 0
    endloop
  endfacet
  facet normal -0.951056 -0.309018 0
    outer loop
      vertex 7.2 17 0
      vertex 6.97082 17.7053 3
      vertex 6.97082 17.7053 0
    endloop
  endfacet
  facet normal -0.951056 0.309018 0
    outer loop
      vertex 7.2 17 3
      vertex 7.2 17 0
      vertex 6.97082 16.2947 3
    endloop
  endfacet
  facet normal -0.951056 0.309018 0
    outer loop
      vertex 6.97082 16.2947 3
      vertex 7.2 17 0
      vertex 6.97082 16.2947 0
    endloop
  endfacet
  facet normal -0.587786 0.809017 0
    outer loop
      vertex 6.97082 16.2947 3
      vertex 6.97082 16.2947 0
      vertex 6.37082 15.8587 3
    endloop
  endfacet
  facet normal -0.587786 0.809017 0
    outer loop
      vertex 6.37082 15.8587 3
      vertex 6.97082 16.2947 0
      vertex 6.37082 15.8587 0
    endloop
  endfacet
  facet normal 0 1 0
    outer loop
      vertex 6.37082 15.8587 3
      vertex 6.37082 15.8587 0
      vertex 5.62918 15.8587 3
    endloop
  endfacet
  facet normal 0 1 0
    outer loop
      vertex 5.62918 15.8587 3
      vertex 6.37082 15.8587 0
      vertex 5.62918 15.8587 0
    endloop
  endfacet
  facet normal 0.587786 0.809017 0
    outer loop
      vertex 5.62918 15.8587 3
      vertex 5.62918 15.8587 0
      vertex 5.02918 16.2947 3
    endloop
  endfacet
  facet normal 0.587786 0.809017 0
    outer loop
      vertex 5.02918 16.2947 3
      vertex 5.62918 15.8587 0
      vertex 5.02918 16.2947 0
    endloop
  endfacet
  facet normal 0.951056 -0.309018 0
    outer loop
      vertex 5.02918 25.7053 0
      vertex 5.02918 25.7053 3
      vertex 4.8 25 3
    endloop
  endfacet
  facet normal 0.951056 -0.309018 0
    outer loop
      vertex 4.8 25 0
      vertex 5.02918 25.7053 0
      vertex 4.8 25 3
    endloop
  endfacet
  facet normal 0.951056 0.309018 0
    outer loop
      vertex 4.8 25 3
      vertex 5.02918 24.2947 3
      vertex 5.02918 24.2947 0
    endloop
  endfacet
  facet normal 0.951056 0.309018 0
    outer loop
      vertex 4.8 25 0
      vertex 4.8 25 3
      vertex 5.02918 24.2947 0
    endloop
  endfacet
  facet normal 0.587786 -0.809017 0
    outer loop
      vertex 5.62918 26.1413 0
      vertex 5.62918 26.1413 3
      vertex 5.02918 25.7053 3
    endloop
  endfacet
  facet normal 0.587786 -0.809017 0
    outer loop
      vertex 5.02918 25.7053 0
      vertex 5.62918 26.1413 0
      vertex 5.02918 25.7053 3
    endloop
  endfacet
  facet normal 0 -1 0
    outer loop
      vertex 6.37082 26.1413 0
      vertex 6.37082 26.1413 3
      vertex 5.62918 26.1413 3
    endloop
  endfacet
  facet normal 0 -1 0
    outer loop
      vertex 5.62918 26.1413 0
      vertex 6.37082 26.1413 0
      vertex 5.62918 26.1413 3
    endloop
  endfacet
  facet normal -0.587786 -0.809017 0
    outer loop
      vertex 6.97082 25.7053 0
      vertex 6.97082 25.7053 3
      vertex 6.37082 26.1413 3
    endloop
  endfacet
  facet normal -0.587786 -0.809017 0
    outer loop
      vertex 6.37082 26.1413 0
      vertex 6.97082 25.7053 0
      vertex 6.37082 26.1413 3
    endloop
  endfacet
  facet normal -0.951056 -0.309018 0
    outer loop
      vertex 7.2 25 3
      vertex 6.97082 25.7053 3
      vertex 7.2 25 0
    endloop
  endfacet
  facet normal -0.951056 -0.309018 0
    outer loop
      vertex 7.2 25 0
      vertex 6.97082 25.7053 3
      vertex 6.97082 25.7053 0
    endloop
  endfacet
  facet normal -0.951056 0.309018 0
    outer loop
      vertex 7.2 25 3
      vertex 7.2 25 0
      vertex 6.97082 24.2947 3
    endloop
  endfacet
  facet normal -0.951056 0.309018 0
    outer loop
      vertex 6.97082 24.2947 3
      vertex 7.2 25 0
      vertex 6.97082 24.2947 0
    endloop
  endfacet
  facet normal -0.587786 0.809017 0
    outer loop
      vertex 6.97082 24.2947 3
      vertex 6.97082 24.2947 0
      vertex 6.37082 23.8587 3
    endloop
  endfacet
  facet normal -0.587786 0.809017 0
    outer loop
      vertex 6.37082 23.8587 3
      vertex 6.97082 24.2947 0
      vertex 6.37082 23.8587 0
    endloop
  endfacet
  facet normal 0 1 0
    outer loop
      vertex 6.37082 23.8587 3
      vertex 6.37082 23.8587 0
      vertex 5.62918 23.8587 3
    endloop
  endfacet
  facet normal 0 1 0
    outer loop
      vertex 5.62918 23.8587 3
      vertex 6.37082 23.8587 0
      vertex 5.62918 23.8587 0
    endloop
  endfacet
  facet normal 0.587786 0.809017 0
    outer loop
      vertex 5.62918 23.8587 3
      vertex 5.62918 23.8587 0
      vertex 5.02918 24.2947 3
    endloop
  endfacet
  facet normal 0.587786 0.809017 0
    outer loop
      vertex 5.02918 24.2947 3
      vertex 5.62918 23.8587 0
      vertex 5.02918 24.2947 0
    endloop
  endfacet
  facet normal 0.951056 0.309018 0
    outer loop
      vertex 10.8 9 3
      vertex 11.0292 8.29466 3
      vertex 11.0292 8.29466 0
    endloop
  endfacet
  facet normal 0.951056 0.309018 0
    outer loop
      vertex 10.8 9 0
      vertex 10.8 9 3
      vertex 11.0292 8.29466 0
    endloop
  endfacet
  facet normal 0.951056 -0.309018 0
    outer loop
      vertex 11.0292 9.70534 0
      vertex 11.0292 9.70534 3
      vertex 10.8 9 3
    endloop
  endfacet
  facet normal 0.951056 -0.309018 0
    outer loop
      vertex 10.8 9 0
      vertex 11.0292 9.70534 0
      vertex 10.8 9 3
    endloop
  endfacet
  facet normal 0.587786 -0.809017 0
    outer loop
      vertex 11.6292 10.1413 0
      vertex 11.6292 10.1413 3
      vertex 11.0292 9.70534 3
    endloop
  endfacet
  facet normal 0.587786 -0.809017 0
    outer loop
      vertex 11.0292 9.70534 0
      vertex 11.6292 10.1413 0
      vertex 11.0292 9.70534 3
    endloop
  endfacet
  facet normal 0 -1 0
    outer loop
      vertex 12.3708 10.1413 0
      vertex 12.3708 10.1413 3
      vertex 11.6292 10.1413 3
    endloop
  endfacet
  facet normal 0 -1 0
    outer loop
      vertex 11.6292 10.1413 0
      vertex 12.3708 10.1413 0
      vertex 11.6292 10.1413 3
    endloop
  endfacet
  facet normal -0.587786 -0.809017 0
    outer loop
      vertex 12.9708 9.70534 0
      vertex 12.9708 9.70534 3
      vertex 12.3708 10.1413 3
    endloop
  endfacet
  facet normal -0.587786 -0.809017 0
    outer loop
      vertex 12.3708 10.1413 0
      vertex 12.9708 9.70534 0
      vertex 12.3708 10.1413 3
    endloop
  endfacet
  facet normal -0.951056 -0.309018 0
    outer loop
      vertex 13.2 9 3
      vertex 12.9708 9.70534 3
      vertex 13.2 9 0
    endloop
  endfacet
  facet normal -0.951056 -0.309018 0
    outer loop
      vertex 13.2 9 0
      vertex 12.9708 9.70534 3
      vertex 12.9708 9.70534 0
    endloop
  endfacet
  facet normal -0.951056 0.309018 0
    outer loop
      vertex 13.2 9 3
      vertex 13.2 9 0
      vertex 12.9708 8.29466 3
    endloop
  endfacet
  facet normal -0.951056 0.309018 0
    outer loop
      vertex 12.9708 8.29466 3
      vertex 13.2 9 0
      vertex 12.9708 8.29466 0
    endloop
  endfacet
  facet normal -0.587786 0.809017 0
    outer loop
      vertex 12.9708 8.29466 3
      vertex 12.9708 8.29466 0
      vertex 12.3708 7.85873 3
    endloop
  endfacet
  facet normal -0.587786 0.809017 0
    outer loop
      vertex 12.3708 7.85873 3
      vertex 12.9708 8.29466 0
      vertex 12.3708 7.85873 0
    endloop
  endfacet
  facet normal 0 1 0
    outer loop
      vertex 12.3708 7.85873 3
      vertex 12.3708 7.85873 0
      vertex 11.6292 7.85873 3
    endloop
  endfacet
  facet normal 0 1 0
    outer loop
      vertex 11.6292 7.85873 3
      vertex 12.3708 7.85873 0
      vertex 11.6292 7.85873 0
    endloop
  endfacet
  facet normal 0.587786 0.809017 0
    outer loop
      vertex 11.6292 7.85873 3
      vertex 11.6292 7.85873 0
      vertex 11.0292 8.29466 3
    endloop
  endfacet
  facet normal 0.587786 0.809017 0
    outer loop
      vertex 11.0292 8.29466 3
      vertex 11.6292 7.85873 0
      vertex 11.0292 8.29466 0
    endloop
  endfacet
  facet normal 0.951056 -0.309018 0
    outer loop
      vertex 11.0292 17.7053 0
      vertex 11.0292 17.7053 3
      vertex 10.8 17 3
    endloop
  endfacet
  facet normal 0.951056 -0.309018 0
    outer loop
      vertex 10.8 17 0
      vertex 11.0292 17.7053 0
      vertex 10.8 17 3
    endloop
  endfacet
  facet normal 0.951056 0.309018 0
    outer loop
      vertex 10.8 17 3
      vertex 11.0292 16.2947 3
      vertex 11.0292 16.2947 0
    endloop
  endfacet
  facet normal 0.951056 0.309018 0
    outer loop
      vertex 10.8 17 0
      vertex 10.8 17 3
      vertex 11.0292 16.2947 0
    endloop
  endfacet
  facet normal 0.587786 -0.809017 0
    outer loop
      vertex 11.6292 18.1413 0
      vertex 11.6292 18.1413 3
      vertex 11.0292 17.7053 3
    endloop
  endfacet
  facet normal 0.587786 -0.809017 0
    outer loop
      vertex 11.0292 17.7053 0
      vertex 11.6292 18.1413 0
      vertex 11.0292 17.7053 3
    endloop
  endfacet
  facet normal 0 -1 0
    outer loop
      vertex 12.3708 18.1413 0
      vertex 12.3708 18.1413 3
      vertex 11.6292 18.1413 3
    endloop
  endfacet
  facet normal 0 -1 0
    outer loop
      vertex 11.6292 18.1413 0
      vertex 12.3708 18.1413 0
      vertex 11.6292 18.1413 3
    endloop
  endfacet
  facet normal -0.587786 -0.809017 0
    outer loop
      vertex 12.9708 17.7053 0
      vertex 12.9708 17.7053 3
      vertex 12.3708 18.1413 3
    endloop
  endfacet
  facet normal -0.587786 -0.809017 0
    outer loop
      vertex 12.3708 18.1413 0
      vertex 12.9708 17.7053 0
      vertex 12.3708 18.1413 3
    endloop
  endfacet
  facet normal -0.951056 -0.309018 0
    outer loop
      vertex 13.2 17 3
      vertex 12.9708 17.7053 3
      vertex 13.2 17 0
    endloop
  endfacet
  facet normal -0.951056 -0.309018 0
    outer loop
      vertex 13.2 17 0
      vertex 12.9708 17.7053 3
      vertex 12.9708 17.7053 0
    endloop
  endfacet
  facet normal -0.951056 0.309018 0
    outer loop
      vertex 13.2 17 3
      vertex 13.2 17 0
      vertex 12.9708 16.2947 3
    endloop
  endfacet
  facet normal -0.951056 0.309018 0
    outer loop
      vertex 12.9708 16.2947 3
      vertex 13.2 17 0
      vertex 12.9708 16.2947 0
    endloop
  endfacet
  facet normal -0.587786 0.809017 0
    outer loop
      vertex 12.9708 16.2947 3
      vertex 12.9708 16.2947 0
      vertex 12.3708 15.8587 3
    endloop
  endfacet
  facet normal -0.587786 0.809017 0
    outer loop
      vertex 12.3708 15.8587 3
      vertex 12.9708 16.2947 0
      vertex 12.3708 15.8587 0
    endloop
  endfacet
  facet normal 0 1 0
    outer loop
      vertex 12.3708 15.8587 3
      vertex 12.3708 15.8587 0
      vertex 11.6292 15.8587 3
    endloop
  endfacet
  facet normal 0 1 0
    outer loop
      vertex 11.6292 15.8587 3
      vertex 12.3708 15.8587 0
      vertex 11.6292 15.8587 0
    endloop
  endfacet
  facet normal 0.587786 0.809017 0
    outer loop
      vertex 11.6292 15.8587 3
      vertex 11.6292 15.8587 0
      vertex 11.0292 16.2947 3
    endloop
  endfacet
  facet normal 0.587786 0.809017 0
    outer loop
      vertex 11.0292 16.2947 3
      vertex 11.6292 15.8587 0
      vertex 11.0292 16.2947 0
    endloop
  endfacet
  facet normal 0.951056 -0.309018 0
    outer loop
      vertex 11.0292 25.7053 0
      vertex 11.0292 25.7053 3
      vertex 10.8 25 3
    endloop
  endfacet
  facet normal 0.951056 -0.309018 0
    outer loop
      vertex 10.8 25 0
      vertex 11.0292 25.7053 0
      vertex 10.8 25 3
    endloop
  endfacet
  facet normal 0.951056 0.309018 0
    outer loop
      vertex 10.8 25 3
      vertex 11.0292 24.2947 3
      vertex 11.0292 24.2947 0
    endloop
  endfacet
  facet normal 0.951056 0.309018 0
    outer loop
      vertex 10.8 25 0
      vertex 10.8 25 3
      vertex 11.0292 24.2947 0
    endloop
  endfacet
  facet normal 0.587786 -0.809017 0
    outer loop
      vertex 11.6292 26.1413 0
      vertex 11.6292 26.1413 3
      vertex 11.0292 25.7053 3
    endloop
  endfacet
  facet normal 0.587786 -0.809017 0
    outer loop
      vertex 11.0292 25.7053 0
      vertex 11.6292 26.1413 0
      vertex 11.0292 25.7053 3
    endloop
  endfacet
  facet normal 0 -1 0
    outer loop
      vertex 12.3708 26.1413 0
      vertex 12.3708 26.1413 3
      vertex 11.6292 26.1413 3
    endloop
  endfacet
  facet normal 0 -1 0
    outer loop
      vertex 11.6292 26.1413 0
      vertex 12.3708 26.1413 0
      vertex 11.6292 26.1413 3
    endloop
  endfacet
  facet normal -0.587786 -0.809017 0
    outer loop
      vertex 12.9708 25.7053 0
      vertex 12.9708 25.7053 3
      vertex 12.3708 26.1413 3
    endloop
  endfacet
  facet normal -0.587786 -0.809017 0
    outer loop
      vertex 12.3708 26.1413 0
      vertex 12.9708 25.7053 0
      vertex 12.3708 26.1413 3
    endloop
  endfacet
  facet normal -0.951056 -0.309018 0
    outer loop
      vertex 13.2 25 3
      vertex 12.9708 25.7053 3
      vertex 13.2 25 0
    endloop
  endfacet
  facet normal -0.951056 -0.309018 0
    outer loop
      vertex 13.2 25 0
      vertex 12.9708 25.7053 3
      vertex 12.9708 25.7053 0
    endloop
  endfacet
  facet normal -0.951056 0.309018 0
    outer loop
      vertex 13.2 25 3
      vertex 13.2 25 0
      vertex 12.9708 24.2947 3
    endloop
  endfacet
  facet normal -0.951056 0.309018 0
    outer loop
      vertex 12.9708 24.2947 3
      vertex 13.2 25 0
      vertex 12.9708 24.2947 0
    endloop
  endfacet
  facet normal -0.587786 0.809017 0
    outer loop
      vertex 12.9708 24.2947 3
      vertex 12.9708 24.2947 0
      vertex 12.3708 23.8587 3
    endloop
  endfacet
  facet normal -0.587786 0.809017 0
    outer loop
      vertex 12.3708 23.8587 3
      vertex 12.9708 24.2947 0
      vertex 12.3708 23.8587 0
    endloop
  endfacet
  facet normal 0 1 0
    outer loop
      vertex 12.3708 23.8587 3
      vertex 12.3708 23.8587 0
      vertex 11.6292 23.8587 3
    endloop
  endfacet
  facet normal 0 1 0
    outer loop
      vertex 11.6292 23.8587 3
      vertex 12.3708 23.8587 0
      vertex 11.6292 23.8587 0
    endloop
  endfacet
  facet normal 0.587786 0.809017 0
    outer loop
      vertex 11.6292 23.8587 3
      vertex 11.6292 23.8587 0
      vertex 11.0292 24.2947 3
    endloop
  endfacet
  facet normal 0.587786 0.809017 0
    outer loop
      vertex 11.0292 24.2947 3
      vertex 11.6292 23.8587 0
      vertex 11.0292 24.2947 0
    endloop
  endfacet
  facet normal 0 0 -1
    outer loop
      vertex 44 34 12.99
      vertex 44 25 12.99
      vertex 18 34 12.99
    endloop
  endfacet
  facet normal 0 0 -1
    outer loop
      vertex 47 13 12.99
      vertex 44 25 12.99
      vertex 47 25 12.99
    endloop
  endfacet
  facet normal 0 0 -1
    outer loop
      vertex 18 34 12.99
      vertex 44 25 12.99
      vertex 47 13 12.99
    endloop
  endfacet
  facet normal 0 0 -1
    outer loop
      vertex 50 5 12.99
      vertex 47 13 12.99
      vertex 50 13 12.99
    endloop
  endfacet
  facet normal 0 0 -1
    outer loop
      vertex 18 34 12.99
      vertex 47 13 12.99
      vertex 50 5 12.99
    endloop
  endfacet
  facet normal 0 0 -1
    outer loop
      vertex 24 25 12.99
      vertex 50 5 12.99
      vertex 24 5 12.99
    endloop
  endfacet
  facet normal 0 0 -1
    outer loop
      vertex 18 34 12.99
      vertex 50 5 12.99
      vertex 24 25 12.99
    endloop
  endfacet
  facet normal 0 0 -1
    outer loop
      vertex 18 25 12.99
      vertex 18 34 12.99
      vertex 24 25 12.99
    endloop
  endfacet
  facet normal 1 0 0
    outer loop
      vertex 44 34 12.99
      vertex 44 34 15
      vertex 44 25 15
    endloop
  endfacet
  facet normal 1 0 0
    outer loop
      vertex 44 25 12.99
      vertex 44 34 12.99
      vertex 44 25 15
    endloop
  endfacet
  facet normal 0 1 0
    outer loop
      vertex 44 25 12.99
      vertex 44 25 15
      vertex 47 25 12.99
    endloop
  endfacet
  facet normal 0 1 0
    outer loop
      vertex 50 25 15
      vertex 50 25 8
      vertex 47 25 12.99
    endloop
  endfacet
  facet normal 0 1 0
    outer loop
      vertex 50 25 15
      vertex 47 25 12.99
      vertex 44 25 15
    endloop
  endfacet
  facet normal 0 1 0
    outer loop
      vertex 47 25 12.99
      vertex 50 25 8
      vertex 47 25 8
    endloop
  endfacet
  facet normal 1 0 0
    outer loop
      vertex 1 31 3
      vertex 1 31 15
      vertex 1 2 15
    endloop
  endfacet
  facet normal 1 0 0
    outer loop
      vertex 1 2 3
      vertex 1 31 3
      vertex 1 2 15
    endloop
  endfacet
  facet normal 0 1 0
    outer loop
      vertex 15 2 15
      vertex 15 2 3
      vertex 1 2 15
    endloop
  endfacet
  facet normal 0 1 0
    outer loop
      vertex 1 2 15
      vertex 15 2 3
      vertex 1 2 3
    endloop
  endfacet
  facet normal -1 0 0
    outer loop
      vertex 15 31 15
      vertex 15 31 3
      vertex 15 2 15
    endloop
  endfacet
  facet normal -1 0 0
    outer loop
      vertex 15 2 15
      vertex 15 31 3
      vertex 15 2 3
    endloop
  endfacet
  facet normal 0 -1 0
    outer loop
      vertex 15 31 3
      vertex 15 31 15
      vertex 1 31 15
    endloop
  endfacet
  facet normal 0 -1 0
    outer loop
      vertex 1 31 3
      vertex 15 31 3
      vertex 1 31 15
    endloop
  endfacet
  facet normal 0 0 -1
    outer loop
      vertex 50 25 8
      vertex 50 13 8
      vertex 47 25 8
    endloop
  endfacet
  facet normal 0 0 -1
    outer loop
      vertex 47 25 8
      vertex 50 13 8
      vertex 47 13 8
    endloop
  endfacet
  facet normal 0 -1 0
    outer loop
      vertex 50 13 8
      vertex 50 13 12.99
      vertex 47 13 12.99
    endloop
  endfacet
  facet normal 0 -1 0
    outer loop
      vertex 47 13 8
      vertex 50 13 8
      vertex 47 13 12.99
    endloop
  endfacet
  facet normal 0 1 2.22045e-016
    outer loop
      vertex 40.1502 2.5 9.1154
      vertex 41.8498 2.5 9.1154
      vertex 38.7752 2.5 8.11641
    endloop
  endfacet
  facet normal 0 1 2.22045e-016
    outer loop
      vertex 38.7752 2.5 8.11641
      vertex 41.8498 2.5 9.1154
      vertex 43.2248 2.5 8.11641
    endloop
  endfacet
  facet normal 0 1 2.22045e-016
    outer loop
      vertex 42.2135 2.5 7.38168
      vertex 43.2248 2.5 8.11641
      vertex 43.75 2.5 6.5
    endloop
  endfacet
  facet normal 0 1 2.22045e-016
    outer loop
      vertex 42.5 2.5 6.5
      vertex 43.75 2.5 6.5
      vertex 43.2248 2.5 4.88359
    endloop
  endfacet
  facet normal 0 1 2.22045e-016
    outer loop
      vertex 41.4635 2.5 5.07342
      vertex 43.2248 2.5 4.88359
      vertex 41.8498 2.5 3.8846
    endloop
  endfacet
  facet normal 0 1 2.22045e-016
    outer loop
      vertex 39.7865 2.5 5.61832
      vertex 41.8498 2.5 3.8846
      vertex 40.1502 2.5 3.8846
    endloop
  endfacet
  facet normal 0 1 2.22045e-016
    outer loop
      vertex 38.7752 2.5 8.11641
      vertex 40.1502 2.5 3.8846
      vertex 38.7752 2.5 4.88359
    endloop
  endfacet
  facet normal 0 1 2.22045e-016
    outer loop
      vertex 38.7752 2.5 8.11641
      vertex 38.7752 2.5 4.88359
      vertex 38.25 2.5 6.5
    endloop
  endfacet
  facet normal 0 1 2.22045e-016
    outer loop
      vertex 41.4635 2.5 5.07342
      vertex 41.8498 2.5 3.8846
      vertex 40.5365 2.5 5.07342
    endloop
  endfacet
  facet normal 0 1 2.22045e-016
    outer loop
      vertex 38.7752 2.5 8.11641
      vertex 39.5 2.5 6.5
      vertex 40.1502 2.5 3.8846
    endloop
  endfacet
  facet normal 0 1 2.22045e-016
    outer loop
      vertex 40.5365 2.5 5.07342
      vertex 41.8498 2.5 3.8846
      vertex 39.7865 2.5 5.61832
    endloop
  endfacet
  facet normal 0 1 2.22045e-016
    outer loop
      vertex 39.5 2.5 6.5
      vertex 39.7865 2.5 5.61832
      vertex 40.1502 2.5 3.8846
    endloop
  endfacet
  facet normal 0 1 2.22045e-016
    outer loop
      vertex 42.2135 2.5 5.61832
      vertex 43.2248 2.5 4.88359
      vertex 41.4635 2.5 5.07342
    endloop
  endfacet
  facet normal 0 1 2.22045e-016
    outer loop
      vertex 42.2135 2.5 7.38168
      vertex 43.75 2.5 6.5
      vertex 42.5 2.5 6.5
    endloop
  endfacet
  facet normal 0 1 2.22045e-016
    outer loop
      vertex 41.4635 2.5 7.92659
      vertex 43.2248 2.5 8.11641
      vertex 42.2135 2.5 7.38168
    endloop
  endfacet
  facet normal 0 1 2.22045e-016
    outer loop
      vertex 39.7865 2.5 7.38168
      vertex 38.7752 2.5 8.11641
      vertex 40.5365 2.5 7.92659
    endloop
  endfacet
  facet normal 0 1 2.22045e-016
    outer loop
      vertex 38.7752 2.5 8.11641
      vertex 43.2248 2.5 8.11641
      vertex 41.4635 2.5 7.92659
    endloop
  endfacet
  facet normal 0 1 2.22045e-016
    outer loop
      vertex 38.7752 2.5 8.11641
      vertex 41.4635 2.5 7.92659
      vertex 40.5365 2.5 7.92659
    endloop
  endfacet
  facet normal 0 1 2.22045e-016
    outer loop
      vertex 39.5 2.5 6.5
      vertex 38.7752 2.5 8.11641
      vertex 39.7865 2.5 7.38168
    endloop
  endfacet
  facet normal 0 1 2.22045e-016
    outer loop
      vertex 42.5 2.5 6.5
      vertex 43.2248 2.5 4.88359
      vertex 42.2135 2.5 5.61832
    endloop
  endfacet
  facet normal 0.587785 -1.79638e-016 0.809017
    outer loop
      vertex 40.1502 2.5 3.8846
      vertex 40.1502 5 3.8846
      vertex 38.7752 5 4.88359
    endloop
  endfacet
  facet normal 0.587785 -1.79638e-016 0.809017
    outer loop
      vertex 38.7752 2.5 4.88359
      vertex 40.1502 2.5 3.8846
      vertex 38.7752 5 4.88359
    endloop
  endfacet
  facet normal 0.951057 -6.86155e-017 0.309017
    outer loop
      vertex 38.7752 2.5 4.88359
      vertex 38.7752 5 4.88359
      vertex 38.25 5 6.5
    endloop
  endfacet
  facet normal 0.951057 -6.86155e-017 0.309017
    outer loop
      vertex 38.25 2.5 6.5
      vertex 38.7752 2.5 4.88359
      vertex 38.25 5 6.5
    endloop
  endfacet
  facet normal 0.951057 6.86155e-017 -0.309017
    outer loop
      vertex 38.25 5 6.5
      vertex 38.7752 5 8.11641
      vertex 38.7752 2.5 8.11641
    endloop
  endfacet
  facet normal 0.951057 6.86155e-017 -0.309017
    outer loop
      vertex 38.25 2.5 6.5
      vertex 38.25 5 6.5
      vertex 38.7752 2.5 8.11641
    endloop
  endfacet
  facet normal 0.587785 1.79638e-016 -0.809017
    outer loop
      vertex 40.1502 5 9.1154
      vertex 40.1502 2.5 9.1154
      vertex 38.7752 5 8.11641
    endloop
  endfacet
  facet normal 0.587785 1.79638e-016 -0.809017
    outer loop
      vertex 38.7752 5 8.11641
      vertex 40.1502 2.5 9.1154
      vertex 38.7752 2.5 8.11641
    endloop
  endfacet
  facet normal 0 2.22045e-016 -1
    outer loop
      vertex 41.8498 5 9.1154
      vertex 41.8498 2.5 9.1154
      vertex 40.1502 5 9.1154
    endloop
  endfacet
  facet normal 0 2.22045e-016 -1
    outer loop
      vertex 40.1502 5 9.1154
      vertex 41.8498 2.5 9.1154
      vertex 40.1502 2.5 9.1154
    endloop
  endfacet
  facet normal -0.587785 1.79638e-016 -0.809017
    outer loop
      vertex 43.2248 5 8.11641
      vertex 43.2248 2.5 8.11641
      vertex 41.8498 5 9.1154
    endloop
  endfacet
  facet normal -0.587785 1.79638e-016 -0.809017
    outer loop
      vertex 41.8498 5 9.1154
      vertex 43.2248 2.5 8.11641
      vertex 41.8498 2.5 9.1154
    endloop
  endfacet
  facet normal -0.951057 6.86155e-017 -0.309017
    outer loop
      vertex 43.75 5 6.5
      vertex 43.75 2.5 6.5
      vertex 43.2248 5 8.11641
    endloop
  endfacet
  facet normal -0.951057 6.86155e-017 -0.309017
    outer loop
      vertex 43.2248 5 8.11641
      vertex 43.75 2.5 6.5
      vertex 43.2248 2.5 8.11641
    endloop
  endfacet
  facet normal -0.951057 -6.86155e-017 0.309017
    outer loop
      vertex 43.75 5 6.5
      vertex 43.2248 5 4.88359
      vertex 43.75 2.5 6.5
    endloop
  endfacet
  facet normal -0.951057 -6.86155e-017 0.309017
    outer loop
      vertex 43.75 2.5 6.5
      vertex 43.2248 5 4.88359
      vertex 43.2248 2.5 4.88359
    endloop
  endfacet
  facet normal -0.587785 -1.79638e-016 0.809017
    outer loop
      vertex 43.2248 2.5 4.88359
      vertex 43.2248 5 4.88359
      vertex 41.8498 5 3.8846
    endloop
  endfacet
  facet normal -0.587785 -1.79638e-016 0.809017
    outer loop
      vertex 41.8498 2.5 3.8846
      vertex 43.2248 2.5 4.88359
      vertex 41.8498 5 3.8846
    endloop
  endfacet
  facet normal 0 -2.22045e-016 1
    outer loop
      vertex 41.8498 2.5 3.8846
      vertex 41.8498 5 3.8846
      vertex 40.1502 5 3.8846
    endloop
  endfacet
  facet normal 0 -2.22045e-016 1
    outer loop
      vertex 40.1502 2.5 3.8846
      vertex 41.8498 2.5 3.8846
      vertex 40.1502 5 3.8846
    endloop
  endfacet
  facet normal 0.587786 -1.79638e-016 0.809016
    outer loop
      vertex 20.691 17 5.54894
      vertex 20.691 25 5.54894
      vertex 20.191 25 5.91222
    endloop
  endfacet
  facet normal 0.587786 -1.79638e-016 0.809016
    outer loop
      vertex 20.191 17 5.91221
      vertex 20.691 17 5.54894
      vertex 20.191 25 5.91222
    endloop
  endfacet
  facet normal 0.951056 -6.86156e-017 0.309017
    outer loop
      vertex 20.191 17 5.91221
      vertex 20.191 25 5.91222
      vertex 20 25 6.5
    endloop
  endfacet
  facet normal 0.951056 -6.86156e-017 0.309017
    outer loop
      vertex 20 17 6.5
      vertex 20.191 17 5.91221
      vertex 20 25 6.5
    endloop
  endfacet
  facet normal 0.951056 6.86156e-017 -0.309017
    outer loop
      vertex 20 25 6.5
      vertex 20.191 25 7.08779
      vertex 20.191 17 7.08778
    endloop
  endfacet
  facet normal 0.951056 6.86156e-017 -0.309017
    outer loop
      vertex 20 17 6.5
      vertex 20 25 6.5
      vertex 20.191 17 7.08778
    endloop
  endfacet
  facet normal 0.587786 1.79638e-016 -0.809016
    outer loop
      vertex 20.691 25 7.45106
      vertex 20.691 17 7.45106
      vertex 20.191 25 7.08779
    endloop
  endfacet
  facet normal 0.587786 1.79638e-016 -0.809016
    outer loop
      vertex 20.191 25 7.08779
      vertex 20.691 17 7.45106
      vertex 20.191 17 7.08778
    endloop
  endfacet
  facet normal 0 2.22045e-016 -1
    outer loop
      vertex 21.309 25 7.45106
      vertex 21.309 17 7.45106
      vertex 20.691 25 7.45106
    endloop
  endfacet
  facet normal 0 2.22045e-016 -1
    outer loop
      vertex 20.691 25 7.45106
      vertex 21.309 17 7.45106
      vertex 20.691 17 7.45106
    endloop
  endfacet
  facet normal -0.587786 1.79638e-016 -0.809016
    outer loop
      vertex 21.809 25 7.08779
      vertex 21.809 17 7.08778
      vertex 21.309 25 7.45106
    endloop
  endfacet
  facet normal -0.587786 1.79638e-016 -0.809016
    outer loop
      vertex 21.309 25 7.45106
      vertex 21.809 17 7.08778
      vertex 21.309 17 7.45106
    endloop
  endfacet
  facet normal -0.951056 6.86156e-017 -0.309017
    outer loop
      vertex 22 25 6.5
      vertex 22 17 6.5
      vertex 21.809 25 7.08779
    endloop
  endfacet
  facet normal -0.951056 6.86156e-017 -0.309017
    outer loop
      vertex 21.809 25 7.08779
      vertex 22 17 6.5
      vertex 21.809 17 7.08778
    endloop
  endfacet
  facet normal -0.951056 -6.86156e-017 0.309017
    outer loop
      vertex 22 25 6.5
      vertex 21.809 25 5.91222
      vertex 22 17 6.5
    endloop
  endfacet
  facet normal -0.951056 -6.86156e-017 0.309017
    outer loop
      vertex 22 17 6.5
      vertex 21.809 25 5.91222
      vertex 21.809 17 5.91221
    endloop
  endfacet
  facet normal -0.587786 -1.79638e-016 0.809016
    outer loop
      vertex 21.809 17 5.91221
      vertex 21.809 25 5.91222
      vertex 21.309 25 5.54894
    endloop
  endfacet
  facet normal -0.587786 -1.79638e-016 0.809016
    outer loop
      vertex 21.309 17 5.54894
      vertex 21.809 17 5.91221
      vertex 21.309 25 5.54894
    endloop
  endfacet
  facet normal 0 -2.22045e-016 1
    outer loop
      vertex 21.309 17 5.54894
      vertex 21.309 25 5.54894
      vertex 20.691 25 5.54894
    endloop
  endfacet
  facet normal 0 -2.22045e-016 1
    outer loop
      vertex 20.691 17 5.54894
      vertex 21.309 17 5.54894
      vertex 20.691 25 5.54894
    endloop
  endfacet
  facet normal 0 0 1
    outer loop
      vertex 5.62918 26.1413 3
      vertex 15 31 3
      vertex 1 31 3
    endloop
  endfacet
  facet normal 0 0 1
    outer loop
      vertex 1 2 3
      vertex 4.8 9 3
      vertex 1 31 3
    endloop
  endfacet
  facet normal 0 0 1
    outer loop
      vertex 4.8 9 3
      vertex 5.02918 9.70534 3
      vertex 1 31 3
    endloop
  endfacet
  facet normal 0 0 1
    outer loop
      vertex 5.02918 9.70534 3
      vertex 5.62918 10.1413 3
      vertex 1 31 3
    endloop
  endfacet
  facet normal 0 0 1
    outer loop
      vertex 5.62918 10.1413 3
      vertex 6.37082 10.1413 3
      vertex 1 31 3
    endloop
  endfacet
  facet normal 0 0 1
    outer loop
      vertex 11.6292 7.85873 3
      vertex 11.0292 8.29466 3
      vertex 15 2 3
    endloop
  endfacet
  facet normal 0 0 1
    outer loop
      vertex 7.2 9 3
      vertex 6.97082 8.29466 3
      vertex 15 2 3
    endloop
  endfacet
  facet normal 0 0 1
    outer loop
      vertex 4.8 17 3
      vertex 5.02918 17.7053 3
      vertex 1 31 3
    endloop
  endfacet
  facet normal 0 0 1
    outer loop
      vertex 1 2 3
      vertex 15 2 3
      vertex 6.37082 7.85873 3
    endloop
  endfacet
  facet normal 0 0 1
    outer loop
      vertex 1 2 3
      vertex 6.37082 7.85873 3
      vertex 5.62918 7.85873 3
    endloop
  endfacet
  facet normal 0 0 1
    outer loop
      vertex 1 2 3
      vertex 5.02918 8.29466 3
      vertex 4.8 9 3
    endloop
  endfacet
  facet normal 0 0 1
    outer loop
      vertex 1 2 3
      vertex 5.62918 7.85873 3
      vertex 5.02918 8.29466 3
    endloop
  endfacet
  facet normal 0 0 1
    outer loop
      vertex 6.37082 10.1413 3
      vertex 4.8 17 3
      vertex 1 31 3
    endloop
  endfacet
  facet normal 0 0 1
    outer loop
      vertex 6.37082 10.1413 3
      vertex 6.97082 9.70534 3
      vertex 4.8 17 3
    endloop
  endfacet
  facet normal 0 0 1
    outer loop
      vertex 5.02918 17.7053 3
      vertex 5.62918 18.1413 3
      vertex 1 31 3
    endloop
  endfacet
  facet normal 0 0 1
    outer loop
      vertex 11.0292 8.29466 3
      vertex 5.62918 15.8587 3
      vertex 15 2 3
    endloop
  endfacet
  facet normal 0 0 1
    outer loop
      vertex 5.62918 18.1413 3
      vertex 6.37082 18.1413 3
      vertex 1 31 3
    endloop
  endfacet
  facet normal 0 0 1
    outer loop
      vertex 6.37082 18.1413 3
      vertex 6.97082 17.7053 3
      vertex 1 31 3
    endloop
  endfacet
  facet normal 0 0 1
    outer loop
      vertex 12.9708 16.2947 3
      vertex 12.3708 15.8587 3
      vertex 12.3708 10.1413 3
    endloop
  endfacet
  facet normal 0 0 1
    outer loop
      vertex 5.62918 26.1413 3
      vertex 6.37082 26.1413 3
      vertex 15 31 3
    endloop
  endfacet
  facet normal 0 0 1
    outer loop
      vertex 6.97082 9.70534 3
      vertex 15 2 3
      vertex 5.62918 15.8587 3
    endloop
  endfacet
  facet normal 0 0 1
    outer loop
      vertex 11.0292 9.70534 3
      vertex 1 31 3
      vertex 6.97082 17.7053 3
    endloop
  endfacet
  facet normal 0 0 1
    outer loop
      vertex 4.8 17 3
      vertex 6.97082 9.70534 3
      vertex 5.02918 16.2947 3
    endloop
  endfacet
  facet normal 0 0 1
    outer loop
      vertex 5.02918 24.2947 3
      vertex 4.8 25 3
      vertex 1 31 3
    endloop
  endfacet
  facet normal 0 0 1
    outer loop
      vertex 4.8 25 3
      vertex 5.02918 25.7053 3
      vertex 1 31 3
    endloop
  endfacet
  facet normal 0 0 1
    outer loop
      vertex 5.02918 25.7053 3
      vertex 5.62918 26.1413 3
      vertex 1 31 3
    endloop
  endfacet
  facet normal 0 0 1
    outer loop
      vertex 6.37082 26.1413 3
      vertex 6.97082 25.7053 3
      vertex 15 31 3
    endloop
  endfacet
  facet normal 0 0 1
    outer loop
      vertex 11.6292 10.1413 3
      vertex 6.97082 24.2947 3
      vertex 6.37082 23.8587 3
    endloop
  endfacet
  facet normal 0 0 1
    outer loop
      vertex 11.0292 25.7053 3
      vertex 15 31 3
      vertex 6.97082 25.7053 3
    endloop
  endfacet
  facet normal 0 0 1
    outer loop
      vertex 13.2 9 3
      vertex 12.9708 8.29466 3
      vertex 15 2 3
    endloop
  endfacet
  facet normal 0 0 1
    outer loop
      vertex 12.9708 8.29466 3
      vertex 12.3708 7.85873 3
      vertex 15 2 3
    endloop
  endfacet
  facet normal 0 0 1
    outer loop
      vertex 11.0292 8.29466 3
      vertex 10.8 9 3
      vertex 6.37082 15.8587 3
    endloop
  endfacet
  facet normal 0 0 1
    outer loop
      vertex 11.6292 10.1413 3
      vertex 6.37082 23.8587 3
      vertex 5.62918 23.8587 3
    endloop
  endfacet
  facet normal 0 0 1
    outer loop
      vertex 7.2 25 3
      vertex 12.3708 10.1413 3
      vertex 6.97082 25.7053 3
    endloop
  endfacet
  facet normal 0 0 1
    outer loop
      vertex 7.2 17 3
      vertex 11.0292 9.70534 3
      vertex 6.97082 17.7053 3
    endloop
  endfacet
  facet normal 0 0 1
    outer loop
      vertex 12.3708 7.85873 3
      vertex 11.6292 7.85873 3
      vertex 15 2 3
    endloop
  endfacet
  facet normal 0 0 1
    outer loop
      vertex 12.9708 9.70534 3
      vertex 15 31 3
      vertex 12.3708 10.1413 3
    endloop
  endfacet
  facet normal 0 0 1
    outer loop
      vertex 13.2 9 3
      vertex 15 31 3
      vertex 12.9708 9.70534 3
    endloop
  endfacet
  facet normal 0 0 1
    outer loop
      vertex 15 2 3
      vertex 15 31 3
      vertex 13.2 9 3
    endloop
  endfacet
  facet normal 0 0 1
    outer loop
      vertex 11.6292 10.1413 3
      vertex 12.3708 10.1413 3
      vertex 7.2 25 3
    endloop
  endfacet
  facet normal 0 0 1
    outer loop
      vertex 11.6292 10.1413 3
      vertex 7.2 25 3
      vertex 6.97082 24.2947 3
    endloop
  endfacet
  facet normal 0 0 1
    outer loop
      vertex 10.8 9 3
      vertex 11.0292 9.70534 3
      vertex 7.2 17 3
    endloop
  endfacet
  facet normal 0 0 1
    outer loop
      vertex 6.37082 15.8587 3
      vertex 5.62918 15.8587 3
      vertex 11.0292 8.29466 3
    endloop
  endfacet
  facet normal 0 0 1
    outer loop
      vertex 10.8 9 3
      vertex 7.2 17 3
      vertex 6.97082 16.2947 3
    endloop
  endfacet
  facet normal 0 0 1
    outer loop
      vertex 5.62918 15.8587 3
      vertex 5.02918 16.2947 3
      vertex 6.97082 9.70534 3
    endloop
  endfacet
  facet normal 0 0 1
    outer loop
      vertex 12.3708 10.1413 3
      vertex 10.8 17 3
      vertex 6.97082 25.7053 3
    endloop
  endfacet
  facet normal 0 0 1
    outer loop
      vertex 11.0292 17.7053 3
      vertex 15 31 3
      vertex 10.8 17 3
    endloop
  endfacet
  facet normal 0 0 1
    outer loop
      vertex 11.6292 18.1413 3
      vertex 15 31 3
      vertex 11.0292 17.7053 3
    endloop
  endfacet
  facet normal 0 0 1
    outer loop
      vertex 12.3708 18.1413 3
      vertex 15 31 3
      vertex 11.6292 18.1413 3
    endloop
  endfacet
  facet normal 0 0 1
    outer loop
      vertex 12.9708 17.7053 3
      vertex 15 31 3
      vertex 12.3708 18.1413 3
    endloop
  endfacet
  facet normal 0 0 1
    outer loop
      vertex 13.2 17 3
      vertex 15 31 3
      vertex 12.9708 17.7053 3
    endloop
  endfacet
  facet normal 0 0 1
    outer loop
      vertex 12.3708 10.1413 3
      vertex 15 31 3
      vertex 13.2 17 3
    endloop
  endfacet
  facet normal 0 0 1
    outer loop
      vertex 12.3708 15.8587 3
      vertex 11.6292 15.8587 3
      vertex 12.3708 10.1413 3
    endloop
  endfacet
  facet normal 0 0 1
    outer loop
      vertex 12.3708 10.1413 3
      vertex 13.2 17 3
      vertex 12.9708 16.2947 3
    endloop
  endfacet
  facet normal 0 0 1
    outer loop
      vertex 11.6292 15.8587 3
      vertex 11.0292 16.2947 3
      vertex 12.3708 10.1413 3
    endloop
  endfacet
  facet normal 0 0 1
    outer loop
      vertex 11.0292 25.7053 3
      vertex 11.6292 26.1413 3
      vertex 15 31 3
    endloop
  endfacet
  facet normal 0 0 1
    outer loop
      vertex 12.3708 10.1413 3
      vertex 11.0292 16.2947 3
      vertex 10.8 17 3
    endloop
  endfacet
  facet normal 0 0 1
    outer loop
      vertex 10.8 17 3
      vertex 10.8 25 3
      vertex 6.97082 25.7053 3
    endloop
  endfacet
  facet normal 0 0 1
    outer loop
      vertex 10.8 25 3
      vertex 11.0292 25.7053 3
      vertex 6.97082 25.7053 3
    endloop
  endfacet
  facet normal 0 0 1
    outer loop
      vertex 12.9708 24.2947 3
      vertex 12.3708 23.8587 3
      vertex 10.8 17 3
    endloop
  endfacet
  facet normal 0 0 1
    outer loop
      vertex 12.3708 26.1413 3
      vertex 15 31 3
      vertex 11.6292 26.1413 3
    endloop
  endfacet
  facet normal 0 0 1
    outer loop
      vertex 12.9708 25.7053 3
      vertex 15 31 3
      vertex 12.3708 26.1413 3
    endloop
  endfacet
  facet normal 0 0 1
    outer loop
      vertex 13.2 25 3
      vertex 15 31 3
      vertex 12.9708 25.7053 3
    endloop
  endfacet
  facet normal 0 0 1
    outer loop
      vertex 10.8 17 3
      vertex 15 31 3
      vertex 13.2 25 3
    endloop
  endfacet
  facet normal 0 0 1
    outer loop
      vertex 12.3708 23.8587 3
      vertex 11.6292 23.8587 3
      vertex 10.8 17 3
    endloop
  endfacet
  facet normal 0 0 1
    outer loop
      vertex 10.8 17 3
      vertex 13.2 25 3
      vertex 12.9708 24.2947 3
    endloop
  endfacet
  facet normal 0 0 1
    outer loop
      vertex 11.6292 23.8587 3
      vertex 11.0292 24.2947 3
      vertex 10.8 17 3
    endloop
  endfacet
  facet normal 0 0 1
    outer loop
      vertex 10.8 17 3
      vertex 11.0292 24.2947 3
      vertex 10.8 25 3
    endloop
  endfacet
  facet normal 0 0 1
    outer loop
      vertex 6.97082 9.70534 3
      vertex 7.2 9 3
      vertex 15 2 3
    endloop
  endfacet
  facet normal 0 0 1
    outer loop
      vertex 6.97082 8.29466 3
      vertex 6.37082 7.85873 3
      vertex 15 2 3
    endloop
  endfacet
  facet normal 0 0 1
    outer loop
      vertex 6.97082 16.2947 3
      vertex 6.37082 15.8587 3
      vertex 10.8 9 3
    endloop
  endfacet
  facet normal 0 0 1
    outer loop
      vertex 11.0292 9.70534 3
      vertex 5.02918 24.2947 3
      vertex 1 31 3
    endloop
  endfacet
  facet normal 0 0 1
    outer loop
      vertex 11.0292 9.70534 3
      vertex 5.62918 23.8587 3
      vertex 5.02918 24.2947 3
    endloop
  endfacet
  facet normal 0 0 1
    outer loop
      vertex 11.0292 9.70534 3
      vertex 11.6292 10.1413 3
      vertex 5.62918 23.8587 3
    endloop
  endfacet
  facet normal -1 0 0
    outer loop
      vertex 47 25 12.99
      vertex 47 25 8
      vertex 47 13 12.99
    endloop
  endfacet
  facet normal -1 0 0
    outer loop
      vertex 47 13 12.99
      vertex 47 25 8
      vertex 47 13 8
    endloop
  endfacet
  facet normal 0 1 2.22045e-016
    outer loop
      vertex 20.691 17 7.45106
      vertex 21.309 17 7.45106
      vertex 20.191 17 7.08778
    endloop
  endfacet
  facet normal 0 1 2.22045e-016
    outer loop
      vertex 20.191 17 7.08778
      vertex 21.309 17 7.45106
      vertex 21.809 17 7.08778
    endloop
  endfacet
  facet normal 0 1 2.22045e-016
    outer loop
      vertex 20.191 17 7.08778
      vertex 21.809 17 7.08778
      vertex 22 17 6.5
    endloop
  endfacet
  facet normal 0 1 2.22045e-016
    outer loop
      vertex 20.191 17 7.08778
      vertex 22 17 6.5
      vertex 21.809 17 5.91221
    endloop
  endfacet
  facet normal 0 1 2.22045e-016
    outer loop
      vertex 20.191 17 7.08778
      vertex 21.809 17 5.91221
      vertex 21.309 17 5.54894
    endloop
  endfacet
  facet normal 0 1 2.22045e-016
    outer loop
      vertex 20.191 17 7.08778
      vertex 21.309 17 5.54894
      vertex 20.691 17 5.54894
    endloop
  endfacet
  facet normal 0 1 2.22045e-016
    outer loop
      vertex 20.191 17 7.08778
      vertex 20.691 17 5.54894
      vertex 20.191 17 5.91221
    endloop
  endfacet
  facet normal 0 1 2.22045e-016
    outer loop
      vertex 20.191 17 7.08778
      vertex 20.191 17 5.91221
      vertex 20 17 6.5
    endloop
  endfacet
endsolid OpenSCAD_Model
