solid OpenSCAD_Model
  facet normal -1 0 0
    outer loop
      vertex 0 25.6525 15.994
      vertex 0 24.4266 20.5365
      vertex 0 26.7401 14.4184
    endloop
  endfacet
  facet normal -1 0 0
    outer loop
      vertex 0 22.1183 22.2135
      vertex 0 0 33.5265
      vertex 0 19.699 37
    endloop
  endfacet
  facet normal -1 0 0
    outer loop
      vertex 0 40 0
      vertex 0 19.699 37
      vertex 0 50 37
    endloop
  endfacet
  facet normal -1 0 0
    outer loop
      vertex 0 40 0
      vertex 0 50 37
      vertex 0 50 27.4748
    endloop
  endfacet
  facet normal -1 0 0
    outer loop
      vertex 0 0 0
      vertex 0 0 33.5265
      vertex 0 14.1183 14.2135
    endloop
  endfacet
  facet normal -1 0 0
    outer loop
      vertex 0 0 0
      vertex 0 14.1183 14.2135
      vertex 0 13.5734 12.5365
    endloop
  endfacet
  facet normal -1 0 0
    outer loop
      vertex 0 0 0
      vertex 0 13.5734 12.5365
      vertex 0 15 11.5
    endloop
  endfacet
  facet normal -1 0 0
    outer loop
      vertex 0 23.8817 6.21353
      vertex 0 15 11.5
      vertex 0 40 0
    endloop
  endfacet
  facet normal -1 0 0
    outer loop
      vertex 0 14.1183 14.2135
      vertex 0 0 33.5265
      vertex 0 15.8817 14.2135
    endloop
  endfacet
  facet normal -1 0 0
    outer loop
      vertex 0 19.2599 14.4184
      vertex 0 0 33.5265
      vertex 0 20.3475 15.994
    endloop
  endfacet
  facet normal -1 0 0
    outer loop
      vertex 0 15.8817 14.2135
      vertex 0 0 33.5265
      vertex 0 19.2599 14.4184
    endloop
  endfacet
  facet normal -1 0 0
    outer loop
      vertex 0 24.4266 4.53648
      vertex 0 40 0
      vertex 0 23 3.5
    endloop
  endfacet
  facet normal -1 0 0
    outer loop
      vertex 0 15.8817 14.2135
      vertex 0 19.2599 14.4184
      vertex 0 19.0292 12.5179
    endloop
  endfacet
  facet normal -1 0 0
    outer loop
      vertex 0 23 9
      vertex 0 40 0
      vertex 0 21.1411 9.45818
    endloop
  endfacet
  facet normal -1 0 0
    outer loop
      vertex 0 24.8589 9.45818
      vertex 0 40 0
      vertex 0 23 9
    endloop
  endfacet
  facet normal -1 0 0
    outer loop
      vertex 0 26.2919 10.7277
      vertex 0 40 0
      vertex 0 24.8589 9.45818
    endloop
  endfacet
  facet normal -1 0 0
    outer loop
      vertex 0 19.7081 10.7277
      vertex 0 16.4266 12.5365
      vertex 0 15.8817 14.2135
    endloop
  endfacet
  facet normal -1 0 0
    outer loop
      vertex 0 26.9708 12.5179
      vertex 0 40 0
      vertex 0 26.2919 10.7277
    endloop
  endfacet
  facet normal -1 0 0
    outer loop
      vertex 0 24.4266 20.5365
      vertex 0 19.699 37
      vertex 0 26.7401 14.4184
    endloop
  endfacet
  facet normal -1 0 0
    outer loop
      vertex 0 23.8817 22.2135
      vertex 0 19.699 37
      vertex 0 24.4266 20.5365
    endloop
  endfacet
  facet normal -1 0 0
    outer loop
      vertex 0 40 0
      vertex 0 26.9708 12.5179
      vertex 0 26.7401 14.4184
    endloop
  endfacet
  facet normal -1 0 0
    outer loop
      vertex 0 30.1183 14.2135
      vertex 0 26.7401 14.4184
      vertex 0 19.699 37
    endloop
  endfacet
  facet normal -1 0 0
    outer loop
      vertex 0 23.9573 16.8838
      vertex 0 0 33.5265
      vertex 0 25.6525 15.994
    endloop
  endfacet
  facet normal -1 0 0
    outer loop
      vertex 0 30.1183 14.2135
      vertex 0 19.699 37
      vertex 0 31.8817 14.2135
    endloop
  endfacet
  facet normal -1 0 0
    outer loop
      vertex 0 22.0427 16.8838
      vertex 0 0 33.5265
      vertex 0 23.9573 16.8838
    endloop
  endfacet
  facet normal -1 0 0
    outer loop
      vertex 0 19.7081 10.7277
      vertex 0 15.8817 14.2135
      vertex 0 19.0292 12.5179
    endloop
  endfacet
  facet normal -1 0 0
    outer loop
      vertex 0 0 0
      vertex 0 15 11.5
      vertex 0 22.1183 6.21353
    endloop
  endfacet
  facet normal -1 0 0
    outer loop
      vertex 0 0 0
      vertex 0 22.1183 6.21353
      vertex 0 21.5734 4.53648
    endloop
  endfacet
  facet normal -1 0 0
    outer loop
      vertex 0 0 0
      vertex 0 21.5734 4.53648
      vertex 0 23 3.5
    endloop
  endfacet
  facet normal -1 0 0
    outer loop
      vertex 0 0 0
      vertex 0 23 3.5
      vertex 0 40 0
    endloop
  endfacet
  facet normal -1 0 0
    outer loop
      vertex 0 23.8817 6.21353
      vertex 0 40 0
      vertex 0 24.4266 4.53648
    endloop
  endfacet
  facet normal -1 0 0
    outer loop
      vertex 0 22.1183 6.21353
      vertex 0 15 11.5
      vertex 0 23.8817 6.21353
    endloop
  endfacet
  facet normal -1 0 0
    outer loop
      vertex 0 24.4266 20.5365
      vertex 0 25.6525 15.994
      vertex 0 23 19.5
    endloop
  endfacet
  facet normal -1 0 0
    outer loop
      vertex 0 21.5734 20.5365
      vertex 0 0 33.5265
      vertex 0 22.1183 22.2135
    endloop
  endfacet
  facet normal -1 0 0
    outer loop
      vertex 0 23.8817 22.2135
      vertex 0 22.1183 22.2135
      vertex 0 19.699 37
    endloop
  endfacet
  facet normal -1 0 0
    outer loop
      vertex 0 25.6525 15.994
      vertex 0 0 33.5265
      vertex 0 21.5734 20.5365
    endloop
  endfacet
  facet normal -1 0 0
    outer loop
      vertex 0 25.6525 15.994
      vertex 0 21.5734 20.5365
      vertex 0 23 19.5
    endloop
  endfacet
  facet normal -1 0 0
    outer loop
      vertex 0 20.3475 15.994
      vertex 0 0 33.5265
      vertex 0 22.0427 16.8838
    endloop
  endfacet
  facet normal -1 0 0
    outer loop
      vertex 0 29.5734 12.5365
      vertex 0 26.7401 14.4184
      vertex 0 30.1183 14.2135
    endloop
  endfacet
  facet normal -1 0 0
    outer loop
      vertex 0 32.4266 12.5365
      vertex 0 40 0
      vertex 0 31 11.5
    endloop
  endfacet
  facet normal -1 0 0
    outer loop
      vertex 0 40 0
      vertex 0 26.7401 14.4184
      vertex 0 29.5734 12.5365
    endloop
  endfacet
  facet normal -1 0 0
    outer loop
      vertex 0 40 0
      vertex 0 29.5734 12.5365
      vertex 0 31 11.5
    endloop
  endfacet
  facet normal -1 0 0
    outer loop
      vertex 0 40 0
      vertex 0 32.4266 12.5365
      vertex 0 31.8817 14.2135
    endloop
  endfacet
  facet normal -1 0 0
    outer loop
      vertex 0 40 0
      vertex 0 31.8817 14.2135
      vertex 0 19.699 37
    endloop
  endfacet
  facet normal -1 0 0
    outer loop
      vertex 0 16.4266 12.5365
      vertex 0 19.7081 10.7277
      vertex 0 21.1411 9.45818
    endloop
  endfacet
  facet normal -1 0 0
    outer loop
      vertex 0 21.1411 9.45818
      vertex 0 40 0
      vertex 0 15 11.5
    endloop
  endfacet
  facet normal -1 0 0
    outer loop
      vertex 0 16.4266 12.5365
      vertex 0 21.1411 9.45818
      vertex 0 15 11.5
    endloop
  endfacet
  facet normal 0 -1 0
    outer loop
      vertex 25.4635 0 4.57342
      vertex 0 0 0
      vertex 50 0 0
    endloop
  endfacet
  facet normal 0 -1 0
    outer loop
      vertex 17.4635 0 12.5734
      vertex 15.7865 0 13.1183
      vertex 50 0 0
    endloop
  endfacet
  facet normal 0 -1 0
    outer loop
      vertex 0 0 33.5265
      vertex 0 0 0
      vertex 15.7865 0 13.1183
    endloop
  endfacet
  facet normal 0 -1 0
    outer loop
      vertex 31.7865 0 13.1183
      vertex 29 0 14
      vertex 50 0 0
    endloop
  endfacet
  facet normal 0 -1 0
    outer loop
      vertex 0 0 33.5265
      vertex 15.7865 0 13.1183
      vertex 15.7865 0 14.8817
    endloop
  endfacet
  facet normal 0 -1 0
    outer loop
      vertex 0 0 33.5265
      vertex 15.7865 0 14.8817
      vertex 17.4635 0 15.4266
    endloop
  endfacet
  facet normal 0 -1 0
    outer loop
      vertex 23.5816 0 10.2599
      vertex 17.4635 0 12.5734
      vertex 50 0 0
    endloop
  endfacet
  facet normal 0 -1 0
    outer loop
      vertex 23.5816 0 10.2599
      vertex 22.006 0 11.3475
      vertex 17.4635 0 12.5734
    endloop
  endfacet
  facet normal 0 -1 0
    outer loop
      vertex 17.4635 0 15.4266
      vertex 18.5 0 14
      vertex 21.1162 0 13.0427
    endloop
  endfacet
  facet normal 0 -1 0
    outer loop
      vertex 27.2723 0 10.7081
      vertex 25.4821 0 10.0292
      vertex 50 0 0
    endloop
  endfacet
  facet normal 0 -1 0
    outer loop
      vertex 0 0 33.5265
      vertex 17.4635 0 15.4266
      vertex 21.1162 0 14.9573
    endloop
  endfacet
  facet normal 0 -1 0
    outer loop
      vertex 28.5418 0 12.1411
      vertex 27.2723 0 10.7081
      vertex 50 0 0
    endloop
  endfacet
  facet normal 0 -1 0
    outer loop
      vertex 0 0 33.5265
      vertex 21.1162 0 14.9573
      vertex 22.006 0 16.6525
    endloop
  endfacet
  facet normal 0 -1 0
    outer loop
      vertex 29 0 14
      vertex 28.5418 0 12.1411
      vertex 50 0 0
    endloop
  endfacet
  facet normal 0 -1 0
    outer loop
      vertex 23.7865 0 21.1183
      vertex 0 0 33.5265
      vertex 23.5816 0 17.7401
    endloop
  endfacet
  facet normal 0 -1 0
    outer loop
      vertex 50 0 33.5265
      vertex 23.5816 0 17.7401
      vertex 25.4821 0 17.9708
    endloop
  endfacet
  facet normal 0 -1 0
    outer loop
      vertex 50 0 33.5265
      vertex 25.4821 0 17.9708
      vertex 27.2723 0 17.2919
    endloop
  endfacet
  facet normal 0 -1 0
    outer loop
      vertex 22.006 0 16.6525
      vertex 23.5816 0 17.7401
      vertex 0 0 33.5265
    endloop
  endfacet
  facet normal 0 -1 0
    outer loop
      vertex 22.006 0 11.3475
      vertex 21.1162 0 13.0427
      vertex 18.5 0 14
    endloop
  endfacet
  facet normal 0 -1 0
    outer loop
      vertex 25.4821 0 10.0292
      vertex 23.5816 0 10.2599
      vertex 50 0 0
    endloop
  endfacet
  facet normal 0 -1 0
    outer loop
      vertex 25.4635 0 7.42659
      vertex 26.5 0 6
      vertex 50 0 0
    endloop
  endfacet
  facet normal 0 -1 0
    outer loop
      vertex 25.4635 0 23.4266
      vertex 26.5 0 22
      vertex 50 0 33.5265
    endloop
  endfacet
  facet normal 0 -1 0
    outer loop
      vertex 15.7865 0 13.1183
      vertex 0 0 0
      vertex 23.7865 0 5.11832
    endloop
  endfacet
  facet normal 0 -1 0
    outer loop
      vertex 26.5 0 6
      vertex 25.4635 0 4.57342
      vertex 50 0 0
    endloop
  endfacet
  facet normal 0 -1 0
    outer loop
      vertex 15.7865 0 13.1183
      vertex 23.7865 0 5.11832
      vertex 23.7865 0 6.88168
    endloop
  endfacet
  facet normal 0 -1 0
    outer loop
      vertex 15.7865 0 13.1183
      vertex 25.4635 0 7.42659
      vertex 50 0 0
    endloop
  endfacet
  facet normal 0 -1 0
    outer loop
      vertex 15.7865 0 13.1183
      vertex 23.7865 0 6.88168
      vertex 25.4635 0 7.42659
    endloop
  endfacet
  facet normal 0 -1 0
    outer loop
      vertex 23.7865 0 5.11832
      vertex 0 0 0
      vertex 25.4635 0 4.57342
    endloop
  endfacet
  facet normal 0 -1 0
    outer loop
      vertex 25.4635 0 20.5734
      vertex 23.7865 0 21.1183
      vertex 23.5816 0 17.7401
    endloop
  endfacet
  facet normal 0 -1 0
    outer loop
      vertex 23.7865 0 22.8817
      vertex 0 0 33.5265
      vertex 23.7865 0 21.1183
    endloop
  endfacet
  facet normal 0 -1 0
    outer loop
      vertex 50 0 33.5265
      vertex 0 0 33.5265
      vertex 23.7865 0 22.8817
    endloop
  endfacet
  facet normal 0 -1 0
    outer loop
      vertex 33.4635 0 12.5734
      vertex 31.7865 0 13.1183
      vertex 50 0 0
    endloop
  endfacet
  facet normal 0 -1 0
    outer loop
      vertex 50 0 33.5265
      vertex 23.7865 0 22.8817
      vertex 25.4635 0 23.4266
    endloop
  endfacet
  facet normal 0 -1 0
    outer loop
      vertex 50 0 33.5265
      vertex 26.5 0 22
      vertex 23.5816 0 17.7401
    endloop
  endfacet
  facet normal 0 -1 0
    outer loop
      vertex 26.5 0 22
      vertex 25.4635 0 20.5734
      vertex 23.5816 0 17.7401
    endloop
  endfacet
  facet normal 0 -1 0
    outer loop
      vertex 31.7865 0 13.1183
      vertex 31.7865 0 14.8817
      vertex 27.2723 0 17.2919
    endloop
  endfacet
  facet normal 0 -1 0
    outer loop
      vertex 31.7865 0 13.1183
      vertex 27.2723 0 17.2919
      vertex 28.5418 0 15.8589
    endloop
  endfacet
  facet normal 0 -1 0
    outer loop
      vertex 50 0 33.5265
      vertex 27.2723 0 17.2919
      vertex 31.7865 0 14.8817
    endloop
  endfacet
  facet normal 0 -1 0
    outer loop
      vertex 50 0 33.5265
      vertex 33.4635 0 15.4266
      vertex 50 0 0
    endloop
  endfacet
  facet normal 0 -1 0
    outer loop
      vertex 50 0 33.5265
      vertex 31.7865 0 14.8817
      vertex 33.4635 0 15.4266
    endloop
  endfacet
  facet normal 0 -1 0
    outer loop
      vertex 33.4635 0 15.4266
      vertex 34.5 0 14
      vertex 50 0 0
    endloop
  endfacet
  facet normal 0 -1 0
    outer loop
      vertex 34.5 0 14
      vertex 33.4635 0 12.5734
      vertex 50 0 0
    endloop
  endfacet
  facet normal 0 -1 0
    outer loop
      vertex 21.1162 0 13.0427
      vertex 21.1162 0 14.9573
      vertex 17.4635 0 15.4266
    endloop
  endfacet
  facet normal 0 -1 0
    outer loop
      vertex 18.5 0 14
      vertex 17.4635 0 12.5734
      vertex 22.006 0 11.3475
    endloop
  endfacet
  facet normal 0 -1 0
    outer loop
      vertex 28.5418 0 15.8589
      vertex 29 0 14
      vertex 31.7865 0 13.1183
    endloop
  endfacet
  facet normal 0 0 -1
    outer loop
      vertex 46 4 0
      vertex 50 0 0
      vertex 4 4 0
    endloop
  endfacet
  facet normal 0 0 -1
    outer loop
      vertex 0 0 0
      vertex 0 40 0
      vertex 4 4 0
    endloop
  endfacet
  facet normal 0 0 -1
    outer loop
      vertex 0 0 0
      vertex 4 4 0
      vertex 50 0 0
    endloop
  endfacet
  facet normal 0 0 -1
    outer loop
      vertex 50 0 0
      vertex 46 4 0
      vertex 46 40 0
    endloop
  endfacet
  facet normal 0 0 -1
    outer loop
      vertex 50 0 0
      vertex 46 40 0
      vertex 50 40 0
    endloop
  endfacet
  facet normal 0 0 -1
    outer loop
      vertex 4 4 0
      vertex 0 40 0
      vertex 4 40 0
    endloop
  endfacet
  facet normal 0 0.939693 -0.34202
    outer loop
      vertex 4 50 27.4748
      vertex 4 40 0
      vertex 0 50 27.4748
    endloop
  endfacet
  facet normal 0 0.939693 -0.34202
    outer loop
      vertex 0 50 27.4748
      vertex 4 40 0
      vertex 0 40 0
    endloop
  endfacet
  facet normal 0 1 0
    outer loop
      vertex 0 50 27.4748
      vertex 0 50 37
      vertex 4 50 27.4748
    endloop
  endfacet
  facet normal 0 1 0
    outer loop
      vertex 4 50 32
      vertex 0 50 37
      vertex 50 50 37
    endloop
  endfacet
  facet normal 0 1 0
    outer loop
      vertex 46 50 27.4748
      vertex 50 50 37
      vertex 50 50 27.4748
    endloop
  endfacet
  facet normal 0 1 0
    outer loop
      vertex 46 50 32
      vertex 50 50 37
      vertex 46 50 27.4748
    endloop
  endfacet
  facet normal 0 1 0
    outer loop
      vertex 4 50 27.4748
      vertex 0 50 37
      vertex 4 50 32
    endloop
  endfacet
  facet normal 0 1 0
    outer loop
      vertex 4 50 32
      vertex 50 50 37
      vertex 46 50 32
    endloop
  endfacet
  facet normal 0 0 1
    outer loop
      vertex 50 19.699 37
      vertex 50 50 37
      vertex 0 50 37
    endloop
  endfacet
  facet normal 0 0 1
    outer loop
      vertex 0 19.699 37
      vertex 50 19.699 37
      vertex 0 50 37
    endloop
  endfacet
  facet normal 0 -0.173648 0.984808
    outer loop
      vertex 50 0 33.5265
      vertex 50 19.699 37
      vertex 0 19.699 37
    endloop
  endfacet
  facet normal 0 -0.173648 0.984808
    outer loop
      vertex 0 0 33.5265
      vertex 50 0 33.5265
      vertex 0 19.699 37
    endloop
  endfacet
  facet normal 2.22045e-016 0 -1
    outer loop
      vertex 4 15.8817 14.2135
      vertex 4 14.1183 14.2135
      vertex 0 15.8817 14.2135
    endloop
  endfacet
  facet normal 2.22045e-016 0 -1
    outer loop
      vertex 0 15.8817 14.2135
      vertex 4 14.1183 14.2135
      vertex 0 14.1183 14.2135
    endloop
  endfacet
  facet normal 6.86156e-017 0.951056 -0.309017
    outer loop
      vertex 4 14.1183 14.2135
      vertex 4 13.5734 12.5365
      vertex 0 14.1183 14.2135
    endloop
  endfacet
  facet normal 6.86156e-017 0.951056 -0.309017
    outer loop
      vertex 0 14.1183 14.2135
      vertex 4 13.5734 12.5365
      vertex 0 13.5734 12.5365
    endloop
  endfacet
  facet normal 6.86156e-017 -0.951056 -0.309017
    outer loop
      vertex 0 16.4266 12.5365
      vertex 4 16.4266 12.5365
      vertex 4 15.8817 14.2135
    endloop
  endfacet
  facet normal 6.86156e-017 -0.951056 -0.309017
    outer loop
      vertex 0 15.8817 14.2135
      vertex 0 16.4266 12.5365
      vertex 4 15.8817 14.2135
    endloop
  endfacet
  facet normal -1.79638e-016 -0.587785 0.809017
    outer loop
      vertex 4 15 11.5
      vertex 4 16.4266 12.5365
      vertex 0 16.4266 12.5365
    endloop
  endfacet
  facet normal -1.79638e-016 -0.587785 0.809017
    outer loop
      vertex 0 15 11.5
      vertex 4 15 11.5
      vertex 0 16.4266 12.5365
    endloop
  endfacet
  facet normal -1.79638e-016 0.587785 0.809017
    outer loop
      vertex 4 13.5734 12.5365
      vertex 4 15 11.5
      vertex 0 15 11.5
    endloop
  endfacet
  facet normal -1.79638e-016 0.587785 0.809017
    outer loop
      vertex 0 13.5734 12.5365
      vertex 4 13.5734 12.5365
      vertex 0 15 11.5
    endloop
  endfacet
  facet normal 1.26136e-016 0.822984 -0.568065
    outer loop
      vertex 4 20.3475 15.994
      vertex 4 19.2599 14.4184
      vertex 0 20.3475 15.994
    endloop
  endfacet
  facet normal 1.26136e-016 0.822984 -0.568065
    outer loop
      vertex 0 20.3475 15.994
      vertex 4 19.2599 14.4184
      vertex 0 19.2599 14.4184
    endloop
  endfacet
  facet normal 2.67644e-017 0.992709 -0.120536
    outer loop
      vertex 4 19.2599 14.4184
      vertex 4 19.0292 12.5179
      vertex 0 19.2599 14.4184
    endloop
  endfacet
  facet normal 2.67644e-017 0.992709 -0.120536
    outer loop
      vertex 0 19.2599 14.4184
      vertex 4 19.0292 12.5179
      vertex 0 19.0292 12.5179
    endloop
  endfacet
  facet normal 1.96611e-016 0.464723 -0.885456
    outer loop
      vertex 4 22.0427 16.8838
      vertex 4 20.3475 15.994
      vertex 0 22.0427 16.8838
    endloop
  endfacet
  facet normal 1.96611e-016 0.464723 -0.885456
    outer loop
      vertex 0 22.0427 16.8838
      vertex 4 20.3475 15.994
      vertex 0 20.3475 15.994
    endloop
  endfacet
  facet normal 2.22045e-016 0 -1
    outer loop
      vertex 4 23.9573 16.8838
      vertex 4 22.0427 16.8838
      vertex 0 23.9573 16.8838
    endloop
  endfacet
  facet normal 2.22045e-016 0 -1
    outer loop
      vertex 0 23.9573 16.8838
      vertex 4 22.0427 16.8838
      vertex 0 22.0427 16.8838
    endloop
  endfacet
  facet normal 1.96611e-016 -0.464723 -0.885456
    outer loop
      vertex 4 25.6525 15.994
      vertex 4 23.9573 16.8838
      vertex 0 25.6525 15.994
    endloop
  endfacet
  facet normal 1.96611e-016 -0.464723 -0.885456
    outer loop
      vertex 0 25.6525 15.994
      vertex 4 23.9573 16.8838
      vertex 0 23.9573 16.8838
    endloop
  endfacet
  facet normal 1.26136e-016 -0.822984 -0.568065
    outer loop
      vertex 0 26.7401 14.4184
      vertex 4 26.7401 14.4184
      vertex 4 25.6525 15.994
    endloop
  endfacet
  facet normal 1.26136e-016 -0.822984 -0.568065
    outer loop
      vertex 0 25.6525 15.994
      vertex 0 26.7401 14.4184
      vertex 4 25.6525 15.994
    endloop
  endfacet
  facet normal 2.67644e-017 -0.992709 -0.120536
    outer loop
      vertex 0 26.9708 12.5179
      vertex 4 26.9708 12.5179
      vertex 4 26.7401 14.4184
    endloop
  endfacet
  facet normal 2.67644e-017 -0.992709 -0.120536
    outer loop
      vertex 0 26.7401 14.4184
      vertex 0 26.9708 12.5179
      vertex 4 26.7401 14.4184
    endloop
  endfacet
  facet normal -7.87381e-017 -0.935016 0.354605
    outer loop
      vertex 4 26.2919 10.7277
      vertex 4 26.9708 12.5179
      vertex 0 26.9708 12.5179
    endloop
  endfacet
  facet normal -7.87381e-017 -0.935016 0.354605
    outer loop
      vertex 0 26.2919 10.7277
      vertex 4 26.2919 10.7277
      vertex 0 26.9708 12.5179
    endloop
  endfacet
  facet normal -1.66203e-016 -0.663123 0.748511
    outer loop
      vertex 4 24.8589 9.45818
      vertex 4 26.2919 10.7277
      vertex 0 26.2919 10.7277
    endloop
  endfacet
  facet normal -1.66203e-016 -0.663123 0.748511
    outer loop
      vertex 0 24.8589 9.45818
      vertex 4 24.8589 9.45818
      vertex 0 26.2919 10.7277
    endloop
  endfacet
  facet normal -2.15592e-016 -0.239316 0.970942
    outer loop
      vertex 4 23 9
      vertex 4 24.8589 9.45818
      vertex 0 24.8589 9.45818
    endloop
  endfacet
  facet normal -2.15592e-016 -0.239316 0.970942
    outer loop
      vertex 0 23 9
      vertex 4 23 9
      vertex 0 24.8589 9.45818
    endloop
  endfacet
  facet normal -2.15592e-016 0.239316 0.970942
    outer loop
      vertex 4 21.1411 9.45818
      vertex 4 23 9
      vertex 0 23 9
    endloop
  endfacet
  facet normal -2.15592e-016 0.239316 0.970942
    outer loop
      vertex 0 21.1411 9.45818
      vertex 4 21.1411 9.45818
      vertex 0 23 9
    endloop
  endfacet
  facet normal -1.66203e-016 0.663123 0.748511
    outer loop
      vertex 4 19.7081 10.7277
      vertex 4 21.1411 9.45818
      vertex 0 21.1411 9.45818
    endloop
  endfacet
  facet normal -1.66203e-016 0.663123 0.748511
    outer loop
      vertex 0 19.7081 10.7277
      vertex 4 19.7081 10.7277
      vertex 0 21.1411 9.45818
    endloop
  endfacet
  facet normal -7.87381e-017 0.935016 0.354605
    outer loop
      vertex 4 19.7081 10.7277
      vertex 0 19.7081 10.7277
      vertex 4 19.0292 12.5179
    endloop
  endfacet
  facet normal -7.87381e-017 0.935016 0.354605
    outer loop
      vertex 4 19.0292 12.5179
      vertex 0 19.7081 10.7277
      vertex 0 19.0292 12.5179
    endloop
  endfacet
  facet normal 2.22045e-016 0 -1
    outer loop
      vertex 4 23.8817 6.21353
      vertex 4 22.1183 6.21353
      vertex 0 23.8817 6.21353
    endloop
  endfacet
  facet normal 2.22045e-016 0 -1
    outer loop
      vertex 0 23.8817 6.21353
      vertex 4 22.1183 6.21353
      vertex 0 22.1183 6.21353
    endloop
  endfacet
  facet normal 6.86156e-017 0.951056 -0.309017
    outer loop
      vertex 4 22.1183 6.21353
      vertex 4 21.5734 4.53648
      vertex 0 22.1183 6.21353
    endloop
  endfacet
  facet normal 6.86156e-017 0.951056 -0.309017
    outer loop
      vertex 0 22.1183 6.21353
      vertex 4 21.5734 4.53648
      vertex 0 21.5734 4.53648
    endloop
  endfacet
  facet normal 6.86156e-017 -0.951056 -0.309017
    outer loop
      vertex 0 24.4266 4.53648
      vertex 4 24.4266 4.53648
      vertex 4 23.8817 6.21353
    endloop
  endfacet
  facet normal 6.86156e-017 -0.951056 -0.309017
    outer loop
      vertex 0 23.8817 6.21353
      vertex 0 24.4266 4.53648
      vertex 4 23.8817 6.21353
    endloop
  endfacet
  facet normal -1.79638e-016 -0.587785 0.809017
    outer loop
      vertex 4 23 3.5
      vertex 4 24.4266 4.53648
      vertex 0 24.4266 4.53648
    endloop
  endfacet
  facet normal -1.79638e-016 -0.587785 0.809017
    outer loop
      vertex 0 23 3.5
      vertex 4 23 3.5
      vertex 0 24.4266 4.53648
    endloop
  endfacet
  facet normal -1.79638e-016 0.587785 0.809017
    outer loop
      vertex 4 21.5734 4.53648
      vertex 4 23 3.5
      vertex 0 23 3.5
    endloop
  endfacet
  facet normal -1.79638e-016 0.587785 0.809017
    outer loop
      vertex 0 21.5734 4.53648
      vertex 4 21.5734 4.53648
      vertex 0 23 3.5
    endloop
  endfacet
  facet normal 2.22045e-016 0 -1
    outer loop
      vertex 4 23.8817 22.2135
      vertex 4 22.1183 22.2135
      vertex 0 23.8817 22.2135
    endloop
  endfacet
  facet normal 2.22045e-016 0 -1
    outer loop
      vertex 0 23.8817 22.2135
      vertex 4 22.1183 22.2135
      vertex 0 22.1183 22.2135
    endloop
  endfacet
  facet normal 6.86156e-017 0.951056 -0.309017
    outer loop
      vertex 4 22.1183 22.2135
      vertex 4 21.5734 20.5365
      vertex 0 22.1183 22.2135
    endloop
  endfacet
  facet normal 6.86156e-017 0.951056 -0.309017
    outer loop
      vertex 0 22.1183 22.2135
      vertex 4 21.5734 20.5365
      vertex 0 21.5734 20.5365
    endloop
  endfacet
  facet normal 6.86156e-017 -0.951056 -0.309017
    outer loop
      vertex 0 24.4266 20.5365
      vertex 4 24.4266 20.5365
      vertex 4 23.8817 22.2135
    endloop
  endfacet
  facet normal 6.86156e-017 -0.951056 -0.309017
    outer loop
      vertex 0 23.8817 22.2135
      vertex 0 24.4266 20.5365
      vertex 4 23.8817 22.2135
    endloop
  endfacet
  facet normal -1.79638e-016 -0.587785 0.809017
    outer loop
      vertex 4 23 19.5
      vertex 4 24.4266 20.5365
      vertex 0 24.4266 20.5365
    endloop
  endfacet
  facet normal -1.79638e-016 -0.587785 0.809017
    outer loop
      vertex 0 23 19.5
      vertex 4 23 19.5
      vertex 0 24.4266 20.5365
    endloop
  endfacet
  facet normal -1.79638e-016 0.587785 0.809017
    outer loop
      vertex 4 21.5734 20.5365
      vertex 4 23 19.5
      vertex 0 23 19.5
    endloop
  endfacet
  facet normal -1.79638e-016 0.587785 0.809017
    outer loop
      vertex 0 21.5734 20.5365
      vertex 4 21.5734 20.5365
      vertex 0 23 19.5
    endloop
  endfacet
  facet normal 2.22045e-016 0 -1
    outer loop
      vertex 4 31.8817 14.2135
      vertex 4 30.1183 14.2135
      vertex 0 31.8817 14.2135
    endloop
  endfacet
  facet normal 2.22045e-016 0 -1
    outer loop
      vertex 0 31.8817 14.2135
      vertex 4 30.1183 14.2135
      vertex 0 30.1183 14.2135
    endloop
  endfacet
  facet normal 6.86156e-017 0.951056 -0.309017
    outer loop
      vertex 4 30.1183 14.2135
      vertex 4 29.5734 12.5365
      vertex 0 30.1183 14.2135
    endloop
  endfacet
  facet normal 6.86156e-017 0.951056 -0.309017
    outer loop
      vertex 0 30.1183 14.2135
      vertex 4 29.5734 12.5365
      vertex 0 29.5734 12.5365
    endloop
  endfacet
  facet normal 6.86156e-017 -0.951056 -0.309017
    outer loop
      vertex 0 32.4266 12.5365
      vertex 4 32.4266 12.5365
      vertex 4 31.8817 14.2135
    endloop
  endfacet
  facet normal 6.86156e-017 -0.951056 -0.309017
    outer loop
      vertex 0 31.8817 14.2135
      vertex 0 32.4266 12.5365
      vertex 4 31.8817 14.2135
    endloop
  endfacet
  facet normal -1.79638e-016 -0.587785 0.809017
    outer loop
      vertex 4 31 11.5
      vertex 4 32.4266 12.5365
      vertex 0 32.4266 12.5365
    endloop
  endfacet
  facet normal -1.79638e-016 -0.587785 0.809017
    outer loop
      vertex 0 31 11.5
      vertex 4 31 11.5
      vertex 0 32.4266 12.5365
    endloop
  endfacet
  facet normal -1.79638e-016 0.587785 0.809017
    outer loop
      vertex 4 29.5734 12.5365
      vertex 4 31 11.5
      vertex 0 31 11.5
    endloop
  endfacet
  facet normal -1.79638e-016 0.587785 0.809017
    outer loop
      vertex 0 29.5734 12.5365
      vertex 4 29.5734 12.5365
      vertex 0 31 11.5
    endloop
  endfacet
  facet normal 1 0 0
    outer loop
      vertex 50 23 3.5
      vertex 50 0 0
      vertex 50 40 0
    endloop
  endfacet
  facet normal 1 0 0
    outer loop
      vertex 50 50 37
      vertex 50 0 33.5265
      vertex 50 50 27.4748
    endloop
  endfacet
  facet normal 1 0 0
    outer loop
      vertex 50 19.699 37
      vertex 50 0 33.5265
      vertex 50 50 37
    endloop
  endfacet
  facet normal 1 0 0
    outer loop
      vertex 50 0 33.5265
      vertex 50 0 0
      vertex 50 13.5734 12.5365
    endloop
  endfacet
  facet normal 1 0 0
    outer loop
      vertex 50 0 33.5265
      vertex 50 13.5734 12.5365
      vertex 50 14.1183 14.2135
    endloop
  endfacet
  facet normal 1 0 0
    outer loop
      vertex 50 26.2919 10.7277
      vertex 50 24.8589 9.45818
      vertex 50 40 0
    endloop
  endfacet
  facet normal 1 0 0
    outer loop
      vertex 50 0 33.5265
      vertex 50 14.1183 14.2135
      vertex 50 15.8817 14.2135
    endloop
  endfacet
  facet normal 1 0 0
    outer loop
      vertex 50 13.5734 12.5365
      vertex 50 0 0
      vertex 50 15 11.5
    endloop
  endfacet
  facet normal 1 0 0
    outer loop
      vertex 50 23.8817 6.21353
      vertex 50 24.4266 4.53648
      vertex 50 40 0
    endloop
  endfacet
  facet normal 1 0 0
    outer loop
      vertex 50 0 33.5265
      vertex 50 15.8817 14.2135
      vertex 50 19.0292 12.5179
    endloop
  endfacet
  facet normal 1 0 0
    outer loop
      vertex 50 24.8589 9.45818
      vertex 50 23 9
      vertex 50 40 0
    endloop
  endfacet
  facet normal 1 0 0
    outer loop
      vertex 50 0 33.5265
      vertex 50 19.0292 12.5179
      vertex 50 19.2599 14.4184
    endloop
  endfacet
  facet normal 1 0 0
    outer loop
      vertex 50 26.7401 14.4184
      vertex 50 26.9708 12.5179
      vertex 50 40 0
    endloop
  endfacet
  facet normal 1 0 0
    outer loop
      vertex 50 0 33.5265
      vertex 50 19.2599 14.4184
      vertex 50 20.3475 15.994
    endloop
  endfacet
  facet normal 1 0 0
    outer loop
      vertex 50 21.5734 20.5365
      vertex 50 0 33.5265
      vertex 50 22.0427 16.8838
    endloop
  endfacet
  facet normal 1 0 0
    outer loop
      vertex 50 50 27.4748
      vertex 50 22.0427 16.8838
      vertex 50 23.9573 16.8838
    endloop
  endfacet
  facet normal 1 0 0
    outer loop
      vertex 50 29.5734 12.5365
      vertex 50 25.6525 15.994
      vertex 50 40 0
    endloop
  endfacet
  facet normal 1 0 0
    outer loop
      vertex 50 50 27.4748
      vertex 50 23.9573 16.8838
      vertex 50 25.6525 15.994
    endloop
  endfacet
  facet normal 1 0 0
    outer loop
      vertex 50 25.6525 15.994
      vertex 50 26.7401 14.4184
      vertex 50 40 0
    endloop
  endfacet
  facet normal 1 0 0
    outer loop
      vertex 50 26.9708 12.5179
      vertex 50 26.2919 10.7277
      vertex 50 40 0
    endloop
  endfacet
  facet normal 1 0 0
    outer loop
      vertex 50 19.7081 10.7277
      vertex 50 19.0292 12.5179
      vertex 50 15.8817 14.2135
    endloop
  endfacet
  facet normal 1 0 0
    outer loop
      vertex 50 23 9
      vertex 50 21.1411 9.45818
      vertex 50 40 0
    endloop
  endfacet
  facet normal 1 0 0
    outer loop
      vertex 50 19.7081 10.7277
      vertex 50 15.8817 14.2135
      vertex 50 16.4266 12.5365
    endloop
  endfacet
  facet normal 1 0 0
    outer loop
      vertex 50 23.8817 22.2135
      vertex 50 24.4266 20.5365
      vertex 50 50 27.4748
    endloop
  endfacet
  facet normal 1 0 0
    outer loop
      vertex 50 15 11.5
      vertex 50 0 0
      vertex 50 21.5734 4.53648
    endloop
  endfacet
  facet normal 1 0 0
    outer loop
      vertex 50 24.4266 4.53648
      vertex 50 23 3.5
      vertex 50 40 0
    endloop
  endfacet
  facet normal 1 0 0
    outer loop
      vertex 50 15 11.5
      vertex 50 21.5734 4.53648
      vertex 50 22.1183 6.21353
    endloop
  endfacet
  facet normal 1 0 0
    outer loop
      vertex 50 15 11.5
      vertex 50 23.8817 6.21353
      vertex 50 40 0
    endloop
  endfacet
  facet normal 1 0 0
    outer loop
      vertex 50 15 11.5
      vertex 50 22.1183 6.21353
      vertex 50 23.8817 6.21353
    endloop
  endfacet
  facet normal 1 0 0
    outer loop
      vertex 50 21.5734 4.53648
      vertex 50 0 0
      vertex 50 23 3.5
    endloop
  endfacet
  facet normal 1 0 0
    outer loop
      vertex 50 23 19.5
      vertex 50 21.5734 20.5365
      vertex 50 22.0427 16.8838
    endloop
  endfacet
  facet normal 1 0 0
    outer loop
      vertex 50 22.1183 22.2135
      vertex 50 0 33.5265
      vertex 50 21.5734 20.5365
    endloop
  endfacet
  facet normal 1 0 0
    outer loop
      vertex 50 50 27.4748
      vertex 50 0 33.5265
      vertex 50 22.1183 22.2135
    endloop
  endfacet
  facet normal 1 0 0
    outer loop
      vertex 50 30.1183 14.2135
      vertex 50 31.8817 14.2135
      vertex 50 50 27.4748
    endloop
  endfacet
  facet normal 1 0 0
    outer loop
      vertex 50 50 27.4748
      vertex 50 22.1183 22.2135
      vertex 50 23.8817 22.2135
    endloop
  endfacet
  facet normal 1 0 0
    outer loop
      vertex 50 50 27.4748
      vertex 50 24.4266 20.5365
      vertex 50 22.0427 16.8838
    endloop
  endfacet
  facet normal 1 0 0
    outer loop
      vertex 50 24.4266 20.5365
      vertex 50 23 19.5
      vertex 50 22.0427 16.8838
    endloop
  endfacet
  facet normal 1 0 0
    outer loop
      vertex 50 31 11.5
      vertex 50 29.5734 12.5365
      vertex 50 40 0
    endloop
  endfacet
  facet normal 1 0 0
    outer loop
      vertex 50 30.1183 14.2135
      vertex 50 25.6525 15.994
      vertex 50 29.5734 12.5365
    endloop
  endfacet
  facet normal 1 0 0
    outer loop
      vertex 50 50 27.4748
      vertex 50 25.6525 15.994
      vertex 50 30.1183 14.2135
    endloop
  endfacet
  facet normal 1 0 0
    outer loop
      vertex 50 50 27.4748
      vertex 50 31.8817 14.2135
      vertex 50 40 0
    endloop
  endfacet
  facet normal 1 0 0
    outer loop
      vertex 50 31.8817 14.2135
      vertex 50 32.4266 12.5365
      vertex 50 40 0
    endloop
  endfacet
  facet normal 1 0 0
    outer loop
      vertex 50 32.4266 12.5365
      vertex 50 31 11.5
      vertex 50 40 0
    endloop
  endfacet
  facet normal 1 0 0
    outer loop
      vertex 50 20.3475 15.994
      vertex 50 22.0427 16.8838
      vertex 50 0 33.5265
    endloop
  endfacet
  facet normal 1 0 0
    outer loop
      vertex 50 16.4266 12.5365
      vertex 50 21.1411 9.45818
      vertex 50 19.7081 10.7277
    endloop
  endfacet
  facet normal 1 0 0
    outer loop
      vertex 50 21.1411 9.45818
      vertex 50 15 11.5
      vertex 50 40 0
    endloop
  endfacet
  facet normal 1 0 0
    outer loop
      vertex 50 16.4266 12.5365
      vertex 50 15 11.5
      vertex 50 21.1411 9.45818
    endloop
  endfacet
  facet normal 0.309017 -2.11177e-016 0.951056
    outer loop
      vertex 17.4635 0 12.5734
      vertex 17.4635 4 12.5734
      vertex 15.7865 4 13.1183
    endloop
  endfacet
  facet normal 0.309017 -2.11177e-016 0.951056
    outer loop
      vertex 15.7865 0 13.1183
      vertex 17.4635 0 12.5734
      vertex 15.7865 4 13.1183
    endloop
  endfacet
  facet normal 1 0 0
    outer loop
      vertex 15.7865 4 13.1183
      vertex 15.7865 4 14.8817
      vertex 15.7865 0 14.8817
    endloop
  endfacet
  facet normal 1 0 0
    outer loop
      vertex 15.7865 0 13.1183
      vertex 15.7865 4 13.1183
      vertex 15.7865 0 14.8817
    endloop
  endfacet
  facet normal -0.809017 -1.30515e-016 0.587785
    outer loop
      vertex 18.5 4 14
      vertex 17.4635 4 12.5734
      vertex 18.5 0 14
    endloop
  endfacet
  facet normal -0.809017 -1.30515e-016 0.587785
    outer loop
      vertex 18.5 0 14
      vertex 17.4635 4 12.5734
      vertex 17.4635 0 12.5734
    endloop
  endfacet
  facet normal -0.809017 1.30515e-016 -0.587785
    outer loop
      vertex 18.5 4 14
      vertex 18.5 0 14
      vertex 17.4635 4 15.4266
    endloop
  endfacet
  facet normal -0.809017 1.30515e-016 -0.587785
    outer loop
      vertex 17.4635 4 15.4266
      vertex 18.5 0 14
      vertex 17.4635 0 15.4266
    endloop
  endfacet
  facet normal 0.309017 2.11177e-016 -0.951056
    outer loop
      vertex 17.4635 4 15.4266
      vertex 17.4635 0 15.4266
      vertex 15.7865 4 14.8817
    endloop
  endfacet
  facet normal 0.309017 2.11177e-016 -0.951056
    outer loop
      vertex 15.7865 4 14.8817
      vertex 17.4635 0 15.4266
      vertex 15.7865 0 14.8817
    endloop
  endfacet
  facet normal 0.885456 -1.03189e-016 0.464723
    outer loop
      vertex 22.006 0 11.3475
      vertex 22.006 4 11.3475
      vertex 21.1162 4 13.0427
    endloop
  endfacet
  facet normal 0.885456 -1.03189e-016 0.464723
    outer loop
      vertex 21.1162 0 13.0427
      vertex 22.006 0 11.3475
      vertex 21.1162 4 13.0427
    endloop
  endfacet
  facet normal 1 0 0
    outer loop
      vertex 21.1162 4 13.0427
      vertex 21.1162 4 14.9573
      vertex 21.1162 0 14.9573
    endloop
  endfacet
  facet normal 1 0 0
    outer loop
      vertex 21.1162 0 13.0427
      vertex 21.1162 4 13.0427
      vertex 21.1162 0 14.9573
    endloop
  endfacet
  facet normal 0.568065 -1.82739e-016 0.822984
    outer loop
      vertex 23.5816 0 10.2599
      vertex 23.5816 4 10.2599
      vertex 22.006 4 11.3475
    endloop
  endfacet
  facet normal 0.568065 -1.82739e-016 0.822984
    outer loop
      vertex 22.006 0 11.3475
      vertex 23.5816 0 10.2599
      vertex 22.006 4 11.3475
    endloop
  endfacet
  facet normal 0.120536 -2.20426e-016 0.992709
    outer loop
      vertex 25.4821 0 10.0292
      vertex 25.4821 4 10.0292
      vertex 23.5816 4 10.2599
    endloop
  endfacet
  facet normal 0.120536 -2.20426e-016 0.992709
    outer loop
      vertex 23.5816 0 10.2599
      vertex 25.4821 0 10.0292
      vertex 23.5816 4 10.2599
    endloop
  endfacet
  facet normal -0.354605 -2.07615e-016 0.935016
    outer loop
      vertex 27.2723 0 10.7081
      vertex 27.2723 4 10.7081
      vertex 25.4821 4 10.0292
    endloop
  endfacet
  facet normal -0.354605 -2.07615e-016 0.935016
    outer loop
      vertex 25.4821 0 10.0292
      vertex 27.2723 0 10.7081
      vertex 25.4821 4 10.0292
    endloop
  endfacet
  facet normal -0.748511 -1.47243e-016 0.663123
    outer loop
      vertex 28.5418 4 12.1411
      vertex 27.2723 4 10.7081
      vertex 28.5418 0 12.1411
    endloop
  endfacet
  facet normal -0.748511 -1.47243e-016 0.663123
    outer loop
      vertex 28.5418 0 12.1411
      vertex 27.2723 4 10.7081
      vertex 27.2723 0 10.7081
    endloop
  endfacet
  facet normal -0.970942 -5.31388e-017 0.239316
    outer loop
      vertex 29 4 14
      vertex 28.5418 4 12.1411
      vertex 29 0 14
    endloop
  endfacet
  facet normal -0.970942 -5.31388e-017 0.239316
    outer loop
      vertex 29 0 14
      vertex 28.5418 4 12.1411
      vertex 28.5418 0 12.1411
    endloop
  endfacet
  facet normal -0.970942 5.31388e-017 -0.239316
    outer loop
      vertex 29 4 14
      vertex 29 0 14
      vertex 28.5418 4 15.8589
    endloop
  endfacet
  facet normal -0.970942 5.31388e-017 -0.239316
    outer loop
      vertex 28.5418 4 15.8589
      vertex 29 0 14
      vertex 28.5418 0 15.8589
    endloop
  endfacet
  facet normal -0.748511 1.47243e-016 -0.663123
    outer loop
      vertex 28.5418 4 15.8589
      vertex 28.5418 0 15.8589
      vertex 27.2723 4 17.2919
    endloop
  endfacet
  facet normal -0.748511 1.47243e-016 -0.663123
    outer loop
      vertex 27.2723 4 17.2919
      vertex 28.5418 0 15.8589
      vertex 27.2723 0 17.2919
    endloop
  endfacet
  facet normal -0.354605 2.07615e-016 -0.935016
    outer loop
      vertex 27.2723 4 17.2919
      vertex 27.2723 0 17.2919
      vertex 25.4821 4 17.9708
    endloop
  endfacet
  facet normal -0.354605 2.07615e-016 -0.935016
    outer loop
      vertex 25.4821 4 17.9708
      vertex 27.2723 0 17.2919
      vertex 25.4821 0 17.9708
    endloop
  endfacet
  facet normal 0.120536 2.20426e-016 -0.992709
    outer loop
      vertex 25.4821 4 17.9708
      vertex 25.4821 0 17.9708
      vertex 23.5816 4 17.7401
    endloop
  endfacet
  facet normal 0.120536 2.20426e-016 -0.992709
    outer loop
      vertex 23.5816 4 17.7401
      vertex 25.4821 0 17.9708
      vertex 23.5816 0 17.7401
    endloop
  endfacet
  facet normal 0.568065 1.82739e-016 -0.822984
    outer loop
      vertex 23.5816 4 17.7401
      vertex 23.5816 0 17.7401
      vertex 22.006 4 16.6525
    endloop
  endfacet
  facet normal 0.568065 1.82739e-016 -0.822984
    outer loop
      vertex 22.006 4 16.6525
      vertex 23.5816 0 17.7401
      vertex 22.006 0 16.6525
    endloop
  endfacet
  facet normal 0.885456 1.03189e-016 -0.464723
    outer loop
      vertex 21.1162 4 14.9573
      vertex 22.006 4 16.6525
      vertex 22.006 0 16.6525
    endloop
  endfacet
  facet normal 0.885456 1.03189e-016 -0.464723
    outer loop
      vertex 21.1162 0 14.9573
      vertex 21.1162 4 14.9573
      vertex 22.006 0 16.6525
    endloop
  endfacet
  facet normal 0.309017 -2.11177e-016 0.951056
    outer loop
      vertex 25.4635 0 4.57342
      vertex 25.4635 4 4.57342
      vertex 23.7865 4 5.11832
    endloop
  endfacet
  facet normal 0.309017 -2.11177e-016 0.951056
    outer loop
      vertex 23.7865 0 5.11832
      vertex 25.4635 0 4.57342
      vertex 23.7865 4 5.11832
    endloop
  endfacet
  facet normal 1 0 0
    outer loop
      vertex 23.7865 4 5.11832
      vertex 23.7865 4 6.88168
      vertex 23.7865 0 6.88168
    endloop
  endfacet
  facet normal 1 0 0
    outer loop
      vertex 23.7865 0 5.11832
      vertex 23.7865 4 5.11832
      vertex 23.7865 0 6.88168
    endloop
  endfacet
  facet normal -0.809017 -1.30515e-016 0.587785
    outer loop
      vertex 26.5 4 6
      vertex 25.4635 4 4.57342
      vertex 26.5 0 6
    endloop
  endfacet
  facet normal -0.809017 -1.30515e-016 0.587785
    outer loop
      vertex 26.5 0 6
      vertex 25.4635 4 4.57342
      vertex 25.4635 0 4.57342
    endloop
  endfacet
  facet normal -0.809017 1.30515e-016 -0.587785
    outer loop
      vertex 26.5 4 6
      vertex 26.5 0 6
      vertex 25.4635 4 7.42659
    endloop
  endfacet
  facet normal -0.809017 1.30515e-016 -0.587785
    outer loop
      vertex 25.4635 4 7.42659
      vertex 26.5 0 6
      vertex 25.4635 0 7.42659
    endloop
  endfacet
  facet normal 0.309017 2.11177e-016 -0.951056
    outer loop
      vertex 25.4635 4 7.42659
      vertex 25.4635 0 7.42659
      vertex 23.7865 4 6.88168
    endloop
  endfacet
  facet normal 0.309017 2.11177e-016 -0.951056
    outer loop
      vertex 23.7865 4 6.88168
      vertex 25.4635 0 7.42659
      vertex 23.7865 0 6.88168
    endloop
  endfacet
  facet normal 0.309017 -2.11177e-016 0.951056
    outer loop
      vertex 25.4635 0 20.5734
      vertex 25.4635 4 20.5734
      vertex 23.7865 4 21.1183
    endloop
  endfacet
  facet normal 0.309017 -2.11177e-016 0.951056
    outer loop
      vertex 23.7865 0 21.1183
      vertex 25.4635 0 20.5734
      vertex 23.7865 4 21.1183
    endloop
  endfacet
  facet normal 1 0 0
    outer loop
      vertex 23.7865 4 21.1183
      vertex 23.7865 4 22.8817
      vertex 23.7865 0 22.8817
    endloop
  endfacet
  facet normal 1 0 0
    outer loop
      vertex 23.7865 0 21.1183
      vertex 23.7865 4 21.1183
      vertex 23.7865 0 22.8817
    endloop
  endfacet
  facet normal -0.809017 -1.30515e-016 0.587785
    outer loop
      vertex 26.5 4 22
      vertex 25.4635 4 20.5734
      vertex 26.5 0 22
    endloop
  endfacet
  facet normal -0.809017 -1.30515e-016 0.587785
    outer loop
      vertex 26.5 0 22
      vertex 25.4635 4 20.5734
      vertex 25.4635 0 20.5734
    endloop
  endfacet
  facet normal -0.809017 1.30515e-016 -0.587785
    outer loop
      vertex 26.5 4 22
      vertex 26.5 0 22
      vertex 25.4635 4 23.4266
    endloop
  endfacet
  facet normal -0.809017 1.30515e-016 -0.587785
    outer loop
      vertex 25.4635 4 23.4266
      vertex 26.5 0 22
      vertex 25.4635 0 23.4266
    endloop
  endfacet
  facet normal 0.309017 2.11177e-016 -0.951056
    outer loop
      vertex 25.4635 4 23.4266
      vertex 25.4635 0 23.4266
      vertex 23.7865 4 22.8817
    endloop
  endfacet
  facet normal 0.309017 2.11177e-016 -0.951056
    outer loop
      vertex 23.7865 4 22.8817
      vertex 25.4635 0 23.4266
      vertex 23.7865 0 22.8817
    endloop
  endfacet
  facet normal 0.309017 -2.11177e-016 0.951056
    outer loop
      vertex 33.4635 0 12.5734
      vertex 33.4635 4 12.5734
      vertex 31.7865 4 13.1183
    endloop
  endfacet
  facet normal 0.309017 -2.11177e-016 0.951056
    outer loop
      vertex 31.7865 0 13.1183
      vertex 33.4635 0 12.5734
      vertex 31.7865 4 13.1183
    endloop
  endfacet
  facet normal 1 0 0
    outer loop
      vertex 31.7865 4 13.1183
      vertex 31.7865 4 14.8817
      vertex 31.7865 0 14.8817
    endloop
  endfacet
  facet normal 1 0 0
    outer loop
      vertex 31.7865 0 13.1183
      vertex 31.7865 4 13.1183
      vertex 31.7865 0 14.8817
    endloop
  endfacet
  facet normal -0.809017 -1.30515e-016 0.587785
    outer loop
      vertex 34.5 4 14
      vertex 33.4635 4 12.5734
      vertex 34.5 0 14
    endloop
  endfacet
  facet normal -0.809017 -1.30515e-016 0.587785
    outer loop
      vertex 34.5 0 14
      vertex 33.4635 4 12.5734
      vertex 33.4635 0 12.5734
    endloop
  endfacet
  facet normal -0.809017 1.30515e-016 -0.587785
    outer loop
      vertex 34.5 4 14
      vertex 34.5 0 14
      vertex 33.4635 4 15.4266
    endloop
  endfacet
  facet normal -0.809017 1.30515e-016 -0.587785
    outer loop
      vertex 33.4635 4 15.4266
      vertex 34.5 0 14
      vertex 33.4635 0 15.4266
    endloop
  endfacet
  facet normal 0.309017 2.11177e-016 -0.951056
    outer loop
      vertex 33.4635 4 15.4266
      vertex 33.4635 0 15.4266
      vertex 31.7865 4 14.8817
    endloop
  endfacet
  facet normal 0.309017 2.11177e-016 -0.951056
    outer loop
      vertex 31.7865 4 14.8817
      vertex 33.4635 0 15.4266
      vertex 31.7865 0 14.8817
    endloop
  endfacet
  facet normal 0 0.939693 -0.34202
    outer loop
      vertex 50 50 27.4748
      vertex 50 40 0
      vertex 46 50 27.4748
    endloop
  endfacet
  facet normal 0 0.939693 -0.34202
    outer loop
      vertex 46 50 27.4748
      vertex 50 40 0
      vertex 46 40 0
    endloop
  endfacet
  facet normal -1 0 0
    outer loop
      vertex 46 6.68243 29.5
      vertex 46 6.67205 29.5589
      vertex 46 20 31.909
    endloop
  endfacet
  facet normal -1 0 0
    outer loop
      vertex 46 20 31.909
      vertex 46 20 32
      vertex 46 50 32
    endloop
  endfacet
  facet normal -1 0 0
    outer loop
      vertex 46 20 31.909
      vertex 46 50 32
      vertex 46 6.68243 29.5
    endloop
  endfacet
  facet normal -1 0 0
    outer loop
      vertex 46 6.68243 29.5
      vertex 46 50 32
      vertex 46 50 27.4748
    endloop
  endfacet
  facet normal -1 0 0
    outer loop
      vertex 46 6.68243 29.5
      vertex 46 50 27.4748
      vertex 46 4 29.5
    endloop
  endfacet
  facet normal -1 0 0
    outer loop
      vertex 46 22.0427 16.8838
      vertex 46 4 29.5
      vertex 46 23.9573 16.8838
    endloop
  endfacet
  facet normal -1 0 0
    outer loop
      vertex 46 13.5734 12.5365
      vertex 46 4 0
      vertex 46 4 29.5
    endloop
  endfacet
  facet normal -1 0 0
    outer loop
      vertex 46 15 11.5
      vertex 46 4 0
      vertex 46 13.5734 12.5365
    endloop
  endfacet
  facet normal -1 0 0
    outer loop
      vertex 46 14.1183 14.2135
      vertex 46 13.5734 12.5365
      vertex 46 4 29.5
    endloop
  endfacet
  facet normal -1 0 0
    outer loop
      vertex 46 21.5734 4.53648
      vertex 46 4 0
      vertex 46 15 11.5
    endloop
  endfacet
  facet normal -1 0 0
    outer loop
      vertex 46 14.1183 14.2135
      vertex 46 4 29.5
      vertex 46 15.8817 14.2135
    endloop
  endfacet
  facet normal -1 0 0
    outer loop
      vertex 46 19.7081 10.7277
      vertex 46 15.8817 14.2135
      vertex 46 19.0292 12.5179
    endloop
  endfacet
  facet normal -1 0 0
    outer loop
      vertex 46 19.0292 12.5179
      vertex 46 15.8817 14.2135
      vertex 46 4 29.5
    endloop
  endfacet
  facet normal -1 0 0
    outer loop
      vertex 46 19.7081 10.7277
      vertex 46 16.4266 12.5365
      vertex 46 15.8817 14.2135
    endloop
  endfacet
  facet normal -1 0 0
    outer loop
      vertex 46 19.2599 14.4184
      vertex 46 19.0292 12.5179
      vertex 46 4 29.5
    endloop
  endfacet
  facet normal -1 0 0
    outer loop
      vertex 46 23 9
      vertex 46 40 0
      vertex 46 21.1411 9.45818
    endloop
  endfacet
  facet normal -1 0 0
    outer loop
      vertex 46 19.2599 14.4184
      vertex 46 4 29.5
      vertex 46 20.3475 15.994
    endloop
  endfacet
  facet normal -1 0 0
    outer loop
      vertex 46 24.8589 9.45818
      vertex 46 40 0
      vertex 46 23 9
    endloop
  endfacet
  facet normal -1 0 0
    outer loop
      vertex 46 26.9708 12.5179
      vertex 46 40 0
      vertex 46 26.2919 10.7277
    endloop
  endfacet
  facet normal -1 0 0
    outer loop
      vertex 46 40 0
      vertex 46 24.8589 9.45818
      vertex 46 26.2919 10.7277
    endloop
  endfacet
  facet normal -1 0 0
    outer loop
      vertex 46 29.5734 12.5365
      vertex 46 40 0
      vertex 46 26.9708 12.5179
    endloop
  endfacet
  facet normal -1 0 0
    outer loop
      vertex 46 50 27.4748
      vertex 46 26.9708 12.5179
      vertex 46 26.7401 14.4184
    endloop
  endfacet
  facet normal -1 0 0
    outer loop
      vertex 46 50 27.4748
      vertex 46 26.7401 14.4184
      vertex 46 25.6525 15.994
    endloop
  endfacet
  facet normal -1 0 0
    outer loop
      vertex 46 21.5734 20.5365
      vertex 46 25.6525 15.994
      vertex 46 4 29.5
    endloop
  endfacet
  facet normal -1 0 0
    outer loop
      vertex 46 25.6525 15.994
      vertex 46 23.9573 16.8838
      vertex 46 4 29.5
    endloop
  endfacet
  facet normal -1 0 0
    outer loop
      vertex 46 20.3475 15.994
      vertex 46 4 29.5
      vertex 46 22.0427 16.8838
    endloop
  endfacet
  facet normal -1 0 0
    outer loop
      vertex 46 24.4266 4.53648
      vertex 46 40 0
      vertex 46 23 3.5
    endloop
  endfacet
  facet normal -1 0 0
    outer loop
      vertex 46 23 3.5
      vertex 46 4 0
      vertex 46 21.5734 4.53648
    endloop
  endfacet
  facet normal -1 0 0
    outer loop
      vertex 46 22.1183 6.21353
      vertex 46 21.5734 4.53648
      vertex 46 15 11.5
    endloop
  endfacet
  facet normal -1 0 0
    outer loop
      vertex 46 40 0
      vertex 46 4 0
      vertex 46 23 3.5
    endloop
  endfacet
  facet normal -1 0 0
    outer loop
      vertex 46 22.1183 6.21353
      vertex 46 15 11.5
      vertex 46 23.8817 6.21353
    endloop
  endfacet
  facet normal -1 0 0
    outer loop
      vertex 46 40 0
      vertex 46 24.4266 4.53648
      vertex 46 23.8817 6.21353
    endloop
  endfacet
  facet normal -1 0 0
    outer loop
      vertex 46 40 0
      vertex 46 23.8817 6.21353
      vertex 46 15 11.5
    endloop
  endfacet
  facet normal -1 0 0
    outer loop
      vertex 46 23.8817 22.2135
      vertex 46 50 27.4748
      vertex 46 24.4266 20.5365
    endloop
  endfacet
  facet normal -1 0 0
    outer loop
      vertex 46 23 19.5
      vertex 46 25.6525 15.994
      vertex 46 21.5734 20.5365
    endloop
  endfacet
  facet normal -1 0 0
    outer loop
      vertex 46 22.1183 22.2135
      vertex 46 21.5734 20.5365
      vertex 46 4 29.5
    endloop
  endfacet
  facet normal -1 0 0
    outer loop
      vertex 46 50 27.4748
      vertex 46 25.6525 15.994
      vertex 46 23 19.5
    endloop
  endfacet
  facet normal -1 0 0
    outer loop
      vertex 46 50 27.4748
      vertex 46 23 19.5
      vertex 46 24.4266 20.5365
    endloop
  endfacet
  facet normal -1 0 0
    outer loop
      vertex 46 31.8817 14.2135
      vertex 46 50 27.4748
      vertex 46 32.4266 12.5365
    endloop
  endfacet
  facet normal -1 0 0
    outer loop
      vertex 46 50 27.4748
      vertex 46 23.8817 22.2135
      vertex 46 4 29.5
    endloop
  endfacet
  facet normal -1 0 0
    outer loop
      vertex 46 23.8817 22.2135
      vertex 46 22.1183 22.2135
      vertex 46 4 29.5
    endloop
  endfacet
  facet normal -1 0 0
    outer loop
      vertex 46 31 11.5
      vertex 46 40 0
      vertex 46 29.5734 12.5365
    endloop
  endfacet
  facet normal -1 0 0
    outer loop
      vertex 46 30.1183 14.2135
      vertex 46 29.5734 12.5365
      vertex 46 26.9708 12.5179
    endloop
  endfacet
  facet normal -1 0 0
    outer loop
      vertex 46 32.4266 12.5365
      vertex 46 40 0
      vertex 46 31 11.5
    endloop
  endfacet
  facet normal -1 0 0
    outer loop
      vertex 46 50 27.4748
      vertex 46 40 0
      vertex 46 32.4266 12.5365
    endloop
  endfacet
  facet normal -1 0 0
    outer loop
      vertex 46 30.1183 14.2135
      vertex 46 50 27.4748
      vertex 46 31.8817 14.2135
    endloop
  endfacet
  facet normal -1 0 0
    outer loop
      vertex 46 50 27.4748
      vertex 46 30.1183 14.2135
      vertex 46 26.9708 12.5179
    endloop
  endfacet
  facet normal -1 0 0
    outer loop
      vertex 46 16.4266 12.5365
      vertex 46 19.7081 10.7277
      vertex 46 21.1411 9.45818
    endloop
  endfacet
  facet normal -1 0 0
    outer loop
      vertex 46 21.1411 9.45818
      vertex 46 40 0
      vertex 46 15 11.5
    endloop
  endfacet
  facet normal -1 0 0
    outer loop
      vertex 46 16.4266 12.5365
      vertex 46 21.1411 9.45818
      vertex 46 15 11.5
    endloop
  endfacet
  facet normal 0 1 0
    outer loop
      vertex 23.5816 4 17.7401
      vertex 4 4 29.5
      vertex 25.4821 4 17.9708
    endloop
  endfacet
  facet normal 0 1 0
    outer loop
      vertex 25.4635 4 4.57342
      vertex 46 4 0
      vertex 4 4 0
    endloop
  endfacet
  facet normal 0 1 0
    outer loop
      vertex 17.4635 4 12.5734
      vertex 46 4 0
      vertex 15.7865 4 13.1183
    endloop
  endfacet
  facet normal 0 1 0
    outer loop
      vertex 4 4 29.5
      vertex 15.7865 4 13.1183
      vertex 4 4 0
    endloop
  endfacet
  facet normal 0 1 0
    outer loop
      vertex 23.5816 4 10.2599
      vertex 46 4 0
      vertex 17.4635 4 12.5734
    endloop
  endfacet
  facet normal 0 1 0
    outer loop
      vertex 15.7865 4 14.8817
      vertex 4 4 29.5
      vertex 17.4635 4 15.4266
    endloop
  endfacet
  facet normal 0 1 0
    outer loop
      vertex 29 4 14
      vertex 46 4 0
      vertex 28.5418 4 12.1411
    endloop
  endfacet
  facet normal 0 1 0
    outer loop
      vertex 21.1162 4 13.0427
      vertex 17.4635 4 15.4266
      vertex 21.1162 4 14.9573
    endloop
  endfacet
  facet normal 0 1 0
    outer loop
      vertex 22.006 4 11.3475
      vertex 18.5 4 14
      vertex 21.1162 4 13.0427
    endloop
  endfacet
  facet normal 0 1 0
    outer loop
      vertex 17.4635 4 15.4266
      vertex 21.1162 4 13.0427
      vertex 18.5 4 14
    endloop
  endfacet
  facet normal 0 1 0
    outer loop
      vertex 27.2723 4 10.7081
      vertex 46 4 0
      vertex 25.4821 4 10.0292
    endloop
  endfacet
  facet normal 0 1 0
    outer loop
      vertex 18.5 4 14
      vertex 22.006 4 11.3475
      vertex 17.4635 4 12.5734
    endloop
  endfacet
  facet normal 0 1 0
    outer loop
      vertex 22.006 4 11.3475
      vertex 23.5816 4 10.2599
      vertex 17.4635 4 12.5734
    endloop
  endfacet
  facet normal 0 1 0
    outer loop
      vertex 25.4821 4 10.0292
      vertex 46 4 0
      vertex 23.5816 4 10.2599
    endloop
  endfacet
  facet normal 0 1 0
    outer loop
      vertex 28.5418 4 12.1411
      vertex 46 4 0
      vertex 27.2723 4 10.7081
    endloop
  endfacet
  facet normal 0 1 0
    outer loop
      vertex 31.7865 4 13.1183
      vertex 46 4 0
      vertex 29 4 14
    endloop
  endfacet
  facet normal 0 1 0
    outer loop
      vertex 46 4 29.5
      vertex 29 4 14
      vertex 28.5418 4 15.8589
    endloop
  endfacet
  facet normal 0 1 0
    outer loop
      vertex 46 4 29.5
      vertex 28.5418 4 15.8589
      vertex 27.2723 4 17.2919
    endloop
  endfacet
  facet normal 0 1 0
    outer loop
      vertex 23.7865 4 21.1183
      vertex 27.2723 4 17.2919
      vertex 4 4 29.5
    endloop
  endfacet
  facet normal 0 1 0
    outer loop
      vertex 27.2723 4 17.2919
      vertex 25.4821 4 17.9708
      vertex 4 4 29.5
    endloop
  endfacet
  facet normal 0 1 0
    outer loop
      vertex 22.006 4 16.6525
      vertex 4 4 29.5
      vertex 23.5816 4 17.7401
    endloop
  endfacet
  facet normal 0 1 0
    outer loop
      vertex 21.1162 4 14.9573
      vertex 4 4 29.5
      vertex 22.006 4 16.6525
    endloop
  endfacet
  facet normal 0 1 0
    outer loop
      vertex 26.5 4 6
      vertex 46 4 0
      vertex 25.4635 4 4.57342
    endloop
  endfacet
  facet normal 0 1 0
    outer loop
      vertex 4 4 29.5
      vertex 21.1162 4 14.9573
      vertex 17.4635 4 15.4266
    endloop
  endfacet
  facet normal 0 1 0
    outer loop
      vertex 23.7865 4 6.88168
      vertex 15.7865 4 13.1183
      vertex 25.4635 4 7.42659
    endloop
  endfacet
  facet normal 0 1 0
    outer loop
      vertex 15.7865 4 13.1183
      vertex 23.7865 4 5.11832
      vertex 4 4 0
    endloop
  endfacet
  facet normal 0 1 0
    outer loop
      vertex 23.7865 4 5.11832
      vertex 25.4635 4 4.57342
      vertex 4 4 0
    endloop
  endfacet
  facet normal 0 1 0
    outer loop
      vertex 25.4635 4 7.42659
      vertex 46 4 0
      vertex 26.5 4 6
    endloop
  endfacet
  facet normal 0 1 0
    outer loop
      vertex 15.7865 4 13.1183
      vertex 46 4 0
      vertex 25.4635 4 7.42659
    endloop
  endfacet
  facet normal 0 1 0
    outer loop
      vertex 25.4635 4 23.4266
      vertex 46 4 29.5
      vertex 26.5 4 22
    endloop
  endfacet
  facet normal 0 1 0
    outer loop
      vertex 15.7865 4 13.1183
      vertex 23.7865 4 6.88168
      vertex 23.7865 4 5.11832
    endloop
  endfacet
  facet normal 0 1 0
    outer loop
      vertex 25.4635 4 20.5734
      vertex 27.2723 4 17.2919
      vertex 23.7865 4 21.1183
    endloop
  endfacet
  facet normal 0 1 0
    outer loop
      vertex 23.7865 4 22.8817
      vertex 23.7865 4 21.1183
      vertex 4 4 29.5
    endloop
  endfacet
  facet normal 0 1 0
    outer loop
      vertex 46 4 29.5
      vertex 27.2723 4 17.2919
      vertex 25.4635 4 20.5734
    endloop
  endfacet
  facet normal 0 1 0
    outer loop
      vertex 46 4 29.5
      vertex 25.4635 4 20.5734
      vertex 26.5 4 22
    endloop
  endfacet
  facet normal 0 1 0
    outer loop
      vertex 33.4635 4 15.4266
      vertex 46 4 29.5
      vertex 34.5 4 14
    endloop
  endfacet
  facet normal 0 1 0
    outer loop
      vertex 46 4 29.5
      vertex 25.4635 4 23.4266
      vertex 4 4 29.5
    endloop
  endfacet
  facet normal 0 1 0
    outer loop
      vertex 25.4635 4 23.4266
      vertex 23.7865 4 22.8817
      vertex 4 4 29.5
    endloop
  endfacet
  facet normal 0 1 0
    outer loop
      vertex 33.4635 4 12.5734
      vertex 46 4 0
      vertex 31.7865 4 13.1183
    endloop
  endfacet
  facet normal 0 1 0
    outer loop
      vertex 31.7865 4 14.8817
      vertex 31.7865 4 13.1183
      vertex 29 4 14
    endloop
  endfacet
  facet normal 0 1 0
    outer loop
      vertex 46 4 29.5
      vertex 46 4 0
      vertex 33.4635 4 12.5734
    endloop
  endfacet
  facet normal 0 1 0
    outer loop
      vertex 46 4 29.5
      vertex 33.4635 4 12.5734
      vertex 34.5 4 14
    endloop
  endfacet
  facet normal 0 1 0
    outer loop
      vertex 46 4 29.5
      vertex 33.4635 4 15.4266
      vertex 29 4 14
    endloop
  endfacet
  facet normal 0 1 0
    outer loop
      vertex 33.4635 4 15.4266
      vertex 31.7865 4 14.8817
      vertex 29 4 14
    endloop
  endfacet
  facet normal 0 1 0
    outer loop
      vertex 15.7865 4 13.1183
      vertex 4 4 29.5
      vertex 15.7865 4 14.8817
    endloop
  endfacet
  facet normal 1 0 0
    outer loop
      vertex 4 40 0
      vertex 4 50 27.4748
      vertex 4 50 32
    endloop
  endfacet
  facet normal 1 0 0
    outer loop
      vertex 4 31.8817 14.2135
      vertex 4 40 0
      vertex 4 50 32
    endloop
  endfacet
  facet normal 1 0 0
    outer loop
      vertex 4 26.7401 14.4184
      vertex 4 26.9708 12.5179
      vertex 4 40 0
    endloop
  endfacet
  facet normal 1 0 0
    outer loop
      vertex 4 26.9708 12.5179
      vertex 4 26.2919 10.7277
      vertex 4 40 0
    endloop
  endfacet
  facet normal 1 0 0
    outer loop
      vertex 4 24.8589 9.45818
      vertex 4 23 9
      vertex 4 40 0
    endloop
  endfacet
  facet normal 1 0 0
    outer loop
      vertex 4 4 0
      vertex 4 14.1183 14.2135
      vertex 4 4 29.5
    endloop
  endfacet
  facet normal 1 0 0
    outer loop
      vertex 4 14.1183 14.2135
      vertex 4 15.8817 14.2135
      vertex 4 4 29.5
    endloop
  endfacet
  facet normal 1 0 0
    outer loop
      vertex 4 19.0292 12.5179
      vertex 4 19.2599 14.4184
      vertex 4 15.8817 14.2135
    endloop
  endfacet
  facet normal 1 0 0
    outer loop
      vertex 4 4 0
      vertex 4 16.4266 12.5365
      vertex 4 15 11.5
    endloop
  endfacet
  facet normal 1 0 0
    outer loop
      vertex 4 4 0
      vertex 4 13.5734 12.5365
      vertex 4 14.1183 14.2135
    endloop
  endfacet
  facet normal 1 0 0
    outer loop
      vertex 4 4 0
      vertex 4 15 11.5
      vertex 4 13.5734 12.5365
    endloop
  endfacet
  facet normal 1 0 0
    outer loop
      vertex 4 15.8817 14.2135
      vertex 4 19.2599 14.4184
      vertex 4 4 29.5
    endloop
  endfacet
  facet normal 1 0 0
    outer loop
      vertex 4 23.8817 6.21353
      vertex 4 24.4266 4.53648
      vertex 4 40 0
    endloop
  endfacet
  facet normal 1 0 0
    outer loop
      vertex 4 19.2599 14.4184
      vertex 4 20.3475 15.994
      vertex 4 4 29.5
    endloop
  endfacet
  facet normal 1 0 0
    outer loop
      vertex 4 6.67205 29.5589
      vertex 4 22.0427 16.8838
      vertex 4 20 31.909
    endloop
  endfacet
  facet normal 1 0 0
    outer loop
      vertex 4 24.4266 20.5365
      vertex 4 23.9573 16.8838
      vertex 4 25.6525 15.994
    endloop
  endfacet
  facet normal 1 0 0
    outer loop
      vertex 4 26.7401 14.4184
      vertex 4 40 0
      vertex 4 25.6525 15.994
    endloop
  endfacet
  facet normal 1 0 0
    outer loop
      vertex 4 26.2919 10.7277
      vertex 4 24.8589 9.45818
      vertex 4 40 0
    endloop
  endfacet
  facet normal 1 0 0
    outer loop
      vertex 4 24.4266 20.5365
      vertex 4 23 19.5
      vertex 4 23.9573 16.8838
    endloop
  endfacet
  facet normal 1 0 0
    outer loop
      vertex 4 22.1183 22.2135
      vertex 4 23.8817 22.2135
      vertex 4 20 31.909
    endloop
  endfacet
  facet normal 1 0 0
    outer loop
      vertex 4 23.8817 6.21353
      vertex 4 40 0
      vertex 4 23 9
    endloop
  endfacet
  facet normal 1 0 0
    outer loop
      vertex 4 4 0
      vertex 4 21.1411 9.45818
      vertex 4 16.4266 12.5365
    endloop
  endfacet
  facet normal 1 0 0
    outer loop
      vertex 4 4 0
      vertex 4 23 9
      vertex 4 21.1411 9.45818
    endloop
  endfacet
  facet normal 1 0 0
    outer loop
      vertex 4 21.1411 9.45818
      vertex 4 19.7081 10.7277
      vertex 4 16.4266 12.5365
    endloop
  endfacet
  facet normal 1 0 0
    outer loop
      vertex 4 20.3475 15.994
      vertex 4 6.68243 29.5
      vertex 4 4 29.5
    endloop
  endfacet
  facet normal 1 0 0
    outer loop
      vertex 4 19.7081 10.7277
      vertex 4 19.0292 12.5179
      vertex 4 15.8817 14.2135
    endloop
  endfacet
  facet normal 1 0 0
    outer loop
      vertex 4 4 0
      vertex 4 22.1183 6.21353
      vertex 4 23 9
    endloop
  endfacet
  facet normal 1 0 0
    outer loop
      vertex 4 22.1183 6.21353
      vertex 4 23.8817 6.21353
      vertex 4 23 9
    endloop
  endfacet
  facet normal 1 0 0
    outer loop
      vertex 4 23 3.5
      vertex 4 21.5734 4.53648
      vertex 4 4 0
    endloop
  endfacet
  facet normal 1 0 0
    outer loop
      vertex 4 23 3.5
      vertex 4 40 0
      vertex 4 24.4266 4.53648
    endloop
  endfacet
  facet normal 1 0 0
    outer loop
      vertex 4 23 19.5
      vertex 4 21.5734 20.5365
      vertex 4 22.0427 16.8838
    endloop
  endfacet
  facet normal 1 0 0
    outer loop
      vertex 4 4 0
      vertex 4 40 0
      vertex 4 23 3.5
    endloop
  endfacet
  facet normal 1 0 0
    outer loop
      vertex 4 4 0
      vertex 4 21.5734 4.53648
      vertex 4 22.1183 6.21353
    endloop
  endfacet
  facet normal 1 0 0
    outer loop
      vertex 4 29.5734 12.5365
      vertex 4 24.4266 20.5365
      vertex 4 25.6525 15.994
    endloop
  endfacet
  facet normal 1 0 0
    outer loop
      vertex 4 21.5734 20.5365
      vertex 4 22.1183 22.2135
      vertex 4 20 31.909
    endloop
  endfacet
  facet normal 1 0 0
    outer loop
      vertex 4 29.5734 12.5365
      vertex 4 23.8817 22.2135
      vertex 4 24.4266 20.5365
    endloop
  endfacet
  facet normal 1 0 0
    outer loop
      vertex 4 30.1183 14.2135
      vertex 4 20 32
      vertex 4 20 31.909
    endloop
  endfacet
  facet normal 1 0 0
    outer loop
      vertex 4 22.0427 16.8838
      vertex 4 23.9573 16.8838
      vertex 4 23 19.5
    endloop
  endfacet
  facet normal 1 0 0
    outer loop
      vertex 4 22.0427 16.8838
      vertex 4 21.5734 20.5365
      vertex 4 20 31.909
    endloop
  endfacet
  facet normal 1 0 0
    outer loop
      vertex 4 23.8817 22.2135
      vertex 4 30.1183 14.2135
      vertex 4 20 31.909
    endloop
  endfacet
  facet normal 1 0 0
    outer loop
      vertex 4 20 32
      vertex 4 31.8817 14.2135
      vertex 4 50 32
    endloop
  endfacet
  facet normal 1 0 0
    outer loop
      vertex 4 32.4266 12.5365
      vertex 4 40 0
      vertex 4 31.8817 14.2135
    endloop
  endfacet
  facet normal 1 0 0
    outer loop
      vertex 4 32.4266 12.5365
      vertex 4 31 11.5
      vertex 4 40 0
    endloop
  endfacet
  facet normal 1 0 0
    outer loop
      vertex 4 30.1183 14.2135
      vertex 4 31.8817 14.2135
      vertex 4 20 32
    endloop
  endfacet
  facet normal 1 0 0
    outer loop
      vertex 4 29.5734 12.5365
      vertex 4 40 0
      vertex 4 31 11.5
    endloop
  endfacet
  facet normal 1 0 0
    outer loop
      vertex 4 25.6525 15.994
      vertex 4 40 0
      vertex 4 29.5734 12.5365
    endloop
  endfacet
  facet normal 1 0 0
    outer loop
      vertex 4 19.7081 10.7277
      vertex 4 15.8817 14.2135
      vertex 4 16.4266 12.5365
    endloop
  endfacet
  facet normal 1 0 0
    outer loop
      vertex 4 20.3475 15.994
      vertex 4 6.67205 29.5589
      vertex 4 6.68243 29.5
    endloop
  endfacet
  facet normal 1 0 0
    outer loop
      vertex 4 20.3475 15.994
      vertex 4 22.0427 16.8838
      vertex 4 6.67205 29.5589
    endloop
  endfacet
  facet normal 1 0 0
    outer loop
      vertex 4 29.5734 12.5365
      vertex 4 30.1183 14.2135
      vertex 4 23.8817 22.2135
    endloop
  endfacet
  facet normal 0 0 -1
    outer loop
      vertex 46 50 32
      vertex 46 20 32
      vertex 4 50 32
    endloop
  endfacet
  facet normal 0 0 -1
    outer loop
      vertex 4 50 32
      vertex 46 20 32
      vertex 4 20 32
    endloop
  endfacet
  facet normal 6.86156e-017 0.951056 -0.309017
    outer loop
      vertex 50 14.1183 14.2135
      vertex 50 13.5734 12.5365
      vertex 46 14.1183 14.2135
    endloop
  endfacet
  facet normal 6.86156e-017 0.951056 -0.309017
    outer loop
      vertex 46 14.1183 14.2135
      vertex 50 13.5734 12.5365
      vertex 46 13.5734 12.5365
    endloop
  endfacet
  facet normal -1.79638e-016 0.587785 0.809017
    outer loop
      vertex 50 13.5734 12.5365
      vertex 50 15 11.5
      vertex 46 15 11.5
    endloop
  endfacet
  facet normal -1.79638e-016 0.587785 0.809017
    outer loop
      vertex 46 13.5734 12.5365
      vertex 50 13.5734 12.5365
      vertex 46 15 11.5
    endloop
  endfacet
  facet normal -1.79638e-016 -0.587785 0.809017
    outer loop
      vertex 50 15 11.5
      vertex 50 16.4266 12.5365
      vertex 46 16.4266 12.5365
    endloop
  endfacet
  facet normal -1.79638e-016 -0.587785 0.809017
    outer loop
      vertex 46 15 11.5
      vertex 50 15 11.5
      vertex 46 16.4266 12.5365
    endloop
  endfacet
  facet normal 6.86156e-017 -0.951056 -0.309017
    outer loop
      vertex 46 16.4266 12.5365
      vertex 50 16.4266 12.5365
      vertex 50 15.8817 14.2135
    endloop
  endfacet
  facet normal 6.86156e-017 -0.951056 -0.309017
    outer loop
      vertex 46 15.8817 14.2135
      vertex 46 16.4266 12.5365
      vertex 50 15.8817 14.2135
    endloop
  endfacet
  facet normal 2.22045e-016 0 -1
    outer loop
      vertex 50 15.8817 14.2135
      vertex 50 14.1183 14.2135
      vertex 46 15.8817 14.2135
    endloop
  endfacet
  facet normal 2.22045e-016 0 -1
    outer loop
      vertex 46 15.8817 14.2135
      vertex 50 14.1183 14.2135
      vertex 46 14.1183 14.2135
    endloop
  endfacet
  facet normal 2.67644e-017 0.992709 -0.120536
    outer loop
      vertex 50 19.2599 14.4184
      vertex 50 19.0292 12.5179
      vertex 46 19.2599 14.4184
    endloop
  endfacet
  facet normal 2.67644e-017 0.992709 -0.120536
    outer loop
      vertex 46 19.2599 14.4184
      vertex 50 19.0292 12.5179
      vertex 46 19.0292 12.5179
    endloop
  endfacet
  facet normal -7.87381e-017 0.935016 0.354605
    outer loop
      vertex 50 19.7081 10.7277
      vertex 46 19.7081 10.7277
      vertex 50 19.0292 12.5179
    endloop
  endfacet
  facet normal -7.87381e-017 0.935016 0.354605
    outer loop
      vertex 50 19.0292 12.5179
      vertex 46 19.7081 10.7277
      vertex 46 19.0292 12.5179
    endloop
  endfacet
  facet normal -1.66203e-016 0.663123 0.748511
    outer loop
      vertex 50 19.7081 10.7277
      vertex 50 21.1411 9.45818
      vertex 46 21.1411 9.45818
    endloop
  endfacet
  facet normal -1.66203e-016 0.663123 0.748511
    outer loop
      vertex 46 19.7081 10.7277
      vertex 50 19.7081 10.7277
      vertex 46 21.1411 9.45818
    endloop
  endfacet
  facet normal -2.15592e-016 0.239316 0.970942
    outer loop
      vertex 50 21.1411 9.45818
      vertex 50 23 9
      vertex 46 23 9
    endloop
  endfacet
  facet normal -2.15592e-016 0.239316 0.970942
    outer loop
      vertex 46 21.1411 9.45818
      vertex 50 21.1411 9.45818
      vertex 46 23 9
    endloop
  endfacet
  facet normal -2.15592e-016 -0.239316 0.970942
    outer loop
      vertex 50 23 9
      vertex 50 24.8589 9.45818
      vertex 46 24.8589 9.45818
    endloop
  endfacet
  facet normal -2.15592e-016 -0.239316 0.970942
    outer loop
      vertex 46 23 9
      vertex 50 23 9
      vertex 46 24.8589 9.45818
    endloop
  endfacet
  facet normal -1.66203e-016 -0.663123 0.748511
    outer loop
      vertex 50 24.8589 9.45818
      vertex 50 26.2919 10.7277
      vertex 46 26.2919 10.7277
    endloop
  endfacet
  facet normal -1.66203e-016 -0.663123 0.748511
    outer loop
      vertex 46 24.8589 9.45818
      vertex 50 24.8589 9.45818
      vertex 46 26.2919 10.7277
    endloop
  endfacet
  facet normal -7.87381e-017 -0.935016 0.354605
    outer loop
      vertex 50 26.2919 10.7277
      vertex 50 26.9708 12.5179
      vertex 46 26.9708 12.5179
    endloop
  endfacet
  facet normal -7.87381e-017 -0.935016 0.354605
    outer loop
      vertex 46 26.2919 10.7277
      vertex 50 26.2919 10.7277
      vertex 46 26.9708 12.5179
    endloop
  endfacet
  facet normal 2.67644e-017 -0.992709 -0.120536
    outer loop
      vertex 46 26.9708 12.5179
      vertex 50 26.9708 12.5179
      vertex 50 26.7401 14.4184
    endloop
  endfacet
  facet normal 2.67644e-017 -0.992709 -0.120536
    outer loop
      vertex 46 26.7401 14.4184
      vertex 46 26.9708 12.5179
      vertex 50 26.7401 14.4184
    endloop
  endfacet
  facet normal 1.26136e-016 -0.822984 -0.568065
    outer loop
      vertex 46 26.7401 14.4184
      vertex 50 26.7401 14.4184
      vertex 50 25.6525 15.994
    endloop
  endfacet
  facet normal 1.26136e-016 -0.822984 -0.568065
    outer loop
      vertex 46 25.6525 15.994
      vertex 46 26.7401 14.4184
      vertex 50 25.6525 15.994
    endloop
  endfacet
  facet normal 1.96611e-016 -0.464723 -0.885456
    outer loop
      vertex 50 25.6525 15.994
      vertex 50 23.9573 16.8838
      vertex 46 25.6525 15.994
    endloop
  endfacet
  facet normal 1.96611e-016 -0.464723 -0.885456
    outer loop
      vertex 46 25.6525 15.994
      vertex 50 23.9573 16.8838
      vertex 46 23.9573 16.8838
    endloop
  endfacet
  facet normal 2.22045e-016 0 -1
    outer loop
      vertex 50 23.9573 16.8838
      vertex 50 22.0427 16.8838
      vertex 46 23.9573 16.8838
    endloop
  endfacet
  facet normal 2.22045e-016 0 -1
    outer loop
      vertex 46 23.9573 16.8838
      vertex 50 22.0427 16.8838
      vertex 46 22.0427 16.8838
    endloop
  endfacet
  facet normal 1.96611e-016 0.464723 -0.885456
    outer loop
      vertex 50 22.0427 16.8838
      vertex 50 20.3475 15.994
      vertex 46 22.0427 16.8838
    endloop
  endfacet
  facet normal 1.96611e-016 0.464723 -0.885456
    outer loop
      vertex 46 22.0427 16.8838
      vertex 50 20.3475 15.994
      vertex 46 20.3475 15.994
    endloop
  endfacet
  facet normal 1.26136e-016 0.822984 -0.568065
    outer loop
      vertex 50 20.3475 15.994
      vertex 50 19.2599 14.4184
      vertex 46 20.3475 15.994
    endloop
  endfacet
  facet normal 1.26136e-016 0.822984 -0.568065
    outer loop
      vertex 46 20.3475 15.994
      vertex 50 19.2599 14.4184
      vertex 46 19.2599 14.4184
    endloop
  endfacet
  facet normal 6.86156e-017 0.951056 -0.309017
    outer loop
      vertex 50 22.1183 6.21353
      vertex 50 21.5734 4.53648
      vertex 46 22.1183 6.21353
    endloop
  endfacet
  facet normal 6.86156e-017 0.951056 -0.309017
    outer loop
      vertex 46 22.1183 6.21353
      vertex 50 21.5734 4.53648
      vertex 46 21.5734 4.53648
    endloop
  endfacet
  facet normal -1.79638e-016 0.587785 0.809017
    outer loop
      vertex 50 21.5734 4.53648
      vertex 50 23 3.5
      vertex 46 23 3.5
    endloop
  endfacet
  facet normal -1.79638e-016 0.587785 0.809017
    outer loop
      vertex 46 21.5734 4.53648
      vertex 50 21.5734 4.53648
      vertex 46 23 3.5
    endloop
  endfacet
  facet normal -1.79638e-016 -0.587785 0.809017
    outer loop
      vertex 50 23 3.5
      vertex 50 24.4266 4.53648
      vertex 46 24.4266 4.53648
    endloop
  endfacet
  facet normal -1.79638e-016 -0.587785 0.809017
    outer loop
      vertex 46 23 3.5
      vertex 50 23 3.5
      vertex 46 24.4266 4.53648
    endloop
  endfacet
  facet normal 6.86156e-017 -0.951056 -0.309017
    outer loop
      vertex 46 24.4266 4.53648
      vertex 50 24.4266 4.53648
      vertex 50 23.8817 6.21353
    endloop
  endfacet
  facet normal 6.86156e-017 -0.951056 -0.309017
    outer loop
      vertex 46 23.8817 6.21353
      vertex 46 24.4266 4.53648
      vertex 50 23.8817 6.21353
    endloop
  endfacet
  facet normal 2.22045e-016 0 -1
    outer loop
      vertex 50 23.8817 6.21353
      vertex 50 22.1183 6.21353
      vertex 46 23.8817 6.21353
    endloop
  endfacet
  facet normal 2.22045e-016 0 -1
    outer loop
      vertex 46 23.8817 6.21353
      vertex 50 22.1183 6.21353
      vertex 46 22.1183 6.21353
    endloop
  endfacet
  facet normal 6.86156e-017 0.951056 -0.309017
    outer loop
      vertex 50 22.1183 22.2135
      vertex 50 21.5734 20.5365
      vertex 46 22.1183 22.2135
    endloop
  endfacet
  facet normal 6.86156e-017 0.951056 -0.309017
    outer loop
      vertex 46 22.1183 22.2135
      vertex 50 21.5734 20.5365
      vertex 46 21.5734 20.5365
    endloop
  endfacet
  facet normal -1.79638e-016 0.587785 0.809017
    outer loop
      vertex 50 21.5734 20.5365
      vertex 50 23 19.5
      vertex 46 23 19.5
    endloop
  endfacet
  facet normal -1.79638e-016 0.587785 0.809017
    outer loop
      vertex 46 21.5734 20.5365
      vertex 50 21.5734 20.5365
      vertex 46 23 19.5
    endloop
  endfacet
  facet normal -1.79638e-016 -0.587785 0.809017
    outer loop
      vertex 50 23 19.5
      vertex 50 24.4266 20.5365
      vertex 46 24.4266 20.5365
    endloop
  endfacet
  facet normal -1.79638e-016 -0.587785 0.809017
    outer loop
      vertex 46 23 19.5
      vertex 50 23 19.5
      vertex 46 24.4266 20.5365
    endloop
  endfacet
  facet normal 6.86156e-017 -0.951056 -0.309017
    outer loop
      vertex 46 24.4266 20.5365
      vertex 50 24.4266 20.5365
      vertex 50 23.8817 22.2135
    endloop
  endfacet
  facet normal 6.86156e-017 -0.951056 -0.309017
    outer loop
      vertex 46 23.8817 22.2135
      vertex 46 24.4266 20.5365
      vertex 50 23.8817 22.2135
    endloop
  endfacet
  facet normal 2.22045e-016 0 -1
    outer loop
      vertex 50 23.8817 22.2135
      vertex 50 22.1183 22.2135
      vertex 46 23.8817 22.2135
    endloop
  endfacet
  facet normal 2.22045e-016 0 -1
    outer loop
      vertex 46 23.8817 22.2135
      vertex 50 22.1183 22.2135
      vertex 46 22.1183 22.2135
    endloop
  endfacet
  facet normal 6.86156e-017 0.951056 -0.309017
    outer loop
      vertex 50 30.1183 14.2135
      vertex 50 29.5734 12.5365
      vertex 46 30.1183 14.2135
    endloop
  endfacet
  facet normal 6.86156e-017 0.951056 -0.309017
    outer loop
      vertex 46 30.1183 14.2135
      vertex 50 29.5734 12.5365
      vertex 46 29.5734 12.5365
    endloop
  endfacet
  facet normal -1.79638e-016 0.587785 0.809017
    outer loop
      vertex 50 29.5734 12.5365
      vertex 50 31 11.5
      vertex 46 31 11.5
    endloop
  endfacet
  facet normal -1.79638e-016 0.587785 0.809017
    outer loop
      vertex 46 29.5734 12.5365
      vertex 50 29.5734 12.5365
      vertex 46 31 11.5
    endloop
  endfacet
  facet normal -1.79638e-016 -0.587785 0.809017
    outer loop
      vertex 50 31 11.5
      vertex 50 32.4266 12.5365
      vertex 46 32.4266 12.5365
    endloop
  endfacet
  facet normal -1.79638e-016 -0.587785 0.809017
    outer loop
      vertex 46 31 11.5
      vertex 50 31 11.5
      vertex 46 32.4266 12.5365
    endloop
  endfacet
  facet normal 6.86156e-017 -0.951056 -0.309017
    outer loop
      vertex 46 32.4266 12.5365
      vertex 50 32.4266 12.5365
      vertex 50 31.8817 14.2135
    endloop
  endfacet
  facet normal 6.86156e-017 -0.951056 -0.309017
    outer loop
      vertex 46 31.8817 14.2135
      vertex 46 32.4266 12.5365
      vertex 50 31.8817 14.2135
    endloop
  endfacet
  facet normal 2.22045e-016 0 -1
    outer loop
      vertex 50 31.8817 14.2135
      vertex 50 30.1183 14.2135
      vertex 46 31.8817 14.2135
    endloop
  endfacet
  facet normal 2.22045e-016 0 -1
    outer loop
      vertex 46 31.8817 14.2135
      vertex 50 30.1183 14.2135
      vertex 46 30.1183 14.2135
    endloop
  endfacet
  facet normal 0 0 -1
    outer loop
      vertex 46 6.68243 29.5
      vertex 46 4 29.5
      vertex 4 6.68243 29.5
    endloop
  endfacet
  facet normal 0 0 -1
    outer loop
      vertex 4 6.68243 29.5
      vertex 46 4 29.5
      vertex 4 4 29.5
    endloop
  endfacet
  facet normal 0 1 0
    outer loop
      vertex 46 20 32
      vertex 46 20 31.909
      vertex 4 20 32
    endloop
  endfacet
  facet normal 0 1 0
    outer loop
      vertex 4 20 32
      vertex 46 20 31.909
      vertex 4 20 31.909
    endloop
  endfacet
  facet normal 0 0.173648 -0.984808
    outer loop
      vertex 46 20 31.909
      vertex 46 6.67205 29.5589
      vertex 4 20 31.909
    endloop
  endfacet
  facet normal 0 0.173648 -0.984808
    outer loop
      vertex 4 20 31.909
      vertex 46 6.67205 29.5589
      vertex 4 6.67205 29.5589
    endloop
  endfacet
  facet normal 0 0.984808 0.173648
    outer loop
      vertex 46 6.68243 29.5
      vertex 4 6.68243 29.5
      vertex 46 6.67205 29.5589
    endloop
  endfacet
  facet normal 0 0.984808 0.173648
    outer loop
      vertex 46 6.67205 29.5589
      vertex 4 6.68243 29.5
      vertex 4 6.67205 29.5589
    endloop
  endfacet
endsolid OpenSCAD_Model
