solid OpenSCAD_Model
  facet normal -0.766044 0.642788 0
    outer loop
      vertex -16.9368 21.5 0
      vertex -16.9368 21.5 28
      vertex -11.4827 28 0
    endloop
  endfacet
  facet normal -0.766044 0.642788 0
    outer loop
      vertex -11.4827 28 0
      vertex -16.9368 21.5 28
      vertex -11.4827 28 28
    endloop
  endfacet
  facet normal 0 -1 0
    outer loop
      vertex -16.9368 21.5 28
      vertex -16.9368 21.5 0
      vertex -15.5 21.5 0
    endloop
  endfacet
  facet normal 0 -1 0
    outer loop
      vertex -15.5 21.5 28
      vertex -16.9368 21.5 28
      vertex -15.5 21.5 0
    endloop
  endfacet
  facet normal 0 0 -1
    outer loop
      vertex -16.9368 21.5 0
      vertex -11.4827 28 0
      vertex -15.5 21.5 0
    endloop
  endfacet
  facet normal 0 0 -1
    outer loop
      vertex -15.5 21.5 0
      vertex -11.4827 28 0
      vertex -10.5 28 0
    endloop
  endfacet
  facet normal 0 0 -1
    outer loop
      vertex -15.5 21.5 0
      vertex -10.5 28 0
      vertex -10.5 3 0
    endloop
  endfacet
  facet normal 0 0 -1
    outer loop
      vertex 15.5 0 0
      vertex 10.5 3 0
      vertex 15.5 21.5 0
    endloop
  endfacet
  facet normal 0 0 -1
    outer loop
      vertex 10.5 3 0
      vertex 10.5 28 0
      vertex 11.4827 28 0
    endloop
  endfacet
  facet normal 0 0 -1
    outer loop
      vertex 15.5 21.5 0
      vertex 11.4827 28 0
      vertex 16.9368 21.5 0
    endloop
  endfacet
  facet normal 0 0 -1
    outer loop
      vertex 10.5 3 0
      vertex 11.4827 28 0
      vertex 15.5 21.5 0
    endloop
  endfacet
  facet normal 0 0 -1
    outer loop
      vertex 10.5 3 0
      vertex 15.5 0 0
      vertex -10.5 3 0
    endloop
  endfacet
  facet normal 0 0 -1
    outer loop
      vertex -10.5 3 0
      vertex 15.5 0 0
      vertex -15.5 0 0
    endloop
  endfacet
  facet normal 0 0 -1
    outer loop
      vertex -15.5 21.5 0
      vertex -10.5 3 0
      vertex -15.5 0 0
    endloop
  endfacet
  facet normal 0 1 0
    outer loop
      vertex -10.5 28 28
      vertex -10.5 28 0
      vertex -11.4827 28 28
    endloop
  endfacet
  facet normal 0 1 0
    outer loop
      vertex -11.4827 28 28
      vertex -10.5 28 0
      vertex -11.4827 28 0
    endloop
  endfacet
  facet normal 0 0 1
    outer loop
      vertex -11.4827 28 28
      vertex -16.9368 21.5 28
      vertex -15.5 21.5 28
    endloop
  endfacet
  facet normal 0 0 1
    outer loop
      vertex -15.5 0 28
      vertex -11.4827 28 28
      vertex -15.5 21.5 28
    endloop
  endfacet
  facet normal 0 0 1
    outer loop
      vertex -10.5 3 28
      vertex -10.5 28 28
      vertex -11.4827 28 28
    endloop
  endfacet
  facet normal 0 0 1
    outer loop
      vertex 16.9368 21.5 28
      vertex 11.4827 28 28
      vertex 10.5 28 28
    endloop
  endfacet
  facet normal 0 0 1
    outer loop
      vertex -15.5 0 28
      vertex 15.5 0 28
      vertex 10.5 3 28
    endloop
  endfacet
  facet normal 0 0 1
    outer loop
      vertex -15.5 0 28
      vertex -10.5 3 28
      vertex -11.4827 28 28
    endloop
  endfacet
  facet normal 0 0 1
    outer loop
      vertex -15.5 0 28
      vertex 10.5 3 28
      vertex -10.5 3 28
    endloop
  endfacet
  facet normal 0 0 1
    outer loop
      vertex 10.5 28 28
      vertex 15.5 21.5 28
      vertex 16.9368 21.5 28
    endloop
  endfacet
  facet normal 0 0 1
    outer loop
      vertex 10.5 28 28
      vertex 15.5 0 28
      vertex 15.5 21.5 28
    endloop
  endfacet
  facet normal 0 0 1
    outer loop
      vertex 10.5 28 28
      vertex 10.5 3 28
      vertex 15.5 0 28
    endloop
  endfacet
  facet normal -1 0 0
    outer loop
      vertex -15.5 0 0
      vertex -15.5 0 28
      vertex -15.5 21.5 0
    endloop
  endfacet
  facet normal -1 0 0
    outer loop
      vertex -15.5 21.5 0
      vertex -15.5 0 28
      vertex -15.5 21.5 28
    endloop
  endfacet
  facet normal 0 -1 0
    outer loop
      vertex -4 0 7
      vertex -15.5 0 0
      vertex 15.5 0 0
    endloop
  endfacet
  facet normal 0 -1 0
    outer loop
      vertex 4 0 7
      vertex -4 0 7
      vertex 15.5 0 0
    endloop
  endfacet
  facet normal 0 -1 0
    outer loop
      vertex -15.5 0 28
      vertex -15.5 0 0
      vertex -4 0 7
    endloop
  endfacet
  facet normal 0 -1 0
    outer loop
      vertex 15.5 0 28
      vertex -15.5 0 28
      vertex -4 0 21
    endloop
  endfacet
  facet normal 0 -1 0
    outer loop
      vertex 15.5 0 28
      vertex 4 0 21
      vertex 15.5 0 0
    endloop
  endfacet
  facet normal 0 -1 0
    outer loop
      vertex 15.5 0 28
      vertex -4 0 21
      vertex 4 0 21
    endloop
  endfacet
  facet normal 0 -1 0
    outer loop
      vertex 4 0 21
      vertex 4 0 7
      vertex 15.5 0 0
    endloop
  endfacet
  facet normal 0 -1 0
    outer loop
      vertex -4 0 7
      vertex -4 0 21
      vertex -15.5 0 28
    endloop
  endfacet
  facet normal 1 0 0
    outer loop
      vertex 15.5 0 28
      vertex 15.5 0 0
      vertex 15.5 21.5 0
    endloop
  endfacet
  facet normal 1 0 0
    outer loop
      vertex 15.5 21.5 28
      vertex 15.5 0 28
      vertex 15.5 21.5 0
    endloop
  endfacet
  facet normal 0 -1 0
    outer loop
      vertex 15.5 21.5 28
      vertex 15.5 21.5 0
      vertex 16.9368 21.5 0
    endloop
  endfacet
  facet normal 0 -1 0
    outer loop
      vertex 16.9368 21.5 28
      vertex 15.5 21.5 28
      vertex 16.9368 21.5 0
    endloop
  endfacet
  facet normal 0.766044 0.642788 0
    outer loop
      vertex 11.4827 28 28
      vertex 16.9368 21.5 28
      vertex 16.9368 21.5 0
    endloop
  endfacet
  facet normal 0.766044 0.642788 0
    outer loop
      vertex 11.4827 28 0
      vertex 11.4827 28 28
      vertex 16.9368 21.5 0
    endloop
  endfacet
  facet normal 0 1 0
    outer loop
      vertex 11.4827 28 28
      vertex 11.4827 28 0
      vertex 10.5 28 28
    endloop
  endfacet
  facet normal 0 1 0
    outer loop
      vertex 10.5 28 28
      vertex 11.4827 28 0
      vertex 10.5 28 0
    endloop
  endfacet
  facet normal -1 0 0
    outer loop
      vertex 10.5 28 28
      vertex 10.5 28 0
      vertex 10.5 3 28
    endloop
  endfacet
  facet normal -1 0 0
    outer loop
      vertex 10.5 3 28
      vertex 10.5 28 0
      vertex 10.5 3 0
    endloop
  endfacet
  facet normal 0 1 0
    outer loop
      vertex -4 3 7
      vertex 10.5 3 0
      vertex -10.5 3 0
    endloop
  endfacet
  facet normal 0 1 0
    outer loop
      vertex 4 3 7
      vertex 10.5 3 0
      vertex -4 3 7
    endloop
  endfacet
  facet normal 0 1 0
    outer loop
      vertex -10.5 3 28
      vertex -4 3 7
      vertex -10.5 3 0
    endloop
  endfacet
  facet normal 0 1 0
    outer loop
      vertex 4 3 21
      vertex 10.5 3 0
      vertex 4 3 7
    endloop
  endfacet
  facet normal 0 1 0
    outer loop
      vertex 10.5 3 28
      vertex 10.5 3 0
      vertex 4 3 21
    endloop
  endfacet
  facet normal 0 1 0
    outer loop
      vertex 10.5 3 28
      vertex 4 3 21
      vertex -10.5 3 28
    endloop
  endfacet
  facet normal 0 1 0
    outer loop
      vertex 4 3 21
      vertex -4 3 21
      vertex -10.5 3 28
    endloop
  endfacet
  facet normal 0 1 0
    outer loop
      vertex -4 3 7
      vertex -10.5 3 28
      vertex -4 3 21
    endloop
  endfacet
  facet normal 1 0 0
    outer loop
      vertex -10.5 28 0
      vertex -10.5 28 28
      vertex -10.5 3 28
    endloop
  endfacet
  facet normal 1 0 0
    outer loop
      vertex -10.5 3 0
      vertex -10.5 28 0
      vertex -10.5 3 28
    endloop
  endfacet
  facet normal 1 0 0
    outer loop
      vertex -4 3 7
      vertex -4 3 21
      vertex -4 0 21
    endloop
  endfacet
  facet normal 1 0 0
    outer loop
      vertex -4 0 7
      vertex -4 3 7
      vertex -4 0 21
    endloop
  endfacet
  facet normal 0 0 1
    outer loop
      vertex 4 0 7
      vertex 4 3 7
      vertex -4 3 7
    endloop
  endfacet
  facet normal 0 0 1
    outer loop
      vertex -4 0 7
      vertex 4 0 7
      vertex -4 3 7
    endloop
  endfacet
  facet normal -1 0 0
    outer loop
      vertex 4 3 21
      vertex 4 3 7
      vertex 4 0 21
    endloop
  endfacet
  facet normal -1 0 0
    outer loop
      vertex 4 0 21
      vertex 4 3 7
      vertex 4 0 7
    endloop
  endfacet
  facet normal 0 0 -1
    outer loop
      vertex 4 3 21
      vertex 4 0 21
      vertex -4 3 21
    endloop
  endfacet
  facet normal 0 0 -1
    outer loop
      vertex -4 3 21
      vertex 4 0 21
      vertex -4 0 21
    endloop
  endfacet
endsolid OpenSCAD_Model
