solid OpenSCAD_Model
  facet normal 0 0 -1
    outer loop
      vertex -17.7 0 0
      vertex -17.6191 0.769273 0
      vertex -17.6191 -0.769273 0
    endloop
  endfacet
  facet normal 0 0 -1
    outer loop
      vertex -17.6191 -0.769273 0
      vertex -17.6191 0.769273 0
      vertex -17.3801 1.50493 0
    endloop
  endfacet
  facet normal 0 0 -1
    outer loop
      vertex -17.6191 -0.769273 0
      vertex -17.3801 1.50493 0
      vertex -16.9934 2.17481 0
    endloop
  endfacet
  facet normal 0 0 -1
    outer loop
      vertex -17.6191 -0.769273 0
      vertex -16.9934 2.17481 0
      vertex -16.4758 2.74964 0
    endloop
  endfacet
  facet normal 0 0 -1
    outer loop
      vertex -17.6191 -0.769273 0
      vertex -16.4758 2.74964 0
      vertex -15.85 3.20429 0
    endloop
  endfacet
  facet normal 0 0 -1
    outer loop
      vertex -17.6191 -0.769273 0
      vertex -15.85 3.20429 0
      vertex -15.1434 3.51891 0
    endloop
  endfacet
  facet normal 0 0 -1
    outer loop
      vertex -17.6191 -0.769273 0
      vertex -15.1434 3.51891 0
      vertex -14.3868 3.67973 0
    endloop
  endfacet
  facet normal 0 0 -1
    outer loop
      vertex -14.309 0.951057 0
      vertex -14.3868 3.67973 0
      vertex -8.3 3.67973 0
    endloop
  endfacet
  facet normal 0 0 -1
    outer loop
      vertex -13.191 0.587785 0
      vertex -8.3 3.67973 0
      vertex -8.3 1.51409 0
    endloop
  endfacet
  facet normal 0 0 -1
    outer loop
      vertex -13 0 0
      vertex -9 0 0
      vertex -8.95629 -0.415823 0
    endloop
  endfacet
  facet normal 0 0 -1
    outer loop
      vertex -13.191 -0.587785 0
      vertex -8.95629 -0.415823 0
      vertex -8.82709 -0.813473 0
    endloop
  endfacet
  facet normal 0 0 -1
    outer loop
      vertex -13.191 0.587785 0
      vertex -8.82709 0.813473 0
      vertex -13 0 0
    endloop
  endfacet
  facet normal 0 0 -1
    outer loop
      vertex -14.309 -0.951057 0
      vertex -8.33826 -1.48629 0
      vertex -17.6191 -0.769273 0
    endloop
  endfacet
  facet normal 0 0 -1
    outer loop
      vertex -8.33826 -1.48629 0
      vertex -8 -1.73205 0
      vertex -17.6191 -0.769273 0
    endloop
  endfacet
  facet normal 0 0 -1
    outer loop
      vertex -8 -1.73205 0
      vertex -7.61803 -1.90211 0
      vertex -17.6191 -0.769273 0
    endloop
  endfacet
  facet normal 0 0 -1
    outer loop
      vertex -7.61803 -1.90211 0
      vertex -7.20906 -1.98904 0
      vertex -17.6191 -0.769273 0
    endloop
  endfacet
  facet normal 0 0 -1
    outer loop
      vertex -5.38197 -1.17557 0
      vertex 0.386755 3.67973 0
      vertex -5.66174 -1.48629 0
    endloop
  endfacet
  facet normal 0 0 -1
    outer loop
      vertex -5.17291 -0.813473 0
      vertex 0.386755 3.67973 0
      vertex -5.38197 -1.17557 0
    endloop
  endfacet
  facet normal 0 0 -1
    outer loop
      vertex -5.04371 -0.415823 0
      vertex 0.386755 3.67973 0
      vertex -5.17291 -0.813473 0
    endloop
  endfacet
  facet normal 0 0 -1
    outer loop
      vertex -5 0 0
      vertex 0.386755 3.67973 0
      vertex -5.04371 -0.415823 0
    endloop
  endfacet
  facet normal 0 0 -1
    outer loop
      vertex -5.17291 0.813473 0
      vertex -5.7 3.67973 0
      vertex -5.04371 0.415823 0
    endloop
  endfacet
  facet normal 0 0 -1
    outer loop
      vertex -1 0 0
      vertex -6 -1.73205 0
      vertex -0.809017 0.587785 0
    endloop
  endfacet
  facet normal 0 0 -1
    outer loop
      vertex -5.38197 1.17557 0
      vertex -5.7 3.67973 0
      vertex -5.17291 0.813473 0
    endloop
  endfacet
  facet normal 0 0 -1
    outer loop
      vertex -15 0 0
      vertex -17.6191 -0.769273 0
      vertex -14.809 0.587785 0
    endloop
  endfacet
  facet normal 0 0 -1
    outer loop
      vertex -5.66174 1.48629 0
      vertex -5.7 3.67973 0
      vertex -5.38197 1.17557 0
    endloop
  endfacet
  facet normal 0 0 -1
    outer loop
      vertex -5.04371 0.415823 0
      vertex -5.7 3.67973 0
      vertex 0.386755 3.67973 0
    endloop
  endfacet
  facet normal 0 0 -1
    outer loop
      vertex -5.04371 0.415823 0
      vertex 0.386755 3.67973 0
      vertex -5 0 0
    endloop
  endfacet
  facet normal 0 0 -1
    outer loop
      vertex -5.66174 -1.48629 0
      vertex 0.386755 3.67973 0
      vertex 1.14336 3.51891 0
    endloop
  endfacet
  facet normal 0 0 -1
    outer loop
      vertex -5.66174 -1.48629 0
      vertex 1.14336 3.51891 0
      vertex 1.85 3.20429 0
    endloop
  endfacet
  facet normal 0 0 -1
    outer loop
      vertex -5.66174 -1.48629 0
      vertex 1.85 3.20429 0
      vertex -6 -1.73205 0
    endloop
  endfacet
  facet normal 0 0 -1
    outer loop
      vertex -6 -1.73205 0
      vertex 1.85 3.20429 0
      vertex 2.47578 2.74964 0
    endloop
  endfacet
  facet normal 0 0 -1
    outer loop
      vertex -0.309017 0.951057 0
      vertex 2.47578 2.74964 0
      vertex 2.99336 2.17481 0
    endloop
  endfacet
  facet normal 0 0 -1
    outer loop
      vertex 0.309017 0.951057 0
      vertex 2.99336 2.17481 0
      vertex 3.38012 1.50493 0
    endloop
  endfacet
  facet normal 0 0 -1
    outer loop
      vertex 0.809017 0.587785 0
      vertex 3.38012 1.50493 0
      vertex 3.61915 0.769273 0
    endloop
  endfacet
  facet normal 0 0 -1
    outer loop
      vertex 1 0 0
      vertex 3.7 0 0
      vertex 0.809017 -0.587785 0
    endloop
  endfacet
  facet normal 0 0 -1
    outer loop
      vertex -6.79094 -1.98904 0
      vertex 3.61915 -0.769273 0
      vertex 3.38012 -1.50493 0
    endloop
  endfacet
  facet normal 0 0 -1
    outer loop
      vertex -6.79094 -1.98904 0
      vertex 3.38012 -1.50493 0
      vertex 2.99336 -2.17481 0
    endloop
  endfacet
  facet normal 0 0 -1
    outer loop
      vertex -6.79094 -1.98904 0
      vertex 2.99336 -2.17481 0
      vertex -7.20906 -1.98904 0
    endloop
  endfacet
  facet normal 0 0 -1
    outer loop
      vertex -7.20906 -1.98904 0
      vertex 2.99336 -2.17481 0
      vertex 2.47578 -2.74964 0
    endloop
  endfacet
  facet normal 0 0 -1
    outer loop
      vertex -7.20906 -1.98904 0
      vertex 2.47578 -2.74964 0
      vertex 1.85 -3.20429 0
    endloop
  endfacet
  facet normal 0 0 -1
    outer loop
      vertex -7.20906 -1.98904 0
      vertex 1.85 -3.20429 0
      vertex -17.6191 -0.769273 0
    endloop
  endfacet
  facet normal 0 0 -1
    outer loop
      vertex -17.6191 -0.769273 0
      vertex 1.85 -3.20429 0
      vertex 1.14336 -3.51891 0
    endloop
  endfacet
  facet normal 0 0 -1
    outer loop
      vertex -17.6191 -0.769273 0
      vertex 1.14336 -3.51891 0
      vertex 0.386755 -3.67973 0
    endloop
  endfacet
  facet normal 0 0 -1
    outer loop
      vertex -17.6191 -0.769273 0
      vertex 0.386755 -3.67973 0
      vertex -14.3868 -3.67973 0
    endloop
  endfacet
  facet normal 0 0 -1
    outer loop
      vertex -17.6191 -0.769273 0
      vertex -14.3868 -3.67973 0
      vertex -15.1434 -3.51891 0
    endloop
  endfacet
  facet normal 0 0 -1
    outer loop
      vertex -17.6191 -0.769273 0
      vertex -15.1434 -3.51891 0
      vertex -15.85 -3.20429 0
    endloop
  endfacet
  facet normal 0 0 -1
    outer loop
      vertex -17.6191 -0.769273 0
      vertex -15.85 -3.20429 0
      vertex -16.4758 -2.74964 0
    endloop
  endfacet
  facet normal 0 0 -1
    outer loop
      vertex -17.6191 -0.769273 0
      vertex -16.4758 -2.74964 0
      vertex -16.9934 -2.17481 0
    endloop
  endfacet
  facet normal 0 0 -1
    outer loop
      vertex -17.6191 -0.769273 0
      vertex -16.9934 -2.17481 0
      vertex -17.3801 -1.50493 0
    endloop
  endfacet
  facet normal 0 0 -1
    outer loop
      vertex -14.309 0.951057 0
      vertex -8.3 3.67973 0
      vertex -13.691 0.951057 0
    endloop
  endfacet
  facet normal 0 0 -1
    outer loop
      vertex -13.191 0.587785 0
      vertex -8.33826 1.48629 0
      vertex -8.61803 1.17557 0
    endloop
  endfacet
  facet normal 0 0 -1
    outer loop
      vertex -14.309 -0.951057 0
      vertex -17.6191 -0.769273 0
      vertex -14.809 -0.587785 0
    endloop
  endfacet
  facet normal 0 0 -1
    outer loop
      vertex -8.61803 -1.17557 0
      vertex -8.33826 -1.48629 0
      vertex -14.309 -0.951057 0
    endloop
  endfacet
  facet normal 0 0 -1
    outer loop
      vertex -13.191 -0.587785 0
      vertex -8.82709 -0.813473 0
      vertex -8.61803 -1.17557 0
    endloop
  endfacet
  facet normal 0 0 -1
    outer loop
      vertex -8.61803 -1.17557 0
      vertex -14.309 -0.951057 0
      vertex -13.691 -0.951057 0
    endloop
  endfacet
  facet normal 0 0 -1
    outer loop
      vertex -13.191 -0.587785 0
      vertex -8.61803 -1.17557 0
      vertex -13.691 -0.951057 0
    endloop
  endfacet
  facet normal 0 0 -1
    outer loop
      vertex -13.191 0.587785 0
      vertex -8.61803 1.17557 0
      vertex -8.82709 0.813473 0
    endloop
  endfacet
  facet normal 0 0 -1
    outer loop
      vertex -8.82709 0.813473 0
      vertex -8.95629 0.415823 0
      vertex -13 0 0
    endloop
  endfacet
  facet normal 0 0 -1
    outer loop
      vertex -13 0 0
      vertex -8.95629 -0.415823 0
      vertex -13.191 -0.587785 0
    endloop
  endfacet
  facet normal 0 0 -1
    outer loop
      vertex -13.691 0.951057 0
      vertex -8.3 3.67973 0
      vertex -13.191 0.587785 0
    endloop
  endfacet
  facet normal 0 0 -1
    outer loop
      vertex -14.809 -0.587785 0
      vertex -17.6191 -0.769273 0
      vertex -15 0 0
    endloop
  endfacet
  facet normal 0 0 -1
    outer loop
      vertex -17.6191 -0.769273 0
      vertex -14.3868 3.67973 0
      vertex -14.309 0.951057 0
    endloop
  endfacet
  facet normal 0 0 -1
    outer loop
      vertex -1 0 0
      vertex -6.38197 -1.90211 0
      vertex -6 -1.73205 0
    endloop
  endfacet
  facet normal 0 0 -1
    outer loop
      vertex -17.6191 -0.769273 0
      vertex -14.309 0.951057 0
      vertex -14.809 0.587785 0
    endloop
  endfacet
  facet normal 0 0 -1
    outer loop
      vertex -0.309017 0.951057 0
      vertex 2.99336 2.17481 0
      vertex 0.309017 0.951057 0
    endloop
  endfacet
  facet normal 0 0 -1
    outer loop
      vertex 0.809017 0.587785 0
      vertex 3.61915 0.769273 0
      vertex 1 0 0
    endloop
  endfacet
  facet normal 0 0 -1
    outer loop
      vertex 1 0 0
      vertex 3.61915 0.769273 0
      vertex 3.7 0 0
    endloop
  endfacet
  facet normal 0 0 -1
    outer loop
      vertex -6.79094 -1.98904 0
      vertex -0.309017 -0.951057 0
      vertex 0.309017 -0.951057 0
    endloop
  endfacet
  facet normal 0 0 -1
    outer loop
      vertex -6.79094 -1.98904 0
      vertex 0.309017 -0.951057 0
      vertex 3.61915 -0.769273 0
    endloop
  endfacet
  facet normal 0 0 -1
    outer loop
      vertex 0.809017 -0.587785 0
      vertex 3.61915 -0.769273 0
      vertex 0.309017 -0.951057 0
    endloop
  endfacet
  facet normal 0 0 -1
    outer loop
      vertex 0.809017 -0.587785 0
      vertex 3.7 0 0
      vertex 3.61915 -0.769273 0
    endloop
  endfacet
  facet normal 0 0 -1
    outer loop
      vertex -0.309017 -0.951057 0
      vertex -6.38197 -1.90211 0
      vertex -0.809017 -0.587785 0
    endloop
  endfacet
  facet normal 0 0 -1
    outer loop
      vertex -0.309017 -0.951057 0
      vertex -6.79094 -1.98904 0
      vertex -6.38197 -1.90211 0
    endloop
  endfacet
  facet normal 0 0 -1
    outer loop
      vertex -0.809017 -0.587785 0
      vertex -6.38197 -1.90211 0
      vertex -1 0 0
    endloop
  endfacet
  facet normal 0 0 -1
    outer loop
      vertex -6 -1.73205 0
      vertex 2.47578 2.74964 0
      vertex -0.309017 0.951057 0
    endloop
  endfacet
  facet normal 0 0 -1
    outer loop
      vertex -6 -1.73205 0
      vertex -0.309017 0.951057 0
      vertex -0.809017 0.587785 0
    endloop
  endfacet
  facet normal 0 0 -1
    outer loop
      vertex 0.309017 0.951057 0
      vertex 3.38012 1.50493 0
      vertex 0.809017 0.587785 0
    endloop
  endfacet
  facet normal 0 0 -1
    outer loop
      vertex -5.7 3.67973 0
      vertex -5.66174 1.48629 0
      vertex -5.7 1.51409 0
    endloop
  endfacet
  facet normal 0 0 -1
    outer loop
      vertex -13 0 0
      vertex -8.95629 0.415823 0
      vertex -9 0 0
    endloop
  endfacet
  facet normal 0 0 -1
    outer loop
      vertex -13.191 0.587785 0
      vertex -8.3 1.51409 0
      vertex -8.33826 1.48629 0
    endloop
  endfacet
  facet normal -0.994522 0.104529 0
    outer loop
      vertex -17.7 0 0
      vertex -17.7 0 1.2
      vertex -17.6191 0.769273 0
    endloop
  endfacet
  facet normal -0.994522 0.104529 0
    outer loop
      vertex -17.6191 0.769273 0
      vertex -17.7 0 1.2
      vertex -17.6191 0.769273 1.2
    endloop
  endfacet
  facet normal -0.994522 -0.104529 0
    outer loop
      vertex -17.7 0 0
      vertex -17.6191 -0.769273 0
      vertex -17.7 0 1.2
    endloop
  endfacet
  facet normal -0.994522 -0.104529 0
    outer loop
      vertex -17.7 0 1.2
      vertex -17.6191 -0.769273 0
      vertex -17.6191 -0.769273 1.2
    endloop
  endfacet
  facet normal -0.951057 -0.309017 0
    outer loop
      vertex -17.6191 -0.769273 0
      vertex -17.3801 -1.50493 0
      vertex -17.6191 -0.769273 1.2
    endloop
  endfacet
  facet normal -0.951057 -0.309017 0
    outer loop
      vertex -17.6191 -0.769273 1.2
      vertex -17.3801 -1.50493 0
      vertex -17.3801 -1.50493 1.2
    endloop
  endfacet
  facet normal -0.866025 -0.5 0
    outer loop
      vertex -17.3801 -1.50493 0
      vertex -16.9934 -2.17481 0
      vertex -17.3801 -1.50493 1.2
    endloop
  endfacet
  facet normal -0.866025 -0.5 0
    outer loop
      vertex -17.3801 -1.50493 1.2
      vertex -16.9934 -2.17481 0
      vertex -16.9934 -2.17481 1.2
    endloop
  endfacet
  facet normal -0.743145 -0.66913 0
    outer loop
      vertex -16.9934 -2.17481 0
      vertex -16.4758 -2.74964 0
      vertex -16.9934 -2.17481 1.2
    endloop
  endfacet
  facet normal -0.743145 -0.66913 0
    outer loop
      vertex -16.9934 -2.17481 1.2
      vertex -16.4758 -2.74964 0
      vertex -16.4758 -2.74964 1.2
    endloop
  endfacet
  facet normal -0.587785 -0.809017 0
    outer loop
      vertex -16.4758 -2.74964 1.2
      vertex -16.4758 -2.74964 0
      vertex -15.85 -3.20429 0
    endloop
  endfacet
  facet normal -0.587785 -0.809017 0
    outer loop
      vertex -15.85 -3.20429 1.2
      vertex -16.4758 -2.74964 1.2
      vertex -15.85 -3.20429 0
    endloop
  endfacet
  facet normal -0.406737 -0.913545 0
    outer loop
      vertex -15.85 -3.20429 1.2
      vertex -15.85 -3.20429 0
      vertex -15.1434 -3.51891 0
    endloop
  endfacet
  facet normal -0.406737 -0.913545 0
    outer loop
      vertex -15.1434 -3.51891 1.2
      vertex -15.85 -3.20429 1.2
      vertex -15.1434 -3.51891 0
    endloop
  endfacet
  facet normal -0.207912 -0.978148 0
    outer loop
      vertex -15.1434 -3.51891 1.2
      vertex -15.1434 -3.51891 0
      vertex -14.3868 -3.67973 0
    endloop
  endfacet
  facet normal -0.207912 -0.978148 0
    outer loop
      vertex -14.3868 -3.67973 1.2
      vertex -15.1434 -3.51891 1.2
      vertex -14.3868 -3.67973 0
    endloop
  endfacet
  facet normal 0 -1 0
    outer loop
      vertex -14.3868 -3.67973 1.2
      vertex -14.3868 -3.67973 0
      vertex 0.386755 -3.67973 0
    endloop
  endfacet
  facet normal 0 -1 0
    outer loop
      vertex 0.386755 -3.67973 1.2
      vertex -14.3868 -3.67973 1.2
      vertex 0.386755 -3.67973 0
    endloop
  endfacet
  facet normal 0.207912 -0.978148 0
    outer loop
      vertex 0.386755 -3.67973 1.2
      vertex 0.386755 -3.67973 0
      vertex 1.14336 -3.51891 0
    endloop
  endfacet
  facet normal 0.207912 -0.978148 0
    outer loop
      vertex 1.14336 -3.51891 1.2
      vertex 0.386755 -3.67973 1.2
      vertex 1.14336 -3.51891 0
    endloop
  endfacet
  facet normal 0.406737 -0.913545 0
    outer loop
      vertex 1.14336 -3.51891 1.2
      vertex 1.14336 -3.51891 0
      vertex 1.85 -3.20429 0
    endloop
  endfacet
  facet normal 0.406737 -0.913545 0
    outer loop
      vertex 1.85 -3.20429 1.2
      vertex 1.14336 -3.51891 1.2
      vertex 1.85 -3.20429 0
    endloop
  endfacet
  facet normal 0.587785 -0.809017 0
    outer loop
      vertex 1.85 -3.20429 1.2
      vertex 1.85 -3.20429 0
      vertex 2.47578 -2.74964 0
    endloop
  endfacet
  facet normal 0.587785 -0.809017 0
    outer loop
      vertex 2.47578 -2.74964 1.2
      vertex 1.85 -3.20429 1.2
      vertex 2.47578 -2.74964 0
    endloop
  endfacet
  facet normal 0.743145 -0.66913 0
    outer loop
      vertex 2.47578 -2.74964 1.2
      vertex 2.47578 -2.74964 0
      vertex 2.99336 -2.17481 0
    endloop
  endfacet
  facet normal 0.743145 -0.66913 0
    outer loop
      vertex 2.99336 -2.17481 1.2
      vertex 2.47578 -2.74964 1.2
      vertex 2.99336 -2.17481 0
    endloop
  endfacet
  facet normal 0.866025 -0.5 0
    outer loop
      vertex 2.99336 -2.17481 1.2
      vertex 2.99336 -2.17481 0
      vertex 3.38012 -1.50493 0
    endloop
  endfacet
  facet normal 0.866025 -0.5 0
    outer loop
      vertex 3.38012 -1.50493 1.2
      vertex 2.99336 -2.17481 1.2
      vertex 3.38012 -1.50493 0
    endloop
  endfacet
  facet normal 0.951057 -0.309017 0
    outer loop
      vertex 3.38012 -1.50493 1.2
      vertex 3.38012 -1.50493 0
      vertex 3.61915 -0.769273 0
    endloop
  endfacet
  facet normal 0.951057 -0.309017 0
    outer loop
      vertex 3.61915 -0.769273 1.2
      vertex 3.38012 -1.50493 1.2
      vertex 3.61915 -0.769273 0
    endloop
  endfacet
  facet normal 0.994522 -0.104529 0
    outer loop
      vertex 3.61915 -0.769273 1.2
      vertex 3.61915 -0.769273 0
      vertex 3.7 0 0
    endloop
  endfacet
  facet normal 0.994522 -0.104529 0
    outer loop
      vertex 3.7 0 1.2
      vertex 3.61915 -0.769273 1.2
      vertex 3.7 0 0
    endloop
  endfacet
  facet normal 0.994522 0.104529 0
    outer loop
      vertex 3.7 0 0
      vertex 3.61915 0.769273 0
      vertex 3.61915 0.769273 1.2
    endloop
  endfacet
  facet normal 0.994522 0.104529 0
    outer loop
      vertex 3.7 0 1.2
      vertex 3.7 0 0
      vertex 3.61915 0.769273 1.2
    endloop
  endfacet
  facet normal 0.951057 0.309017 0
    outer loop
      vertex 3.61915 0.769273 0
      vertex 3.38012 1.50493 0
      vertex 3.38012 1.50493 1.2
    endloop
  endfacet
  facet normal 0.951057 0.309017 0
    outer loop
      vertex 3.61915 0.769273 1.2
      vertex 3.61915 0.769273 0
      vertex 3.38012 1.50493 1.2
    endloop
  endfacet
  facet normal 0.866025 0.5 0
    outer loop
      vertex 3.38012 1.50493 0
      vertex 2.99336 2.17481 0
      vertex 2.99336 2.17481 1.2
    endloop
  endfacet
  facet normal 0.866025 0.5 0
    outer loop
      vertex 3.38012 1.50493 1.2
      vertex 3.38012 1.50493 0
      vertex 2.99336 2.17481 1.2
    endloop
  endfacet
  facet normal 0.743145 0.66913 0
    outer loop
      vertex 2.99336 2.17481 0
      vertex 2.47578 2.74964 0
      vertex 2.47578 2.74964 1.2
    endloop
  endfacet
  facet normal 0.743145 0.66913 0
    outer loop
      vertex 2.99336 2.17481 1.2
      vertex 2.99336 2.17481 0
      vertex 2.47578 2.74964 1.2
    endloop
  endfacet
  facet normal 0.587785 0.809017 0
    outer loop
      vertex 1.85 3.20429 0
      vertex 1.85 3.20429 1.2
      vertex 2.47578 2.74964 0
    endloop
  endfacet
  facet normal 0.587785 0.809017 0
    outer loop
      vertex 2.47578 2.74964 0
      vertex 1.85 3.20429 1.2
      vertex 2.47578 2.74964 1.2
    endloop
  endfacet
  facet normal 0.406737 0.913545 0
    outer loop
      vertex 1.14336 3.51891 0
      vertex 1.14336 3.51891 1.2
      vertex 1.85 3.20429 0
    endloop
  endfacet
  facet normal 0.406737 0.913545 0
    outer loop
      vertex 1.85 3.20429 0
      vertex 1.14336 3.51891 1.2
      vertex 1.85 3.20429 1.2
    endloop
  endfacet
  facet normal 0.207912 0.978148 0
    outer loop
      vertex 0.386755 3.67973 0
      vertex 0.386755 3.67973 1.2
      vertex 1.14336 3.51891 0
    endloop
  endfacet
  facet normal 0.207912 0.978148 0
    outer loop
      vertex 1.14336 3.51891 0
      vertex 0.386755 3.67973 1.2
      vertex 1.14336 3.51891 1.2
    endloop
  endfacet
  facet normal 0 1 0
    outer loop
      vertex -5.7 3.67973 0
      vertex -5.7 3.67973 1.2
      vertex 0.386755 3.67973 0
    endloop
  endfacet
  facet normal 0 1 0
    outer loop
      vertex 0.386755 3.67973 0
      vertex -5.7 3.67973 1.2
      vertex 0.386755 3.67973 1.2
    endloop
  endfacet
  facet normal -1 0 0
    outer loop
      vertex -5.7 3.67973 1.2
      vertex -5.7 3.67973 0
      vertex -5.7 1.51409 1.2
    endloop
  endfacet
  facet normal -1 0 0
    outer loop
      vertex -5.7 1.51409 1.2
      vertex -5.7 3.67973 0
      vertex -5.7 1.51409 0
    endloop
  endfacet
  facet normal -0.587785 -0.809017 0
    outer loop
      vertex -5.66174 1.48629 0
      vertex -5.66174 1.48629 1.2
      vertex -5.7 1.51409 1.2
    endloop
  endfacet
  facet normal -0.587785 -0.809017 0
    outer loop
      vertex -5.7 1.51409 0
      vertex -5.66174 1.48629 0
      vertex -5.7 1.51409 1.2
    endloop
  endfacet
  facet normal -0.743144 -0.669131 0
    outer loop
      vertex -5.38197 1.17557 1.2
      vertex -5.66174 1.48629 1.2
      vertex -5.38197 1.17557 0
    endloop
  endfacet
  facet normal -0.743144 -0.669131 0
    outer loop
      vertex -5.38197 1.17557 0
      vertex -5.66174 1.48629 1.2
      vertex -5.66174 1.48629 0
    endloop
  endfacet
  facet normal -0.866026 -0.499999 0
    outer loop
      vertex -5.17291 0.813473 1.2
      vertex -5.38197 1.17557 1.2
      vertex -5.17291 0.813473 0
    endloop
  endfacet
  facet normal -0.866026 -0.499999 0
    outer loop
      vertex -5.17291 0.813473 0
      vertex -5.38197 1.17557 1.2
      vertex -5.38197 1.17557 0
    endloop
  endfacet
  facet normal -0.951057 -0.309016 0
    outer loop
      vertex -5.04371 0.415823 1.2
      vertex -5.17291 0.813473 1.2
      vertex -5.04371 0.415823 0
    endloop
  endfacet
  facet normal -0.951057 -0.309016 0
    outer loop
      vertex -5.04371 0.415823 0
      vertex -5.17291 0.813473 1.2
      vertex -5.17291 0.813473 0
    endloop
  endfacet
  facet normal -0.994522 -0.104529 0
    outer loop
      vertex -5 0 1.2
      vertex -5.04371 0.415823 1.2
      vertex -5 0 0
    endloop
  endfacet
  facet normal -0.994522 -0.104529 0
    outer loop
      vertex -5 0 0
      vertex -5.04371 0.415823 1.2
      vertex -5.04371 0.415823 0
    endloop
  endfacet
  facet normal -0.994522 0.104529 0
    outer loop
      vertex -5 0 1.2
      vertex -5 0 0
      vertex -5.04371 -0.415823 1.2
    endloop
  endfacet
  facet normal -0.994522 0.104529 0
    outer loop
      vertex -5.04371 -0.415823 1.2
      vertex -5 0 0
      vertex -5.04371 -0.415823 0
    endloop
  endfacet
  facet normal -0.951057 0.309016 0
    outer loop
      vertex -5.04371 -0.415823 1.2
      vertex -5.04371 -0.415823 0
      vertex -5.17291 -0.813473 1.2
    endloop
  endfacet
  facet normal -0.951057 0.309016 0
    outer loop
      vertex -5.17291 -0.813473 1.2
      vertex -5.04371 -0.415823 0
      vertex -5.17291 -0.813473 0
    endloop
  endfacet
  facet normal -0.866026 0.499999 0
    outer loop
      vertex -5.17291 -0.813473 1.2
      vertex -5.17291 -0.813473 0
      vertex -5.38197 -1.17557 1.2
    endloop
  endfacet
  facet normal -0.866026 0.499999 0
    outer loop
      vertex -5.38197 -1.17557 1.2
      vertex -5.17291 -0.813473 0
      vertex -5.38197 -1.17557 0
    endloop
  endfacet
  facet normal -0.743144 0.669131 0
    outer loop
      vertex -5.38197 -1.17557 1.2
      vertex -5.38197 -1.17557 0
      vertex -5.66174 -1.48629 1.2
    endloop
  endfacet
  facet normal -0.743144 0.669131 0
    outer loop
      vertex -5.66174 -1.48629 1.2
      vertex -5.38197 -1.17557 0
      vertex -5.66174 -1.48629 0
    endloop
  endfacet
  facet normal -0.587785 0.809017 0
    outer loop
      vertex -5.66174 -1.48629 1.2
      vertex -5.66174 -1.48629 0
      vertex -6 -1.73205 1.2
    endloop
  endfacet
  facet normal -0.587785 0.809017 0
    outer loop
      vertex -6 -1.73205 1.2
      vertex -5.66174 -1.48629 0
      vertex -6 -1.73205 0
    endloop
  endfacet
  facet normal -0.406736 0.913546 0
    outer loop
      vertex -6 -1.73205 1.2
      vertex -6 -1.73205 0
      vertex -6.38197 -1.90211 1.2
    endloop
  endfacet
  facet normal -0.406736 0.913546 0
    outer loop
      vertex -6.38197 -1.90211 1.2
      vertex -6 -1.73205 0
      vertex -6.38197 -1.90211 0
    endloop
  endfacet
  facet normal -0.207912 0.978147 0
    outer loop
      vertex -6.38197 -1.90211 1.2
      vertex -6.38197 -1.90211 0
      vertex -6.79094 -1.98904 1.2
    endloop
  endfacet
  facet normal -0.207912 0.978147 0
    outer loop
      vertex -6.79094 -1.98904 1.2
      vertex -6.38197 -1.90211 0
      vertex -6.79094 -1.98904 0
    endloop
  endfacet
  facet normal 0 1 0
    outer loop
      vertex -6.79094 -1.98904 1.2
      vertex -6.79094 -1.98904 0
      vertex -7.20906 -1.98904 1.2
    endloop
  endfacet
  facet normal 0 1 0
    outer loop
      vertex -7.20906 -1.98904 1.2
      vertex -6.79094 -1.98904 0
      vertex -7.20906 -1.98904 0
    endloop
  endfacet
  facet normal 0.207912 0.978147 0
    outer loop
      vertex -7.20906 -1.98904 1.2
      vertex -7.20906 -1.98904 0
      vertex -7.61803 -1.90211 1.2
    endloop
  endfacet
  facet normal 0.207912 0.978147 0
    outer loop
      vertex -7.61803 -1.90211 1.2
      vertex -7.20906 -1.98904 0
      vertex -7.61803 -1.90211 0
    endloop
  endfacet
  facet normal 0.406736 0.913546 0
    outer loop
      vertex -7.61803 -1.90211 1.2
      vertex -7.61803 -1.90211 0
      vertex -8 -1.73205 1.2
    endloop
  endfacet
  facet normal 0.406736 0.913546 0
    outer loop
      vertex -8 -1.73205 1.2
      vertex -7.61803 -1.90211 0
      vertex -8 -1.73205 0
    endloop
  endfacet
  facet normal 0.587785 0.809017 0
    outer loop
      vertex -8 -1.73205 1.2
      vertex -8 -1.73205 0
      vertex -8.33826 -1.48629 1.2
    endloop
  endfacet
  facet normal 0.587785 0.809017 0
    outer loop
      vertex -8.33826 -1.48629 1.2
      vertex -8 -1.73205 0
      vertex -8.33826 -1.48629 0
    endloop
  endfacet
  facet normal 0.743144 0.669131 0
    outer loop
      vertex -8.61803 -1.17557 1.2
      vertex -8.33826 -1.48629 1.2
      vertex -8.33826 -1.48629 0
    endloop
  endfacet
  facet normal 0.743144 0.669131 0
    outer loop
      vertex -8.61803 -1.17557 0
      vertex -8.61803 -1.17557 1.2
      vertex -8.33826 -1.48629 0
    endloop
  endfacet
  facet normal 0.866026 0.499999 0
    outer loop
      vertex -8.82709 -0.813473 1.2
      vertex -8.61803 -1.17557 1.2
      vertex -8.61803 -1.17557 0
    endloop
  endfacet
  facet normal 0.866026 0.499999 0
    outer loop
      vertex -8.82709 -0.813473 0
      vertex -8.82709 -0.813473 1.2
      vertex -8.61803 -1.17557 0
    endloop
  endfacet
  facet normal 0.951057 0.309016 0
    outer loop
      vertex -8.95629 -0.415823 1.2
      vertex -8.82709 -0.813473 1.2
      vertex -8.82709 -0.813473 0
    endloop
  endfacet
  facet normal 0.951057 0.309016 0
    outer loop
      vertex -8.95629 -0.415823 0
      vertex -8.95629 -0.415823 1.2
      vertex -8.82709 -0.813473 0
    endloop
  endfacet
  facet normal 0.994522 0.104529 0
    outer loop
      vertex -9 0 1.2
      vertex -8.95629 -0.415823 1.2
      vertex -8.95629 -0.415823 0
    endloop
  endfacet
  facet normal 0.994522 0.104529 0
    outer loop
      vertex -9 0 0
      vertex -9 0 1.2
      vertex -8.95629 -0.415823 0
    endloop
  endfacet
  facet normal 0.994522 -0.104529 0
    outer loop
      vertex -8.95629 0.415823 0
      vertex -8.95629 0.415823 1.2
      vertex -9 0 1.2
    endloop
  endfacet
  facet normal 0.994522 -0.104529 0
    outer loop
      vertex -9 0 0
      vertex -8.95629 0.415823 0
      vertex -9 0 1.2
    endloop
  endfacet
  facet normal 0.951057 -0.309016 0
    outer loop
      vertex -8.82709 0.813473 0
      vertex -8.82709 0.813473 1.2
      vertex -8.95629 0.415823 1.2
    endloop
  endfacet
  facet normal 0.951057 -0.309016 0
    outer loop
      vertex -8.95629 0.415823 0
      vertex -8.82709 0.813473 0
      vertex -8.95629 0.415823 1.2
    endloop
  endfacet
  facet normal 0.866026 -0.499999 0
    outer loop
      vertex -8.61803 1.17557 0
      vertex -8.61803 1.17557 1.2
      vertex -8.82709 0.813473 1.2
    endloop
  endfacet
  facet normal 0.866026 -0.499999 0
    outer loop
      vertex -8.82709 0.813473 0
      vertex -8.61803 1.17557 0
      vertex -8.82709 0.813473 1.2
    endloop
  endfacet
  facet normal 0.743144 -0.669131 0
    outer loop
      vertex -8.33826 1.48629 0
      vertex -8.33826 1.48629 1.2
      vertex -8.61803 1.17557 1.2
    endloop
  endfacet
  facet normal 0.743144 -0.669131 0
    outer loop
      vertex -8.61803 1.17557 0
      vertex -8.33826 1.48629 0
      vertex -8.61803 1.17557 1.2
    endloop
  endfacet
  facet normal 0.587785 -0.809017 0
    outer loop
      vertex -8.3 1.51409 0
      vertex -8.3 1.51409 1.2
      vertex -8.33826 1.48629 1.2
    endloop
  endfacet
  facet normal 0.587785 -0.809017 0
    outer loop
      vertex -8.33826 1.48629 0
      vertex -8.3 1.51409 0
      vertex -8.33826 1.48629 1.2
    endloop
  endfacet
  facet normal 1 0 0
    outer loop
      vertex -8.3 3.67973 0
      vertex -8.3 3.67973 1.2
      vertex -8.3 1.51409 1.2
    endloop
  endfacet
  facet normal 1 0 0
    outer loop
      vertex -8.3 1.51409 0
      vertex -8.3 3.67973 0
      vertex -8.3 1.51409 1.2
    endloop
  endfacet
  facet normal 0 1 0
    outer loop
      vertex -14.3868 3.67973 0
      vertex -14.3868 3.67973 1.2
      vertex -8.3 3.67973 0
    endloop
  endfacet
  facet normal 0 1 0
    outer loop
      vertex -8.3 3.67973 0
      vertex -14.3868 3.67973 1.2
      vertex -8.3 3.67973 1.2
    endloop
  endfacet
  facet normal -0.207912 0.978148 0
    outer loop
      vertex -15.1434 3.51891 0
      vertex -15.1434 3.51891 1.2
      vertex -14.3868 3.67973 0
    endloop
  endfacet
  facet normal -0.207912 0.978148 0
    outer loop
      vertex -14.3868 3.67973 0
      vertex -15.1434 3.51891 1.2
      vertex -14.3868 3.67973 1.2
    endloop
  endfacet
  facet normal -0.406737 0.913545 0
    outer loop
      vertex -15.85 3.20429 0
      vertex -15.85 3.20429 1.2
      vertex -15.1434 3.51891 0
    endloop
  endfacet
  facet normal -0.406737 0.913545 0
    outer loop
      vertex -15.1434 3.51891 0
      vertex -15.85 3.20429 1.2
      vertex -15.1434 3.51891 1.2
    endloop
  endfacet
  facet normal -0.587785 0.809017 0
    outer loop
      vertex -16.4758 2.74964 0
      vertex -16.4758 2.74964 1.2
      vertex -15.85 3.20429 0
    endloop
  endfacet
  facet normal -0.587785 0.809017 0
    outer loop
      vertex -15.85 3.20429 0
      vertex -16.4758 2.74964 1.2
      vertex -15.85 3.20429 1.2
    endloop
  endfacet
  facet normal -0.743145 0.66913 0
    outer loop
      vertex -16.9934 2.17481 0
      vertex -16.9934 2.17481 1.2
      vertex -16.4758 2.74964 0
    endloop
  endfacet
  facet normal -0.743145 0.66913 0
    outer loop
      vertex -16.4758 2.74964 0
      vertex -16.9934 2.17481 1.2
      vertex -16.4758 2.74964 1.2
    endloop
  endfacet
  facet normal -0.866025 0.5 0
    outer loop
      vertex -17.3801 1.50493 0
      vertex -17.3801 1.50493 1.2
      vertex -16.9934 2.17481 0
    endloop
  endfacet
  facet normal -0.866025 0.5 0
    outer loop
      vertex -16.9934 2.17481 0
      vertex -17.3801 1.50493 1.2
      vertex -16.9934 2.17481 1.2
    endloop
  endfacet
  facet normal -0.951057 0.309017 0
    outer loop
      vertex -17.6191 0.769273 0
      vertex -17.6191 0.769273 1.2
      vertex -17.3801 1.50493 0
    endloop
  endfacet
  facet normal -0.951057 0.309017 0
    outer loop
      vertex -17.3801 1.50493 0
      vertex -17.6191 0.769273 1.2
      vertex -17.3801 1.50493 1.2
    endloop
  endfacet
  facet normal 0.951056 0.309017 0
    outer loop
      vertex -15 0 1.2
      vertex -14.809 -0.587785 1.2
      vertex -14.809 -0.587785 0
    endloop
  endfacet
  facet normal 0.951056 0.309017 0
    outer loop
      vertex -15 0 0
      vertex -15 0 1.2
      vertex -14.809 -0.587785 0
    endloop
  endfacet
  facet normal 0.951056 -0.309017 0
    outer loop
      vertex -14.809 0.587785 0
      vertex -14.809 0.587785 1.2
      vertex -15 0 1.2
    endloop
  endfacet
  facet normal 0.951056 -0.309017 0
    outer loop
      vertex -15 0 0
      vertex -14.809 0.587785 0
      vertex -15 0 1.2
    endloop
  endfacet
  facet normal 0.587786 -0.809016 0
    outer loop
      vertex -14.309 0.951057 0
      vertex -14.309 0.951057 1.2
      vertex -14.809 0.587785 1.2
    endloop
  endfacet
  facet normal 0.587786 -0.809016 0
    outer loop
      vertex -14.809 0.587785 0
      vertex -14.309 0.951057 0
      vertex -14.809 0.587785 1.2
    endloop
  endfacet
  facet normal 0 -1 0
    outer loop
      vertex -13.691 0.951057 0
      vertex -13.691 0.951057 1.2
      vertex -14.309 0.951057 1.2
    endloop
  endfacet
  facet normal 0 -1 0
    outer loop
      vertex -14.309 0.951057 0
      vertex -13.691 0.951057 0
      vertex -14.309 0.951057 1.2
    endloop
  endfacet
  facet normal -0.587786 -0.809016 0
    outer loop
      vertex -13.191 0.587785 0
      vertex -13.191 0.587785 1.2
      vertex -13.691 0.951057 1.2
    endloop
  endfacet
  facet normal -0.587786 -0.809016 0
    outer loop
      vertex -13.691 0.951057 0
      vertex -13.191 0.587785 0
      vertex -13.691 0.951057 1.2
    endloop
  endfacet
  facet normal -0.951056 -0.309017 0
    outer loop
      vertex -13 0 1.2
      vertex -13.191 0.587785 1.2
      vertex -13 0 0
    endloop
  endfacet
  facet normal -0.951056 -0.309017 0
    outer loop
      vertex -13 0 0
      vertex -13.191 0.587785 1.2
      vertex -13.191 0.587785 0
    endloop
  endfacet
  facet normal -0.951056 0.309017 0
    outer loop
      vertex -13 0 1.2
      vertex -13 0 0
      vertex -13.191 -0.587785 1.2
    endloop
  endfacet
  facet normal -0.951056 0.309017 0
    outer loop
      vertex -13.191 -0.587785 1.2
      vertex -13 0 0
      vertex -13.191 -0.587785 0
    endloop
  endfacet
  facet normal -0.587786 0.809016 0
    outer loop
      vertex -13.191 -0.587785 1.2
      vertex -13.191 -0.587785 0
      vertex -13.691 -0.951057 1.2
    endloop
  endfacet
  facet normal -0.587786 0.809016 0
    outer loop
      vertex -13.691 -0.951057 1.2
      vertex -13.191 -0.587785 0
      vertex -13.691 -0.951057 0
    endloop
  endfacet
  facet normal 0 1 0
    outer loop
      vertex -13.691 -0.951057 1.2
      vertex -13.691 -0.951057 0
      vertex -14.309 -0.951057 1.2
    endloop
  endfacet
  facet normal 0 1 0
    outer loop
      vertex -14.309 -0.951057 1.2
      vertex -13.691 -0.951057 0
      vertex -14.309 -0.951057 0
    endloop
  endfacet
  facet normal 0.587786 0.809016 0
    outer loop
      vertex -14.309 -0.951057 1.2
      vertex -14.309 -0.951057 0
      vertex -14.809 -0.587785 1.2
    endloop
  endfacet
  facet normal 0.587786 0.809016 0
    outer loop
      vertex -14.809 -0.587785 1.2
      vertex -14.309 -0.951057 0
      vertex -14.809 -0.587785 0
    endloop
  endfacet
  facet normal 0.951056 0.309017 0
    outer loop
      vertex -1 0 1.2
      vertex -0.809017 -0.587785 1.2
      vertex -0.809017 -0.587785 0
    endloop
  endfacet
  facet normal 0.951056 0.309017 0
    outer loop
      vertex -1 0 0
      vertex -1 0 1.2
      vertex -0.809017 -0.587785 0
    endloop
  endfacet
  facet normal 0.951056 -0.309017 0
    outer loop
      vertex -0.809017 0.587785 0
      vertex -0.809017 0.587785 1.2
      vertex -1 0 1.2
    endloop
  endfacet
  facet normal 0.951056 -0.309017 0
    outer loop
      vertex -1 0 0
      vertex -0.809017 0.587785 0
      vertex -1 0 1.2
    endloop
  endfacet
  facet normal 0.587786 -0.809016 0
    outer loop
      vertex -0.309017 0.951057 0
      vertex -0.309017 0.951057 1.2
      vertex -0.809017 0.587785 1.2
    endloop
  endfacet
  facet normal 0.587786 -0.809016 0
    outer loop
      vertex -0.809017 0.587785 0
      vertex -0.309017 0.951057 0
      vertex -0.809017 0.587785 1.2
    endloop
  endfacet
  facet normal 0 -1 0
    outer loop
      vertex 0.309017 0.951057 0
      vertex 0.309017 0.951057 1.2
      vertex -0.309017 0.951057 1.2
    endloop
  endfacet
  facet normal 0 -1 0
    outer loop
      vertex -0.309017 0.951057 0
      vertex 0.309017 0.951057 0
      vertex -0.309017 0.951057 1.2
    endloop
  endfacet
  facet normal -0.587786 -0.809016 0
    outer loop
      vertex 0.809017 0.587785 0
      vertex 0.809017 0.587785 1.2
      vertex 0.309017 0.951057 1.2
    endloop
  endfacet
  facet normal -0.587786 -0.809016 0
    outer loop
      vertex 0.309017 0.951057 0
      vertex 0.809017 0.587785 0
      vertex 0.309017 0.951057 1.2
    endloop
  endfacet
  facet normal -0.951056 -0.309017 0
    outer loop
      vertex 1 0 1.2
      vertex 0.809017 0.587785 1.2
      vertex 1 0 0
    endloop
  endfacet
  facet normal -0.951056 -0.309017 0
    outer loop
      vertex 1 0 0
      vertex 0.809017 0.587785 1.2
      vertex 0.809017 0.587785 0
    endloop
  endfacet
  facet normal -0.951056 0.309017 0
    outer loop
      vertex 1 0 1.2
      vertex 1 0 0
      vertex 0.809017 -0.587785 1.2
    endloop
  endfacet
  facet normal -0.951056 0.309017 0
    outer loop
      vertex 0.809017 -0.587785 1.2
      vertex 1 0 0
      vertex 0.809017 -0.587785 0
    endloop
  endfacet
  facet normal -0.587786 0.809016 0
    outer loop
      vertex 0.809017 -0.587785 1.2
      vertex 0.809017 -0.587785 0
      vertex 0.309017 -0.951057 1.2
    endloop
  endfacet
  facet normal -0.587786 0.809016 0
    outer loop
      vertex 0.309017 -0.951057 1.2
      vertex 0.809017 -0.587785 0
      vertex 0.309017 -0.951057 0
    endloop
  endfacet
  facet normal 0 1 0
    outer loop
      vertex 0.309017 -0.951057 1.2
      vertex 0.309017 -0.951057 0
      vertex -0.309017 -0.951057 1.2
    endloop
  endfacet
  facet normal 0 1 0
    outer loop
      vertex -0.309017 -0.951057 1.2
      vertex 0.309017 -0.951057 0
      vertex -0.309017 -0.951057 0
    endloop
  endfacet
  facet normal 0.587786 0.809016 0
    outer loop
      vertex -0.309017 -0.951057 1.2
      vertex -0.309017 -0.951057 0
      vertex -0.809017 -0.587785 1.2
    endloop
  endfacet
  facet normal 0.587786 0.809016 0
    outer loop
      vertex -0.809017 -0.587785 1.2
      vertex -0.309017 -0.951057 0
      vertex -0.809017 -0.587785 0
    endloop
  endfacet
  facet normal 0 0 1
    outer loop
      vertex -17.6191 0.769273 1.2
      vertex -17.7 0 1.2
      vertex -17.6191 -0.769273 1.2
    endloop
  endfacet
  facet normal 0 0 1
    outer loop
      vertex -16.9934 -2.17481 1.2
      vertex -17.6191 0.769273 1.2
      vertex -17.3801 -1.50493 1.2
    endloop
  endfacet
  facet normal 0 0 1
    outer loop
      vertex -17.3801 -1.50493 1.2
      vertex -17.6191 0.769273 1.2
      vertex -17.6191 -0.769273 1.2
    endloop
  endfacet
  facet normal 0 0 1
    outer loop
      vertex -16.4758 -2.74964 1.2
      vertex -17.6191 0.769273 1.2
      vertex -16.9934 -2.17481 1.2
    endloop
  endfacet
  facet normal 0 0 1
    outer loop
      vertex -15.85 -3.20429 1.2
      vertex -17.6191 0.769273 1.2
      vertex -16.4758 -2.74964 1.2
    endloop
  endfacet
  facet normal 0 0 1
    outer loop
      vertex -15.1434 -3.51891 1.2
      vertex -17.6191 0.769273 1.2
      vertex -15.85 -3.20429 1.2
    endloop
  endfacet
  facet normal 0 0 1
    outer loop
      vertex -14.3868 -3.67973 1.2
      vertex -17.6191 0.769273 1.2
      vertex -15.1434 -3.51891 1.2
    endloop
  endfacet
  facet normal 0 0 1
    outer loop
      vertex -14.809 -0.587785 1.2
      vertex -17.6191 0.769273 1.2
      vertex -14.3868 -3.67973 1.2
    endloop
  endfacet
  facet normal 0 0 1
    outer loop
      vertex -6 -1.73205 1.2
      vertex -6.38197 -1.90211 1.2
      vertex 1.14336 -3.51891 1.2
    endloop
  endfacet
  facet normal 0 0 1
    outer loop
      vertex -13.191 0.587785 1.2
      vertex -13 0 1.2
      vertex -8.95629 -0.415823 1.2
    endloop
  endfacet
  facet normal 0 0 1
    outer loop
      vertex -0.809017 0.587785 1.2
      vertex -0.309017 0.951057 1.2
      vertex -5.38197 1.17557 1.2
    endloop
  endfacet
  facet normal 0 0 1
    outer loop
      vertex 0.309017 0.951057 1.2
      vertex 0.809017 0.587785 1.2
      vertex 3.61915 0.769273 1.2
    endloop
  endfacet
  facet normal 0 0 1
    outer loop
      vertex -1 0 1.2
      vertex -0.809017 0.587785 1.2
      vertex -5.04371 0.415823 1.2
    endloop
  endfacet
  facet normal 0 0 1
    outer loop
      vertex -5 0 1.2
      vertex -5.04371 -0.415823 1.2
      vertex -0.809017 -0.587785 1.2
    endloop
  endfacet
  facet normal 0 0 1
    outer loop
      vertex -13.191 -0.587785 1.2
      vertex -13.691 -0.951057 1.2
      vertex -7.61803 -1.90211 1.2
    endloop
  endfacet
  facet normal 0 0 1
    outer loop
      vertex -15 0 1.2
      vertex -14.809 0.587785 1.2
      vertex -17.6191 0.769273 1.2
    endloop
  endfacet
  facet normal 0 0 1
    outer loop
      vertex 2.99336 2.17481 1.2
      vertex -5.7 1.51409 1.2
      vertex 3.38012 1.50493 1.2
    endloop
  endfacet
  facet normal 0 0 1
    outer loop
      vertex -5.7 1.51409 1.2
      vertex -5.66174 1.48629 1.2
      vertex 3.38012 1.50493 1.2
    endloop
  endfacet
  facet normal 0 0 1
    outer loop
      vertex -8.3 1.51409 1.2
      vertex -8.3 3.67973 1.2
      vertex -17.6191 0.769273 1.2
    endloop
  endfacet
  facet normal 0 0 1
    outer loop
      vertex -13.691 0.951057 1.2
      vertex -13.191 0.587785 1.2
      vertex -8.95629 0.415823 1.2
    endloop
  endfacet
  facet normal 0 0 1
    outer loop
      vertex 0.809017 0.587785 1.2
      vertex 1 0 1.2
      vertex 3.7 0 1.2
    endloop
  endfacet
  facet normal 0 0 1
    outer loop
      vertex -14.309 0.951057 1.2
      vertex -8.33826 1.48629 1.2
      vertex -17.6191 0.769273 1.2
    endloop
  endfacet
  facet normal 0 0 1
    outer loop
      vertex 3.7 0 1.2
      vertex 1 0 1.2
      vertex 3.61915 -0.769273 1.2
    endloop
  endfacet
  facet normal 0 0 1
    outer loop
      vertex -0.309017 -0.951057 1.2
      vertex -5.04371 -0.415823 1.2
      vertex 3.38012 -1.50493 1.2
    endloop
  endfacet
  facet normal 0 0 1
    outer loop
      vertex 3.38012 -1.50493 1.2
      vertex -5.17291 -0.813473 1.2
      vertex 2.99336 -2.17481 1.2
    endloop
  endfacet
  facet normal 0 0 1
    outer loop
      vertex 2.99336 -2.17481 1.2
      vertex -5.38197 -1.17557 1.2
      vertex 2.47578 -2.74964 1.2
    endloop
  endfacet
  facet normal 0 0 1
    outer loop
      vertex 2.47578 -2.74964 1.2
      vertex -5.66174 -1.48629 1.2
      vertex 1.85 -3.20429 1.2
    endloop
  endfacet
  facet normal 0 0 1
    outer loop
      vertex 1.85 -3.20429 1.2
      vertex -6 -1.73205 1.2
      vertex 1.14336 -3.51891 1.2
    endloop
  endfacet
  facet normal 0 0 1
    outer loop
      vertex 1.14336 -3.51891 1.2
      vertex -6.38197 -1.90211 1.2
      vertex 0.386755 -3.67973 1.2
    endloop
  endfacet
  facet normal 0 0 1
    outer loop
      vertex 0.386755 -3.67973 1.2
      vertex -6.79094 -1.98904 1.2
      vertex -14.3868 -3.67973 1.2
    endloop
  endfacet
  facet normal 0 0 1
    outer loop
      vertex -6.79094 -1.98904 1.2
      vertex -7.20906 -1.98904 1.2
      vertex -14.3868 -3.67973 1.2
    endloop
  endfacet
  facet normal 0 0 1
    outer loop
      vertex -7.20906 -1.98904 1.2
      vertex -7.61803 -1.90211 1.2
      vertex -14.3868 -3.67973 1.2
    endloop
  endfacet
  facet normal 0 0 1
    outer loop
      vertex -14.809 0.587785 1.2
      vertex -14.309 0.951057 1.2
      vertex -17.6191 0.769273 1.2
    endloop
  endfacet
  facet normal 0 0 1
    outer loop
      vertex -6.38197 -1.90211 1.2
      vertex -6.79094 -1.98904 1.2
      vertex 0.386755 -3.67973 1.2
    endloop
  endfacet
  facet normal 0 0 1
    outer loop
      vertex -8.82709 -0.813473 1.2
      vertex -8.95629 -0.415823 1.2
      vertex -13 0 1.2
    endloop
  endfacet
  facet normal 0 0 1
    outer loop
      vertex -13.191 0.587785 1.2
      vertex -8.95629 -0.415823 1.2
      vertex -9 0 1.2
    endloop
  endfacet
  facet normal 0 0 1
    outer loop
      vertex -5.66174 -1.48629 1.2
      vertex -6 -1.73205 1.2
      vertex 1.85 -3.20429 1.2
    endloop
  endfacet
  facet normal 0 0 1
    outer loop
      vertex -13 0 1.2
      vertex -7.61803 -1.90211 1.2
      vertex -8 -1.73205 1.2
    endloop
  endfacet
  facet normal 0 0 1
    outer loop
      vertex -5.38197 -1.17557 1.2
      vertex -5.66174 -1.48629 1.2
      vertex 2.47578 -2.74964 1.2
    endloop
  endfacet
  facet normal 0 0 1
    outer loop
      vertex -13.691 0.951057 1.2
      vertex -8.82709 0.813473 1.2
      vertex -8.61803 1.17557 1.2
    endloop
  endfacet
  facet normal 0 0 1
    outer loop
      vertex -0.809017 0.587785 1.2
      vertex -5.17291 0.813473 1.2
      vertex -5.04371 0.415823 1.2
    endloop
  endfacet
  facet normal 0 0 1
    outer loop
      vertex -13.691 0.951057 1.2
      vertex -8.95629 0.415823 1.2
      vertex -8.82709 0.813473 1.2
    endloop
  endfacet
  facet normal 0 0 1
    outer loop
      vertex -5.66174 1.48629 1.2
      vertex -5.38197 1.17557 1.2
      vertex 3.38012 1.50493 1.2
    endloop
  endfacet
  facet normal 0 0 1
    outer loop
      vertex -8.3 1.51409 1.2
      vertex -17.6191 0.769273 1.2
      vertex -8.33826 1.48629 1.2
    endloop
  endfacet
  facet normal 0 0 1
    outer loop
      vertex -0.809017 0.587785 1.2
      vertex -5.38197 1.17557 1.2
      vertex -5.17291 0.813473 1.2
    endloop
  endfacet
  facet normal 0 0 1
    outer loop
      vertex -5.04371 0.415823 1.2
      vertex -5 0 1.2
      vertex -1 0 1.2
    endloop
  endfacet
  facet normal 0 0 1
    outer loop
      vertex -14.3868 3.67973 1.2
      vertex -17.6191 0.769273 1.2
      vertex -8.3 3.67973 1.2
    endloop
  endfacet
  facet normal 0 0 1
    outer loop
      vertex -15.1434 3.51891 1.2
      vertex -17.6191 0.769273 1.2
      vertex -14.3868 3.67973 1.2
    endloop
  endfacet
  facet normal 0 0 1
    outer loop
      vertex -15.85 3.20429 1.2
      vertex -17.6191 0.769273 1.2
      vertex -15.1434 3.51891 1.2
    endloop
  endfacet
  facet normal 0 0 1
    outer loop
      vertex -16.4758 2.74964 1.2
      vertex -17.6191 0.769273 1.2
      vertex -15.85 3.20429 1.2
    endloop
  endfacet
  facet normal 0 0 1
    outer loop
      vertex -16.9934 2.17481 1.2
      vertex -17.6191 0.769273 1.2
      vertex -16.4758 2.74964 1.2
    endloop
  endfacet
  facet normal 0 0 1
    outer loop
      vertex -17.3801 1.50493 1.2
      vertex -17.6191 0.769273 1.2
      vertex -16.9934 2.17481 1.2
    endloop
  endfacet
  facet normal 0 0 1
    outer loop
      vertex -14.309 -0.951057 1.2
      vertex -14.809 -0.587785 1.2
      vertex -14.3868 -3.67973 1.2
    endloop
  endfacet
  facet normal 0 0 1
    outer loop
      vertex -15 0 1.2
      vertex -17.6191 0.769273 1.2
      vertex -14.809 -0.587785 1.2
    endloop
  endfacet
  facet normal 0 0 1
    outer loop
      vertex -0.309017 -0.951057 1.2
      vertex -0.809017 -0.587785 1.2
      vertex -5.04371 -0.415823 1.2
    endloop
  endfacet
  facet normal 0 0 1
    outer loop
      vertex -13 0 1.2
      vertex -13.191 -0.587785 1.2
      vertex -7.61803 -1.90211 1.2
    endloop
  endfacet
  facet normal 0 0 1
    outer loop
      vertex -13 0 1.2
      vertex -8.33826 -1.48629 1.2
      vertex -8.61803 -1.17557 1.2
    endloop
  endfacet
  facet normal 0 0 1
    outer loop
      vertex -13 0 1.2
      vertex -8.61803 -1.17557 1.2
      vertex -8.82709 -0.813473 1.2
    endloop
  endfacet
  facet normal 0 0 1
    outer loop
      vertex -14.309 0.951057 1.2
      vertex -13.691 0.951057 1.2
      vertex -8.61803 1.17557 1.2
    endloop
  endfacet
  facet normal 0 0 1
    outer loop
      vertex -9 0 1.2
      vertex -8.95629 0.415823 1.2
      vertex -13.191 0.587785 1.2
    endloop
  endfacet
  facet normal 0 0 1
    outer loop
      vertex -7.61803 -1.90211 1.2
      vertex -13.691 -0.951057 1.2
      vertex -14.3868 -3.67973 1.2
    endloop
  endfacet
  facet normal 0 0 1
    outer loop
      vertex -13.691 -0.951057 1.2
      vertex -14.309 -0.951057 1.2
      vertex -14.3868 -3.67973 1.2
    endloop
  endfacet
  facet normal 0 0 1
    outer loop
      vertex -5.04371 -0.415823 1.2
      vertex -5.17291 -0.813473 1.2
      vertex 3.38012 -1.50493 1.2
    endloop
  endfacet
  facet normal 0 0 1
    outer loop
      vertex -8.61803 1.17557 1.2
      vertex -8.33826 1.48629 1.2
      vertex -14.309 0.951057 1.2
    endloop
  endfacet
  facet normal 0 0 1
    outer loop
      vertex 1 0 1.2
      vertex 0.809017 -0.587785 1.2
      vertex 3.61915 -0.769273 1.2
    endloop
  endfacet
  facet normal 0 0 1
    outer loop
      vertex 3.38012 1.50493 1.2
      vertex -5.38197 1.17557 1.2
      vertex -0.309017 0.951057 1.2
    endloop
  endfacet
  facet normal 0 0 1
    outer loop
      vertex 3.38012 1.50493 1.2
      vertex 0.309017 0.951057 1.2
      vertex 3.61915 0.769273 1.2
    endloop
  endfacet
  facet normal 0 0 1
    outer loop
      vertex 3.38012 1.50493 1.2
      vertex -0.309017 0.951057 1.2
      vertex 0.309017 0.951057 1.2
    endloop
  endfacet
  facet normal 0 0 1
    outer loop
      vertex 3.61915 0.769273 1.2
      vertex 0.809017 0.587785 1.2
      vertex 3.7 0 1.2
    endloop
  endfacet
  facet normal 0 0 1
    outer loop
      vertex 0.809017 -0.587785 1.2
      vertex 0.309017 -0.951057 1.2
      vertex 3.61915 -0.769273 1.2
    endloop
  endfacet
  facet normal 0 0 1
    outer loop
      vertex -5.17291 -0.813473 1.2
      vertex -5.38197 -1.17557 1.2
      vertex 2.99336 -2.17481 1.2
    endloop
  endfacet
  facet normal 0 0 1
    outer loop
      vertex -13 0 1.2
      vertex -8 -1.73205 1.2
      vertex -8.33826 -1.48629 1.2
    endloop
  endfacet
  facet normal 0 0 1
    outer loop
      vertex 3.61915 -0.769273 1.2
      vertex 0.309017 -0.951057 1.2
      vertex 3.38012 -1.50493 1.2
    endloop
  endfacet
  facet normal 0 0 1
    outer loop
      vertex 0.309017 -0.951057 1.2
      vertex -0.309017 -0.951057 1.2
      vertex 3.38012 -1.50493 1.2
    endloop
  endfacet
  facet normal 0 0 1
    outer loop
      vertex -0.809017 -0.587785 1.2
      vertex -1 0 1.2
      vertex -5 0 1.2
    endloop
  endfacet
  facet normal 0 0 1
    outer loop
      vertex -5.7 3.67973 1.2
      vertex 1.14336 3.51891 1.2
      vertex 0.386755 3.67973 1.2
    endloop
  endfacet
  facet normal 0 0 1
    outer loop
      vertex -5.7 3.67973 1.2
      vertex 1.85 3.20429 1.2
      vertex 1.14336 3.51891 1.2
    endloop
  endfacet
  facet normal 0 0 1
    outer loop
      vertex -5.7 3.67973 1.2
      vertex 2.47578 2.74964 1.2
      vertex 1.85 3.20429 1.2
    endloop
  endfacet
  facet normal 0 0 1
    outer loop
      vertex -5.7 3.67973 1.2
      vertex 2.99336 2.17481 1.2
      vertex 2.47578 2.74964 1.2
    endloop
  endfacet
  facet normal 0 0 1
    outer loop
      vertex -5.7 3.67973 1.2
      vertex -5.7 1.51409 1.2
      vertex 2.99336 2.17481 1.2
    endloop
  endfacet
endsolid OpenSCAD_Model
