solid OpenSCAD_Model
  facet normal 0 0 -1
    outer loop
      vertex -17.7 0 0
      vertex -17.6191 0.769273 0
      vertex -17.6191 -0.769273 0
    endloop
  endfacet
  facet normal 0 0 -1
    outer loop
      vertex -17.6191 -0.769273 0
      vertex -17.6191 0.769273 0
      vertex -17.3801 1.50493 0
    endloop
  endfacet
  facet normal 0 0 -1
    outer loop
      vertex -17.6191 -0.769273 0
      vertex -17.3801 1.50493 0
      vertex -16.9934 2.17481 0
    endloop
  endfacet
  facet normal 0 0 -1
    outer loop
      vertex -17.6191 -0.769273 0
      vertex -16.9934 2.17481 0
      vertex -16.4758 2.74964 0
    endloop
  endfacet
  facet normal 0 0 -1
    outer loop
      vertex -17.6191 -0.769273 0
      vertex -16.4758 2.74964 0
      vertex -15.85 3.20429 0
    endloop
  endfacet
  facet normal 0 0 -1
    outer loop
      vertex -17.6191 -0.769273 0
      vertex -15.85 3.20429 0
      vertex -15.1434 3.51891 0
    endloop
  endfacet
  facet normal 0 0 -1
    outer loop
      vertex -17.6191 -0.769273 0
      vertex -15.1434 3.51891 0
      vertex -14.3868 3.67973 0
    endloop
  endfacet
  facet normal 0 0 -1
    outer loop
      vertex -14.309 0.951057 0
      vertex -14.3868 3.67973 0
      vertex -8.5 3.67973 0
    endloop
  endfacet
  facet normal 0 0 -1
    outer loop
      vertex -13.191 0.587785 0
      vertex -8.5 3.67973 0
      vertex -8.5 1.98343 0
    endloop
  endfacet
  facet normal 0 0 -1
    outer loop
      vertex -14.809 0.587785 0
      vertex -17.6191 -0.769273 0
      vertex -14.309 0.951057 0
    endloop
  endfacet
  facet normal 0 0 -1
    outer loop
      vertex -13 0 0
      vertex -9.5 0 0
      vertex -9.44537 -0.519779 0
    endloop
  endfacet
  facet normal 0 0 -1
    outer loop
      vertex -13.191 -0.587785 0
      vertex -9.44537 -0.519779 0
      vertex -9.28386 -1.01684 0
    endloop
  endfacet
  facet normal 0 0 -1
    outer loop
      vertex -13.191 0.587785 0
      vertex -9.28386 1.01684 0
      vertex -13 0 0
    endloop
  endfacet
  facet normal 0 0 -1
    outer loop
      vertex -14.309 -0.951057 0
      vertex -9.02254 -1.46946 0
      vertex -17.6191 -0.769273 0
    endloop
  endfacet
  facet normal 0 0 -1
    outer loop
      vertex -9.02254 -1.46946 0
      vertex -8.67283 -1.85786 0
      vertex -17.6191 -0.769273 0
    endloop
  endfacet
  facet normal 0 0 -1
    outer loop
      vertex -8.67283 -1.85786 0
      vertex -8.25 -2.16506 0
      vertex -17.6191 -0.769273 0
    endloop
  endfacet
  facet normal 0 0 -1
    outer loop
      vertex -8.25 -2.16506 0
      vertex -7.77254 -2.37764 0
      vertex -17.6191 -0.769273 0
    endloop
  endfacet
  facet normal 0 0 -1
    outer loop
      vertex -7.77254 -2.37764 0
      vertex -7.26132 -2.4863 0
      vertex -17.6191 -0.769273 0
    endloop
  endfacet
  facet normal 0 0 -1
    outer loop
      vertex -4.97746 -1.46946 0
      vertex 0.386755 3.67973 0
      vertex -5.32717 -1.85786 0
    endloop
  endfacet
  facet normal 0 0 -1
    outer loop
      vertex -4.71614 -1.01684 0
      vertex 0.386755 3.67973 0
      vertex -4.97746 -1.46946 0
    endloop
  endfacet
  facet normal 0 0 -1
    outer loop
      vertex -4.55463 -0.519779 0
      vertex 0.386755 3.67973 0
      vertex -4.71614 -1.01684 0
    endloop
  endfacet
  facet normal 0 0 -1
    outer loop
      vertex -4.5 0 0
      vertex 0.386755 3.67973 0
      vertex -4.55463 -0.519779 0
    endloop
  endfacet
  facet normal 0 0 -1
    outer loop
      vertex -4.71614 1.01684 0
      vertex -5.5 3.67973 0
      vertex -4.55463 0.519779 0
    endloop
  endfacet
  facet normal 0 0 -1
    outer loop
      vertex -4.97746 1.46946 0
      vertex -5.5 3.67973 0
      vertex -4.71614 1.01684 0
    endloop
  endfacet
  facet normal 0 0 -1
    outer loop
      vertex -5.32717 1.85786 0
      vertex -5.5 1.98343 0
      vertex -5.5 3.67973 0
    endloop
  endfacet
  facet normal 0 0 -1
    outer loop
      vertex -5.32717 1.85786 0
      vertex -5.5 3.67973 0
      vertex -4.97746 1.46946 0
    endloop
  endfacet
  facet normal 0 0 -1
    outer loop
      vertex -4.55463 0.519779 0
      vertex -5.5 3.67973 0
      vertex 0.386755 3.67973 0
    endloop
  endfacet
  facet normal 0 0 -1
    outer loop
      vertex -4.55463 0.519779 0
      vertex 0.386755 3.67973 0
      vertex -4.5 0 0
    endloop
  endfacet
  facet normal 0 0 -1
    outer loop
      vertex -5.32717 -1.85786 0
      vertex 0.386755 3.67973 0
      vertex 1.14336 3.51891 0
    endloop
  endfacet
  facet normal 0 0 -1
    outer loop
      vertex -5.32717 -1.85786 0
      vertex 1.14336 3.51891 0
      vertex 1.85 3.20429 0
    endloop
  endfacet
  facet normal 0 0 -1
    outer loop
      vertex -5.32717 -1.85786 0
      vertex 1.85 3.20429 0
      vertex -5.75 -2.16506 0
    endloop
  endfacet
  facet normal 0 0 -1
    outer loop
      vertex -5.75 -2.16506 0
      vertex 1.85 3.20429 0
      vertex 2.47578 2.74964 0
    endloop
  endfacet
  facet normal 0 0 -1
    outer loop
      vertex 0.309017 0.951057 0
      vertex 2.47578 2.74964 0
      vertex 2.99336 2.17481 0
    endloop
  endfacet
  facet normal 0 0 -1
    outer loop
      vertex 1 0 0
      vertex 3.38012 1.50493 0
      vertex 3.61915 0.769273 0
    endloop
  endfacet
  facet normal 0 0 -1
    outer loop
      vertex 0.809017 -0.587785 0
      vertex 3.61915 0.769273 0
      vertex 3.7 0 0
    endloop
  endfacet
  facet normal 0 0 -1
    outer loop
      vertex 0.309017 -0.951057 0
      vertex 3.7 0 0
      vertex 3.61915 -0.769273 0
    endloop
  endfacet
  facet normal 0 0 -1
    outer loop
      vertex -6.22746 -2.37764 0
      vertex 3.61915 -0.769273 0
      vertex -6.73868 -2.4863 0
    endloop
  endfacet
  facet normal 0 0 -1
    outer loop
      vertex -6.73868 -2.4863 0
      vertex 3.61915 -0.769273 0
      vertex 3.38012 -1.50493 0
    endloop
  endfacet
  facet normal 0 0 -1
    outer loop
      vertex -6.73868 -2.4863 0
      vertex 3.38012 -1.50493 0
      vertex 2.99336 -2.17481 0
    endloop
  endfacet
  facet normal 0 0 -1
    outer loop
      vertex -6.73868 -2.4863 0
      vertex 2.99336 -2.17481 0
      vertex 2.47578 -2.74964 0
    endloop
  endfacet
  facet normal 0 0 -1
    outer loop
      vertex -6.73868 -2.4863 0
      vertex 2.47578 -2.74964 0
      vertex -7.26132 -2.4863 0
    endloop
  endfacet
  facet normal 0 0 -1
    outer loop
      vertex -7.26132 -2.4863 0
      vertex 2.47578 -2.74964 0
      vertex 1.85 -3.20429 0
    endloop
  endfacet
  facet normal 0 0 -1
    outer loop
      vertex -7.26132 -2.4863 0
      vertex 1.85 -3.20429 0
      vertex 1.14336 -3.51891 0
    endloop
  endfacet
  facet normal 0 0 -1
    outer loop
      vertex -7.26132 -2.4863 0
      vertex 1.14336 -3.51891 0
      vertex 0.386755 -3.67973 0
    endloop
  endfacet
  facet normal 0 0 -1
    outer loop
      vertex -7.26132 -2.4863 0
      vertex 0.386755 -3.67973 0
      vertex -14.3868 -3.67973 0
    endloop
  endfacet
  facet normal 0 0 -1
    outer loop
      vertex -7.26132 -2.4863 0
      vertex -14.3868 -3.67973 0
      vertex -17.6191 -0.769273 0
    endloop
  endfacet
  facet normal 0 0 -1
    outer loop
      vertex -17.6191 -0.769273 0
      vertex -14.3868 -3.67973 0
      vertex -15.1434 -3.51891 0
    endloop
  endfacet
  facet normal 0 0 -1
    outer loop
      vertex -17.6191 -0.769273 0
      vertex -15.1434 -3.51891 0
      vertex -15.85 -3.20429 0
    endloop
  endfacet
  facet normal 0 0 -1
    outer loop
      vertex -17.6191 -0.769273 0
      vertex -15.85 -3.20429 0
      vertex -16.4758 -2.74964 0
    endloop
  endfacet
  facet normal 0 0 -1
    outer loop
      vertex -17.6191 -0.769273 0
      vertex -16.4758 -2.74964 0
      vertex -16.9934 -2.17481 0
    endloop
  endfacet
  facet normal 0 0 -1
    outer loop
      vertex -17.6191 -0.769273 0
      vertex -16.9934 -2.17481 0
      vertex -17.3801 -1.50493 0
    endloop
  endfacet
  facet normal 0 0 -1
    outer loop
      vertex -14.809 -0.587785 0
      vertex -17.6191 -0.769273 0
      vertex -15 0 0
    endloop
  endfacet
  facet normal 0 0 -1
    outer loop
      vertex -13.191 0.587785 0
      vertex -8.67283 1.85786 0
      vertex -9.02254 1.46946 0
    endloop
  endfacet
  facet normal 0 0 -1
    outer loop
      vertex -14.309 -0.951057 0
      vertex -17.6191 -0.769273 0
      vertex -14.809 -0.587785 0
    endloop
  endfacet
  facet normal 0 0 -1
    outer loop
      vertex -9.28386 -1.01684 0
      vertex -9.02254 -1.46946 0
      vertex -14.309 -0.951057 0
    endloop
  endfacet
  facet normal 0 0 -1
    outer loop
      vertex -13.191 -0.587785 0
      vertex -9.28386 -1.01684 0
      vertex -13.691 -0.951057 0
    endloop
  endfacet
  facet normal 0 0 -1
    outer loop
      vertex -9.28386 -1.01684 0
      vertex -14.309 -0.951057 0
      vertex -13.691 -0.951057 0
    endloop
  endfacet
  facet normal 0 0 -1
    outer loop
      vertex -13.191 0.587785 0
      vertex -9.02254 1.46946 0
      vertex -9.28386 1.01684 0
    endloop
  endfacet
  facet normal 0 0 -1
    outer loop
      vertex -9.28386 1.01684 0
      vertex -9.44537 0.519779 0
      vertex -13 0 0
    endloop
  endfacet
  facet normal 0 0 -1
    outer loop
      vertex -13 0 0
      vertex -9.44537 -0.519779 0
      vertex -13.191 -0.587785 0
    endloop
  endfacet
  facet normal 0 0 -1
    outer loop
      vertex -13.691 0.951057 0
      vertex -8.5 3.67973 0
      vertex -13.191 0.587785 0
    endloop
  endfacet
  facet normal 0 0 -1
    outer loop
      vertex -17.6191 -0.769273 0
      vertex -14.3868 3.67973 0
      vertex -14.309 0.951057 0
    endloop
  endfacet
  facet normal 0 0 -1
    outer loop
      vertex -1 0 0
      vertex -5.75 -2.16506 0
      vertex -0.809017 0.587785 0
    endloop
  endfacet
  facet normal 0 0 -1
    outer loop
      vertex -0.809017 -0.587785 0
      vertex -6.22746 -2.37764 0
      vertex -5.75 -2.16506 0
    endloop
  endfacet
  facet normal 0 0 -1
    outer loop
      vertex -0.309017 -0.951057 0
      vertex -6.22746 -2.37764 0
      vertex -0.809017 -0.587785 0
    endloop
  endfacet
  facet normal 0 0 -1
    outer loop
      vertex 0.309017 -0.951057 0
      vertex -6.22746 -2.37764 0
      vertex -0.309017 -0.951057 0
    endloop
  endfacet
  facet normal 0 0 -1
    outer loop
      vertex 0.809017 -0.587785 0
      vertex 3.7 0 0
      vertex 0.309017 -0.951057 0
    endloop
  endfacet
  facet normal 0 0 -1
    outer loop
      vertex -6.22746 -2.37764 0
      vertex 0.309017 -0.951057 0
      vertex 3.61915 -0.769273 0
    endloop
  endfacet
  facet normal 0 0 -1
    outer loop
      vertex 1 0 0
      vertex 3.61915 0.769273 0
      vertex 0.809017 -0.587785 0
    endloop
  endfacet
  facet normal 0 0 -1
    outer loop
      vertex 0.309017 0.951057 0
      vertex 3.38012 1.50493 0
      vertex 0.809017 0.587785 0
    endloop
  endfacet
  facet normal 0 0 -1
    outer loop
      vertex 0.809017 0.587785 0
      vertex 3.38012 1.50493 0
      vertex 1 0 0
    endloop
  endfacet
  facet normal 0 0 -1
    outer loop
      vertex -0.309017 0.951057 0
      vertex 2.47578 2.74964 0
      vertex 0.309017 0.951057 0
    endloop
  endfacet
  facet normal 0 0 -1
    outer loop
      vertex -0.809017 -0.587785 0
      vertex -5.75 -2.16506 0
      vertex -1 0 0
    endloop
  endfacet
  facet normal 0 0 -1
    outer loop
      vertex -5.75 -2.16506 0
      vertex 2.47578 2.74964 0
      vertex -0.309017 0.951057 0
    endloop
  endfacet
  facet normal 0 0 -1
    outer loop
      vertex -5.75 -2.16506 0
      vertex -0.309017 0.951057 0
      vertex -0.809017 0.587785 0
    endloop
  endfacet
  facet normal 0 0 -1
    outer loop
      vertex 0.309017 0.951057 0
      vertex 2.99336 2.17481 0
      vertex 3.38012 1.50493 0
    endloop
  endfacet
  facet normal 0 0 -1
    outer loop
      vertex -15 0 0
      vertex -17.6191 -0.769273 0
      vertex -14.809 0.587785 0
    endloop
  endfacet
  facet normal 0 0 -1
    outer loop
      vertex -14.309 0.951057 0
      vertex -8.5 3.67973 0
      vertex -13.691 0.951057 0
    endloop
  endfacet
  facet normal 0 0 -1
    outer loop
      vertex -13 0 0
      vertex -9.44537 0.519779 0
      vertex -9.5 0 0
    endloop
  endfacet
  facet normal 0 0 -1
    outer loop
      vertex -13.191 0.587785 0
      vertex -8.5 1.98343 0
      vertex -8.67283 1.85786 0
    endloop
  endfacet
  facet normal -0.994522 0.104529 0
    outer loop
      vertex -17.7 0 0
      vertex -17.7 0 2
      vertex -17.6191 0.769273 0
    endloop
  endfacet
  facet normal -0.994522 0.104529 0
    outer loop
      vertex -17.6191 0.769273 0
      vertex -17.7 0 2
      vertex -17.6191 0.769273 2
    endloop
  endfacet
  facet normal -0.994522 -0.104529 0
    outer loop
      vertex -17.7 0 0
      vertex -17.6191 -0.769273 0
      vertex -17.7 0 2
    endloop
  endfacet
  facet normal -0.994522 -0.104529 0
    outer loop
      vertex -17.7 0 2
      vertex -17.6191 -0.769273 0
      vertex -17.6191 -0.769273 2
    endloop
  endfacet
  facet normal -0.951057 -0.309017 0
    outer loop
      vertex -17.6191 -0.769273 0
      vertex -17.3801 -1.50493 0
      vertex -17.6191 -0.769273 2
    endloop
  endfacet
  facet normal -0.951057 -0.309017 0
    outer loop
      vertex -17.6191 -0.769273 2
      vertex -17.3801 -1.50493 0
      vertex -17.3801 -1.50493 2
    endloop
  endfacet
  facet normal -0.866025 -0.5 0
    outer loop
      vertex -17.3801 -1.50493 0
      vertex -16.9934 -2.17481 0
      vertex -17.3801 -1.50493 2
    endloop
  endfacet
  facet normal -0.866025 -0.5 0
    outer loop
      vertex -17.3801 -1.50493 2
      vertex -16.9934 -2.17481 0
      vertex -16.9934 -2.17481 2
    endloop
  endfacet
  facet normal -0.743145 -0.66913 0
    outer loop
      vertex -16.9934 -2.17481 0
      vertex -16.4758 -2.74964 0
      vertex -16.9934 -2.17481 2
    endloop
  endfacet
  facet normal -0.743145 -0.66913 0
    outer loop
      vertex -16.9934 -2.17481 2
      vertex -16.4758 -2.74964 0
      vertex -16.4758 -2.74964 2
    endloop
  endfacet
  facet normal -0.587785 -0.809017 0
    outer loop
      vertex -16.4758 -2.74964 2
      vertex -16.4758 -2.74964 0
      vertex -15.85 -3.20429 0
    endloop
  endfacet
  facet normal -0.587785 -0.809017 0
    outer loop
      vertex -15.85 -3.20429 2
      vertex -16.4758 -2.74964 2
      vertex -15.85 -3.20429 0
    endloop
  endfacet
  facet normal -0.406737 -0.913545 0
    outer loop
      vertex -15.85 -3.20429 2
      vertex -15.85 -3.20429 0
      vertex -15.1434 -3.51891 0
    endloop
  endfacet
  facet normal -0.406737 -0.913545 0
    outer loop
      vertex -15.1434 -3.51891 2
      vertex -15.85 -3.20429 2
      vertex -15.1434 -3.51891 0
    endloop
  endfacet
  facet normal -0.207912 -0.978148 0
    outer loop
      vertex -15.1434 -3.51891 2
      vertex -15.1434 -3.51891 0
      vertex -14.3868 -3.67973 0
    endloop
  endfacet
  facet normal -0.207912 -0.978148 0
    outer loop
      vertex -14.3868 -3.67973 2
      vertex -15.1434 -3.51891 2
      vertex -14.3868 -3.67973 0
    endloop
  endfacet
  facet normal 0 -1 0
    outer loop
      vertex -14.3868 -3.67973 2
      vertex -14.3868 -3.67973 0
      vertex 0.386755 -3.67973 0
    endloop
  endfacet
  facet normal 0 -1 0
    outer loop
      vertex 0.386755 -3.67973 2
      vertex -14.3868 -3.67973 2
      vertex 0.386755 -3.67973 0
    endloop
  endfacet
  facet normal 0.207912 -0.978148 0
    outer loop
      vertex 0.386755 -3.67973 2
      vertex 0.386755 -3.67973 0
      vertex 1.14336 -3.51891 0
    endloop
  endfacet
  facet normal 0.207912 -0.978148 0
    outer loop
      vertex 1.14336 -3.51891 2
      vertex 0.386755 -3.67973 2
      vertex 1.14336 -3.51891 0
    endloop
  endfacet
  facet normal 0.406737 -0.913545 0
    outer loop
      vertex 1.14336 -3.51891 2
      vertex 1.14336 -3.51891 0
      vertex 1.85 -3.20429 0
    endloop
  endfacet
  facet normal 0.406737 -0.913545 0
    outer loop
      vertex 1.85 -3.20429 2
      vertex 1.14336 -3.51891 2
      vertex 1.85 -3.20429 0
    endloop
  endfacet
  facet normal 0.587785 -0.809017 0
    outer loop
      vertex 1.85 -3.20429 2
      vertex 1.85 -3.20429 0
      vertex 2.47578 -2.74964 0
    endloop
  endfacet
  facet normal 0.587785 -0.809017 0
    outer loop
      vertex 2.47578 -2.74964 2
      vertex 1.85 -3.20429 2
      vertex 2.47578 -2.74964 0
    endloop
  endfacet
  facet normal 0.743145 -0.66913 0
    outer loop
      vertex 2.47578 -2.74964 2
      vertex 2.47578 -2.74964 0
      vertex 2.99336 -2.17481 0
    endloop
  endfacet
  facet normal 0.743145 -0.66913 0
    outer loop
      vertex 2.99336 -2.17481 2
      vertex 2.47578 -2.74964 2
      vertex 2.99336 -2.17481 0
    endloop
  endfacet
  facet normal 0.866025 -0.5 0
    outer loop
      vertex 2.99336 -2.17481 2
      vertex 2.99336 -2.17481 0
      vertex 3.38012 -1.50493 0
    endloop
  endfacet
  facet normal 0.866025 -0.5 0
    outer loop
      vertex 3.38012 -1.50493 2
      vertex 2.99336 -2.17481 2
      vertex 3.38012 -1.50493 0
    endloop
  endfacet
  facet normal 0.951057 -0.309017 0
    outer loop
      vertex 3.38012 -1.50493 2
      vertex 3.38012 -1.50493 0
      vertex 3.61915 -0.769273 0
    endloop
  endfacet
  facet normal 0.951057 -0.309017 0
    outer loop
      vertex 3.61915 -0.769273 2
      vertex 3.38012 -1.50493 2
      vertex 3.61915 -0.769273 0
    endloop
  endfacet
  facet normal 0.994522 -0.104529 0
    outer loop
      vertex 3.61915 -0.769273 2
      vertex 3.61915 -0.769273 0
      vertex 3.7 0 0
    endloop
  endfacet
  facet normal 0.994522 -0.104529 0
    outer loop
      vertex 3.7 0 2
      vertex 3.61915 -0.769273 2
      vertex 3.7 0 0
    endloop
  endfacet
  facet normal 0.994522 0.104529 0
    outer loop
      vertex 3.7 0 0
      vertex 3.61915 0.769273 0
      vertex 3.61915 0.769273 2
    endloop
  endfacet
  facet normal 0.994522 0.104529 0
    outer loop
      vertex 3.7 0 2
      vertex 3.7 0 0
      vertex 3.61915 0.769273 2
    endloop
  endfacet
  facet normal 0.951057 0.309017 0
    outer loop
      vertex 3.61915 0.769273 0
      vertex 3.38012 1.50493 0
      vertex 3.38012 1.50493 2
    endloop
  endfacet
  facet normal 0.951057 0.309017 0
    outer loop
      vertex 3.61915 0.769273 2
      vertex 3.61915 0.769273 0
      vertex 3.38012 1.50493 2
    endloop
  endfacet
  facet normal 0.866025 0.5 0
    outer loop
      vertex 3.38012 1.50493 0
      vertex 2.99336 2.17481 0
      vertex 2.99336 2.17481 2
    endloop
  endfacet
  facet normal 0.866025 0.5 0
    outer loop
      vertex 3.38012 1.50493 2
      vertex 3.38012 1.50493 0
      vertex 2.99336 2.17481 2
    endloop
  endfacet
  facet normal 0.743145 0.66913 0
    outer loop
      vertex 2.99336 2.17481 0
      vertex 2.47578 2.74964 0
      vertex 2.47578 2.74964 2
    endloop
  endfacet
  facet normal 0.743145 0.66913 0
    outer loop
      vertex 2.99336 2.17481 2
      vertex 2.99336 2.17481 0
      vertex 2.47578 2.74964 2
    endloop
  endfacet
  facet normal 0.587785 0.809017 0
    outer loop
      vertex 1.85 3.20429 0
      vertex 1.85 3.20429 2
      vertex 2.47578 2.74964 0
    endloop
  endfacet
  facet normal 0.587785 0.809017 0
    outer loop
      vertex 2.47578 2.74964 0
      vertex 1.85 3.20429 2
      vertex 2.47578 2.74964 2
    endloop
  endfacet
  facet normal 0.406737 0.913545 0
    outer loop
      vertex 1.14336 3.51891 0
      vertex 1.14336 3.51891 2
      vertex 1.85 3.20429 0
    endloop
  endfacet
  facet normal 0.406737 0.913545 0
    outer loop
      vertex 1.85 3.20429 0
      vertex 1.14336 3.51891 2
      vertex 1.85 3.20429 2
    endloop
  endfacet
  facet normal 0.207912 0.978148 0
    outer loop
      vertex 0.386755 3.67973 0
      vertex 0.386755 3.67973 2
      vertex 1.14336 3.51891 0
    endloop
  endfacet
  facet normal 0.207912 0.978148 0
    outer loop
      vertex 1.14336 3.51891 0
      vertex 0.386755 3.67973 2
      vertex 1.14336 3.51891 2
    endloop
  endfacet
  facet normal 0 1 0
    outer loop
      vertex -5.5 3.67973 0
      vertex -5.5 3.67973 2
      vertex 0.386755 3.67973 0
    endloop
  endfacet
  facet normal 0 1 0
    outer loop
      vertex 0.386755 3.67973 0
      vertex -5.5 3.67973 2
      vertex 0.386755 3.67973 2
    endloop
  endfacet
  facet normal -1 0 0
    outer loop
      vertex -5.5 3.67973 2
      vertex -5.5 3.67973 0
      vertex -5.5 1.98343 2
    endloop
  endfacet
  facet normal -1 0 0
    outer loop
      vertex -5.5 1.98343 2
      vertex -5.5 3.67973 0
      vertex -5.5 1.98343 0
    endloop
  endfacet
  facet normal -0.587786 -0.809017 0
    outer loop
      vertex -5.32717 1.85786 0
      vertex -5.32717 1.85786 2
      vertex -5.5 1.98343 2
    endloop
  endfacet
  facet normal -0.587786 -0.809017 0
    outer loop
      vertex -5.5 1.98343 0
      vertex -5.32717 1.85786 0
      vertex -5.5 1.98343 2
    endloop
  endfacet
  facet normal -0.743146 -0.66913 0
    outer loop
      vertex -4.97746 1.46946 2
      vertex -5.32717 1.85786 2
      vertex -4.97746 1.46946 0
    endloop
  endfacet
  facet normal -0.743146 -0.66913 0
    outer loop
      vertex -4.97746 1.46946 0
      vertex -5.32717 1.85786 2
      vertex -5.32717 1.85786 0
    endloop
  endfacet
  facet normal -0.866024 -0.500002 0
    outer loop
      vertex -4.71614 1.01684 2
      vertex -4.97746 1.46946 2
      vertex -4.71614 1.01684 0
    endloop
  endfacet
  facet normal -0.866024 -0.500002 0
    outer loop
      vertex -4.71614 1.01684 0
      vertex -4.97746 1.46946 2
      vertex -4.97746 1.46946 0
    endloop
  endfacet
  facet normal -0.951057 -0.309016 0
    outer loop
      vertex -4.55463 0.519779 2
      vertex -4.71614 1.01684 2
      vertex -4.55463 0.519779 0
    endloop
  endfacet
  facet normal -0.951057 -0.309016 0
    outer loop
      vertex -4.55463 0.519779 0
      vertex -4.71614 1.01684 2
      vertex -4.71614 1.01684 0
    endloop
  endfacet
  facet normal -0.994522 -0.104529 0
    outer loop
      vertex -4.5 0 2
      vertex -4.55463 0.519779 2
      vertex -4.5 0 0
    endloop
  endfacet
  facet normal -0.994522 -0.104529 0
    outer loop
      vertex -4.5 0 0
      vertex -4.55463 0.519779 2
      vertex -4.55463 0.519779 0
    endloop
  endfacet
  facet normal -0.994522 0.104529 0
    outer loop
      vertex -4.5 0 2
      vertex -4.5 0 0
      vertex -4.55463 -0.519779 2
    endloop
  endfacet
  facet normal -0.994522 0.104529 0
    outer loop
      vertex -4.55463 -0.519779 2
      vertex -4.5 0 0
      vertex -4.55463 -0.519779 0
    endloop
  endfacet
  facet normal -0.951057 0.309016 0
    outer loop
      vertex -4.55463 -0.519779 2
      vertex -4.55463 -0.519779 0
      vertex -4.71614 -1.01684 2
    endloop
  endfacet
  facet normal -0.951057 0.309016 0
    outer loop
      vertex -4.71614 -1.01684 2
      vertex -4.55463 -0.519779 0
      vertex -4.71614 -1.01684 0
    endloop
  endfacet
  facet normal -0.866024 0.500002 0
    outer loop
      vertex -4.71614 -1.01684 2
      vertex -4.71614 -1.01684 0
      vertex -4.97746 -1.46946 2
    endloop
  endfacet
  facet normal -0.866024 0.500002 0
    outer loop
      vertex -4.97746 -1.46946 2
      vertex -4.71614 -1.01684 0
      vertex -4.97746 -1.46946 0
    endloop
  endfacet
  facet normal -0.743146 0.66913 0
    outer loop
      vertex -4.97746 -1.46946 2
      vertex -4.97746 -1.46946 0
      vertex -5.32717 -1.85786 2
    endloop
  endfacet
  facet normal -0.743146 0.66913 0
    outer loop
      vertex -5.32717 -1.85786 2
      vertex -4.97746 -1.46946 0
      vertex -5.32717 -1.85786 0
    endloop
  endfacet
  facet normal -0.587786 0.809017 0
    outer loop
      vertex -5.32717 -1.85786 2
      vertex -5.32717 -1.85786 0
      vertex -5.75 -2.16506 2
    endloop
  endfacet
  facet normal -0.587786 0.809017 0
    outer loop
      vertex -5.75 -2.16506 2
      vertex -5.32717 -1.85786 0
      vertex -5.75 -2.16506 0
    endloop
  endfacet
  facet normal -0.406735 0.913546 0
    outer loop
      vertex -5.75 -2.16506 2
      vertex -5.75 -2.16506 0
      vertex -6.22746 -2.37764 2
    endloop
  endfacet
  facet normal -0.406735 0.913546 0
    outer loop
      vertex -6.22746 -2.37764 2
      vertex -5.75 -2.16506 0
      vertex -6.22746 -2.37764 0
    endloop
  endfacet
  facet normal -0.207913 0.978147 0
    outer loop
      vertex -6.22746 -2.37764 2
      vertex -6.22746 -2.37764 0
      vertex -6.73868 -2.4863 2
    endloop
  endfacet
  facet normal -0.207913 0.978147 0
    outer loop
      vertex -6.73868 -2.4863 2
      vertex -6.22746 -2.37764 0
      vertex -6.73868 -2.4863 0
    endloop
  endfacet
  facet normal 0 1 0
    outer loop
      vertex -6.73868 -2.4863 2
      vertex -6.73868 -2.4863 0
      vertex -7.26132 -2.4863 2
    endloop
  endfacet
  facet normal 0 1 0
    outer loop
      vertex -7.26132 -2.4863 2
      vertex -6.73868 -2.4863 0
      vertex -7.26132 -2.4863 0
    endloop
  endfacet
  facet normal 0.207913 0.978147 0
    outer loop
      vertex -7.26132 -2.4863 2
      vertex -7.26132 -2.4863 0
      vertex -7.77254 -2.37764 2
    endloop
  endfacet
  facet normal 0.207913 0.978147 0
    outer loop
      vertex -7.77254 -2.37764 2
      vertex -7.26132 -2.4863 0
      vertex -7.77254 -2.37764 0
    endloop
  endfacet
  facet normal 0.406735 0.913546 0
    outer loop
      vertex -7.77254 -2.37764 2
      vertex -7.77254 -2.37764 0
      vertex -8.25 -2.16506 2
    endloop
  endfacet
  facet normal 0.406735 0.913546 0
    outer loop
      vertex -8.25 -2.16506 2
      vertex -7.77254 -2.37764 0
      vertex -8.25 -2.16506 0
    endloop
  endfacet
  facet normal 0.587786 0.809017 0
    outer loop
      vertex -8.25 -2.16506 2
      vertex -8.25 -2.16506 0
      vertex -8.67283 -1.85786 2
    endloop
  endfacet
  facet normal 0.587786 0.809017 0
    outer loop
      vertex -8.67283 -1.85786 2
      vertex -8.25 -2.16506 0
      vertex -8.67283 -1.85786 0
    endloop
  endfacet
  facet normal 0.743146 0.66913 0
    outer loop
      vertex -9.02254 -1.46946 2
      vertex -8.67283 -1.85786 2
      vertex -8.67283 -1.85786 0
    endloop
  endfacet
  facet normal 0.743146 0.66913 0
    outer loop
      vertex -9.02254 -1.46946 0
      vertex -9.02254 -1.46946 2
      vertex -8.67283 -1.85786 0
    endloop
  endfacet
  facet normal 0.866024 0.500002 0
    outer loop
      vertex -9.28386 -1.01684 2
      vertex -9.02254 -1.46946 2
      vertex -9.02254 -1.46946 0
    endloop
  endfacet
  facet normal 0.866024 0.500002 0
    outer loop
      vertex -9.28386 -1.01684 0
      vertex -9.28386 -1.01684 2
      vertex -9.02254 -1.46946 0
    endloop
  endfacet
  facet normal 0.951057 0.309016 0
    outer loop
      vertex -9.44537 -0.519779 2
      vertex -9.28386 -1.01684 2
      vertex -9.28386 -1.01684 0
    endloop
  endfacet
  facet normal 0.951057 0.309016 0
    outer loop
      vertex -9.44537 -0.519779 0
      vertex -9.44537 -0.519779 2
      vertex -9.28386 -1.01684 0
    endloop
  endfacet
  facet normal 0.994522 0.104529 0
    outer loop
      vertex -9.5 0 2
      vertex -9.44537 -0.519779 2
      vertex -9.44537 -0.519779 0
    endloop
  endfacet
  facet normal 0.994522 0.104529 0
    outer loop
      vertex -9.5 0 0
      vertex -9.5 0 2
      vertex -9.44537 -0.519779 0
    endloop
  endfacet
  facet normal 0.994522 -0.104529 0
    outer loop
      vertex -9.44537 0.519779 0
      vertex -9.44537 0.519779 2
      vertex -9.5 0 2
    endloop
  endfacet
  facet normal 0.994522 -0.104529 0
    outer loop
      vertex -9.5 0 0
      vertex -9.44537 0.519779 0
      vertex -9.5 0 2
    endloop
  endfacet
  facet normal 0.951057 -0.309016 0
    outer loop
      vertex -9.28386 1.01684 0
      vertex -9.28386 1.01684 2
      vertex -9.44537 0.519779 2
    endloop
  endfacet
  facet normal 0.951057 -0.309016 0
    outer loop
      vertex -9.44537 0.519779 0
      vertex -9.28386 1.01684 0
      vertex -9.44537 0.519779 2
    endloop
  endfacet
  facet normal 0.866024 -0.500002 0
    outer loop
      vertex -9.02254 1.46946 0
      vertex -9.02254 1.46946 2
      vertex -9.28386 1.01684 2
    endloop
  endfacet
  facet normal 0.866024 -0.500002 0
    outer loop
      vertex -9.28386 1.01684 0
      vertex -9.02254 1.46946 0
      vertex -9.28386 1.01684 2
    endloop
  endfacet
  facet normal 0.743146 -0.66913 0
    outer loop
      vertex -8.67283 1.85786 0
      vertex -8.67283 1.85786 2
      vertex -9.02254 1.46946 2
    endloop
  endfacet
  facet normal 0.743146 -0.66913 0
    outer loop
      vertex -9.02254 1.46946 0
      vertex -8.67283 1.85786 0
      vertex -9.02254 1.46946 2
    endloop
  endfacet
  facet normal 0.587786 -0.809017 0
    outer loop
      vertex -8.5 1.98343 0
      vertex -8.5 1.98343 2
      vertex -8.67283 1.85786 2
    endloop
  endfacet
  facet normal 0.587786 -0.809017 0
    outer loop
      vertex -8.67283 1.85786 0
      vertex -8.5 1.98343 0
      vertex -8.67283 1.85786 2
    endloop
  endfacet
  facet normal 1 0 0
    outer loop
      vertex -8.5 3.67973 0
      vertex -8.5 3.67973 2
      vertex -8.5 1.98343 2
    endloop
  endfacet
  facet normal 1 0 0
    outer loop
      vertex -8.5 1.98343 0
      vertex -8.5 3.67973 0
      vertex -8.5 1.98343 2
    endloop
  endfacet
  facet normal 0 1 0
    outer loop
      vertex -14.3868 3.67973 0
      vertex -14.3868 3.67973 2
      vertex -8.5 3.67973 0
    endloop
  endfacet
  facet normal 0 1 0
    outer loop
      vertex -8.5 3.67973 0
      vertex -14.3868 3.67973 2
      vertex -8.5 3.67973 2
    endloop
  endfacet
  facet normal -0.207912 0.978148 0
    outer loop
      vertex -15.1434 3.51891 0
      vertex -15.1434 3.51891 2
      vertex -14.3868 3.67973 0
    endloop
  endfacet
  facet normal -0.207912 0.978148 0
    outer loop
      vertex -14.3868 3.67973 0
      vertex -15.1434 3.51891 2
      vertex -14.3868 3.67973 2
    endloop
  endfacet
  facet normal -0.406737 0.913545 0
    outer loop
      vertex -15.85 3.20429 0
      vertex -15.85 3.20429 2
      vertex -15.1434 3.51891 0
    endloop
  endfacet
  facet normal -0.406737 0.913545 0
    outer loop
      vertex -15.1434 3.51891 0
      vertex -15.85 3.20429 2
      vertex -15.1434 3.51891 2
    endloop
  endfacet
  facet normal -0.587785 0.809017 0
    outer loop
      vertex -16.4758 2.74964 0
      vertex -16.4758 2.74964 2
      vertex -15.85 3.20429 0
    endloop
  endfacet
  facet normal -0.587785 0.809017 0
    outer loop
      vertex -15.85 3.20429 0
      vertex -16.4758 2.74964 2
      vertex -15.85 3.20429 2
    endloop
  endfacet
  facet normal -0.743145 0.66913 0
    outer loop
      vertex -16.9934 2.17481 0
      vertex -16.9934 2.17481 2
      vertex -16.4758 2.74964 0
    endloop
  endfacet
  facet normal -0.743145 0.66913 0
    outer loop
      vertex -16.4758 2.74964 0
      vertex -16.9934 2.17481 2
      vertex -16.4758 2.74964 2
    endloop
  endfacet
  facet normal -0.866025 0.5 0
    outer loop
      vertex -17.3801 1.50493 0
      vertex -17.3801 1.50493 2
      vertex -16.9934 2.17481 0
    endloop
  endfacet
  facet normal -0.866025 0.5 0
    outer loop
      vertex -16.9934 2.17481 0
      vertex -17.3801 1.50493 2
      vertex -16.9934 2.17481 2
    endloop
  endfacet
  facet normal -0.951057 0.309017 0
    outer loop
      vertex -17.6191 0.769273 0
      vertex -17.6191 0.769273 2
      vertex -17.3801 1.50493 0
    endloop
  endfacet
  facet normal -0.951057 0.309017 0
    outer loop
      vertex -17.3801 1.50493 0
      vertex -17.6191 0.769273 2
      vertex -17.3801 1.50493 2
    endloop
  endfacet
  facet normal 0.951056 0.309017 0
    outer loop
      vertex -15 0 2
      vertex -14.809 -0.587785 2
      vertex -14.809 -0.587785 0
    endloop
  endfacet
  facet normal 0.951056 0.309017 0
    outer loop
      vertex -15 0 0
      vertex -15 0 2
      vertex -14.809 -0.587785 0
    endloop
  endfacet
  facet normal 0.951056 -0.309017 0
    outer loop
      vertex -14.809 0.587785 0
      vertex -14.809 0.587785 2
      vertex -15 0 2
    endloop
  endfacet
  facet normal 0.951056 -0.309017 0
    outer loop
      vertex -15 0 0
      vertex -14.809 0.587785 0
      vertex -15 0 2
    endloop
  endfacet
  facet normal 0.587786 -0.809016 0
    outer loop
      vertex -14.309 0.951057 0
      vertex -14.309 0.951057 2
      vertex -14.809 0.587785 2
    endloop
  endfacet
  facet normal 0.587786 -0.809016 0
    outer loop
      vertex -14.809 0.587785 0
      vertex -14.309 0.951057 0
      vertex -14.809 0.587785 2
    endloop
  endfacet
  facet normal 0 -1 0
    outer loop
      vertex -13.691 0.951057 0
      vertex -13.691 0.951057 2
      vertex -14.309 0.951057 2
    endloop
  endfacet
  facet normal 0 -1 0
    outer loop
      vertex -14.309 0.951057 0
      vertex -13.691 0.951057 0
      vertex -14.309 0.951057 2
    endloop
  endfacet
  facet normal -0.587786 -0.809016 0
    outer loop
      vertex -13.191 0.587785 0
      vertex -13.191 0.587785 2
      vertex -13.691 0.951057 2
    endloop
  endfacet
  facet normal -0.587786 -0.809016 0
    outer loop
      vertex -13.691 0.951057 0
      vertex -13.191 0.587785 0
      vertex -13.691 0.951057 2
    endloop
  endfacet
  facet normal -0.951056 -0.309017 0
    outer loop
      vertex -13 0 2
      vertex -13.191 0.587785 2
      vertex -13 0 0
    endloop
  endfacet
  facet normal -0.951056 -0.309017 0
    outer loop
      vertex -13 0 0
      vertex -13.191 0.587785 2
      vertex -13.191 0.587785 0
    endloop
  endfacet
  facet normal -0.951056 0.309017 0
    outer loop
      vertex -13 0 2
      vertex -13 0 0
      vertex -13.191 -0.587785 2
    endloop
  endfacet
  facet normal -0.951056 0.309017 0
    outer loop
      vertex -13.191 -0.587785 2
      vertex -13 0 0
      vertex -13.191 -0.587785 0
    endloop
  endfacet
  facet normal -0.587786 0.809016 0
    outer loop
      vertex -13.191 -0.587785 2
      vertex -13.191 -0.587785 0
      vertex -13.691 -0.951057 2
    endloop
  endfacet
  facet normal -0.587786 0.809016 0
    outer loop
      vertex -13.691 -0.951057 2
      vertex -13.191 -0.587785 0
      vertex -13.691 -0.951057 0
    endloop
  endfacet
  facet normal 0 1 0
    outer loop
      vertex -13.691 -0.951057 2
      vertex -13.691 -0.951057 0
      vertex -14.309 -0.951057 2
    endloop
  endfacet
  facet normal 0 1 0
    outer loop
      vertex -14.309 -0.951057 2
      vertex -13.691 -0.951057 0
      vertex -14.309 -0.951057 0
    endloop
  endfacet
  facet normal 0.587786 0.809016 0
    outer loop
      vertex -14.309 -0.951057 2
      vertex -14.309 -0.951057 0
      vertex -14.809 -0.587785 2
    endloop
  endfacet
  facet normal 0.587786 0.809016 0
    outer loop
      vertex -14.809 -0.587785 2
      vertex -14.309 -0.951057 0
      vertex -14.809 -0.587785 0
    endloop
  endfacet
  facet normal 0.951056 0.309017 0
    outer loop
      vertex -1 0 2
      vertex -0.809017 -0.587785 2
      vertex -0.809017 -0.587785 0
    endloop
  endfacet
  facet normal 0.951056 0.309017 0
    outer loop
      vertex -1 0 0
      vertex -1 0 2
      vertex -0.809017 -0.587785 0
    endloop
  endfacet
  facet normal 0.951056 -0.309017 0
    outer loop
      vertex -0.809017 0.587785 0
      vertex -0.809017 0.587785 2
      vertex -1 0 2
    endloop
  endfacet
  facet normal 0.951056 -0.309017 0
    outer loop
      vertex -1 0 0
      vertex -0.809017 0.587785 0
      vertex -1 0 2
    endloop
  endfacet
  facet normal 0.587786 -0.809016 0
    outer loop
      vertex -0.309017 0.951057 0
      vertex -0.309017 0.951057 2
      vertex -0.809017 0.587785 2
    endloop
  endfacet
  facet normal 0.587786 -0.809016 0
    outer loop
      vertex -0.809017 0.587785 0
      vertex -0.309017 0.951057 0
      vertex -0.809017 0.587785 2
    endloop
  endfacet
  facet normal 0 -1 0
    outer loop
      vertex 0.309017 0.951057 0
      vertex 0.309017 0.951057 2
      vertex -0.309017 0.951057 2
    endloop
  endfacet
  facet normal 0 -1 0
    outer loop
      vertex -0.309017 0.951057 0
      vertex 0.309017 0.951057 0
      vertex -0.309017 0.951057 2
    endloop
  endfacet
  facet normal -0.587786 -0.809016 0
    outer loop
      vertex 0.809017 0.587785 0
      vertex 0.809017 0.587785 2
      vertex 0.309017 0.951057 2
    endloop
  endfacet
  facet normal -0.587786 -0.809016 0
    outer loop
      vertex 0.309017 0.951057 0
      vertex 0.809017 0.587785 0
      vertex 0.309017 0.951057 2
    endloop
  endfacet
  facet normal -0.951056 -0.309017 0
    outer loop
      vertex 1 0 2
      vertex 0.809017 0.587785 2
      vertex 1 0 0
    endloop
  endfacet
  facet normal -0.951056 -0.309017 0
    outer loop
      vertex 1 0 0
      vertex 0.809017 0.587785 2
      vertex 0.809017 0.587785 0
    endloop
  endfacet
  facet normal -0.951056 0.309017 0
    outer loop
      vertex 1 0 2
      vertex 1 0 0
      vertex 0.809017 -0.587785 2
    endloop
  endfacet
  facet normal -0.951056 0.309017 0
    outer loop
      vertex 0.809017 -0.587785 2
      vertex 1 0 0
      vertex 0.809017 -0.587785 0
    endloop
  endfacet
  facet normal -0.587786 0.809016 0
    outer loop
      vertex 0.809017 -0.587785 2
      vertex 0.809017 -0.587785 0
      vertex 0.309017 -0.951057 2
    endloop
  endfacet
  facet normal -0.587786 0.809016 0
    outer loop
      vertex 0.309017 -0.951057 2
      vertex 0.809017 -0.587785 0
      vertex 0.309017 -0.951057 0
    endloop
  endfacet
  facet normal 0 1 0
    outer loop
      vertex 0.309017 -0.951057 2
      vertex 0.309017 -0.951057 0
      vertex -0.309017 -0.951057 2
    endloop
  endfacet
  facet normal 0 1 0
    outer loop
      vertex -0.309017 -0.951057 2
      vertex 0.309017 -0.951057 0
      vertex -0.309017 -0.951057 0
    endloop
  endfacet
  facet normal 0.587786 0.809016 0
    outer loop
      vertex -0.309017 -0.951057 2
      vertex -0.309017 -0.951057 0
      vertex -0.809017 -0.587785 2
    endloop
  endfacet
  facet normal 0.587786 0.809016 0
    outer loop
      vertex -0.809017 -0.587785 2
      vertex -0.309017 -0.951057 0
      vertex -0.809017 -0.587785 0
    endloop
  endfacet
  facet normal 0 0 1
    outer loop
      vertex -17.6191 0.769273 2
      vertex -17.7 0 2
      vertex -17.6191 -0.769273 2
    endloop
  endfacet
  facet normal 0 0 1
    outer loop
      vertex -16.9934 -2.17481 2
      vertex -17.6191 0.769273 2
      vertex -17.3801 -1.50493 2
    endloop
  endfacet
  facet normal 0 0 1
    outer loop
      vertex -17.3801 -1.50493 2
      vertex -17.6191 0.769273 2
      vertex -17.6191 -0.769273 2
    endloop
  endfacet
  facet normal 0 0 1
    outer loop
      vertex -16.4758 -2.74964 2
      vertex -17.6191 0.769273 2
      vertex -16.9934 -2.17481 2
    endloop
  endfacet
  facet normal 0 0 1
    outer loop
      vertex -15.85 -3.20429 2
      vertex -17.6191 0.769273 2
      vertex -16.4758 -2.74964 2
    endloop
  endfacet
  facet normal 0 0 1
    outer loop
      vertex -15.1434 -3.51891 2
      vertex -17.6191 0.769273 2
      vertex -15.85 -3.20429 2
    endloop
  endfacet
  facet normal 0 0 1
    outer loop
      vertex -14.3868 -3.67973 2
      vertex -17.6191 0.769273 2
      vertex -15.1434 -3.51891 2
    endloop
  endfacet
  facet normal 0 0 1
    outer loop
      vertex -14.809 -0.587785 2
      vertex -17.6191 0.769273 2
      vertex -14.3868 -3.67973 2
    endloop
  endfacet
  facet normal 0 0 1
    outer loop
      vertex -6.73868 -2.4863 2
      vertex -7.26132 -2.4863 2
      vertex -14.3868 -3.67973 2
    endloop
  endfacet
  facet normal 0 0 1
    outer loop
      vertex -4.97746 -1.46946 2
      vertex -5.32717 -1.85786 2
      vertex 1.85 -3.20429 2
    endloop
  endfacet
  facet normal 0 0 1
    outer loop
      vertex -13.191 -0.587785 2
      vertex -13.691 -0.951057 2
      vertex -7.77254 -2.37764 2
    endloop
  endfacet
  facet normal 0 0 1
    outer loop
      vertex -4.71614 -1.01684 2
      vertex -4.97746 -1.46946 2
      vertex 2.47578 -2.74964 2
    endloop
  endfacet
  facet normal 0 0 1
    outer loop
      vertex -9.28386 1.01684 2
      vertex -14.309 0.951057 2
      vertex -13.691 0.951057 2
    endloop
  endfacet
  facet normal 0 0 1
    outer loop
      vertex -5.32717 1.85786 2
      vertex -4.97746 1.46946 2
      vertex 2.99336 2.17481 2
    endloop
  endfacet
  facet normal 0 0 1
    outer loop
      vertex -4.55463 0.519779 2
      vertex -4.5 0 2
      vertex -1 0 2
    endloop
  endfacet
  facet normal 0 0 1
    outer loop
      vertex -4.5 0 2
      vertex -4.55463 -0.519779 2
      vertex -0.809017 -0.587785 2
    endloop
  endfacet
  facet normal 0 0 1
    outer loop
      vertex -13.191 -0.587785 2
      vertex -7.77254 -2.37764 2
      vertex -8.25 -2.16506 2
    endloop
  endfacet
  facet normal 0 0 1
    outer loop
      vertex 1.85 3.20429 2
      vertex -5.5 1.98343 2
      vertex 2.47578 2.74964 2
    endloop
  endfacet
  facet normal 0 0 1
    outer loop
      vertex 2.47578 2.74964 2
      vertex -5.32717 1.85786 2
      vertex 2.99336 2.17481 2
    endloop
  endfacet
  facet normal 0 0 1
    outer loop
      vertex 2.99336 2.17481 2
      vertex -4.97746 1.46946 2
      vertex 3.38012 1.50493 2
    endloop
  endfacet
  facet normal 0 0 1
    outer loop
      vertex -13.691 0.951057 2
      vertex -13.191 0.587785 2
      vertex -9.44537 0.519779 2
    endloop
  endfacet
  facet normal 0 0 1
    outer loop
      vertex 0.809017 0.587785 2
      vertex 1 0 2
      vertex 3.7 0 2
    endloop
  endfacet
  facet normal 0 0 1
    outer loop
      vertex -13 0 2
      vertex -8.25 -2.16506 2
      vertex -8.67283 -1.85786 2
    endloop
  endfacet
  facet normal 0 0 1
    outer loop
      vertex 3.7 0 2
      vertex 1 0 2
      vertex 3.61915 -0.769273 2
    endloop
  endfacet
  facet normal 0 0 1
    outer loop
      vertex -0.309017 -0.951057 2
      vertex -4.55463 -0.519779 2
      vertex 3.38012 -1.50493 2
    endloop
  endfacet
  facet normal 0 0 1
    outer loop
      vertex 3.38012 -1.50493 2
      vertex -4.71614 -1.01684 2
      vertex 2.99336 -2.17481 2
    endloop
  endfacet
  facet normal 0 0 1
    outer loop
      vertex 2.47578 -2.74964 2
      vertex -4.97746 -1.46946 2
      vertex 1.85 -3.20429 2
    endloop
  endfacet
  facet normal 0 0 1
    outer loop
      vertex -13.191 0.587785 2
      vertex -9.44537 -0.519779 2
      vertex -9.5 0 2
    endloop
  endfacet
  facet normal 0 0 1
    outer loop
      vertex 1.85 -3.20429 2
      vertex -5.32717 -1.85786 2
      vertex 1.14336 -3.51891 2
    endloop
  endfacet
  facet normal 0 0 1
    outer loop
      vertex -14.809 0.587785 2
      vertex -14.309 0.951057 2
      vertex -17.6191 0.769273 2
    endloop
  endfacet
  facet normal 0 0 1
    outer loop
      vertex -7.26132 -2.4863 2
      vertex -7.77254 -2.37764 2
      vertex -14.3868 -3.67973 2
    endloop
  endfacet
  facet normal 0 0 1
    outer loop
      vertex 0.386755 -3.67973 2
      vertex -5.75 -2.16506 2
      vertex -6.22746 -2.37764 2
    endloop
  endfacet
  facet normal 0 0 1
    outer loop
      vertex 0.386755 -3.67973 2
      vertex -6.73868 -2.4863 2
      vertex -14.3868 -3.67973 2
    endloop
  endfacet
  facet normal 0 0 1
    outer loop
      vertex 0.386755 -3.67973 2
      vertex -6.22746 -2.37764 2
      vertex -6.73868 -2.4863 2
    endloop
  endfacet
  facet normal 0 0 1
    outer loop
      vertex -13 0 2
      vertex -9.02254 -1.46946 2
      vertex -9.28386 -1.01684 2
    endloop
  endfacet
  facet normal 0 0 1
    outer loop
      vertex -9.28386 -1.01684 2
      vertex -9.44537 -0.519779 2
      vertex -13 0 2
    endloop
  endfacet
  facet normal 0 0 1
    outer loop
      vertex -13 0 2
      vertex -8.67283 -1.85786 2
      vertex -9.02254 -1.46946 2
    endloop
  endfacet
  facet normal 0 0 1
    outer loop
      vertex -5.32717 -1.85786 2
      vertex -5.75 -2.16506 2
      vertex 0.386755 -3.67973 2
    endloop
  endfacet
  facet normal 0 0 1
    outer loop
      vertex -9.5 0 2
      vertex -9.44537 0.519779 2
      vertex -13.191 0.587785 2
    endloop
  endfacet
  facet normal 0 0 1
    outer loop
      vertex -1 0 2
      vertex -0.809017 0.587785 2
      vertex -4.55463 0.519779 2
    endloop
  endfacet
  facet normal 0 0 1
    outer loop
      vertex -9.28386 1.01684 2
      vertex -9.02254 1.46946 2
      vertex -14.309 0.951057 2
    endloop
  endfacet
  facet normal 0 0 1
    outer loop
      vertex -14.309 0.951057 2
      vertex -9.02254 1.46946 2
      vertex -17.6191 0.769273 2
    endloop
  endfacet
  facet normal 0 0 1
    outer loop
      vertex -9.02254 1.46946 2
      vertex -8.67283 1.85786 2
      vertex -17.6191 0.769273 2
    endloop
  endfacet
  facet normal 0 0 1
    outer loop
      vertex -8.5 1.98343 2
      vertex -8.5 3.67973 2
      vertex -17.6191 0.769273 2
    endloop
  endfacet
  facet normal 0 0 1
    outer loop
      vertex -5.5 1.98343 2
      vertex -5.32717 1.85786 2
      vertex 2.47578 2.74964 2
    endloop
  endfacet
  facet normal 0 0 1
    outer loop
      vertex -4.97746 1.46946 2
      vertex -4.71614 1.01684 2
      vertex 3.38012 1.50493 2
    endloop
  endfacet
  facet normal 0 0 1
    outer loop
      vertex -14.3868 3.67973 2
      vertex -17.6191 0.769273 2
      vertex -8.5 3.67973 2
    endloop
  endfacet
  facet normal 0 0 1
    outer loop
      vertex -15.1434 3.51891 2
      vertex -17.6191 0.769273 2
      vertex -14.3868 3.67973 2
    endloop
  endfacet
  facet normal 0 0 1
    outer loop
      vertex -15.85 3.20429 2
      vertex -17.6191 0.769273 2
      vertex -15.1434 3.51891 2
    endloop
  endfacet
  facet normal 0 0 1
    outer loop
      vertex -16.4758 2.74964 2
      vertex -17.6191 0.769273 2
      vertex -15.85 3.20429 2
    endloop
  endfacet
  facet normal 0 0 1
    outer loop
      vertex -16.9934 2.17481 2
      vertex -17.6191 0.769273 2
      vertex -16.4758 2.74964 2
    endloop
  endfacet
  facet normal 0 0 1
    outer loop
      vertex -17.3801 1.50493 2
      vertex -17.6191 0.769273 2
      vertex -16.9934 2.17481 2
    endloop
  endfacet
  facet normal 0 0 1
    outer loop
      vertex -14.309 -0.951057 2
      vertex -14.809 -0.587785 2
      vertex -14.3868 -3.67973 2
    endloop
  endfacet
  facet normal 0 0 1
    outer loop
      vertex -15 0 2
      vertex -14.809 0.587785 2
      vertex -17.6191 0.769273 2
    endloop
  endfacet
  facet normal 0 0 1
    outer loop
      vertex -13.191 0.587785 2
      vertex -13 0 2
      vertex -9.44537 -0.519779 2
    endloop
  endfacet
  facet normal 0 0 1
    outer loop
      vertex -0.809017 0.587785 2
      vertex -0.309017 0.951057 2
      vertex -4.71614 1.01684 2
    endloop
  endfacet
  facet normal 0 0 1
    outer loop
      vertex -0.809017 0.587785 2
      vertex -4.71614 1.01684 2
      vertex -4.55463 0.519779 2
    endloop
  endfacet
  facet normal 0 0 1
    outer loop
      vertex -13.691 0.951057 2
      vertex -9.44537 0.519779 2
      vertex -9.28386 1.01684 2
    endloop
  endfacet
  facet normal 0 0 1
    outer loop
      vertex -5.32717 -1.85786 2
      vertex 0.386755 -3.67973 2
      vertex 1.14336 -3.51891 2
    endloop
  endfacet
  facet normal 0 0 1
    outer loop
      vertex -7.77254 -2.37764 2
      vertex -13.691 -0.951057 2
      vertex -14.3868 -3.67973 2
    endloop
  endfacet
  facet normal 0 0 1
    outer loop
      vertex -13.691 -0.951057 2
      vertex -14.309 -0.951057 2
      vertex -14.3868 -3.67973 2
    endloop
  endfacet
  facet normal 0 0 1
    outer loop
      vertex -4.55463 -0.519779 2
      vertex -4.71614 -1.01684 2
      vertex 3.38012 -1.50493 2
    endloop
  endfacet
  facet normal 0 0 1
    outer loop
      vertex 1 0 2
      vertex 0.809017 -0.587785 2
      vertex 3.61915 -0.769273 2
    endloop
  endfacet
  facet normal 0 0 1
    outer loop
      vertex 0.309017 0.951057 2
      vertex 0.809017 0.587785 2
      vertex 3.61915 0.769273 2
    endloop
  endfacet
  facet normal 0 0 1
    outer loop
      vertex 3.38012 1.50493 2
      vertex -4.71614 1.01684 2
      vertex -0.309017 0.951057 2
    endloop
  endfacet
  facet normal 0 0 1
    outer loop
      vertex 3.38012 1.50493 2
      vertex 0.309017 0.951057 2
      vertex 3.61915 0.769273 2
    endloop
  endfacet
  facet normal 0 0 1
    outer loop
      vertex 3.38012 1.50493 2
      vertex -0.309017 0.951057 2
      vertex 0.309017 0.951057 2
    endloop
  endfacet
  facet normal 0 0 1
    outer loop
      vertex 3.61915 0.769273 2
      vertex 0.809017 0.587785 2
      vertex 3.7 0 2
    endloop
  endfacet
  facet normal 0 0 1
    outer loop
      vertex 0.809017 -0.587785 2
      vertex 0.309017 -0.951057 2
      vertex 3.61915 -0.769273 2
    endloop
  endfacet
  facet normal 0 0 1
    outer loop
      vertex -14.809 -0.587785 2
      vertex -15 0 2
      vertex -17.6191 0.769273 2
    endloop
  endfacet
  facet normal 0 0 1
    outer loop
      vertex -13 0 2
      vertex -13.191 -0.587785 2
      vertex -8.25 -2.16506 2
    endloop
  endfacet
  facet normal 0 0 1
    outer loop
      vertex -4.71614 -1.01684 2
      vertex 2.47578 -2.74964 2
      vertex 2.99336 -2.17481 2
    endloop
  endfacet
  facet normal 0 0 1
    outer loop
      vertex 3.61915 -0.769273 2
      vertex 0.309017 -0.951057 2
      vertex 3.38012 -1.50493 2
    endloop
  endfacet
  facet normal 0 0 1
    outer loop
      vertex 0.309017 -0.951057 2
      vertex -0.309017 -0.951057 2
      vertex 3.38012 -1.50493 2
    endloop
  endfacet
  facet normal 0 0 1
    outer loop
      vertex -0.809017 -0.587785 2
      vertex -1 0 2
      vertex -4.5 0 2
    endloop
  endfacet
  facet normal 0 0 1
    outer loop
      vertex -8.67283 1.85786 2
      vertex -8.5 1.98343 2
      vertex -17.6191 0.769273 2
    endloop
  endfacet
  facet normal 0 0 1
    outer loop
      vertex -0.309017 -0.951057 2
      vertex -0.809017 -0.587785 2
      vertex -4.55463 -0.519779 2
    endloop
  endfacet
  facet normal 0 0 1
    outer loop
      vertex -5.5 3.67973 2
      vertex 1.14336 3.51891 2
      vertex 0.386755 3.67973 2
    endloop
  endfacet
  facet normal 0 0 1
    outer loop
      vertex -5.5 3.67973 2
      vertex 1.85 3.20429 2
      vertex 1.14336 3.51891 2
    endloop
  endfacet
  facet normal 0 0 1
    outer loop
      vertex -5.5 3.67973 2
      vertex -5.5 1.98343 2
      vertex 1.85 3.20429 2
    endloop
  endfacet
endsolid OpenSCAD_Model
