solid OpenSCAD_Model
  facet normal -1 0 0
    outer loop
      vertex -9 -25.5 0
      vertex -9 -25.5 3
      vertex -9 25.5 0
    endloop
  endfacet
  facet normal -1 0 0
    outer loop
      vertex -9 25.5 0
      vertex -9 -25.5 3
      vertex -9 25.5 3
    endloop
  endfacet
  facet normal 0 -1 0
    outer loop
      vertex -9 -25.5 3
      vertex -9 -25.5 0
      vertex 6 -25.5 0
    endloop
  endfacet
  facet normal 0 -1 0
    outer loop
      vertex 6 -25.5 3
      vertex -9 -25.5 3
      vertex 6 -25.5 0
    endloop
  endfacet
  facet normal 0 0 -1
    outer loop
      vertex 1.5 -23.25 0
      vertex -9 25.5 0
      vertex 6 -25.5 0
    endloop
  endfacet
  facet normal 0 0 -1
    outer loop
      vertex 0.463525 24.6766 0
      vertex -9 25.5 0
      vertex 6 25.5 0
    endloop
  endfacet
  facet normal 0 0 -1
    outer loop
      vertex -9 -25.5 0
      vertex -9 25.5 0
      vertex -1.5 -23.25 0
    endloop
  endfacet
  facet normal 0 0 -1
    outer loop
      vertex -9 -25.5 0
      vertex -1.5 -23.25 0
      vertex -1.21352 -24.1317 0
    endloop
  endfacet
  facet normal 0 0 -1
    outer loop
      vertex -9 -25.5 0
      vertex -1.21352 -24.1317 0
      vertex -0.463525 -24.6766 0
    endloop
  endfacet
  facet normal 0 0 -1
    outer loop
      vertex -9 -25.5 0
      vertex -0.463525 -24.6766 0
      vertex 6 -25.5 0
    endloop
  endfacet
  facet normal 0 0 -1
    outer loop
      vertex -0.463525 -24.6766 0
      vertex 0.463525 -24.6766 0
      vertex 6 -25.5 0
    endloop
  endfacet
  facet normal 0 0 -1
    outer loop
      vertex 1.5 -23.25 0
      vertex 6 -25.5 0
      vertex 1.21352 -24.1317 0
    endloop
  endfacet
  facet normal 0 0 -1
    outer loop
      vertex 1.21352 -22.3683 0
      vertex -9 25.5 0
      vertex 1.5 -23.25 0
    endloop
  endfacet
  facet normal 0 0 -1
    outer loop
      vertex 1.5 23.25 0
      vertex 6 25.5 0
      vertex 1.21352 22.3683 0
    endloop
  endfacet
  facet normal 0 0 -1
    outer loop
      vertex 0.463525 -21.8234 0
      vertex -9 25.5 0
      vertex 1.21352 -22.3683 0
    endloop
  endfacet
  facet normal 0 0 -1
    outer loop
      vertex -0.463525 -21.8234 0
      vertex -9 25.5 0
      vertex 0.463525 -21.8234 0
    endloop
  endfacet
  facet normal 0 0 -1
    outer loop
      vertex -1.21352 -22.3683 0
      vertex -9 25.5 0
      vertex -0.463525 -21.8234 0
    endloop
  endfacet
  facet normal 0 0 -1
    outer loop
      vertex -1.5 -23.25 0
      vertex -9 25.5 0
      vertex -1.21352 -22.3683 0
    endloop
  endfacet
  facet normal 0 0 -1
    outer loop
      vertex 6 -25.5 0
      vertex -9 25.5 0
      vertex -1.5 23.25 0
    endloop
  endfacet
  facet normal 0 0 -1
    outer loop
      vertex 6 -25.5 0
      vertex -1.5 23.25 0
      vertex -1.21352 22.3683 0
    endloop
  endfacet
  facet normal 0 0 -1
    outer loop
      vertex 6 -25.5 0
      vertex -1.21352 22.3683 0
      vertex -0.463525 21.8234 0
    endloop
  endfacet
  facet normal 0 0 -1
    outer loop
      vertex 6 -25.5 0
      vertex -0.463525 21.8234 0
      vertex 0.463525 21.8234 0
    endloop
  endfacet
  facet normal 0 0 -1
    outer loop
      vertex 6 -25.5 0
      vertex 0.463525 21.8234 0
      vertex 6 25.5 0
    endloop
  endfacet
  facet normal 0 0 -1
    outer loop
      vertex 0.463525 21.8234 0
      vertex 1.21352 22.3683 0
      vertex 6 25.5 0
    endloop
  endfacet
  facet normal 0 0 -1
    outer loop
      vertex 1.21352 24.1317 0
      vertex 6 25.5 0
      vertex 1.5 23.25 0
    endloop
  endfacet
  facet normal 0 0 -1
    outer loop
      vertex -1.21352 24.1317 0
      vertex -9 25.5 0
      vertex -0.463525 24.6766 0
    endloop
  endfacet
  facet normal 0 0 -1
    outer loop
      vertex -0.463525 24.6766 0
      vertex -9 25.5 0
      vertex 0.463525 24.6766 0
    endloop
  endfacet
  facet normal 0 0 -1
    outer loop
      vertex 1.21352 24.1317 0
      vertex 0.463525 24.6766 0
      vertex 6 25.5 0
    endloop
  endfacet
  facet normal 0 0 -1
    outer loop
      vertex -1.5 23.25 0
      vertex -9 25.5 0
      vertex -1.21352 24.1317 0
    endloop
  endfacet
  facet normal 0 0 -1
    outer loop
      vertex 1.21352 -24.1317 0
      vertex 6 -25.5 0
      vertex 0.463525 -24.6766 0
    endloop
  endfacet
  facet normal 0 1 0
    outer loop
      vertex -9 25.5 0
      vertex -9 25.5 3
      vertex 6 25.5 0
    endloop
  endfacet
  facet normal 0 1 0
    outer loop
      vertex 6 25.5 0
      vertex -9 25.5 3
      vertex 6 25.5 3
    endloop
  endfacet
  facet normal 0 0 1
    outer loop
      vertex 0.463525 -24.6766 3
      vertex -9 -25.5 3
      vertex 6 -25.5 3
    endloop
  endfacet
  facet normal 0 0 1
    outer loop
      vertex -9 25.5 3
      vertex -9 -25.5 3
      vertex -7 -21.5 3
    endloop
  endfacet
  facet normal 0 0 1
    outer loop
      vertex -1.5 -23.25 3
      vertex -1.21352 -22.3683 3
      vertex -7 -21.5 3
    endloop
  endfacet
  facet normal 0 0 1
    outer loop
      vertex -1.5 23.25 3
      vertex -9 25.5 3
      vertex -7 21.5 3
    endloop
  endfacet
  facet normal 0 0 1
    outer loop
      vertex 6 25.5 3
      vertex 4 21.5 3
      vertex 6 -25.5 3
    endloop
  endfacet
  facet normal 0 0 1
    outer loop
      vertex 0.463525 21.8234 3
      vertex -7 21.5 3
      vertex 4 21.5 3
    endloop
  endfacet
  facet normal 0 0 1
    outer loop
      vertex 4 21.5 3
      vertex 4 -21.5 3
      vertex 6 -25.5 3
    endloop
  endfacet
  facet normal 0 0 1
    outer loop
      vertex 1.5 -23.25 3
      vertex 1.21352 -24.1317 3
      vertex 6 -25.5 3
    endloop
  endfacet
  facet normal 0 0 1
    outer loop
      vertex -1.21352 22.3683 3
      vertex -1.5 23.25 3
      vertex -7 21.5 3
    endloop
  endfacet
  facet normal 0 0 1
    outer loop
      vertex -7 -21.5 3
      vertex -9 -25.5 3
      vertex -1.21352 -24.1317 3
    endloop
  endfacet
  facet normal 0 0 1
    outer loop
      vertex 0.463525 -21.8234 3
      vertex 1.21352 -22.3683 3
      vertex 4 -21.5 3
    endloop
  endfacet
  facet normal 0 0 1
    outer loop
      vertex -7 -21.5 3
      vertex -1.21352 -24.1317 3
      vertex -1.5 -23.25 3
    endloop
  endfacet
  facet normal 0 0 1
    outer loop
      vertex 1.21352 24.1317 3
      vertex 1.5 23.25 3
      vertex 6 25.5 3
    endloop
  endfacet
  facet normal 0 0 1
    outer loop
      vertex -0.463525 -21.8234 3
      vertex -7 -21.5 3
      vertex -1.21352 -22.3683 3
    endloop
  endfacet
  facet normal 0 0 1
    outer loop
      vertex 4 -21.5 3
      vertex -7 -21.5 3
      vertex -0.463525 -21.8234 3
    endloop
  endfacet
  facet normal 0 0 1
    outer loop
      vertex 4 -21.5 3
      vertex -0.463525 -21.8234 3
      vertex 0.463525 -21.8234 3
    endloop
  endfacet
  facet normal 0 0 1
    outer loop
      vertex 4 -21.5 3
      vertex 1.21352 -22.3683 3
      vertex 6 -25.5 3
    endloop
  endfacet
  facet normal 0 0 1
    outer loop
      vertex 1.21352 -22.3683 3
      vertex 1.5 -23.25 3
      vertex 6 -25.5 3
    endloop
  endfacet
  facet normal 0 0 1
    outer loop
      vertex 1.21352 22.3683 3
      vertex 0.463525 21.8234 3
      vertex 4 21.5 3
    endloop
  endfacet
  facet normal 0 0 1
    outer loop
      vertex -0.463525 -24.6766 3
      vertex -9 -25.5 3
      vertex 0.463525 -24.6766 3
    endloop
  endfacet
  facet normal 0 0 1
    outer loop
      vertex -1.21352 -24.1317 3
      vertex -9 -25.5 3
      vertex -0.463525 -24.6766 3
    endloop
  endfacet
  facet normal 0 0 1
    outer loop
      vertex 0.463525 24.6766 3
      vertex 1.21352 24.1317 3
      vertex 6 25.5 3
    endloop
  endfacet
  facet normal 0 0 1
    outer loop
      vertex -1.21352 24.1317 3
      vertex -9 25.5 3
      vertex -1.5 23.25 3
    endloop
  endfacet
  facet normal 0 0 1
    outer loop
      vertex -0.463525 24.6766 3
      vertex -9 25.5 3
      vertex -1.21352 24.1317 3
    endloop
  endfacet
  facet normal 0 0 1
    outer loop
      vertex 6 25.5 3
      vertex -9 25.5 3
      vertex -0.463525 24.6766 3
    endloop
  endfacet
  facet normal 0 0 1
    outer loop
      vertex 6 25.5 3
      vertex -0.463525 24.6766 3
      vertex 0.463525 24.6766 3
    endloop
  endfacet
  facet normal 0 0 1
    outer loop
      vertex 6 25.5 3
      vertex 1.5 23.25 3
      vertex 4 21.5 3
    endloop
  endfacet
  facet normal 0 0 1
    outer loop
      vertex 1.5 23.25 3
      vertex 1.21352 22.3683 3
      vertex 4 21.5 3
    endloop
  endfacet
  facet normal 0 0 1
    outer loop
      vertex -0.463525 21.8234 3
      vertex -7 21.5 3
      vertex 0.463525 21.8234 3
    endloop
  endfacet
  facet normal 0 0 1
    outer loop
      vertex -1.21352 22.3683 3
      vertex -7 21.5 3
      vertex -0.463525 21.8234 3
    endloop
  endfacet
  facet normal 0 0 1
    outer loop
      vertex 1.21352 -24.1317 3
      vertex 0.463525 -24.6766 3
      vertex 6 -25.5 3
    endloop
  endfacet
  facet normal 0 0 1
    outer loop
      vertex -7 -21.5 3
      vertex -7 21.5 3
      vertex -9 25.5 3
    endloop
  endfacet
  facet normal 1 0 0
    outer loop
      vertex 6 -25.5 3
      vertex 6 -25.5 0
      vertex 6 25.5 0
    endloop
  endfacet
  facet normal 1 0 0
    outer loop
      vertex 6 25.5 3
      vertex 6 -25.5 3
      vertex 6 25.5 0
    endloop
  endfacet
  facet normal 0.951056 -0.309017 0
    outer loop
      vertex -1.21352 -22.3683 0
      vertex -1.21352 -22.3683 3
      vertex -1.5 -23.25 3
    endloop
  endfacet
  facet normal 0.951056 -0.309017 0
    outer loop
      vertex -1.5 -23.25 0
      vertex -1.21352 -22.3683 0
      vertex -1.5 -23.25 3
    endloop
  endfacet
  facet normal 0.951056 0.309017 0
    outer loop
      vertex -1.5 -23.25 3
      vertex -1.21352 -24.1317 3
      vertex -1.21352 -24.1317 0
    endloop
  endfacet
  facet normal 0.951056 0.309017 0
    outer loop
      vertex -1.5 -23.25 0
      vertex -1.5 -23.25 3
      vertex -1.21352 -24.1317 0
    endloop
  endfacet
  facet normal 0.587785 -0.809017 0
    outer loop
      vertex -0.463525 -21.8234 0
      vertex -0.463525 -21.8234 3
      vertex -1.21352 -22.3683 3
    endloop
  endfacet
  facet normal 0.587785 -0.809017 0
    outer loop
      vertex -1.21352 -22.3683 0
      vertex -0.463525 -21.8234 0
      vertex -1.21352 -22.3683 3
    endloop
  endfacet
  facet normal 0 -1 0
    outer loop
      vertex 0.463525 -21.8234 0
      vertex 0.463525 -21.8234 3
      vertex -0.463525 -21.8234 3
    endloop
  endfacet
  facet normal 0 -1 0
    outer loop
      vertex -0.463525 -21.8234 0
      vertex 0.463525 -21.8234 0
      vertex -0.463525 -21.8234 3
    endloop
  endfacet
  facet normal -0.587785 -0.809017 0
    outer loop
      vertex 1.21352 -22.3683 0
      vertex 1.21352 -22.3683 3
      vertex 0.463525 -21.8234 3
    endloop
  endfacet
  facet normal -0.587785 -0.809017 0
    outer loop
      vertex 0.463525 -21.8234 0
      vertex 1.21352 -22.3683 0
      vertex 0.463525 -21.8234 3
    endloop
  endfacet
  facet normal -0.951056 -0.309017 0
    outer loop
      vertex 1.5 -23.25 3
      vertex 1.21352 -22.3683 3
      vertex 1.5 -23.25 0
    endloop
  endfacet
  facet normal -0.951056 -0.309017 0
    outer loop
      vertex 1.5 -23.25 0
      vertex 1.21352 -22.3683 3
      vertex 1.21352 -22.3683 0
    endloop
  endfacet
  facet normal -0.951056 0.309017 0
    outer loop
      vertex 1.5 -23.25 3
      vertex 1.5 -23.25 0
      vertex 1.21352 -24.1317 3
    endloop
  endfacet
  facet normal -0.951056 0.309017 0
    outer loop
      vertex 1.21352 -24.1317 3
      vertex 1.5 -23.25 0
      vertex 1.21352 -24.1317 0
    endloop
  endfacet
  facet normal -0.587785 0.809017 0
    outer loop
      vertex 1.21352 -24.1317 3
      vertex 1.21352 -24.1317 0
      vertex 0.463525 -24.6766 3
    endloop
  endfacet
  facet normal -0.587785 0.809017 0
    outer loop
      vertex 0.463525 -24.6766 3
      vertex 1.21352 -24.1317 0
      vertex 0.463525 -24.6766 0
    endloop
  endfacet
  facet normal 0 1 0
    outer loop
      vertex 0.463525 -24.6766 3
      vertex 0.463525 -24.6766 0
      vertex -0.463525 -24.6766 3
    endloop
  endfacet
  facet normal 0 1 0
    outer loop
      vertex -0.463525 -24.6766 3
      vertex 0.463525 -24.6766 0
      vertex -0.463525 -24.6766 0
    endloop
  endfacet
  facet normal 0.587785 0.809017 0
    outer loop
      vertex -0.463525 -24.6766 3
      vertex -0.463525 -24.6766 0
      vertex -1.21352 -24.1317 3
    endloop
  endfacet
  facet normal 0.587785 0.809017 0
    outer loop
      vertex -1.21352 -24.1317 3
      vertex -0.463525 -24.6766 0
      vertex -1.21352 -24.1317 0
    endloop
  endfacet
  facet normal 0.951056 -0.309017 0
    outer loop
      vertex -1.21352 24.1317 0
      vertex -1.21352 24.1317 3
      vertex -1.5 23.25 3
    endloop
  endfacet
  facet normal 0.951056 -0.309017 0
    outer loop
      vertex -1.5 23.25 0
      vertex -1.21352 24.1317 0
      vertex -1.5 23.25 3
    endloop
  endfacet
  facet normal 0.951056 0.309017 0
    outer loop
      vertex -1.5 23.25 3
      vertex -1.21352 22.3683 3
      vertex -1.21352 22.3683 0
    endloop
  endfacet
  facet normal 0.951056 0.309017 0
    outer loop
      vertex -1.5 23.25 0
      vertex -1.5 23.25 3
      vertex -1.21352 22.3683 0
    endloop
  endfacet
  facet normal 0.587785 -0.809017 0
    outer loop
      vertex -0.463525 24.6766 0
      vertex -0.463525 24.6766 3
      vertex -1.21352 24.1317 3
    endloop
  endfacet
  facet normal 0.587785 -0.809017 0
    outer loop
      vertex -1.21352 24.1317 0
      vertex -0.463525 24.6766 0
      vertex -1.21352 24.1317 3
    endloop
  endfacet
  facet normal 0 -1 0
    outer loop
      vertex 0.463525 24.6766 0
      vertex 0.463525 24.6766 3
      vertex -0.463525 24.6766 3
    endloop
  endfacet
  facet normal 0 -1 0
    outer loop
      vertex -0.463525 24.6766 0
      vertex 0.463525 24.6766 0
      vertex -0.463525 24.6766 3
    endloop
  endfacet
  facet normal -0.587785 -0.809017 0
    outer loop
      vertex 1.21352 24.1317 0
      vertex 1.21352 24.1317 3
      vertex 0.463525 24.6766 3
    endloop
  endfacet
  facet normal -0.587785 -0.809017 0
    outer loop
      vertex 0.463525 24.6766 0
      vertex 1.21352 24.1317 0
      vertex 0.463525 24.6766 3
    endloop
  endfacet
  facet normal -0.951056 -0.309017 0
    outer loop
      vertex 1.5 23.25 3
      vertex 1.21352 24.1317 3
      vertex 1.5 23.25 0
    endloop
  endfacet
  facet normal -0.951056 -0.309017 0
    outer loop
      vertex 1.5 23.25 0
      vertex 1.21352 24.1317 3
      vertex 1.21352 24.1317 0
    endloop
  endfacet
  facet normal -0.951056 0.309017 0
    outer loop
      vertex 1.5 23.25 3
      vertex 1.5 23.25 0
      vertex 1.21352 22.3683 3
    endloop
  endfacet
  facet normal -0.951056 0.309017 0
    outer loop
      vertex 1.21352 22.3683 3
      vertex 1.5 23.25 0
      vertex 1.21352 22.3683 0
    endloop
  endfacet
  facet normal -0.587785 0.809017 0
    outer loop
      vertex 1.21352 22.3683 3
      vertex 1.21352 22.3683 0
      vertex 0.463525 21.8234 3
    endloop
  endfacet
  facet normal -0.587785 0.809017 0
    outer loop
      vertex 0.463525 21.8234 3
      vertex 1.21352 22.3683 0
      vertex 0.463525 21.8234 0
    endloop
  endfacet
  facet normal 0 1 0
    outer loop
      vertex 0.463525 21.8234 3
      vertex 0.463525 21.8234 0
      vertex -0.463525 21.8234 3
    endloop
  endfacet
  facet normal 0 1 0
    outer loop
      vertex -0.463525 21.8234 3
      vertex 0.463525 21.8234 0
      vertex -0.463525 21.8234 0
    endloop
  endfacet
  facet normal 0.587785 0.809017 0
    outer loop
      vertex -0.463525 21.8234 3
      vertex -0.463525 21.8234 0
      vertex -1.21352 22.3683 3
    endloop
  endfacet
  facet normal 0.587785 0.809017 0
    outer loop
      vertex -1.21352 22.3683 3
      vertex -0.463525 21.8234 0
      vertex -1.21352 22.3683 0
    endloop
  endfacet
  facet normal 1 0 0
    outer loop
      vertex -7 21.5 1
      vertex -7 21.5 3
      vertex -7 -21.5 3
    endloop
  endfacet
  facet normal 1 0 0
    outer loop
      vertex -7 -21.5 1
      vertex -7 21.5 1
      vertex -7 -21.5 3
    endloop
  endfacet
  facet normal 0 1 0
    outer loop
      vertex 4 -21.5 3
      vertex 4 -21.5 1
      vertex -7 -21.5 3
    endloop
  endfacet
  facet normal 0 1 0
    outer loop
      vertex -7 -21.5 3
      vertex 4 -21.5 1
      vertex -7 -21.5 1
    endloop
  endfacet
  facet normal -1 0 0
    outer loop
      vertex 4 21.5 3
      vertex 4 21.5 1
      vertex 4 -21.5 3
    endloop
  endfacet
  facet normal -1 0 0
    outer loop
      vertex 4 -21.5 3
      vertex 4 21.5 1
      vertex 4 -21.5 1
    endloop
  endfacet
  facet normal 0 -1 0
    outer loop
      vertex 4 21.5 1
      vertex 4 21.5 3
      vertex -7 21.5 3
    endloop
  endfacet
  facet normal 0 -1 0
    outer loop
      vertex -7 21.5 1
      vertex 4 21.5 1
      vertex -7 21.5 3
    endloop
  endfacet
  facet normal 0 0 1
    outer loop
      vertex 4 -21.5 1
      vertex 4 21.5 1
      vertex -7 21.5 1
    endloop
  endfacet
  facet normal 0 0 1
    outer loop
      vertex -7 -21.5 1
      vertex 4 -21.5 1
      vertex -7 21.5 1
    endloop
  endfacet
endsolid OpenSCAD_Model
