solid OpenSCAD_Model
  facet normal -1 0 0
    outer loop
      vertex -17 -10 0
      vertex -17 -10 2
      vertex -17 10 0
    endloop
  endfacet
  facet normal -1 0 0
    outer loop
      vertex -17 10 0
      vertex -17 -10 2
      vertex -17 10 2
    endloop
  endfacet
  facet normal 0 -1 0
    outer loop
      vertex -17 -10 2
      vertex -17 -10 0
      vertex 17 -10 0
    endloop
  endfacet
  facet normal 0 -1 0
    outer loop
      vertex -12 -10 2
      vertex -17 -10 2
      vertex 17 -10 0
    endloop
  endfacet
  facet normal 0 -1 0
    outer loop
      vertex 12 -10 2
      vertex -12 -10 2
      vertex 17 -10 0
    endloop
  endfacet
  facet normal 0 -1 0
    outer loop
      vertex 17 -10 2
      vertex 12 -10 2
      vertex 17 -10 0
    endloop
  endfacet
  facet normal 0 -1 0
    outer loop
      vertex 12 -10 9
      vertex -12 -10 2
      vertex 12 -10 2
    endloop
  endfacet
  facet normal 0 -1 0
    outer loop
      vertex -12 -10 9
      vertex -12 -10 2
      vertex 12 -10 9
    endloop
  endfacet
  facet normal 0 0 -1
    outer loop
      vertex -14.6292 9.14127 0
      vertex -17 10 0
      vertex 17 10 0
    endloop
  endfacet
  facet normal 0 0 -1
    outer loop
      vertex -17 -10 0
      vertex -17 10 0
      vertex -16.2 -8 0
    endloop
  endfacet
  facet normal 0 0 -1
    outer loop
      vertex -17 -10 0
      vertex -16.2 -8 0
      vertex -15.9708 -8.70534 0
    endloop
  endfacet
  facet normal 0 0 -1
    outer loop
      vertex -17 -10 0
      vertex -15.9708 -8.70534 0
      vertex -15.3708 -9.14127 0
    endloop
  endfacet
  facet normal 0 0 -1
    outer loop
      vertex -17 -10 0
      vertex -15.3708 -9.14127 0
      vertex 17 -10 0
    endloop
  endfacet
  facet normal 0 0 -1
    outer loop
      vertex -15.3708 -9.14127 0
      vertex -14.6292 -9.14127 0
      vertex 17 -10 0
    endloop
  endfacet
  facet normal 0 0 -1
    outer loop
      vertex -13.8 -8 0
      vertex 17 -10 0
      vertex -14.0292 -8.70534 0
    endloop
  endfacet
  facet normal 0 0 -1
    outer loop
      vertex -14.0292 -7.29466 0
      vertex -17 10 0
      vertex -13.8 -8 0
    endloop
  endfacet
  facet normal 0 0 -1
    outer loop
      vertex -4.10822 0.873229 0
      vertex -14.6292 6.85873 0
      vertex -14.0292 7.29466 0
    endloop
  endfacet
  facet normal 0 0 -1
    outer loop
      vertex -14.6292 -6.85873 0
      vertex -17 10 0
      vertex -14.0292 -7.29466 0
    endloop
  endfacet
  facet normal 0 0 -1
    outer loop
      vertex -15.3708 -6.85873 0
      vertex -17 10 0
      vertex -14.6292 -6.85873 0
    endloop
  endfacet
  facet normal 0 0 -1
    outer loop
      vertex -15.9708 -7.29466 0
      vertex -17 10 0
      vertex -15.3708 -6.85873 0
    endloop
  endfacet
  facet normal 0 0 -1
    outer loop
      vertex -16.2 -8 0
      vertex -17 10 0
      vertex -15.9708 -7.29466 0
    endloop
  endfacet
  facet normal 0 0 -1
    outer loop
      vertex -13.8 -8 0
      vertex -17 10 0
      vertex -16.2 8 0
    endloop
  endfacet
  facet normal 0 0 -1
    outer loop
      vertex -13.8 -8 0
      vertex -16.2 8 0
      vertex -15.9708 7.29466 0
    endloop
  endfacet
  facet normal 0 0 -1
    outer loop
      vertex -13.8 -8 0
      vertex -15.9708 7.29466 0
      vertex -15.3708 6.85873 0
    endloop
  endfacet
  facet normal 0 0 -1
    outer loop
      vertex -4.10822 0.873229 0
      vertex -14.0292 7.29466 0
      vertex -3.83689 1.70829 0
    endloop
  endfacet
  facet normal 0 0 -1
    outer loop
      vertex 3.83689 -1.70829 0
      vertex 13.8 -8 0
      vertex 3.39787 -2.4687 0
    endloop
  endfacet
  facet normal 0 0 -1
    outer loop
      vertex -4.2 0 0
      vertex -15.3708 6.85873 0
      vertex -4.10822 0.873229 0
    endloop
  endfacet
  facet normal 0 0 -1
    outer loop
      vertex -15.9708 8.70534 0
      vertex -17 10 0
      vertex -15.3708 9.14127 0
    endloop
  endfacet
  facet normal 0 0 -1
    outer loop
      vertex 14.6292 9.14127 0
      vertex -14.0292 8.70534 0
      vertex 17 10 0
    endloop
  endfacet
  facet normal 0 0 -1
    outer loop
      vertex -14.0292 8.70534 0
      vertex -14.6292 9.14127 0
      vertex 17 10 0
    endloop
  endfacet
  facet normal 0 0 -1
    outer loop
      vertex -15.3708 9.14127 0
      vertex -17 10 0
      vertex -14.6292 9.14127 0
    endloop
  endfacet
  facet normal 0 0 -1
    outer loop
      vertex -16.2 8 0
      vertex -17 10 0
      vertex -15.9708 8.70534 0
    endloop
  endfacet
  facet normal 0 0 -1
    outer loop
      vertex -13.8 -8 0
      vertex -15.3708 6.85873 0
      vertex -4.2 0 0
    endloop
  endfacet
  facet normal 0 0 -1
    outer loop
      vertex 14.6292 -9.14127 0
      vertex 2.1 -3.63731 0
      vertex 14.0292 -8.70534 0
    endloop
  endfacet
  facet normal 0 0 -1
    outer loop
      vertex -13.8 -8 0
      vertex -4.2 0 0
      vertex -4.10822 -0.873229 0
    endloop
  endfacet
  facet normal 0 0 -1
    outer loop
      vertex 13.8 -8 0
      vertex 3.83689 -1.70829 0
      vertex 14.0292 -7.29466 0
    endloop
  endfacet
  facet normal 0 0 -1
    outer loop
      vertex -13.8 -8 0
      vertex -4.10822 -0.873229 0
      vertex -3.83689 -1.70829 0
    endloop
  endfacet
  facet normal 0 0 -1
    outer loop
      vertex -13.8 -8 0
      vertex -3.83689 -1.70829 0
      vertex -3.39787 -2.4687 0
    endloop
  endfacet
  facet normal 0 0 -1
    outer loop
      vertex -13.8 -8 0
      vertex -3.39787 -2.4687 0
      vertex -2.81035 -3.12121 0
    endloop
  endfacet
  facet normal 0 0 -1
    outer loop
      vertex 1.29787 -3.99444 0
      vertex 14.6292 -9.14127 0
      vertex 0.43902 -4.17699 0
    endloop
  endfacet
  facet normal 0 0 -1
    outer loop
      vertex -13.8 -8 0
      vertex -2.81035 -3.12121 0
      vertex -2.1 -3.63731 0
    endloop
  endfacet
  facet normal 0 0 -1
    outer loop
      vertex -13.8 -8 0
      vertex -2.1 -3.63731 0
      vertex -1.29787 -3.99444 0
    endloop
  endfacet
  facet normal 0 0 -1
    outer loop
      vertex -13.8 -8 0
      vertex -1.29787 -3.99444 0
      vertex 17 -10 0
    endloop
  endfacet
  facet normal 0 0 -1
    outer loop
      vertex 0.43902 -4.17699 0
      vertex 17 -10 0
      vertex -0.43902 -4.17699 0
    endloop
  endfacet
  facet normal 0 0 -1
    outer loop
      vertex 15.3708 -9.14127 0
      vertex 17 -10 0
      vertex 14.6292 -9.14127 0
    endloop
  endfacet
  facet normal 0 0 -1
    outer loop
      vertex 14.6292 -9.14127 0
      vertex 1.29787 -3.99444 0
      vertex 2.1 -3.63731 0
    endloop
  endfacet
  facet normal 0 0 -1
    outer loop
      vertex -0.43902 -4.17699 0
      vertex 17 -10 0
      vertex -1.29787 -3.99444 0
    endloop
  endfacet
  facet normal 0 0 -1
    outer loop
      vertex 14.6292 9.14127 0
      vertex 17 10 0
      vertex 15.3708 9.14127 0
    endloop
  endfacet
  facet normal 0 0 -1
    outer loop
      vertex 15.9708 -8.70534 0
      vertex 17 -10 0
      vertex 15.3708 -9.14127 0
    endloop
  endfacet
  facet normal 0 0 -1
    outer loop
      vertex -3.83689 1.70829 0
      vertex -13.8 8 0
      vertex -14.0292 8.70534 0
    endloop
  endfacet
  facet normal 0 0 -1
    outer loop
      vertex 15.9708 8.70534 0
      vertex 17 10 0
      vertex 16.2 8 0
    endloop
  endfacet
  facet normal 0 0 -1
    outer loop
      vertex -3.83689 1.70829 0
      vertex -14.0292 8.70534 0
      vertex -3.39787 2.4687 0
    endloop
  endfacet
  facet normal 0 0 -1
    outer loop
      vertex -3.39787 2.4687 0
      vertex -14.0292 8.70534 0
      vertex -2.81035 3.12121 0
    endloop
  endfacet
  facet normal 0 0 -1
    outer loop
      vertex -2.81035 3.12121 0
      vertex -14.0292 8.70534 0
      vertex -2.1 3.63731 0
    endloop
  endfacet
  facet normal 0 0 -1
    outer loop
      vertex -2.1 3.63731 0
      vertex -14.0292 8.70534 0
      vertex -1.29787 3.99444 0
    endloop
  endfacet
  facet normal 0 0 -1
    outer loop
      vertex 14.0292 7.29466 0
      vertex 3.83689 -1.70829 0
      vertex 4.10822 -0.873229 0
    endloop
  endfacet
  facet normal 0 0 -1
    outer loop
      vertex -1.29787 3.99444 0
      vertex -14.0292 8.70534 0
      vertex -0.43902 4.17699 0
    endloop
  endfacet
  facet normal 0 0 -1
    outer loop
      vertex 14.0292 7.29466 0
      vertex 4.10822 0.873229 0
      vertex 3.83689 1.70829 0
    endloop
  endfacet
  facet normal 0 0 -1
    outer loop
      vertex 0.43902 4.17699 0
      vertex -14.0292 8.70534 0
      vertex 1.29787 3.99444 0
    endloop
  endfacet
  facet normal 0 0 -1
    outer loop
      vertex -0.43902 4.17699 0
      vertex -14.0292 8.70534 0
      vertex 0.43902 4.17699 0
    endloop
  endfacet
  facet normal 0 0 -1
    outer loop
      vertex -14.0292 7.29466 0
      vertex -13.8 8 0
      vertex -3.83689 1.70829 0
    endloop
  endfacet
  facet normal 0 0 -1
    outer loop
      vertex 14.0292 8.70534 0
      vertex 2.1 3.63731 0
      vertex 1.29787 3.99444 0
    endloop
  endfacet
  facet normal 0 0 -1
    outer loop
      vertex 14.0292 -8.70534 0
      vertex 2.81035 -3.12121 0
      vertex 3.39787 -2.4687 0
    endloop
  endfacet
  facet normal 0 0 -1
    outer loop
      vertex -4.10822 0.873229 0
      vertex -15.3708 6.85873 0
      vertex -14.6292 6.85873 0
    endloop
  endfacet
  facet normal 0 0 -1
    outer loop
      vertex 2.81035 -3.12121 0
      vertex 14.0292 -8.70534 0
      vertex 2.1 -3.63731 0
    endloop
  endfacet
  facet normal 0 0 -1
    outer loop
      vertex 0.43902 -4.17699 0
      vertex 14.6292 -9.14127 0
      vertex 17 -10 0
    endloop
  endfacet
  facet normal 0 0 -1
    outer loop
      vertex 15.9708 -7.29466 0
      vertex 17 10 0
      vertex 16.2 -8 0
    endloop
  endfacet
  facet normal 0 0 -1
    outer loop
      vertex 14.0292 -8.70534 0
      vertex 3.39787 -2.4687 0
      vertex 13.8 -8 0
    endloop
  endfacet
  facet normal 0 0 -1
    outer loop
      vertex 17 -10 0
      vertex 15.9708 -8.70534 0
      vertex 16.2 -8 0
    endloop
  endfacet
  facet normal 0 0 -1
    outer loop
      vertex 17 -10 0
      vertex 16.2 -8 0
      vertex 17 10 0
    endloop
  endfacet
  facet normal 0 0 -1
    outer loop
      vertex 13.8 8 0
      vertex 3.39787 2.4687 0
      vertex 2.81035 3.12121 0
    endloop
  endfacet
  facet normal 0 0 -1
    outer loop
      vertex 14.6292 -6.85873 0
      vertex 3.83689 -1.70829 0
      vertex 15.3708 -6.85873 0
    endloop
  endfacet
  facet normal 0 0 -1
    outer loop
      vertex 13.8 8 0
      vertex 2.81035 3.12121 0
      vertex 14.0292 8.70534 0
    endloop
  endfacet
  facet normal 0 0 -1
    outer loop
      vertex 15.9708 -7.29466 0
      vertex 15.3708 -6.85873 0
      vertex 17 10 0
    endloop
  endfacet
  facet normal 0 0 -1
    outer loop
      vertex 14.0292 -7.29466 0
      vertex 3.83689 -1.70829 0
      vertex 14.6292 -6.85873 0
    endloop
  endfacet
  facet normal 0 0 -1
    outer loop
      vertex 3.83689 1.70829 0
      vertex 3.39787 2.4687 0
      vertex 13.8 8 0
    endloop
  endfacet
  facet normal 0 0 -1
    outer loop
      vertex 15.3708 -6.85873 0
      vertex 3.83689 -1.70829 0
      vertex 14.0292 7.29466 0
    endloop
  endfacet
  facet normal 0 0 -1
    outer loop
      vertex 14.0292 8.70534 0
      vertex 1.29787 3.99444 0
      vertex 14.6292 9.14127 0
    endloop
  endfacet
  facet normal 0 0 -1
    outer loop
      vertex 15.3708 -6.85873 0
      vertex 14.0292 7.29466 0
      vertex 14.6292 6.85873 0
    endloop
  endfacet
  facet normal 0 0 -1
    outer loop
      vertex 15.3708 -6.85873 0
      vertex 14.6292 6.85873 0
      vertex 15.3708 6.85873 0
    endloop
  endfacet
  facet normal 0 0 -1
    outer loop
      vertex 15.3708 -6.85873 0
      vertex 15.3708 6.85873 0
      vertex 15.9708 7.29466 0
    endloop
  endfacet
  facet normal 0 0 -1
    outer loop
      vertex 15.3708 -6.85873 0
      vertex 15.9708 7.29466 0
      vertex 17 10 0
    endloop
  endfacet
  facet normal 0 0 -1
    outer loop
      vertex 15.9708 7.29466 0
      vertex 16.2 8 0
      vertex 17 10 0
    endloop
  endfacet
  facet normal 0 0 -1
    outer loop
      vertex 15.3708 9.14127 0
      vertex 17 10 0
      vertex 15.9708 8.70534 0
    endloop
  endfacet
  facet normal 0 0 -1
    outer loop
      vertex 14.0292 7.29466 0
      vertex 4.2 0 0
      vertex 4.10822 0.873229 0
    endloop
  endfacet
  facet normal 0 0 -1
    outer loop
      vertex 14.0292 7.29466 0
      vertex 4.10822 -0.873229 0
      vertex 4.2 0 0
    endloop
  endfacet
  facet normal 0 0 -1
    outer loop
      vertex 1.29787 3.99444 0
      vertex -14.0292 8.70534 0
      vertex 14.6292 9.14127 0
    endloop
  endfacet
  facet normal 0 0 -1
    outer loop
      vertex 2.81035 3.12121 0
      vertex 2.1 3.63731 0
      vertex 14.0292 8.70534 0
    endloop
  endfacet
  facet normal 0 0 -1
    outer loop
      vertex 14.0292 7.29466 0
      vertex 3.83689 1.70829 0
      vertex 13.8 8 0
    endloop
  endfacet
  facet normal 0 0 -1
    outer loop
      vertex -14.0292 -8.70534 0
      vertex 17 -10 0
      vertex -14.6292 -9.14127 0
    endloop
  endfacet
  facet normal 0 1 0
    outer loop
      vertex -17 10 0
      vertex -17 10 2
      vertex 17 10 0
    endloop
  endfacet
  facet normal 0 1 0
    outer loop
      vertex 17 10 0
      vertex -17 10 2
      vertex -12 10 2
    endloop
  endfacet
  facet normal 0 1 0
    outer loop
      vertex 17 10 0
      vertex -12 10 2
      vertex -12 10 9
    endloop
  endfacet
  facet normal 0 1 0
    outer loop
      vertex 12 10 2
      vertex -12 10 9
      vertex 12 10 9
    endloop
  endfacet
  facet normal 0 1 0
    outer loop
      vertex 17 10 0
      vertex -12 10 9
      vertex 12 10 2
    endloop
  endfacet
  facet normal 0 1 0
    outer loop
      vertex 17 10 2
      vertex 17 10 0
      vertex 12 10 2
    endloop
  endfacet
  facet normal 0 0 1
    outer loop
      vertex -15.3708 -9.14127 2
      vertex -17 -10 2
      vertex -12 -10 2
    endloop
  endfacet
  facet normal 0 0 1
    outer loop
      vertex -15.9708 7.29466 2
      vertex -17 10 2
      vertex -12 -10 2
    endloop
  endfacet
  facet normal 0 0 1
    outer loop
      vertex -15.3708 9.14127 2
      vertex -14.6292 9.14127 2
      vertex -12 10 2
    endloop
  endfacet
  facet normal 0 0 1
    outer loop
      vertex -16.2 -8 2
      vertex -17 -10 2
      vertex -15.9708 -8.70534 2
    endloop
  endfacet
  facet normal 0 0 1
    outer loop
      vertex -14.0292 -7.29466 2
      vertex -13.8 -8 2
      vertex -12 -10 2
    endloop
  endfacet
  facet normal 0 0 1
    outer loop
      vertex -17 10 2
      vertex -17 -10 2
      vertex -16.2 -8 2
    endloop
  endfacet
  facet normal 0 0 1
    outer loop
      vertex -14.6292 -9.14127 2
      vertex -15.3708 -9.14127 2
      vertex -12 -10 2
    endloop
  endfacet
  facet normal 0 0 1
    outer loop
      vertex -17 10 2
      vertex -15.9708 -7.29466 2
      vertex -15.3708 -6.85873 2
    endloop
  endfacet
  facet normal 0 0 1
    outer loop
      vertex -17 10 2
      vertex -15.3708 -6.85873 2
      vertex -14.6292 -6.85873 2
    endloop
  endfacet
  facet normal 0 0 1
    outer loop
      vertex -17 10 2
      vertex -14.0292 -7.29466 2
      vertex -12 -10 2
    endloop
  endfacet
  facet normal 0 0 1
    outer loop
      vertex -17 10 2
      vertex -14.6292 -6.85873 2
      vertex -14.0292 -7.29466 2
    endloop
  endfacet
  facet normal 0 0 1
    outer loop
      vertex -14.0292 -8.70534 2
      vertex -14.6292 -9.14127 2
      vertex -12 -10 2
    endloop
  endfacet
  facet normal 0 0 1
    outer loop
      vertex -15.9708 -8.70534 2
      vertex -17 -10 2
      vertex -15.3708 -9.14127 2
    endloop
  endfacet
  facet normal 0 0 1
    outer loop
      vertex -15.3708 6.85873 2
      vertex -15.9708 7.29466 2
      vertex -12 -10 2
    endloop
  endfacet
  facet normal 0 0 1
    outer loop
      vertex -16.2 8 2
      vertex -17 10 2
      vertex -15.9708 7.29466 2
    endloop
  endfacet
  facet normal 0 0 1
    outer loop
      vertex -15.9708 8.70534 2
      vertex -17 10 2
      vertex -16.2 8 2
    endloop
  endfacet
  facet normal 0 0 1
    outer loop
      vertex -15.3708 9.14127 2
      vertex -17 10 2
      vertex -15.9708 8.70534 2
    endloop
  endfacet
  facet normal 0 0 1
    outer loop
      vertex -14.6292 9.14127 2
      vertex -14.0292 8.70534 2
      vertex -12 10 2
    endloop
  endfacet
  facet normal 0 0 1
    outer loop
      vertex -12 10 2
      vertex -17 10 2
      vertex -15.3708 9.14127 2
    endloop
  endfacet
  facet normal 0 0 1
    outer loop
      vertex -14.0292 8.70534 2
      vertex -13.8 8 2
      vertex -12 10 2
    endloop
  endfacet
  facet normal 0 0 1
    outer loop
      vertex -12 10 2
      vertex -13.8 8 2
      vertex -12 -10 2
    endloop
  endfacet
  facet normal 0 0 1
    outer loop
      vertex -13.8 8 2
      vertex -14.0292 7.29466 2
      vertex -12 -10 2
    endloop
  endfacet
  facet normal 0 0 1
    outer loop
      vertex -14.0292 7.29466 2
      vertex -14.6292 6.85873 2
      vertex -12 -10 2
    endloop
  endfacet
  facet normal 0 0 1
    outer loop
      vertex -14.6292 6.85873 2
      vertex -15.3708 6.85873 2
      vertex -12 -10 2
    endloop
  endfacet
  facet normal 0 0 1
    outer loop
      vertex -16.2 -8 2
      vertex -15.9708 -7.29466 2
      vertex -17 10 2
    endloop
  endfacet
  facet normal 0 0 1
    outer loop
      vertex -13.8 -8 2
      vertex -14.0292 -8.70534 2
      vertex -12 -10 2
    endloop
  endfacet
  facet normal -1 0 0
    outer loop
      vertex -12 -10 2
      vertex -12 -10 9
      vertex -12 10 2
    endloop
  endfacet
  facet normal -1 0 0
    outer loop
      vertex -12 10 2
      vertex -12 -10 9
      vertex -12 10 9
    endloop
  endfacet
  facet normal 0 0 1
    outer loop
      vertex 5.33992 -9.04616 9
      vertex -12 -10 9
      vertex 12 -10 9
    endloop
  endfacet
  facet normal 0 0 1
    outer loop
      vertex 10.2107 -2.18743 9
      vertex 9.5 -2.3 9
      vertex 12 -10 9
    endloop
  endfacet
  facet normal 0 0 1
    outer loop
      vertex 4.11008 -7.35344 9
      vertex -7.15 -7.15 9
      vertex 3.9 -8 9
    endloop
  endfacet
  facet normal 0 0 1
    outer loop
      vertex -11.8 0 9
      vertex -12 -10 9
      vertex -11.6874 -0.710739 9
    endloop
  endfacet
  facet normal 0 0 1
    outer loop
      vertex -7.15 2.3 9
      vertex -7.15 7.15 9
      vertex -12 10 9
    endloop
  endfacet
  facet normal 0 0 1
    outer loop
      vertex -12 10 9
      vertex -12 -10 9
      vertex -11.8 0 9
    endloop
  endfacet
  facet normal 0 0 1
    outer loop
      vertex 5.88992 -7.35344 9
      vertex 6.1 -8 9
      vertex 12 -10 9
    endloop
  endfacet
  facet normal 0 0 1
    outer loop
      vertex -12 10 9
      vertex -11.6874 0.710739 9
      vertex -11.3607 1.35191 9
    endloop
  endfacet
  facet normal 0 0 1
    outer loop
      vertex 4.39009 -7.15 9
      vertex -7.15 -7.15 9
      vertex 4.11008 -7.35344 9
    endloop
  endfacet
  facet normal 0 0 1
    outer loop
      vertex -12 10 9
      vertex -11.3607 1.35191 9
      vertex -10.8519 1.86074 9
    endloop
  endfacet
  facet normal 0 0 1
    outer loop
      vertex -7.15 -7.15 9
      vertex -7.15 -2.3 9
      vertex -9.5 -2.3 9
    endloop
  endfacet
  facet normal 0 0 1
    outer loop
      vertex -12 10 9
      vertex -10.8519 1.86074 9
      vertex -10.2107 2.18743 9
    endloop
  endfacet
  facet normal 0 0 1
    outer loop
      vertex -12 10 9
      vertex -10.2107 2.18743 9
      vertex -9.5 2.3 9
    endloop
  endfacet
  facet normal 0 0 1
    outer loop
      vertex -12 10 9
      vertex -9.5 2.3 9
      vertex -7.15 2.3 9
    endloop
  endfacet
  facet normal 0 0 1
    outer loop
      vertex 12 10 9
      vertex -12 10 9
      vertex -7.15 7.15 9
    endloop
  endfacet
  facet normal 0 0 1
    outer loop
      vertex 11.8 0 9
      vertex 11.6874 -0.710739 9
      vertex 12 -10 9
    endloop
  endfacet
  facet normal 0 0 1
    outer loop
      vertex 12 10 9
      vertex -7.15 7.15 9
      vertex 7.15 7.15 9
    endloop
  endfacet
  facet normal 0 0 1
    outer loop
      vertex 9.5 -2.3 9
      vertex 7.15 -2.3 9
      vertex 12 -10 9
    endloop
  endfacet
  facet normal 0 0 1
    outer loop
      vertex 12 10 9
      vertex 7.15 7.15 9
      vertex 9.5 2.3 9
    endloop
  endfacet
  facet normal 0 0 1
    outer loop
      vertex 7.15 -2.3 9
      vertex 7.15 -7.15 9
      vertex 12 -10 9
    endloop
  endfacet
  facet normal 0 0 1
    outer loop
      vertex 12 10 9
      vertex 9.5 2.3 9
      vertex 10.2107 2.18743 9
    endloop
  endfacet
  facet normal 0 0 1
    outer loop
      vertex 12 10 9
      vertex 10.2107 2.18743 9
      vertex 10.8519 1.86074 9
    endloop
  endfacet
  facet normal 0 0 1
    outer loop
      vertex 11.3607 -1.35191 9
      vertex 10.8519 -1.86074 9
      vertex 12 -10 9
    endloop
  endfacet
  facet normal 0 0 1
    outer loop
      vertex 12 10 9
      vertex 10.8519 1.86074 9
      vertex 11.3607 1.35191 9
    endloop
  endfacet
  facet normal 0 0 1
    outer loop
      vertex 11.6874 -0.710739 9
      vertex 11.3607 -1.35191 9
      vertex 12 -10 9
    endloop
  endfacet
  facet normal 0 0 1
    outer loop
      vertex 12 10 9
      vertex 11.3607 1.35191 9
      vertex 11.6874 0.710739 9
    endloop
  endfacet
  facet normal 0 0 1
    outer loop
      vertex 12 10 9
      vertex 11.8 0 9
      vertex 12 -10 9
    endloop
  endfacet
  facet normal 0 0 1
    outer loop
      vertex 12 10 9
      vertex 11.6874 0.710739 9
      vertex 11.8 0 9
    endloop
  endfacet
  facet normal 0 0 1
    outer loop
      vertex 10.8519 -1.86074 9
      vertex 10.2107 -2.18743 9
      vertex 12 -10 9
    endloop
  endfacet
  facet normal 0 0 1
    outer loop
      vertex 5.60991 -7.15 9
      vertex 5.88992 -7.35344 9
      vertex 12 -10 9
    endloop
  endfacet
  facet normal 0 0 1
    outer loop
      vertex -10.8519 -1.86074 9
      vertex -11.3607 -1.35191 9
      vertex -7.15 -7.15 9
    endloop
  endfacet
  facet normal 0 0 1
    outer loop
      vertex 6.1 -8 9
      vertex 5.88992 -8.64656 9
      vertex 12 -10 9
    endloop
  endfacet
  facet normal 0 0 1
    outer loop
      vertex 5.88992 -8.64656 9
      vertex 5.33992 -9.04616 9
      vertex 12 -10 9
    endloop
  endfacet
  facet normal 0 0 1
    outer loop
      vertex 4.66008 -9.04616 9
      vertex -12 -10 9
      vertex 5.33992 -9.04616 9
    endloop
  endfacet
  facet normal 0 0 1
    outer loop
      vertex 4.11008 -8.64656 9
      vertex 3.9 -8 9
      vertex -12 -10 9
    endloop
  endfacet
  facet normal 0 0 1
    outer loop
      vertex -7.15 -7.15 9
      vertex -12 -10 9
      vertex 3.9 -8 9
    endloop
  endfacet
  facet normal 0 0 1
    outer loop
      vertex 4.66008 -9.04616 9
      vertex 4.11008 -8.64656 9
      vertex -12 -10 9
    endloop
  endfacet
  facet normal 0 0 1
    outer loop
      vertex -11.3607 -1.35191 9
      vertex -12 -10 9
      vertex -7.15 -7.15 9
    endloop
  endfacet
  facet normal 0 0 1
    outer loop
      vertex -10.2107 -2.18743 9
      vertex -7.15 -7.15 9
      vertex -9.5 -2.3 9
    endloop
  endfacet
  facet normal 0 0 1
    outer loop
      vertex -10.8519 -1.86074 9
      vertex -7.15 -7.15 9
      vertex -10.2107 -2.18743 9
    endloop
  endfacet
  facet normal 0 0 1
    outer loop
      vertex -11.6874 -0.710739 9
      vertex -12 -10 9
      vertex -11.3607 -1.35191 9
    endloop
  endfacet
  facet normal 0 0 1
    outer loop
      vertex -11.8 0 9
      vertex -11.6874 0.710739 9
      vertex -12 10 9
    endloop
  endfacet
  facet normal 0 0 1
    outer loop
      vertex 7.15 2.3 9
      vertex 9.5 2.3 9
      vertex 7.15 7.15 9
    endloop
  endfacet
  facet normal 0 0 1
    outer loop
      vertex 7.15 -7.15 9
      vertex 5.60991 -7.15 9
      vertex 12 -10 9
    endloop
  endfacet
  facet normal 1 0 0
    outer loop
      vertex 12 -10 9
      vertex 12 -10 2
      vertex 12 10 2
    endloop
  endfacet
  facet normal 1 0 0
    outer loop
      vertex 12 10 9
      vertex 12 -10 9
      vertex 12 10 2
    endloop
  endfacet
  facet normal 0 0 1
    outer loop
      vertex 14.6292 -9.14127 2
      vertex 12 -10 2
      vertex 17 -10 2
    endloop
  endfacet
  facet normal 0 0 1
    outer loop
      vertex 14.0292 7.29466 2
      vertex 12 10 2
      vertex 17 -10 2
    endloop
  endfacet
  facet normal 0 0 1
    outer loop
      vertex 14.6292 9.14127 2
      vertex 15.3708 9.14127 2
      vertex 17 10 2
    endloop
  endfacet
  facet normal 0 0 1
    outer loop
      vertex 13.8 -8 2
      vertex 12 -10 2
      vertex 14.0292 -8.70534 2
    endloop
  endfacet
  facet normal 0 0 1
    outer loop
      vertex 12 10 2
      vertex 12 -10 2
      vertex 13.8 -8 2
    endloop
  endfacet
  facet normal 0 0 1
    outer loop
      vertex 15.3708 -9.14127 2
      vertex 14.6292 -9.14127 2
      vertex 17 -10 2
    endloop
  endfacet
  facet normal 0 0 1
    outer loop
      vertex 15.9708 -8.70534 2
      vertex 15.3708 -9.14127 2
      vertex 17 -10 2
    endloop
  endfacet
  facet normal 0 0 1
    outer loop
      vertex 12 10 2
      vertex 14.0292 -7.29466 2
      vertex 14.6292 -6.85873 2
    endloop
  endfacet
  facet normal 0 0 1
    outer loop
      vertex 15.3708 9.14127 2
      vertex 15.9708 8.70534 2
      vertex 17 10 2
    endloop
  endfacet
  facet normal 0 0 1
    outer loop
      vertex 12 10 2
      vertex 14.6292 -6.85873 2
      vertex 15.3708 -6.85873 2
    endloop
  endfacet
  facet normal 0 0 1
    outer loop
      vertex 12 10 2
      vertex 15.9708 -7.29466 2
      vertex 17 -10 2
    endloop
  endfacet
  facet normal 0 0 1
    outer loop
      vertex 12 10 2
      vertex 15.3708 -6.85873 2
      vertex 15.9708 -7.29466 2
    endloop
  endfacet
  facet normal 0 0 1
    outer loop
      vertex 15.9708 -7.29466 2
      vertex 16.2 -8 2
      vertex 17 -10 2
    endloop
  endfacet
  facet normal 0 0 1
    outer loop
      vertex 14.0292 -8.70534 2
      vertex 12 -10 2
      vertex 14.6292 -9.14127 2
    endloop
  endfacet
  facet normal 0 0 1
    outer loop
      vertex 14.6292 6.85873 2
      vertex 14.0292 7.29466 2
      vertex 17 -10 2
    endloop
  endfacet
  facet normal 0 0 1
    outer loop
      vertex 13.8 8 2
      vertex 12 10 2
      vertex 14.0292 7.29466 2
    endloop
  endfacet
  facet normal 0 0 1
    outer loop
      vertex 16.2 8 2
      vertex 15.9708 7.29466 2
      vertex 17 -10 2
    endloop
  endfacet
  facet normal 0 0 1
    outer loop
      vertex 14.0292 8.70534 2
      vertex 12 10 2
      vertex 13.8 8 2
    endloop
  endfacet
  facet normal 0 0 1
    outer loop
      vertex 14.6292 9.14127 2
      vertex 12 10 2
      vertex 14.0292 8.70534 2
    endloop
  endfacet
  facet normal 0 0 1
    outer loop
      vertex 17 10 2
      vertex 12 10 2
      vertex 14.6292 9.14127 2
    endloop
  endfacet
  facet normal 0 0 1
    outer loop
      vertex 17 10 2
      vertex 16.2 8 2
      vertex 17 -10 2
    endloop
  endfacet
  facet normal 0 0 1
    outer loop
      vertex 17 10 2
      vertex 15.9708 8.70534 2
      vertex 16.2 8 2
    endloop
  endfacet
  facet normal 0 0 1
    outer loop
      vertex 15.9708 7.29466 2
      vertex 15.3708 6.85873 2
      vertex 17 -10 2
    endloop
  endfacet
  facet normal 0 0 1
    outer loop
      vertex 15.3708 6.85873 2
      vertex 14.6292 6.85873 2
      vertex 17 -10 2
    endloop
  endfacet
  facet normal 0 0 1
    outer loop
      vertex 13.8 -8 2
      vertex 14.0292 -7.29466 2
      vertex 12 10 2
    endloop
  endfacet
  facet normal 0 0 1
    outer loop
      vertex 16.2 -8 2
      vertex 15.9708 -8.70534 2
      vertex 17 -10 2
    endloop
  endfacet
  facet normal 1 0 0
    outer loop
      vertex 17 -10 2
      vertex 17 -10 0
      vertex 17 10 0
    endloop
  endfacet
  facet normal 1 0 0
    outer loop
      vertex 17 10 2
      vertex 17 -10 2
      vertex 17 10 0
    endloop
  endfacet
  facet normal 0.951056 -0.309018 0
    outer loop
      vertex -15.9708 -7.29466 0
      vertex -15.9708 -7.29466 2
      vertex -16.2 -8 2
    endloop
  endfacet
  facet normal 0.951056 -0.309018 0
    outer loop
      vertex -16.2 -8 0
      vertex -15.9708 -7.29466 0
      vertex -16.2 -8 2
    endloop
  endfacet
  facet normal 0.951056 0.309018 0
    outer loop
      vertex -16.2 -8 2
      vertex -15.9708 -8.70534 2
      vertex -15.9708 -8.70534 0
    endloop
  endfacet
  facet normal 0.951056 0.309018 0
    outer loop
      vertex -16.2 -8 0
      vertex -16.2 -8 2
      vertex -15.9708 -8.70534 0
    endloop
  endfacet
  facet normal 0.587786 -0.809017 0
    outer loop
      vertex -15.3708 -6.85873 0
      vertex -15.3708 -6.85873 2
      vertex -15.9708 -7.29466 2
    endloop
  endfacet
  facet normal 0.587786 -0.809017 0
    outer loop
      vertex -15.9708 -7.29466 0
      vertex -15.3708 -6.85873 0
      vertex -15.9708 -7.29466 2
    endloop
  endfacet
  facet normal 0 -1 0
    outer loop
      vertex -14.6292 -6.85873 0
      vertex -14.6292 -6.85873 2
      vertex -15.3708 -6.85873 2
    endloop
  endfacet
  facet normal 0 -1 0
    outer loop
      vertex -15.3708 -6.85873 0
      vertex -14.6292 -6.85873 0
      vertex -15.3708 -6.85873 2
    endloop
  endfacet
  facet normal -0.587786 -0.809017 0
    outer loop
      vertex -14.0292 -7.29466 0
      vertex -14.0292 -7.29466 2
      vertex -14.6292 -6.85873 2
    endloop
  endfacet
  facet normal -0.587786 -0.809017 0
    outer loop
      vertex -14.6292 -6.85873 0
      vertex -14.0292 -7.29466 0
      vertex -14.6292 -6.85873 2
    endloop
  endfacet
  facet normal -0.951056 -0.309018 0
    outer loop
      vertex -13.8 -8 2
      vertex -14.0292 -7.29466 2
      vertex -13.8 -8 0
    endloop
  endfacet
  facet normal -0.951056 -0.309018 0
    outer loop
      vertex -13.8 -8 0
      vertex -14.0292 -7.29466 2
      vertex -14.0292 -7.29466 0
    endloop
  endfacet
  facet normal -0.951056 0.309018 0
    outer loop
      vertex -13.8 -8 2
      vertex -13.8 -8 0
      vertex -14.0292 -8.70534 2
    endloop
  endfacet
  facet normal -0.951056 0.309018 0
    outer loop
      vertex -14.0292 -8.70534 2
      vertex -13.8 -8 0
      vertex -14.0292 -8.70534 0
    endloop
  endfacet
  facet normal -0.587786 0.809017 0
    outer loop
      vertex -14.0292 -8.70534 2
      vertex -14.0292 -8.70534 0
      vertex -14.6292 -9.14127 2
    endloop
  endfacet
  facet normal -0.587786 0.809017 0
    outer loop
      vertex -14.6292 -9.14127 2
      vertex -14.0292 -8.70534 0
      vertex -14.6292 -9.14127 0
    endloop
  endfacet
  facet normal 0 1 0
    outer loop
      vertex -14.6292 -9.14127 2
      vertex -14.6292 -9.14127 0
      vertex -15.3708 -9.14127 2
    endloop
  endfacet
  facet normal 0 1 0
    outer loop
      vertex -15.3708 -9.14127 2
      vertex -14.6292 -9.14127 0
      vertex -15.3708 -9.14127 0
    endloop
  endfacet
  facet normal 0.587786 0.809017 0
    outer loop
      vertex -15.3708 -9.14127 2
      vertex -15.3708 -9.14127 0
      vertex -15.9708 -8.70534 2
    endloop
  endfacet
  facet normal 0.587786 0.809017 0
    outer loop
      vertex -15.9708 -8.70534 2
      vertex -15.3708 -9.14127 0
      vertex -15.9708 -8.70534 0
    endloop
  endfacet
  facet normal 0.951056 -0.309018 0
    outer loop
      vertex -15.9708 8.70534 0
      vertex -15.9708 8.70534 2
      vertex -16.2 8 2
    endloop
  endfacet
  facet normal 0.951056 -0.309018 0
    outer loop
      vertex -16.2 8 0
      vertex -15.9708 8.70534 0
      vertex -16.2 8 2
    endloop
  endfacet
  facet normal 0.951056 0.309018 0
    outer loop
      vertex -16.2 8 2
      vertex -15.9708 7.29466 2
      vertex -15.9708 7.29466 0
    endloop
  endfacet
  facet normal 0.951056 0.309018 0
    outer loop
      vertex -16.2 8 0
      vertex -16.2 8 2
      vertex -15.9708 7.29466 0
    endloop
  endfacet
  facet normal 0.587786 -0.809017 0
    outer loop
      vertex -15.3708 9.14127 0
      vertex -15.3708 9.14127 2
      vertex -15.9708 8.70534 2
    endloop
  endfacet
  facet normal 0.587786 -0.809017 0
    outer loop
      vertex -15.9708 8.70534 0
      vertex -15.3708 9.14127 0
      vertex -15.9708 8.70534 2
    endloop
  endfacet
  facet normal 0 -1 0
    outer loop
      vertex -14.6292 9.14127 0
      vertex -14.6292 9.14127 2
      vertex -15.3708 9.14127 2
    endloop
  endfacet
  facet normal 0 -1 0
    outer loop
      vertex -15.3708 9.14127 0
      vertex -14.6292 9.14127 0
      vertex -15.3708 9.14127 2
    endloop
  endfacet
  facet normal -0.587786 -0.809017 0
    outer loop
      vertex -14.0292 8.70534 0
      vertex -14.0292 8.70534 2
      vertex -14.6292 9.14127 2
    endloop
  endfacet
  facet normal -0.587786 -0.809017 0
    outer loop
      vertex -14.6292 9.14127 0
      vertex -14.0292 8.70534 0
      vertex -14.6292 9.14127 2
    endloop
  endfacet
  facet normal -0.951056 -0.309018 0
    outer loop
      vertex -13.8 8 2
      vertex -14.0292 8.70534 2
      vertex -13.8 8 0
    endloop
  endfacet
  facet normal -0.951056 -0.309018 0
    outer loop
      vertex -13.8 8 0
      vertex -14.0292 8.70534 2
      vertex -14.0292 8.70534 0
    endloop
  endfacet
  facet normal -0.951056 0.309018 0
    outer loop
      vertex -13.8 8 2
      vertex -13.8 8 0
      vertex -14.0292 7.29466 2
    endloop
  endfacet
  facet normal -0.951056 0.309018 0
    outer loop
      vertex -14.0292 7.29466 2
      vertex -13.8 8 0
      vertex -14.0292 7.29466 0
    endloop
  endfacet
  facet normal -0.587786 0.809017 0
    outer loop
      vertex -14.0292 7.29466 2
      vertex -14.0292 7.29466 0
      vertex -14.6292 6.85873 2
    endloop
  endfacet
  facet normal -0.587786 0.809017 0
    outer loop
      vertex -14.6292 6.85873 2
      vertex -14.0292 7.29466 0
      vertex -14.6292 6.85873 0
    endloop
  endfacet
  facet normal 0 1 0
    outer loop
      vertex -14.6292 6.85873 2
      vertex -14.6292 6.85873 0
      vertex -15.3708 6.85873 2
    endloop
  endfacet
  facet normal 0 1 0
    outer loop
      vertex -15.3708 6.85873 2
      vertex -14.6292 6.85873 0
      vertex -15.3708 6.85873 0
    endloop
  endfacet
  facet normal 0.587786 0.809017 0
    outer loop
      vertex -15.3708 6.85873 2
      vertex -15.3708 6.85873 0
      vertex -15.9708 7.29466 2
    endloop
  endfacet
  facet normal 0.587786 0.809017 0
    outer loop
      vertex -15.9708 7.29466 2
      vertex -15.3708 6.85873 0
      vertex -15.9708 7.29466 0
    endloop
  endfacet
  facet normal 0.994522 -0.104528 0
    outer loop
      vertex -4.10822 0.873229 0
      vertex -4.10822 0.873229 1
      vertex -4.2 0 1
    endloop
  endfacet
  facet normal 0.994522 -0.104528 0
    outer loop
      vertex -4.2 0 0
      vertex -4.10822 0.873229 0
      vertex -4.2 0 1
    endloop
  endfacet
  facet normal 0.994522 0.104528 0
    outer loop
      vertex -4.2 0 1
      vertex -4.10822 -0.873229 1
      vertex -4.10822 -0.873229 0
    endloop
  endfacet
  facet normal 0.994522 0.104528 0
    outer loop
      vertex -4.2 0 0
      vertex -4.2 0 1
      vertex -4.10822 -0.873229 0
    endloop
  endfacet
  facet normal 0.951057 -0.309017 0
    outer loop
      vertex -3.83689 1.70829 0
      vertex -3.83689 1.70829 1
      vertex -4.10822 0.873229 1
    endloop
  endfacet
  facet normal 0.951057 -0.309017 0
    outer loop
      vertex -4.10822 0.873229 0
      vertex -3.83689 1.70829 0
      vertex -4.10822 0.873229 1
    endloop
  endfacet
  facet normal 0.866025 -0.5 0
    outer loop
      vertex -3.39787 2.4687 0
      vertex -3.39787 2.4687 1
      vertex -3.83689 1.70829 1
    endloop
  endfacet
  facet normal 0.866025 -0.5 0
    outer loop
      vertex -3.83689 1.70829 0
      vertex -3.39787 2.4687 0
      vertex -3.83689 1.70829 1
    endloop
  endfacet
  facet normal 0.743145 -0.66913 0
    outer loop
      vertex -2.81035 3.12121 0
      vertex -2.81035 3.12121 1
      vertex -3.39787 2.4687 1
    endloop
  endfacet
  facet normal 0.743145 -0.66913 0
    outer loop
      vertex -3.39787 2.4687 0
      vertex -2.81035 3.12121 0
      vertex -3.39787 2.4687 1
    endloop
  endfacet
  facet normal 0.587785 -0.809017 0
    outer loop
      vertex -2.1 3.63731 0
      vertex -2.1 3.63731 1
      vertex -2.81035 3.12121 1
    endloop
  endfacet
  facet normal 0.587785 -0.809017 0
    outer loop
      vertex -2.81035 3.12121 0
      vertex -2.1 3.63731 0
      vertex -2.81035 3.12121 1
    endloop
  endfacet
  facet normal 0.406736 -0.913546 0
    outer loop
      vertex -1.29787 3.99444 0
      vertex -1.29787 3.99444 1
      vertex -2.1 3.63731 1
    endloop
  endfacet
  facet normal 0.406736 -0.913546 0
    outer loop
      vertex -2.1 3.63731 0
      vertex -1.29787 3.99444 0
      vertex -2.1 3.63731 1
    endloop
  endfacet
  facet normal 0.207912 -0.978147 0
    outer loop
      vertex -0.43902 4.17699 0
      vertex -0.43902 4.17699 1
      vertex -1.29787 3.99444 1
    endloop
  endfacet
  facet normal 0.207912 -0.978147 0
    outer loop
      vertex -1.29787 3.99444 0
      vertex -0.43902 4.17699 0
      vertex -1.29787 3.99444 1
    endloop
  endfacet
  facet normal 0 -1 0
    outer loop
      vertex 0.43902 4.17699 0
      vertex 0.43902 4.17699 1
      vertex -0.43902 4.17699 1
    endloop
  endfacet
  facet normal 0 -1 0
    outer loop
      vertex -0.43902 4.17699 0
      vertex 0.43902 4.17699 0
      vertex -0.43902 4.17699 1
    endloop
  endfacet
  facet normal -0.207912 -0.978147 0
    outer loop
      vertex 1.29787 3.99444 0
      vertex 1.29787 3.99444 1
      vertex 0.43902 4.17699 1
    endloop
  endfacet
  facet normal -0.207912 -0.978147 0
    outer loop
      vertex 0.43902 4.17699 0
      vertex 1.29787 3.99444 0
      vertex 0.43902 4.17699 1
    endloop
  endfacet
  facet normal -0.406736 -0.913546 0
    outer loop
      vertex 2.1 3.63731 0
      vertex 2.1 3.63731 1
      vertex 1.29787 3.99444 1
    endloop
  endfacet
  facet normal -0.406736 -0.913546 0
    outer loop
      vertex 1.29787 3.99444 0
      vertex 2.1 3.63731 0
      vertex 1.29787 3.99444 1
    endloop
  endfacet
  facet normal -0.587785 -0.809017 0
    outer loop
      vertex 2.81035 3.12121 0
      vertex 2.81035 3.12121 1
      vertex 2.1 3.63731 1
    endloop
  endfacet
  facet normal -0.587785 -0.809017 0
    outer loop
      vertex 2.1 3.63731 0
      vertex 2.81035 3.12121 0
      vertex 2.1 3.63731 1
    endloop
  endfacet
  facet normal -0.743145 -0.66913 0
    outer loop
      vertex 3.39787 2.4687 1
      vertex 2.81035 3.12121 1
      vertex 3.39787 2.4687 0
    endloop
  endfacet
  facet normal -0.743145 -0.66913 0
    outer loop
      vertex 3.39787 2.4687 0
      vertex 2.81035 3.12121 1
      vertex 2.81035 3.12121 0
    endloop
  endfacet
  facet normal -0.866025 -0.5 0
    outer loop
      vertex 3.83689 1.70829 1
      vertex 3.39787 2.4687 1
      vertex 3.83689 1.70829 0
    endloop
  endfacet
  facet normal -0.866025 -0.5 0
    outer loop
      vertex 3.83689 1.70829 0
      vertex 3.39787 2.4687 1
      vertex 3.39787 2.4687 0
    endloop
  endfacet
  facet normal -0.951057 -0.309017 0
    outer loop
      vertex 4.10822 0.873229 1
      vertex 3.83689 1.70829 1
      vertex 4.10822 0.873229 0
    endloop
  endfacet
  facet normal -0.951057 -0.309017 0
    outer loop
      vertex 4.10822 0.873229 0
      vertex 3.83689 1.70829 1
      vertex 3.83689 1.70829 0
    endloop
  endfacet
  facet normal -0.994522 -0.104528 0
    outer loop
      vertex 4.2 0 1
      vertex 4.10822 0.873229 1
      vertex 4.2 0 0
    endloop
  endfacet
  facet normal -0.994522 -0.104528 0
    outer loop
      vertex 4.2 0 0
      vertex 4.10822 0.873229 1
      vertex 4.10822 0.873229 0
    endloop
  endfacet
  facet normal -0.994522 0.104528 0
    outer loop
      vertex 4.2 0 1
      vertex 4.2 0 0
      vertex 4.10822 -0.873229 1
    endloop
  endfacet
  facet normal -0.994522 0.104528 0
    outer loop
      vertex 4.10822 -0.873229 1
      vertex 4.2 0 0
      vertex 4.10822 -0.873229 0
    endloop
  endfacet
  facet normal -0.951057 0.309017 0
    outer loop
      vertex 4.10822 -0.873229 1
      vertex 4.10822 -0.873229 0
      vertex 3.83689 -1.70829 1
    endloop
  endfacet
  facet normal -0.951057 0.309017 0
    outer loop
      vertex 3.83689 -1.70829 1
      vertex 4.10822 -0.873229 0
      vertex 3.83689 -1.70829 0
    endloop
  endfacet
  facet normal -0.866025 0.5 0
    outer loop
      vertex 3.83689 -1.70829 1
      vertex 3.83689 -1.70829 0
      vertex 3.39787 -2.4687 1
    endloop
  endfacet
  facet normal -0.866025 0.5 0
    outer loop
      vertex 3.39787 -2.4687 1
      vertex 3.83689 -1.70829 0
      vertex 3.39787 -2.4687 0
    endloop
  endfacet
  facet normal -0.743145 0.66913 0
    outer loop
      vertex 3.39787 -2.4687 1
      vertex 3.39787 -2.4687 0
      vertex 2.81035 -3.12121 1
    endloop
  endfacet
  facet normal -0.743145 0.66913 0
    outer loop
      vertex 2.81035 -3.12121 1
      vertex 3.39787 -2.4687 0
      vertex 2.81035 -3.12121 0
    endloop
  endfacet
  facet normal -0.587785 0.809017 0
    outer loop
      vertex 2.81035 -3.12121 1
      vertex 2.81035 -3.12121 0
      vertex 2.1 -3.63731 1
    endloop
  endfacet
  facet normal -0.587785 0.809017 0
    outer loop
      vertex 2.1 -3.63731 1
      vertex 2.81035 -3.12121 0
      vertex 2.1 -3.63731 0
    endloop
  endfacet
  facet normal -0.406736 0.913546 0
    outer loop
      vertex 2.1 -3.63731 1
      vertex 2.1 -3.63731 0
      vertex 1.29787 -3.99444 1
    endloop
  endfacet
  facet normal -0.406736 0.913546 0
    outer loop
      vertex 1.29787 -3.99444 1
      vertex 2.1 -3.63731 0
      vertex 1.29787 -3.99444 0
    endloop
  endfacet
  facet normal -0.207912 0.978147 0
    outer loop
      vertex 1.29787 -3.99444 1
      vertex 1.29787 -3.99444 0
      vertex 0.43902 -4.17699 1
    endloop
  endfacet
  facet normal -0.207912 0.978147 0
    outer loop
      vertex 0.43902 -4.17699 1
      vertex 1.29787 -3.99444 0
      vertex 0.43902 -4.17699 0
    endloop
  endfacet
  facet normal 0 1 0
    outer loop
      vertex 0.43902 -4.17699 1
      vertex 0.43902 -4.17699 0
      vertex -0.43902 -4.17699 1
    endloop
  endfacet
  facet normal 0 1 0
    outer loop
      vertex -0.43902 -4.17699 1
      vertex 0.43902 -4.17699 0
      vertex -0.43902 -4.17699 0
    endloop
  endfacet
  facet normal 0.207912 0.978147 0
    outer loop
      vertex -0.43902 -4.17699 1
      vertex -0.43902 -4.17699 0
      vertex -1.29787 -3.99444 1
    endloop
  endfacet
  facet normal 0.207912 0.978147 0
    outer loop
      vertex -1.29787 -3.99444 1
      vertex -0.43902 -4.17699 0
      vertex -1.29787 -3.99444 0
    endloop
  endfacet
  facet normal 0.406736 0.913546 0
    outer loop
      vertex -1.29787 -3.99444 1
      vertex -1.29787 -3.99444 0
      vertex -2.1 -3.63731 1
    endloop
  endfacet
  facet normal 0.406736 0.913546 0
    outer loop
      vertex -2.1 -3.63731 1
      vertex -1.29787 -3.99444 0
      vertex -2.1 -3.63731 0
    endloop
  endfacet
  facet normal 0.587785 0.809017 0
    outer loop
      vertex -2.1 -3.63731 1
      vertex -2.1 -3.63731 0
      vertex -2.81035 -3.12121 1
    endloop
  endfacet
  facet normal 0.587785 0.809017 0
    outer loop
      vertex -2.81035 -3.12121 1
      vertex -2.1 -3.63731 0
      vertex -2.81035 -3.12121 0
    endloop
  endfacet
  facet normal 0.743145 0.66913 0
    outer loop
      vertex -3.39787 -2.4687 1
      vertex -2.81035 -3.12121 1
      vertex -2.81035 -3.12121 0
    endloop
  endfacet
  facet normal 0.743145 0.66913 0
    outer loop
      vertex -3.39787 -2.4687 0
      vertex -3.39787 -2.4687 1
      vertex -2.81035 -3.12121 0
    endloop
  endfacet
  facet normal 0.866025 0.5 0
    outer loop
      vertex -3.83689 -1.70829 1
      vertex -3.39787 -2.4687 1
      vertex -3.39787 -2.4687 0
    endloop
  endfacet
  facet normal 0.866025 0.5 0
    outer loop
      vertex -3.83689 -1.70829 0
      vertex -3.83689 -1.70829 1
      vertex -3.39787 -2.4687 0
    endloop
  endfacet
  facet normal 0.951057 0.309017 0
    outer loop
      vertex -4.10822 -0.873229 1
      vertex -3.83689 -1.70829 1
      vertex -3.83689 -1.70829 0
    endloop
  endfacet
  facet normal 0.951057 0.309017 0
    outer loop
      vertex -4.10822 -0.873229 0
      vertex -4.10822 -0.873229 1
      vertex -3.83689 -1.70829 0
    endloop
  endfacet
  facet normal 0.951056 0.309018 0
    outer loop
      vertex 13.8 -8 2
      vertex 14.0292 -8.70534 2
      vertex 14.0292 -8.70534 0
    endloop
  endfacet
  facet normal 0.951056 0.309018 0
    outer loop
      vertex 13.8 -8 0
      vertex 13.8 -8 2
      vertex 14.0292 -8.70534 0
    endloop
  endfacet
  facet normal 0.951056 -0.309018 0
    outer loop
      vertex 14.0292 -7.29466 0
      vertex 14.0292 -7.29466 2
      vertex 13.8 -8 2
    endloop
  endfacet
  facet normal 0.951056 -0.309018 0
    outer loop
      vertex 13.8 -8 0
      vertex 14.0292 -7.29466 0
      vertex 13.8 -8 2
    endloop
  endfacet
  facet normal 0.587786 -0.809017 0
    outer loop
      vertex 14.6292 -6.85873 0
      vertex 14.6292 -6.85873 2
      vertex 14.0292 -7.29466 2
    endloop
  endfacet
  facet normal 0.587786 -0.809017 0
    outer loop
      vertex 14.0292 -7.29466 0
      vertex 14.6292 -6.85873 0
      vertex 14.0292 -7.29466 2
    endloop
  endfacet
  facet normal 0 -1 0
    outer loop
      vertex 15.3708 -6.85873 0
      vertex 15.3708 -6.85873 2
      vertex 14.6292 -6.85873 2
    endloop
  endfacet
  facet normal 0 -1 0
    outer loop
      vertex 14.6292 -6.85873 0
      vertex 15.3708 -6.85873 0
      vertex 14.6292 -6.85873 2
    endloop
  endfacet
  facet normal -0.587786 -0.809017 0
    outer loop
      vertex 15.9708 -7.29466 0
      vertex 15.9708 -7.29466 2
      vertex 15.3708 -6.85873 2
    endloop
  endfacet
  facet normal -0.587786 -0.809017 0
    outer loop
      vertex 15.3708 -6.85873 0
      vertex 15.9708 -7.29466 0
      vertex 15.3708 -6.85873 2
    endloop
  endfacet
  facet normal -0.951056 -0.309018 0
    outer loop
      vertex 16.2 -8 2
      vertex 15.9708 -7.29466 2
      vertex 16.2 -8 0
    endloop
  endfacet
  facet normal -0.951056 -0.309018 0
    outer loop
      vertex 16.2 -8 0
      vertex 15.9708 -7.29466 2
      vertex 15.9708 -7.29466 0
    endloop
  endfacet
  facet normal -0.951056 0.309018 0
    outer loop
      vertex 16.2 -8 2
      vertex 16.2 -8 0
      vertex 15.9708 -8.70534 2
    endloop
  endfacet
  facet normal -0.951056 0.309018 0
    outer loop
      vertex 15.9708 -8.70534 2
      vertex 16.2 -8 0
      vertex 15.9708 -8.70534 0
    endloop
  endfacet
  facet normal -0.587786 0.809017 0
    outer loop
      vertex 15.9708 -8.70534 2
      vertex 15.9708 -8.70534 0
      vertex 15.3708 -9.14127 2
    endloop
  endfacet
  facet normal -0.587786 0.809017 0
    outer loop
      vertex 15.3708 -9.14127 2
      vertex 15.9708 -8.70534 0
      vertex 15.3708 -9.14127 0
    endloop
  endfacet
  facet normal 0 1 0
    outer loop
      vertex 15.3708 -9.14127 2
      vertex 15.3708 -9.14127 0
      vertex 14.6292 -9.14127 2
    endloop
  endfacet
  facet normal 0 1 0
    outer loop
      vertex 14.6292 -9.14127 2
      vertex 15.3708 -9.14127 0
      vertex 14.6292 -9.14127 0
    endloop
  endfacet
  facet normal 0.587786 0.809017 0
    outer loop
      vertex 14.6292 -9.14127 2
      vertex 14.6292 -9.14127 0
      vertex 14.0292 -8.70534 2
    endloop
  endfacet
  facet normal 0.587786 0.809017 0
    outer loop
      vertex 14.0292 -8.70534 2
      vertex 14.6292 -9.14127 0
      vertex 14.0292 -8.70534 0
    endloop
  endfacet
  facet normal 0.951056 -0.309018 0
    outer loop
      vertex 14.0292 8.70534 0
      vertex 14.0292 8.70534 2
      vertex 13.8 8 2
    endloop
  endfacet
  facet normal 0.951056 -0.309018 0
    outer loop
      vertex 13.8 8 0
      vertex 14.0292 8.70534 0
      vertex 13.8 8 2
    endloop
  endfacet
  facet normal 0.951056 0.309018 0
    outer loop
      vertex 13.8 8 2
      vertex 14.0292 7.29466 2
      vertex 14.0292 7.29466 0
    endloop
  endfacet
  facet normal 0.951056 0.309018 0
    outer loop
      vertex 13.8 8 0
      vertex 13.8 8 2
      vertex 14.0292 7.29466 0
    endloop
  endfacet
  facet normal 0.587786 -0.809017 0
    outer loop
      vertex 14.6292 9.14127 0
      vertex 14.6292 9.14127 2
      vertex 14.0292 8.70534 2
    endloop
  endfacet
  facet normal 0.587786 -0.809017 0
    outer loop
      vertex 14.0292 8.70534 0
      vertex 14.6292 9.14127 0
      vertex 14.0292 8.70534 2
    endloop
  endfacet
  facet normal 0 -1 0
    outer loop
      vertex 15.3708 9.14127 0
      vertex 15.3708 9.14127 2
      vertex 14.6292 9.14127 2
    endloop
  endfacet
  facet normal 0 -1 0
    outer loop
      vertex 14.6292 9.14127 0
      vertex 15.3708 9.14127 0
      vertex 14.6292 9.14127 2
    endloop
  endfacet
  facet normal -0.587786 -0.809017 0
    outer loop
      vertex 15.9708 8.70534 0
      vertex 15.9708 8.70534 2
      vertex 15.3708 9.14127 2
    endloop
  endfacet
  facet normal -0.587786 -0.809017 0
    outer loop
      vertex 15.3708 9.14127 0
      vertex 15.9708 8.70534 0
      vertex 15.3708 9.14127 2
    endloop
  endfacet
  facet normal -0.951056 -0.309018 0
    outer loop
      vertex 16.2 8 2
      vertex 15.9708 8.70534 2
      vertex 16.2 8 0
    endloop
  endfacet
  facet normal -0.951056 -0.309018 0
    outer loop
      vertex 16.2 8 0
      vertex 15.9708 8.70534 2
      vertex 15.9708 8.70534 0
    endloop
  endfacet
  facet normal -0.951056 0.309018 0
    outer loop
      vertex 16.2 8 2
      vertex 16.2 8 0
      vertex 15.9708 7.29466 2
    endloop
  endfacet
  facet normal -0.951056 0.309018 0
    outer loop
      vertex 15.9708 7.29466 2
      vertex 16.2 8 0
      vertex 15.9708 7.29466 0
    endloop
  endfacet
  facet normal -0.587786 0.809017 0
    outer loop
      vertex 15.9708 7.29466 2
      vertex 15.9708 7.29466 0
      vertex 15.3708 6.85873 2
    endloop
  endfacet
  facet normal -0.587786 0.809017 0
    outer loop
      vertex 15.3708 6.85873 2
      vertex 15.9708 7.29466 0
      vertex 15.3708 6.85873 0
    endloop
  endfacet
  facet normal 0 1 0
    outer loop
      vertex 15.3708 6.85873 2
      vertex 15.3708 6.85873 0
      vertex 14.6292 6.85873 2
    endloop
  endfacet
  facet normal 0 1 0
    outer loop
      vertex 14.6292 6.85873 2
      vertex 15.3708 6.85873 0
      vertex 14.6292 6.85873 0
    endloop
  endfacet
  facet normal 0.587786 0.809017 0
    outer loop
      vertex 14.6292 6.85873 2
      vertex 14.6292 6.85873 0
      vertex 14.0292 7.29466 2
    endloop
  endfacet
  facet normal 0.587786 0.809017 0
    outer loop
      vertex 14.0292 7.29466 2
      vertex 14.6292 6.85873 0
      vertex 14.0292 7.29466 0
    endloop
  endfacet
  facet normal 0.891006 0.453991 0
    outer loop
      vertex -11.6874 -0.710739 9
      vertex -11.3607 -1.35191 9
      vertex -11.3607 -1.35191 4
    endloop
  endfacet
  facet normal 0.891006 0.453991 0
    outer loop
      vertex -11.6874 -0.710739 4
      vertex -11.6874 -0.710739 9
      vertex -11.3607 -1.35191 4
    endloop
  endfacet
  facet normal 0.987688 0.156434 0
    outer loop
      vertex -11.8 0 9
      vertex -11.6874 -0.710739 9
      vertex -11.6874 -0.710739 4
    endloop
  endfacet
  facet normal 0.987688 0.156434 0
    outer loop
      vertex -11.8 0 4
      vertex -11.8 0 9
      vertex -11.6874 -0.710739 4
    endloop
  endfacet
  facet normal 0.707107 0.707107 0
    outer loop
      vertex -10.8519 -1.86074 9
      vertex -10.8519 -1.86074 4
      vertex -11.3607 -1.35191 9
    endloop
  endfacet
  facet normal 0.707107 0.707107 0
    outer loop
      vertex -11.3607 -1.35191 9
      vertex -10.8519 -1.86074 4
      vertex -11.3607 -1.35191 4
    endloop
  endfacet
  facet normal 0.453991 0.891006 0
    outer loop
      vertex -10.2107 -2.18743 9
      vertex -10.2107 -2.18743 4
      vertex -10.8519 -1.86074 9
    endloop
  endfacet
  facet normal 0.453991 0.891006 0
    outer loop
      vertex -10.8519 -1.86074 9
      vertex -10.2107 -2.18743 4
      vertex -10.8519 -1.86074 4
    endloop
  endfacet
  facet normal 0.156434 0.987688 0
    outer loop
      vertex -9.5 -2.3 9
      vertex -9.5 -2.3 4
      vertex -10.2107 -2.18743 9
    endloop
  endfacet
  facet normal 0.156434 0.987688 0
    outer loop
      vertex -10.2107 -2.18743 9
      vertex -9.5 -2.3 4
      vertex -10.2107 -2.18743 4
    endloop
  endfacet
  facet normal 0 1 0
    outer loop
      vertex -7.15 -2.3 9
      vertex -7.15 -2.3 4
      vertex -9.5 -2.3 9
    endloop
  endfacet
  facet normal 0 1 0
    outer loop
      vertex -9.5 -2.3 9
      vertex -7.15 -2.3 4
      vertex -9.5 -2.3 4
    endloop
  endfacet
  facet normal 1 0 0
    outer loop
      vertex -7.15 7.15 1
      vertex -7.15 7.15 9
      vertex -7.15 2.3 9
    endloop
  endfacet
  facet normal 1 0 0
    outer loop
      vertex -7.15 -2.3 4
      vertex -7.15 7.15 1
      vertex -7.15 2.3 4
    endloop
  endfacet
  facet normal 1 0 0
    outer loop
      vertex -7.15 2.3 4
      vertex -7.15 7.15 1
      vertex -7.15 2.3 9
    endloop
  endfacet
  facet normal 1 0 0
    outer loop
      vertex -7.15 -7.15 1
      vertex -7.15 7.15 1
      vertex -7.15 -2.3 4
    endloop
  endfacet
  facet normal 1 0 0
    outer loop
      vertex -7.15 -7.15 9
      vertex -7.15 -2.3 4
      vertex -7.15 -2.3 9
    endloop
  endfacet
  facet normal 1 0 0
    outer loop
      vertex -7.15 -7.15 1
      vertex -7.15 -2.3 4
      vertex -7.15 -7.15 9
    endloop
  endfacet
  facet normal 0 1 0
    outer loop
      vertex 4.39009 -7.15 9
      vertex 4.39009 -7.15 4
      vertex -7.15 -7.15 9
    endloop
  endfacet
  facet normal 0 1 0
    outer loop
      vertex -7.15 -7.15 9
      vertex 4.39009 -7.15 4
      vertex 7.15 -7.15 1
    endloop
  endfacet
  facet normal 0 1 0
    outer loop
      vertex 7.15 -7.15 9
      vertex 5.60991 -7.15 4
      vertex 5.60991 -7.15 9
    endloop
  endfacet
  facet normal 0 1 0
    outer loop
      vertex 7.15 -7.15 1
      vertex 5.60991 -7.15 4
      vertex 7.15 -7.15 9
    endloop
  endfacet
  facet normal 0 1 0
    outer loop
      vertex 4.39009 -7.15 4
      vertex 5.60991 -7.15 4
      vertex 7.15 -7.15 1
    endloop
  endfacet
  facet normal 0 1 0
    outer loop
      vertex -7.15 -7.15 9
      vertex 7.15 -7.15 1
      vertex -7.15 -7.15 1
    endloop
  endfacet
  facet normal 0.587785 -0.809017 0
    outer loop
      vertex 4.39009 -7.15 4
      vertex 4.39009 -7.15 9
      vertex 4.11008 -7.35344 9
    endloop
  endfacet
  facet normal 0.587785 -0.809017 0
    outer loop
      vertex 4.11008 -7.35344 4
      vertex 4.39009 -7.15 4
      vertex 4.11008 -7.35344 9
    endloop
  endfacet
  facet normal 0.951057 -0.309016 0
    outer loop
      vertex 4.11008 -7.35344 4
      vertex 4.11008 -7.35344 9
      vertex 3.9 -8 9
    endloop
  endfacet
  facet normal 0.951057 -0.309016 0
    outer loop
      vertex 3.9 -8 4
      vertex 4.11008 -7.35344 4
      vertex 3.9 -8 9
    endloop
  endfacet
  facet normal 0.951057 0.309016 0
    outer loop
      vertex 3.9 -8 9
      vertex 4.11008 -8.64656 9
      vertex 4.11008 -8.64656 4
    endloop
  endfacet
  facet normal 0.951057 0.309016 0
    outer loop
      vertex 3.9 -8 4
      vertex 3.9 -8 9
      vertex 4.11008 -8.64656 4
    endloop
  endfacet
  facet normal 0.587785 0.809017 0
    outer loop
      vertex 4.66008 -9.04616 9
      vertex 4.66008 -9.04616 4
      vertex 4.11008 -8.64656 9
    endloop
  endfacet
  facet normal 0.587785 0.809017 0
    outer loop
      vertex 4.11008 -8.64656 9
      vertex 4.66008 -9.04616 4
      vertex 4.11008 -8.64656 4
    endloop
  endfacet
  facet normal 0 1 0
    outer loop
      vertex 5.33992 -9.04616 9
      vertex 5.33992 -9.04616 4
      vertex 4.66008 -9.04616 9
    endloop
  endfacet
  facet normal 0 1 0
    outer loop
      vertex 4.66008 -9.04616 9
      vertex 5.33992 -9.04616 4
      vertex 4.66008 -9.04616 4
    endloop
  endfacet
  facet normal -0.587785 0.809017 0
    outer loop
      vertex 5.88992 -8.64656 9
      vertex 5.88992 -8.64656 4
      vertex 5.33992 -9.04616 9
    endloop
  endfacet
  facet normal -0.587785 0.809017 0
    outer loop
      vertex 5.33992 -9.04616 9
      vertex 5.88992 -8.64656 4
      vertex 5.33992 -9.04616 4
    endloop
  endfacet
  facet normal -0.951057 0.309016 0
    outer loop
      vertex 6.1 -8 9
      vertex 6.1 -8 4
      vertex 5.88992 -8.64656 9
    endloop
  endfacet
  facet normal -0.951057 0.309016 0
    outer loop
      vertex 5.88992 -8.64656 9
      vertex 6.1 -8 4
      vertex 5.88992 -8.64656 4
    endloop
  endfacet
  facet normal -0.951057 -0.309016 0
    outer loop
      vertex 6.1 -8 9
      vertex 5.88992 -7.35344 9
      vertex 6.1 -8 4
    endloop
  endfacet
  facet normal -0.951057 -0.309016 0
    outer loop
      vertex 6.1 -8 4
      vertex 5.88992 -7.35344 9
      vertex 5.88992 -7.35344 4
    endloop
  endfacet
  facet normal -0.587785 -0.809017 0
    outer loop
      vertex 5.88992 -7.35344 4
      vertex 5.88992 -7.35344 9
      vertex 5.60991 -7.15 9
    endloop
  endfacet
  facet normal -0.587785 -0.809017 0
    outer loop
      vertex 5.60991 -7.15 4
      vertex 5.88992 -7.35344 4
      vertex 5.60991 -7.15 9
    endloop
  endfacet
  facet normal -1 0 0
    outer loop
      vertex 7.15 -2.3 9
      vertex 7.15 -2.3 4
      vertex 7.15 -7.15 9
    endloop
  endfacet
  facet normal -1 0 0
    outer loop
      vertex 7.15 -7.15 1
      vertex 7.15 -2.3 4
      vertex 7.15 7.15 1
    endloop
  endfacet
  facet normal -1 0 0
    outer loop
      vertex 7.15 7.15 9
      vertex 7.15 2.3 4
      vertex 7.15 2.3 9
    endloop
  endfacet
  facet normal -1 0 0
    outer loop
      vertex 7.15 7.15 1
      vertex 7.15 2.3 4
      vertex 7.15 7.15 9
    endloop
  endfacet
  facet normal -1 0 0
    outer loop
      vertex 7.15 -2.3 4
      vertex 7.15 2.3 4
      vertex 7.15 7.15 1
    endloop
  endfacet
  facet normal -1 0 0
    outer loop
      vertex 7.15 -7.15 9
      vertex 7.15 -2.3 4
      vertex 7.15 -7.15 1
    endloop
  endfacet
  facet normal 0 1 0
    outer loop
      vertex 9.5 -2.3 9
      vertex 9.5 -2.3 4
      vertex 7.15 -2.3 9
    endloop
  endfacet
  facet normal 0 1 0
    outer loop
      vertex 7.15 -2.3 9
      vertex 9.5 -2.3 4
      vertex 7.15 -2.3 4
    endloop
  endfacet
  facet normal -0.156434 0.987688 0
    outer loop
      vertex 10.2107 -2.18743 9
      vertex 10.2107 -2.18743 4
      vertex 9.5 -2.3 9
    endloop
  endfacet
  facet normal -0.156434 0.987688 0
    outer loop
      vertex 9.5 -2.3 9
      vertex 10.2107 -2.18743 4
      vertex 9.5 -2.3 4
    endloop
  endfacet
  facet normal -0.453991 0.891006 0
    outer loop
      vertex 10.8519 -1.86074 9
      vertex 10.8519 -1.86074 4
      vertex 10.2107 -2.18743 9
    endloop
  endfacet
  facet normal -0.453991 0.891006 0
    outer loop
      vertex 10.2107 -2.18743 9
      vertex 10.8519 -1.86074 4
      vertex 10.2107 -2.18743 4
    endloop
  endfacet
  facet normal -0.707107 0.707107 0
    outer loop
      vertex 11.3607 -1.35191 9
      vertex 11.3607 -1.35191 4
      vertex 10.8519 -1.86074 9
    endloop
  endfacet
  facet normal -0.707107 0.707107 0
    outer loop
      vertex 10.8519 -1.86074 9
      vertex 11.3607 -1.35191 4
      vertex 10.8519 -1.86074 4
    endloop
  endfacet
  facet normal -0.891006 0.453991 0
    outer loop
      vertex 11.6874 -0.710739 9
      vertex 11.6874 -0.710739 4
      vertex 11.3607 -1.35191 9
    endloop
  endfacet
  facet normal -0.891006 0.453991 0
    outer loop
      vertex 11.3607 -1.35191 9
      vertex 11.6874 -0.710739 4
      vertex 11.3607 -1.35191 4
    endloop
  endfacet
  facet normal -0.987688 0.156434 0
    outer loop
      vertex 11.8 0 9
      vertex 11.8 0 4
      vertex 11.6874 -0.710739 9
    endloop
  endfacet
  facet normal -0.987688 0.156434 0
    outer loop
      vertex 11.6874 -0.710739 9
      vertex 11.8 0 4
      vertex 11.6874 -0.710739 4
    endloop
  endfacet
  facet normal -0.987688 -0.156434 0
    outer loop
      vertex 11.8 0 9
      vertex 11.6874 0.710739 9
      vertex 11.8 0 4
    endloop
  endfacet
  facet normal -0.987688 -0.156434 0
    outer loop
      vertex 11.8 0 4
      vertex 11.6874 0.710739 9
      vertex 11.6874 0.710739 4
    endloop
  endfacet
  facet normal -0.891006 -0.453991 0
    outer loop
      vertex 11.6874 0.710739 9
      vertex 11.3607 1.35191 9
      vertex 11.6874 0.710739 4
    endloop
  endfacet
  facet normal -0.891006 -0.453991 0
    outer loop
      vertex 11.6874 0.710739 4
      vertex 11.3607 1.35191 9
      vertex 11.3607 1.35191 4
    endloop
  endfacet
  facet normal -0.707107 -0.707107 0
    outer loop
      vertex 11.3607 1.35191 4
      vertex 11.3607 1.35191 9
      vertex 10.8519 1.86074 9
    endloop
  endfacet
  facet normal -0.707107 -0.707107 0
    outer loop
      vertex 10.8519 1.86074 4
      vertex 11.3607 1.35191 4
      vertex 10.8519 1.86074 9
    endloop
  endfacet
  facet normal -0.453991 -0.891006 0
    outer loop
      vertex 10.8519 1.86074 4
      vertex 10.8519 1.86074 9
      vertex 10.2107 2.18743 9
    endloop
  endfacet
  facet normal -0.453991 -0.891006 0
    outer loop
      vertex 10.2107 2.18743 4
      vertex 10.8519 1.86074 4
      vertex 10.2107 2.18743 9
    endloop
  endfacet
  facet normal -0.156434 -0.987688 0
    outer loop
      vertex 10.2107 2.18743 4
      vertex 10.2107 2.18743 9
      vertex 9.5 2.3 9
    endloop
  endfacet
  facet normal -0.156434 -0.987688 0
    outer loop
      vertex 9.5 2.3 4
      vertex 10.2107 2.18743 4
      vertex 9.5 2.3 9
    endloop
  endfacet
  facet normal 0 -1 0
    outer loop
      vertex 9.5 2.3 4
      vertex 9.5 2.3 9
      vertex 7.15 2.3 9
    endloop
  endfacet
  facet normal 0 -1 0
    outer loop
      vertex 7.15 2.3 4
      vertex 9.5 2.3 4
      vertex 7.15 2.3 9
    endloop
  endfacet
  facet normal 0 -1 0
    outer loop
      vertex 7.15 7.15 1
      vertex 7.15 7.15 9
      vertex -7.15 7.15 9
    endloop
  endfacet
  facet normal 0 -1 0
    outer loop
      vertex -7.15 7.15 1
      vertex 7.15 7.15 1
      vertex -7.15 7.15 9
    endloop
  endfacet
  facet normal 0 -1 0
    outer loop
      vertex -7.15 2.3 4
      vertex -7.15 2.3 9
      vertex -9.5 2.3 9
    endloop
  endfacet
  facet normal 0 -1 0
    outer loop
      vertex -9.5 2.3 4
      vertex -7.15 2.3 4
      vertex -9.5 2.3 9
    endloop
  endfacet
  facet normal 0.156434 -0.987688 0
    outer loop
      vertex -9.5 2.3 4
      vertex -9.5 2.3 9
      vertex -10.2107 2.18743 9
    endloop
  endfacet
  facet normal 0.156434 -0.987688 0
    outer loop
      vertex -10.2107 2.18743 4
      vertex -9.5 2.3 4
      vertex -10.2107 2.18743 9
    endloop
  endfacet
  facet normal 0.453991 -0.891006 0
    outer loop
      vertex -10.2107 2.18743 4
      vertex -10.2107 2.18743 9
      vertex -10.8519 1.86074 9
    endloop
  endfacet
  facet normal 0.453991 -0.891006 0
    outer loop
      vertex -10.8519 1.86074 4
      vertex -10.2107 2.18743 4
      vertex -10.8519 1.86074 9
    endloop
  endfacet
  facet normal 0.707107 -0.707107 0
    outer loop
      vertex -10.8519 1.86074 4
      vertex -10.8519 1.86074 9
      vertex -11.3607 1.35191 9
    endloop
  endfacet
  facet normal 0.707107 -0.707107 0
    outer loop
      vertex -11.3607 1.35191 4
      vertex -10.8519 1.86074 4
      vertex -11.3607 1.35191 9
    endloop
  endfacet
  facet normal 0.891006 -0.453991 0
    outer loop
      vertex -11.3607 1.35191 4
      vertex -11.3607 1.35191 9
      vertex -11.6874 0.710739 9
    endloop
  endfacet
  facet normal 0.891006 -0.453991 0
    outer loop
      vertex -11.6874 0.710739 4
      vertex -11.3607 1.35191 4
      vertex -11.6874 0.710739 9
    endloop
  endfacet
  facet normal 0.987688 -0.156434 0
    outer loop
      vertex -11.6874 0.710739 4
      vertex -11.6874 0.710739 9
      vertex -11.8 0 9
    endloop
  endfacet
  facet normal 0.987688 -0.156434 0
    outer loop
      vertex -11.8 0 4
      vertex -11.6874 0.710739 4
      vertex -11.8 0 9
    endloop
  endfacet
  facet normal 0 0 1
    outer loop
      vertex -1.29787 3.99444 1
      vertex 7.15 7.15 1
      vertex -7.15 7.15 1
    endloop
  endfacet
  facet normal 0 0 1
    outer loop
      vertex -1.29787 3.99444 1
      vertex -0.43902 4.17699 1
      vertex 7.15 7.15 1
    endloop
  endfacet
  facet normal 0 0 1
    outer loop
      vertex -7.15 -7.15 1
      vertex -4.2 0 1
      vertex -7.15 7.15 1
    endloop
  endfacet
  facet normal 0 0 1
    outer loop
      vertex -4.2 0 1
      vertex -4.10822 0.873229 1
      vertex -7.15 7.15 1
    endloop
  endfacet
  facet normal 0 0 1
    outer loop
      vertex -4.10822 0.873229 1
      vertex -3.83689 1.70829 1
      vertex -7.15 7.15 1
    endloop
  endfacet
  facet normal 0 0 1
    outer loop
      vertex 2.1 -3.63731 1
      vertex 1.29787 -3.99444 1
      vertex 7.15 -7.15 1
    endloop
  endfacet
  facet normal 0 0 1
    outer loop
      vertex -3.83689 1.70829 1
      vertex -3.39787 2.4687 1
      vertex -7.15 7.15 1
    endloop
  endfacet
  facet normal 0 0 1
    outer loop
      vertex -2.81035 3.12121 1
      vertex -2.1 3.63731 1
      vertex -7.15 7.15 1
    endloop
  endfacet
  facet normal 0 0 1
    outer loop
      vertex -2.1 3.63731 1
      vertex -1.29787 3.99444 1
      vertex -7.15 7.15 1
    endloop
  endfacet
  facet normal 0 0 1
    outer loop
      vertex -0.43902 4.17699 1
      vertex 0.43902 4.17699 1
      vertex 7.15 7.15 1
    endloop
  endfacet
  facet normal 0 0 1
    outer loop
      vertex 4.10822 0.873229 1
      vertex 4.2 0 1
      vertex 7.15 -7.15 1
    endloop
  endfacet
  facet normal 0 0 1
    outer loop
      vertex 1.29787 3.99444 1
      vertex 7.15 7.15 1
      vertex 0.43902 4.17699 1
    endloop
  endfacet
  facet normal 0 0 1
    outer loop
      vertex 3.39787 -2.4687 1
      vertex 2.81035 -3.12121 1
      vertex 7.15 -7.15 1
    endloop
  endfacet
  facet normal 0 0 1
    outer loop
      vertex 2.1 3.63731 1
      vertex 7.15 7.15 1
      vertex 1.29787 3.99444 1
    endloop
  endfacet
  facet normal 0 0 1
    outer loop
      vertex 2.81035 3.12121 1
      vertex 7.15 7.15 1
      vertex 2.1 3.63731 1
    endloop
  endfacet
  facet normal 0 0 1
    outer loop
      vertex 3.39787 2.4687 1
      vertex 7.15 7.15 1
      vertex 2.81035 3.12121 1
    endloop
  endfacet
  facet normal 0 0 1
    outer loop
      vertex 3.83689 1.70829 1
      vertex 7.15 7.15 1
      vertex 3.39787 2.4687 1
    endloop
  endfacet
  facet normal 0 0 1
    outer loop
      vertex 7.15 -7.15 1
      vertex 7.15 7.15 1
      vertex 3.83689 1.70829 1
    endloop
  endfacet
  facet normal 0 0 1
    outer loop
      vertex 7.15 -7.15 1
      vertex 3.83689 1.70829 1
      vertex 4.10822 0.873229 1
    endloop
  endfacet
  facet normal 0 0 1
    outer loop
      vertex 4.10822 -0.873229 1
      vertex 3.83689 -1.70829 1
      vertex 7.15 -7.15 1
    endloop
  endfacet
  facet normal 0 0 1
    outer loop
      vertex 7.15 -7.15 1
      vertex 3.83689 -1.70829 1
      vertex 3.39787 -2.4687 1
    endloop
  endfacet
  facet normal 0 0 1
    outer loop
      vertex 4.2 0 1
      vertex 4.10822 -0.873229 1
      vertex 7.15 -7.15 1
    endloop
  endfacet
  facet normal 0 0 1
    outer loop
      vertex -7.15 -7.15 1
      vertex 7.15 -7.15 1
      vertex 1.29787 -3.99444 1
    endloop
  endfacet
  facet normal 0 0 1
    outer loop
      vertex -7.15 -7.15 1
      vertex 1.29787 -3.99444 1
      vertex 0.43902 -4.17699 1
    endloop
  endfacet
  facet normal 0 0 1
    outer loop
      vertex -7.15 -7.15 1
      vertex 0.43902 -4.17699 1
      vertex -0.43902 -4.17699 1
    endloop
  endfacet
  facet normal 0 0 1
    outer loop
      vertex -7.15 -7.15 1
      vertex -0.43902 -4.17699 1
      vertex -1.29787 -3.99444 1
    endloop
  endfacet
  facet normal 0 0 1
    outer loop
      vertex -7.15 -7.15 1
      vertex -1.29787 -3.99444 1
      vertex -2.1 -3.63731 1
    endloop
  endfacet
  facet normal 0 0 1
    outer loop
      vertex -7.15 -7.15 1
      vertex -2.1 -3.63731 1
      vertex -2.81035 -3.12121 1
    endloop
  endfacet
  facet normal 0 0 1
    outer loop
      vertex -7.15 -7.15 1
      vertex -2.81035 -3.12121 1
      vertex -3.39787 -2.4687 1
    endloop
  endfacet
  facet normal 0 0 1
    outer loop
      vertex -7.15 -7.15 1
      vertex -3.39787 -2.4687 1
      vertex -3.83689 -1.70829 1
    endloop
  endfacet
  facet normal 0 0 1
    outer loop
      vertex -7.15 -7.15 1
      vertex -4.10822 -0.873229 1
      vertex -4.2 0 1
    endloop
  endfacet
  facet normal 0 0 1
    outer loop
      vertex -7.15 -7.15 1
      vertex -3.83689 -1.70829 1
      vertex -4.10822 -0.873229 1
    endloop
  endfacet
  facet normal 0 0 1
    outer loop
      vertex -3.39787 2.4687 1
      vertex -2.81035 3.12121 1
      vertex -7.15 7.15 1
    endloop
  endfacet
  facet normal 0 0 1
    outer loop
      vertex 2.81035 -3.12121 1
      vertex 2.1 -3.63731 1
      vertex 7.15 -7.15 1
    endloop
  endfacet
  facet normal 0 0 1
    outer loop
      vertex -11.6874 -0.710739 4
      vertex -11.3607 -1.35191 4
      vertex -10.8519 -1.86074 4
    endloop
  endfacet
  facet normal 0 0 1
    outer loop
      vertex -9.5 -2.3 4
      vertex -11.6874 -0.710739 4
      vertex -10.2107 -2.18743 4
    endloop
  endfacet
  facet normal 0 0 1
    outer loop
      vertex -10.2107 -2.18743 4
      vertex -11.6874 -0.710739 4
      vertex -10.8519 -1.86074 4
    endloop
  endfacet
  facet normal 0 0 1
    outer loop
      vertex -7.15 -2.3 4
      vertex -11.6874 -0.710739 4
      vertex -9.5 -2.3 4
    endloop
  endfacet
  facet normal 0 0 1
    outer loop
      vertex -7.15 2.3 4
      vertex -11.6874 -0.710739 4
      vertex -7.15 -2.3 4
    endloop
  endfacet
  facet normal 0 0 1
    outer loop
      vertex -9.5 2.3 4
      vertex -11.6874 -0.710739 4
      vertex -7.15 2.3 4
    endloop
  endfacet
  facet normal 0 0 1
    outer loop
      vertex -10.2107 2.18743 4
      vertex -11.6874 -0.710739 4
      vertex -9.5 2.3 4
    endloop
  endfacet
  facet normal 0 0 1
    outer loop
      vertex -10.8519 1.86074 4
      vertex -11.6874 -0.710739 4
      vertex -10.2107 2.18743 4
    endloop
  endfacet
  facet normal 0 0 1
    outer loop
      vertex -11.3607 1.35191 4
      vertex -11.6874 -0.710739 4
      vertex -10.8519 1.86074 4
    endloop
  endfacet
  facet normal 0 0 1
    outer loop
      vertex -11.6874 0.710739 4
      vertex -11.6874 -0.710739 4
      vertex -11.3607 1.35191 4
    endloop
  endfacet
  facet normal 0 0 1
    outer loop
      vertex -11.8 0 4
      vertex -11.6874 -0.710739 4
      vertex -11.6874 0.710739 4
    endloop
  endfacet
  facet normal 0 0 1
    outer loop
      vertex 4.11008 -8.64656 4
      vertex 4.66008 -9.04616 4
      vertex 5.33992 -9.04616 4
    endloop
  endfacet
  facet normal 0 0 1
    outer loop
      vertex 6.1 -8 4
      vertex 4.11008 -8.64656 4
      vertex 5.88992 -8.64656 4
    endloop
  endfacet
  facet normal 0 0 1
    outer loop
      vertex 5.88992 -8.64656 4
      vertex 4.11008 -8.64656 4
      vertex 5.33992 -9.04616 4
    endloop
  endfacet
  facet normal 0 0 1
    outer loop
      vertex 5.88992 -7.35344 4
      vertex 4.11008 -8.64656 4
      vertex 6.1 -8 4
    endloop
  endfacet
  facet normal 0 0 1
    outer loop
      vertex 5.60991 -7.15 4
      vertex 4.11008 -8.64656 4
      vertex 5.88992 -7.35344 4
    endloop
  endfacet
  facet normal 0 0 1
    outer loop
      vertex 4.39009 -7.15 4
      vertex 4.11008 -8.64656 4
      vertex 5.60991 -7.15 4
    endloop
  endfacet
  facet normal 0 0 1
    outer loop
      vertex 4.11008 -7.35344 4
      vertex 4.11008 -8.64656 4
      vertex 4.39009 -7.15 4
    endloop
  endfacet
  facet normal 0 0 1
    outer loop
      vertex 3.9 -8 4
      vertex 4.11008 -8.64656 4
      vertex 4.11008 -7.35344 4
    endloop
  endfacet
  facet normal 0 0 1
    outer loop
      vertex 9.5 -2.3 4
      vertex 10.2107 -2.18743 4
      vertex 10.8519 -1.86074 4
    endloop
  endfacet
  facet normal 0 0 1
    outer loop
      vertex 11.6874 -0.710739 4
      vertex 9.5 -2.3 4
      vertex 11.3607 -1.35191 4
    endloop
  endfacet
  facet normal 0 0 1
    outer loop
      vertex 11.3607 -1.35191 4
      vertex 9.5 -2.3 4
      vertex 10.8519 -1.86074 4
    endloop
  endfacet
  facet normal 0 0 1
    outer loop
      vertex 11.8 0 4
      vertex 9.5 -2.3 4
      vertex 11.6874 -0.710739 4
    endloop
  endfacet
  facet normal 0 0 1
    outer loop
      vertex 11.6874 0.710739 4
      vertex 9.5 -2.3 4
      vertex 11.8 0 4
    endloop
  endfacet
  facet normal 0 0 1
    outer loop
      vertex 11.3607 1.35191 4
      vertex 9.5 -2.3 4
      vertex 11.6874 0.710739 4
    endloop
  endfacet
  facet normal 0 0 1
    outer loop
      vertex 10.8519 1.86074 4
      vertex 9.5 -2.3 4
      vertex 11.3607 1.35191 4
    endloop
  endfacet
  facet normal 0 0 1
    outer loop
      vertex 10.2107 2.18743 4
      vertex 9.5 -2.3 4
      vertex 10.8519 1.86074 4
    endloop
  endfacet
  facet normal 0 0 1
    outer loop
      vertex 9.5 2.3 4
      vertex 9.5 -2.3 4
      vertex 10.2107 2.18743 4
    endloop
  endfacet
  facet normal 0 0 1
    outer loop
      vertex 7.15 2.3 4
      vertex 9.5 -2.3 4
      vertex 9.5 2.3 4
    endloop
  endfacet
  facet normal 0 0 1
    outer loop
      vertex 7.15 -2.3 4
      vertex 9.5 -2.3 4
      vertex 7.15 2.3 4
    endloop
  endfacet
endsolid OpenSCAD_Model
