solid OpenSCAD_Model
  facet normal 0 -1 0
    outer loop
      vertex 0 0 39
      vertex 0 0 0
      vertex 50 0 0
    endloop
  endfacet
  facet normal 0 -1 0
    outer loop
      vertex 50 0 39
      vertex 0 0 39
      vertex 50 0 0
    endloop
  endfacet
  facet normal 0 0 -1
    outer loop
      vertex 0 0 0
      vertex 0 28 0
      vertex 50 0 0
    endloop
  endfacet
  facet normal 0 0 -1
    outer loop
      vertex 15.7865 30.8817 0
      vertex 0 28 0
      vertex 17 34 0
    endloop
  endfacet
  facet normal 0 0 -1
    outer loop
      vertex 31.7865 30.8817 0
      vertex 17 34 0
      vertex 33 34 0
    endloop
  endfacet
  facet normal 0 0 -1
    outer loop
      vertex 50 0 0
      vertex 33 34 0
      vertex 50 28 0
    endloop
  endfacet
  facet normal 0 0 -1
    outer loop
      vertex 15.7865 29.1183 0
      vertex 0 28 0
      vertex 15.5 30 0
    endloop
  endfacet
  facet normal 0 0 -1
    outer loop
      vertex 50 0 0
      vertex 0 28 0
      vertex 15.7865 29.1183 0
    endloop
  endfacet
  facet normal 0 0 -1
    outer loop
      vertex 50 0 0
      vertex 15.7865 29.1183 0
      vertex 16.5365 28.5734 0
    endloop
  endfacet
  facet normal 0 0 -1
    outer loop
      vertex 17.4635 31.4266 0
      vertex 17 34 0
      vertex 18.2135 30.8817 0
    endloop
  endfacet
  facet normal 0 0 -1
    outer loop
      vertex 50 0 0
      vertex 17.4635 28.5734 0
      vertex 18.2135 29.1183 0
    endloop
  endfacet
  facet normal 0 0 -1
    outer loop
      vertex 50 0 0
      vertex 18.2135 29.1183 0
      vertex 18.5 30 0
    endloop
  endfacet
  facet normal 0 0 -1
    outer loop
      vertex 50 0 0
      vertex 18.5 30 0
      vertex 18.2135 30.8817 0
    endloop
  endfacet
  facet normal 0 0 -1
    outer loop
      vertex 50 0 0
      vertex 18.2135 30.8817 0
      vertex 17 34 0
    endloop
  endfacet
  facet normal 0 0 -1
    outer loop
      vertex 16.5365 31.4266 0
      vertex 17 34 0
      vertex 17.4635 31.4266 0
    endloop
  endfacet
  facet normal 0 0 -1
    outer loop
      vertex 15.7865 30.8817 0
      vertex 17 34 0
      vertex 16.5365 31.4266 0
    endloop
  endfacet
  facet normal 0 0 -1
    outer loop
      vertex 15.5 30 0
      vertex 0 28 0
      vertex 15.7865 30.8817 0
    endloop
  endfacet
  facet normal 0 0 -1
    outer loop
      vertex 32.5365 28.5734 0
      vertex 50 0 0
      vertex 31.7865 29.1183 0
    endloop
  endfacet
  facet normal 0 0 -1
    outer loop
      vertex 31.7865 29.1183 0
      vertex 17 34 0
      vertex 31.5 30 0
    endloop
  endfacet
  facet normal 0 0 -1
    outer loop
      vertex 50 0 0
      vertex 17 34 0
      vertex 31.7865 29.1183 0
    endloop
  endfacet
  facet normal 0 0 -1
    outer loop
      vertex 33.4635 31.4266 0
      vertex 33 34 0
      vertex 34.2135 30.8817 0
    endloop
  endfacet
  facet normal 0 0 -1
    outer loop
      vertex 50 0 0
      vertex 32.5365 28.5734 0
      vertex 33.4635 28.5734 0
    endloop
  endfacet
  facet normal 0 0 -1
    outer loop
      vertex 50 0 0
      vertex 33.4635 28.5734 0
      vertex 34.2135 29.1183 0
    endloop
  endfacet
  facet normal 0 0 -1
    outer loop
      vertex 50 0 0
      vertex 34.2135 29.1183 0
      vertex 34.5 30 0
    endloop
  endfacet
  facet normal 0 0 -1
    outer loop
      vertex 50 0 0
      vertex 34.5 30 0
      vertex 34.2135 30.8817 0
    endloop
  endfacet
  facet normal 0 0 -1
    outer loop
      vertex 50 0 0
      vertex 34.2135 30.8817 0
      vertex 33 34 0
    endloop
  endfacet
  facet normal 0 0 -1
    outer loop
      vertex 32.5365 31.4266 0
      vertex 33 34 0
      vertex 33.4635 31.4266 0
    endloop
  endfacet
  facet normal 0 0 -1
    outer loop
      vertex 31.7865 30.8817 0
      vertex 33 34 0
      vertex 32.5365 31.4266 0
    endloop
  endfacet
  facet normal 0 0 -1
    outer loop
      vertex 31.5 30 0
      vertex 17 34 0
      vertex 31.7865 30.8817 0
    endloop
  endfacet
  facet normal 0 0 -1
    outer loop
      vertex 17.4635 28.5734 0
      vertex 50 0 0
      vertex 16.5365 28.5734 0
    endloop
  endfacet
  facet normal -1 0 0
    outer loop
      vertex 0 28 2
      vertex 0 28 0
      vertex 0 2 2
    endloop
  endfacet
  facet normal -1 0 0
    outer loop
      vertex 0 28 37
      vertex 0 0 39
      vertex 0 28 39
    endloop
  endfacet
  facet normal -1 0 0
    outer loop
      vertex 0 2 37
      vertex 0 0 39
      vertex 0 28 37
    endloop
  endfacet
  facet normal -1 0 0
    outer loop
      vertex 0 0 0
      vertex 0 0 39
      vertex 0 2 2
    endloop
  endfacet
  facet normal -1 0 0
    outer loop
      vertex 0 0 0
      vertex 0 2 2
      vertex 0 28 0
    endloop
  endfacet
  facet normal -1 0 0
    outer loop
      vertex 0 2 2
      vertex 0 0 39
      vertex 0 2 37
    endloop
  endfacet
  facet normal 0 0 1
    outer loop
      vertex 0 28 39
      vertex 0 0 39
      vertex 50 0 39
    endloop
  endfacet
  facet normal 0 0 1
    outer loop
      vertex 17.4635 28.5734 39
      vertex 0 28 39
      vertex 50 28 39
    endloop
  endfacet
  facet normal 0 0 1
    outer loop
      vertex 50 28 39
      vertex 0 28 39
      vertex 50 0 39
    endloop
  endfacet
  facet normal 0 0 1
    outer loop
      vertex 15.5 30 39
      vertex 0 28 39
      vertex 15.7865 29.1183 39
    endloop
  endfacet
  facet normal 0 0 1
    outer loop
      vertex 32.5365 28.5734 39
      vertex 17.4635 28.5734 39
      vertex 50 28 39
    endloop
  endfacet
  facet normal 0 0 1
    outer loop
      vertex 18.2135 30.8817 39
      vertex 18.5 30 39
      vertex 33 34 39
    endloop
  endfacet
  facet normal 0 0 1
    outer loop
      vertex 17 34 39
      vertex 0 28 39
      vertex 15.7865 30.8817 39
    endloop
  endfacet
  facet normal 0 0 1
    outer loop
      vertex 17 34 39
      vertex 16.5365 31.4266 39
      vertex 33 34 39
    endloop
  endfacet
  facet normal 0 0 1
    outer loop
      vertex 17 34 39
      vertex 15.7865 30.8817 39
      vertex 16.5365 31.4266 39
    endloop
  endfacet
  facet normal 0 0 1
    outer loop
      vertex 16.5365 31.4266 39
      vertex 17.4635 31.4266 39
      vertex 33 34 39
    endloop
  endfacet
  facet normal 0 0 1
    outer loop
      vertex 18.5 30 39
      vertex 18.2135 29.1183 39
      vertex 33 34 39
    endloop
  endfacet
  facet normal 0 0 1
    outer loop
      vertex 17.4635 31.4266 39
      vertex 18.2135 30.8817 39
      vertex 33 34 39
    endloop
  endfacet
  facet normal 0 0 1
    outer loop
      vertex 31.7865 30.8817 39
      vertex 32.5365 31.4266 39
      vertex 33 34 39
    endloop
  endfacet
  facet normal 0 0 1
    outer loop
      vertex 16.5365 28.5734 39
      vertex 0 28 39
      vertex 17.4635 28.5734 39
    endloop
  endfacet
  facet normal 0 0 1
    outer loop
      vertex 15.7865 29.1183 39
      vertex 0 28 39
      vertex 16.5365 28.5734 39
    endloop
  endfacet
  facet normal 0 0 1
    outer loop
      vertex 31.5 30 39
      vertex 18.2135 29.1183 39
      vertex 31.7865 29.1183 39
    endloop
  endfacet
  facet normal 0 0 1
    outer loop
      vertex 33.4635 31.4266 39
      vertex 34.2135 30.8817 39
      vertex 50 28 39
    endloop
  endfacet
  facet normal 0 0 1
    outer loop
      vertex 31.7865 30.8817 39
      vertex 18.2135 29.1183 39
      vertex 31.5 30 39
    endloop
  endfacet
  facet normal 0 0 1
    outer loop
      vertex 33 34 39
      vertex 18.2135 29.1183 39
      vertex 31.7865 30.8817 39
    endloop
  endfacet
  facet normal 0 0 1
    outer loop
      vertex 34.2135 29.1183 39
      vertex 33.4635 28.5734 39
      vertex 50 28 39
    endloop
  endfacet
  facet normal 0 0 1
    outer loop
      vertex 33 34 39
      vertex 33.4635 31.4266 39
      vertex 50 28 39
    endloop
  endfacet
  facet normal 0 0 1
    outer loop
      vertex 33 34 39
      vertex 32.5365 31.4266 39
      vertex 33.4635 31.4266 39
    endloop
  endfacet
  facet normal 0 0 1
    outer loop
      vertex 34.2135 30.8817 39
      vertex 34.5 30 39
      vertex 50 28 39
    endloop
  endfacet
  facet normal 0 0 1
    outer loop
      vertex 34.5 30 39
      vertex 34.2135 29.1183 39
      vertex 50 28 39
    endloop
  endfacet
  facet normal 0 0 1
    outer loop
      vertex 33.4635 28.5734 39
      vertex 32.5365 28.5734 39
      vertex 50 28 39
    endloop
  endfacet
  facet normal 0 0 1
    outer loop
      vertex 32.5365 28.5734 39
      vertex 31.7865 29.1183 39
      vertex 18.2135 29.1183 39
    endloop
  endfacet
  facet normal 0 0 1
    outer loop
      vertex 15.5 30 39
      vertex 15.7865 30.8817 39
      vertex 0 28 39
    endloop
  endfacet
  facet normal 0 0 1
    outer loop
      vertex 18.2135 29.1183 39
      vertex 17.4635 28.5734 39
      vertex 32.5365 28.5734 39
    endloop
  endfacet
  facet normal 1 0 0
    outer loop
      vertex 50 2 2
      vertex 50 0 0
      vertex 50 28 0
    endloop
  endfacet
  facet normal 1 0 0
    outer loop
      vertex 50 2 2
      vertex 50 2 37
      vertex 50 0 39
    endloop
  endfacet
  facet normal 1 0 0
    outer loop
      vertex 50 0 39
      vertex 50 0 0
      vertex 50 2 2
    endloop
  endfacet
  facet normal 1 0 0
    outer loop
      vertex 50 28 37
      vertex 50 0 39
      vertex 50 2 37
    endloop
  endfacet
  facet normal 1 0 0
    outer loop
      vertex 50 28 39
      vertex 50 0 39
      vertex 50 28 37
    endloop
  endfacet
  facet normal 1 0 0
    outer loop
      vertex 50 28 2
      vertex 50 2 2
      vertex 50 28 0
    endloop
  endfacet
  facet normal 0.33282 0.94299 0
    outer loop
      vertex 33 34 0
      vertex 33 34 2
      vertex 50 28 0
    endloop
  endfacet
  facet normal 0.33282 0.94299 0
    outer loop
      vertex 50 28 0
      vertex 33 34 2
      vertex 50 28 2
    endloop
  endfacet
  facet normal 0 1 0
    outer loop
      vertex 17 34 0
      vertex 17 34 2
      vertex 33 34 0
    endloop
  endfacet
  facet normal 0 1 0
    outer loop
      vertex 33 34 0
      vertex 17 34 2
      vertex 33 34 2
    endloop
  endfacet
  facet normal -0.33282 0.94299 0
    outer loop
      vertex 0 28 0
      vertex 0 28 2
      vertex 17 34 0
    endloop
  endfacet
  facet normal -0.33282 0.94299 0
    outer loop
      vertex 17 34 0
      vertex 0 28 2
      vertex 17 34 2
    endloop
  endfacet
  facet normal 0.951056 -0.309017 0
    outer loop
      vertex 15.7865 30.8817 0
      vertex 15.7865 30.8817 2
      vertex 15.5 30 2
    endloop
  endfacet
  facet normal 0.951056 -0.309017 0
    outer loop
      vertex 15.5 30 0
      vertex 15.7865 30.8817 0
      vertex 15.5 30 2
    endloop
  endfacet
  facet normal 0.951056 0.309017 0
    outer loop
      vertex 15.5 30 2
      vertex 15.7865 29.1183 2
      vertex 15.7865 29.1183 0
    endloop
  endfacet
  facet normal 0.951056 0.309017 0
    outer loop
      vertex 15.5 30 0
      vertex 15.5 30 2
      vertex 15.7865 29.1183 0
    endloop
  endfacet
  facet normal 0.587785 -0.809017 0
    outer loop
      vertex 16.5365 31.4266 0
      vertex 16.5365 31.4266 2
      vertex 15.7865 30.8817 2
    endloop
  endfacet
  facet normal 0.587785 -0.809017 0
    outer loop
      vertex 15.7865 30.8817 0
      vertex 16.5365 31.4266 0
      vertex 15.7865 30.8817 2
    endloop
  endfacet
  facet normal 0 -1 0
    outer loop
      vertex 17.4635 31.4266 0
      vertex 17.4635 31.4266 2
      vertex 16.5365 31.4266 2
    endloop
  endfacet
  facet normal 0 -1 0
    outer loop
      vertex 16.5365 31.4266 0
      vertex 17.4635 31.4266 0
      vertex 16.5365 31.4266 2
    endloop
  endfacet
  facet normal -0.587785 -0.809017 0
    outer loop
      vertex 18.2135 30.8817 0
      vertex 18.2135 30.8817 2
      vertex 17.4635 31.4266 2
    endloop
  endfacet
  facet normal -0.587785 -0.809017 0
    outer loop
      vertex 17.4635 31.4266 0
      vertex 18.2135 30.8817 0
      vertex 17.4635 31.4266 2
    endloop
  endfacet
  facet normal -0.951056 -0.309017 0
    outer loop
      vertex 18.5 30 2
      vertex 18.2135 30.8817 2
      vertex 18.5 30 0
    endloop
  endfacet
  facet normal -0.951056 -0.309017 0
    outer loop
      vertex 18.5 30 0
      vertex 18.2135 30.8817 2
      vertex 18.2135 30.8817 0
    endloop
  endfacet
  facet normal -0.951056 0.309017 0
    outer loop
      vertex 18.5 30 2
      vertex 18.5 30 0
      vertex 18.2135 29.1183 2
    endloop
  endfacet
  facet normal -0.951056 0.309017 0
    outer loop
      vertex 18.2135 29.1183 2
      vertex 18.5 30 0
      vertex 18.2135 29.1183 0
    endloop
  endfacet
  facet normal -0.587785 0.809017 0
    outer loop
      vertex 18.2135 29.1183 2
      vertex 18.2135 29.1183 0
      vertex 17.4635 28.5734 2
    endloop
  endfacet
  facet normal -0.587785 0.809017 0
    outer loop
      vertex 17.4635 28.5734 2
      vertex 18.2135 29.1183 0
      vertex 17.4635 28.5734 0
    endloop
  endfacet
  facet normal 0 1 0
    outer loop
      vertex 17.4635 28.5734 2
      vertex 17.4635 28.5734 0
      vertex 16.5365 28.5734 2
    endloop
  endfacet
  facet normal 0 1 0
    outer loop
      vertex 16.5365 28.5734 2
      vertex 17.4635 28.5734 0
      vertex 16.5365 28.5734 0
    endloop
  endfacet
  facet normal 0.587785 0.809017 0
    outer loop
      vertex 16.5365 28.5734 2
      vertex 16.5365 28.5734 0
      vertex 15.7865 29.1183 2
    endloop
  endfacet
  facet normal 0.587785 0.809017 0
    outer loop
      vertex 15.7865 29.1183 2
      vertex 16.5365 28.5734 0
      vertex 15.7865 29.1183 0
    endloop
  endfacet
  facet normal 0.951056 -0.309017 0
    outer loop
      vertex 31.7865 30.8817 0
      vertex 31.7865 30.8817 2
      vertex 31.5 30 2
    endloop
  endfacet
  facet normal 0.951056 -0.309017 0
    outer loop
      vertex 31.5 30 0
      vertex 31.7865 30.8817 0
      vertex 31.5 30 2
    endloop
  endfacet
  facet normal 0.951056 0.309017 0
    outer loop
      vertex 31.5 30 2
      vertex 31.7865 29.1183 2
      vertex 31.7865 29.1183 0
    endloop
  endfacet
  facet normal 0.951056 0.309017 0
    outer loop
      vertex 31.5 30 0
      vertex 31.5 30 2
      vertex 31.7865 29.1183 0
    endloop
  endfacet
  facet normal 0.587785 -0.809017 0
    outer loop
      vertex 32.5365 31.4266 0
      vertex 32.5365 31.4266 2
      vertex 31.7865 30.8817 2
    endloop
  endfacet
  facet normal 0.587785 -0.809017 0
    outer loop
      vertex 31.7865 30.8817 0
      vertex 32.5365 31.4266 0
      vertex 31.7865 30.8817 2
    endloop
  endfacet
  facet normal 0 -1 0
    outer loop
      vertex 33.4635 31.4266 0
      vertex 33.4635 31.4266 2
      vertex 32.5365 31.4266 2
    endloop
  endfacet
  facet normal 0 -1 0
    outer loop
      vertex 32.5365 31.4266 0
      vertex 33.4635 31.4266 0
      vertex 32.5365 31.4266 2
    endloop
  endfacet
  facet normal -0.587785 -0.809017 0
    outer loop
      vertex 34.2135 30.8817 0
      vertex 34.2135 30.8817 2
      vertex 33.4635 31.4266 2
    endloop
  endfacet
  facet normal -0.587785 -0.809017 0
    outer loop
      vertex 33.4635 31.4266 0
      vertex 34.2135 30.8817 0
      vertex 33.4635 31.4266 2
    endloop
  endfacet
  facet normal -0.951056 -0.309017 0
    outer loop
      vertex 34.5 30 2
      vertex 34.2135 30.8817 2
      vertex 34.5 30 0
    endloop
  endfacet
  facet normal -0.951056 -0.309017 0
    outer loop
      vertex 34.5 30 0
      vertex 34.2135 30.8817 2
      vertex 34.2135 30.8817 0
    endloop
  endfacet
  facet normal -0.951056 0.309017 0
    outer loop
      vertex 34.5 30 2
      vertex 34.5 30 0
      vertex 34.2135 29.1183 2
    endloop
  endfacet
  facet normal -0.951056 0.309017 0
    outer loop
      vertex 34.2135 29.1183 2
      vertex 34.5 30 0
      vertex 34.2135 29.1183 0
    endloop
  endfacet
  facet normal -0.587785 0.809017 0
    outer loop
      vertex 34.2135 29.1183 2
      vertex 34.2135 29.1183 0
      vertex 33.4635 28.5734 2
    endloop
  endfacet
  facet normal -0.587785 0.809017 0
    outer loop
      vertex 33.4635 28.5734 2
      vertex 34.2135 29.1183 0
      vertex 33.4635 28.5734 0
    endloop
  endfacet
  facet normal 0 1 0
    outer loop
      vertex 33.4635 28.5734 2
      vertex 33.4635 28.5734 0
      vertex 32.5365 28.5734 2
    endloop
  endfacet
  facet normal 0 1 0
    outer loop
      vertex 32.5365 28.5734 2
      vertex 33.4635 28.5734 0
      vertex 32.5365 28.5734 0
    endloop
  endfacet
  facet normal 0.587785 0.809017 0
    outer loop
      vertex 32.5365 28.5734 2
      vertex 32.5365 28.5734 0
      vertex 31.7865 29.1183 2
    endloop
  endfacet
  facet normal 0.587785 0.809017 0
    outer loop
      vertex 31.7865 29.1183 2
      vertex 32.5365 28.5734 0
      vertex 31.7865 29.1183 0
    endloop
  endfacet
  facet normal 0 0 1
    outer loop
      vertex 50 2 2
      vertex 50 28 2
      vertex 33 34 2
    endloop
  endfacet
  facet normal 0 0 1
    outer loop
      vertex 18.2135 30.8817 2
      vertex 50 2 2
      vertex 17 34 2
    endloop
  endfacet
  facet normal 0 0 1
    outer loop
      vertex 34.2135 30.8817 2
      vertex 50 2 2
      vertex 33 34 2
    endloop
  endfacet
  facet normal 0 0 1
    outer loop
      vertex 0 2 2
      vertex 50 2 2
      vertex 0 28 2
    endloop
  endfacet
  facet normal 0 0 1
    outer loop
      vertex 18.2135 30.8817 2
      vertex 18.5 30 2
      vertex 50 2 2
    endloop
  endfacet
  facet normal 0 0 1
    outer loop
      vertex 0 28 2
      vertex 15.7865 30.8817 2
      vertex 17 34 2
    endloop
  endfacet
  facet normal 0 0 1
    outer loop
      vertex 0 28 2
      vertex 15.5 30 2
      vertex 15.7865 30.8817 2
    endloop
  endfacet
  facet normal 0 0 1
    outer loop
      vertex 16.5365 31.4266 2
      vertex 17.4635 31.4266 2
      vertex 17 34 2
    endloop
  endfacet
  facet normal 0 0 1
    outer loop
      vertex 17.4635 31.4266 2
      vertex 18.2135 30.8817 2
      vertex 17 34 2
    endloop
  endfacet
  facet normal 0 0 1
    outer loop
      vertex 18.5 30 2
      vertex 18.2135 29.1183 2
      vertex 50 2 2
    endloop
  endfacet
  facet normal 0 0 1
    outer loop
      vertex 17.4635 28.5734 2
      vertex 16.5365 28.5734 2
      vertex 50 2 2
    endloop
  endfacet
  facet normal 0 0 1
    outer loop
      vertex 17.4635 28.5734 2
      vertex 50 2 2
      vertex 18.2135 29.1183 2
    endloop
  endfacet
  facet normal 0 0 1
    outer loop
      vertex 31.7865 30.8817 2
      vertex 32.5365 31.4266 2
      vertex 33 34 2
    endloop
  endfacet
  facet normal 0 0 1
    outer loop
      vertex 0 28 2
      vertex 50 2 2
      vertex 16.5365 28.5734 2
    endloop
  endfacet
  facet normal 0 0 1
    outer loop
      vertex 0 28 2
      vertex 15.7865 29.1183 2
      vertex 15.5 30 2
    endloop
  endfacet
  facet normal 0 0 1
    outer loop
      vertex 0 28 2
      vertex 16.5365 28.5734 2
      vertex 15.7865 29.1183 2
    endloop
  endfacet
  facet normal 0 0 1
    outer loop
      vertex 34.5 30 2
      vertex 34.2135 29.1183 2
      vertex 50 2 2
    endloop
  endfacet
  facet normal 0 0 1
    outer loop
      vertex 17 34 2
      vertex 31.7865 30.8817 2
      vertex 33 34 2
    endloop
  endfacet
  facet normal 0 0 1
    outer loop
      vertex 17 34 2
      vertex 31.5 30 2
      vertex 31.7865 30.8817 2
    endloop
  endfacet
  facet normal 0 0 1
    outer loop
      vertex 32.5365 31.4266 2
      vertex 33.4635 31.4266 2
      vertex 33 34 2
    endloop
  endfacet
  facet normal 0 0 1
    outer loop
      vertex 33.4635 31.4266 2
      vertex 34.2135 30.8817 2
      vertex 33 34 2
    endloop
  endfacet
  facet normal 0 0 1
    outer loop
      vertex 34.5 30 2
      vertex 50 2 2
      vertex 34.2135 30.8817 2
    endloop
  endfacet
  facet normal 0 0 1
    outer loop
      vertex 34.2135 29.1183 2
      vertex 33.4635 28.5734 2
      vertex 50 2 2
    endloop
  endfacet
  facet normal 0 0 1
    outer loop
      vertex 32.5365 28.5734 2
      vertex 31.7865 29.1183 2
      vertex 50 2 2
    endloop
  endfacet
  facet normal 0 0 1
    outer loop
      vertex 32.5365 28.5734 2
      vertex 50 2 2
      vertex 33.4635 28.5734 2
    endloop
  endfacet
  facet normal 0 0 1
    outer loop
      vertex 17 34 2
      vertex 31.7865 29.1183 2
      vertex 31.5 30 2
    endloop
  endfacet
  facet normal 0 0 1
    outer loop
      vertex 17 34 2
      vertex 50 2 2
      vertex 31.7865 29.1183 2
    endloop
  endfacet
  facet normal 0 0 1
    outer loop
      vertex 15.7865 30.8817 2
      vertex 16.5365 31.4266 2
      vertex 17 34 2
    endloop
  endfacet
  facet normal 0 1 0
    outer loop
      vertex 50 2 37
      vertex 50 2 2
      vertex 0 2 37
    endloop
  endfacet
  facet normal 0 1 0
    outer loop
      vertex 0 2 37
      vertex 50 2 2
      vertex 0 2 2
    endloop
  endfacet
  facet normal 0 0 -1
    outer loop
      vertex 34.2135 30.8817 37
      vertex 33 34 37
      vertex 50 28 37
    endloop
  endfacet
  facet normal 0 0 -1
    outer loop
      vertex 0 28 37
      vertex 50 28 37
      vertex 50 2 37
    endloop
  endfacet
  facet normal 0 0 -1
    outer loop
      vertex 0 28 37
      vertex 50 2 37
      vertex 0 2 37
    endloop
  endfacet
  facet normal 0 0 -1
    outer loop
      vertex 17.4635 31.4266 37
      vertex 33 34 37
      vertex 18.2135 30.8817 37
    endloop
  endfacet
  facet normal 0 0 -1
    outer loop
      vertex 0 28 37
      vertex 15.7865 29.1183 37
      vertex 16.5365 28.5734 37
    endloop
  endfacet
  facet normal 0 0 -1
    outer loop
      vertex 0 28 37
      vertex 16.5365 28.5734 37
      vertex 50 28 37
    endloop
  endfacet
  facet normal 0 0 -1
    outer loop
      vertex 16.5365 28.5734 37
      vertex 17.4635 28.5734 37
      vertex 50 28 37
    endloop
  endfacet
  facet normal 0 0 -1
    outer loop
      vertex 18.2135 30.8817 37
      vertex 33 34 37
      vertex 18.5 30 37
    endloop
  endfacet
  facet normal 0 0 -1
    outer loop
      vertex 32.5365 28.5734 37
      vertex 50 28 37
      vertex 17.4635 28.5734 37
    endloop
  endfacet
  facet normal 0 0 -1
    outer loop
      vertex 17 34 37
      vertex 33 34 37
      vertex 17.4635 31.4266 37
    endloop
  endfacet
  facet normal 0 0 -1
    outer loop
      vertex 17 34 37
      vertex 17.4635 31.4266 37
      vertex 16.5365 31.4266 37
    endloop
  endfacet
  facet normal 0 0 -1
    outer loop
      vertex 17 34 37
      vertex 16.5365 31.4266 37
      vertex 0 28 37
    endloop
  endfacet
  facet normal 0 0 -1
    outer loop
      vertex 15.7865 30.8817 37
      vertex 0 28 37
      vertex 16.5365 31.4266 37
    endloop
  endfacet
  facet normal 0 0 -1
    outer loop
      vertex 15.5 30 37
      vertex 0 28 37
      vertex 15.7865 30.8817 37
    endloop
  endfacet
  facet normal 0 0 -1
    outer loop
      vertex 32.5365 28.5734 37
      vertex 18.2135 29.1183 37
      vertex 31.7865 29.1183 37
    endloop
  endfacet
  facet normal 0 0 -1
    outer loop
      vertex 18.2135 29.1183 37
      vertex 32.5365 28.5734 37
      vertex 17.4635 28.5734 37
    endloop
  endfacet
  facet normal 0 0 -1
    outer loop
      vertex 18.5 30 37
      vertex 33 34 37
      vertex 18.2135 29.1183 37
    endloop
  endfacet
  facet normal 0 0 -1
    outer loop
      vertex 34.2135 29.1183 37
      vertex 50 28 37
      vertex 33.4635 28.5734 37
    endloop
  endfacet
  facet normal 0 0 -1
    outer loop
      vertex 32.5365 28.5734 37
      vertex 33.4635 28.5734 37
      vertex 50 28 37
    endloop
  endfacet
  facet normal 0 0 -1
    outer loop
      vertex 31.7865 30.8817 37
      vertex 33 34 37
      vertex 32.5365 31.4266 37
    endloop
  endfacet
  facet normal 0 0 -1
    outer loop
      vertex 33.4635 31.4266 37
      vertex 33 34 37
      vertex 34.2135 30.8817 37
    endloop
  endfacet
  facet normal 0 0 -1
    outer loop
      vertex 34.2135 29.1183 37
      vertex 34.5 30 37
      vertex 50 28 37
    endloop
  endfacet
  facet normal 0 0 -1
    outer loop
      vertex 34.5 30 37
      vertex 34.2135 30.8817 37
      vertex 50 28 37
    endloop
  endfacet
  facet normal 0 0 -1
    outer loop
      vertex 32.5365 31.4266 37
      vertex 33 34 37
      vertex 33.4635 31.4266 37
    endloop
  endfacet
  facet normal 0 0 -1
    outer loop
      vertex 18.2135 29.1183 37
      vertex 33 34 37
      vertex 31.7865 30.8817 37
    endloop
  endfacet
  facet normal 0 0 -1
    outer loop
      vertex 18.2135 29.1183 37
      vertex 31.7865 30.8817 37
      vertex 31.5 30 37
    endloop
  endfacet
  facet normal 0 0 -1
    outer loop
      vertex 18.2135 29.1183 37
      vertex 31.5 30 37
      vertex 31.7865 29.1183 37
    endloop
  endfacet
  facet normal 0 0 -1
    outer loop
      vertex 15.7865 29.1183 37
      vertex 0 28 37
      vertex 15.5 30 37
    endloop
  endfacet
  facet normal -0.33282 0.94299 0
    outer loop
      vertex 0 28 37
      vertex 0 28 39
      vertex 17 34 37
    endloop
  endfacet
  facet normal -0.33282 0.94299 0
    outer loop
      vertex 17 34 37
      vertex 0 28 39
      vertex 17 34 39
    endloop
  endfacet
  facet normal 0 1 0
    outer loop
      vertex 17 34 37
      vertex 17 34 39
      vertex 33 34 37
    endloop
  endfacet
  facet normal 0 1 0
    outer loop
      vertex 33 34 37
      vertex 17 34 39
      vertex 33 34 39
    endloop
  endfacet
  facet normal 0.33282 0.94299 0
    outer loop
      vertex 33 34 37
      vertex 33 34 39
      vertex 50 28 37
    endloop
  endfacet
  facet normal 0.33282 0.94299 0
    outer loop
      vertex 50 28 37
      vertex 33 34 39
      vertex 50 28 39
    endloop
  endfacet
  facet normal 0.951056 0.309017 0
    outer loop
      vertex 15.5 30 39
      vertex 15.7865 29.1183 39
      vertex 15.7865 29.1183 37
    endloop
  endfacet
  facet normal 0.951056 0.309017 0
    outer loop
      vertex 15.5 30 37
      vertex 15.5 30 39
      vertex 15.7865 29.1183 37
    endloop
  endfacet
  facet normal 0.587785 0.809017 0
    outer loop
      vertex 16.5365 28.5734 39
      vertex 16.5365 28.5734 37
      vertex 15.7865 29.1183 39
    endloop
  endfacet
  facet normal 0.587785 0.809017 0
    outer loop
      vertex 15.7865 29.1183 39
      vertex 16.5365 28.5734 37
      vertex 15.7865 29.1183 37
    endloop
  endfacet
  facet normal 0 1 0
    outer loop
      vertex 17.4635 28.5734 39
      vertex 17.4635 28.5734 37
      vertex 16.5365 28.5734 39
    endloop
  endfacet
  facet normal 0 1 0
    outer loop
      vertex 16.5365 28.5734 39
      vertex 17.4635 28.5734 37
      vertex 16.5365 28.5734 37
    endloop
  endfacet
  facet normal -0.587785 0.809017 0
    outer loop
      vertex 18.2135 29.1183 39
      vertex 18.2135 29.1183 37
      vertex 17.4635 28.5734 39
    endloop
  endfacet
  facet normal -0.587785 0.809017 0
    outer loop
      vertex 17.4635 28.5734 39
      vertex 18.2135 29.1183 37
      vertex 17.4635 28.5734 37
    endloop
  endfacet
  facet normal -0.951056 0.309017 0
    outer loop
      vertex 18.5 30 39
      vertex 18.5 30 37
      vertex 18.2135 29.1183 39
    endloop
  endfacet
  facet normal -0.951056 0.309017 0
    outer loop
      vertex 18.2135 29.1183 39
      vertex 18.5 30 37
      vertex 18.2135 29.1183 37
    endloop
  endfacet
  facet normal -0.951056 -0.309017 0
    outer loop
      vertex 18.5 30 39
      vertex 18.2135 30.8817 39
      vertex 18.5 30 37
    endloop
  endfacet
  facet normal -0.951056 -0.309017 0
    outer loop
      vertex 18.5 30 37
      vertex 18.2135 30.8817 39
      vertex 18.2135 30.8817 37
    endloop
  endfacet
  facet normal -0.587785 -0.809017 0
    outer loop
      vertex 18.2135 30.8817 37
      vertex 18.2135 30.8817 39
      vertex 17.4635 31.4266 39
    endloop
  endfacet
  facet normal -0.587785 -0.809017 0
    outer loop
      vertex 17.4635 31.4266 37
      vertex 18.2135 30.8817 37
      vertex 17.4635 31.4266 39
    endloop
  endfacet
  facet normal 0 -1 0
    outer loop
      vertex 17.4635 31.4266 37
      vertex 17.4635 31.4266 39
      vertex 16.5365 31.4266 39
    endloop
  endfacet
  facet normal 0 -1 0
    outer loop
      vertex 16.5365 31.4266 37
      vertex 17.4635 31.4266 37
      vertex 16.5365 31.4266 39
    endloop
  endfacet
  facet normal 0.587785 -0.809017 0
    outer loop
      vertex 16.5365 31.4266 37
      vertex 16.5365 31.4266 39
      vertex 15.7865 30.8817 39
    endloop
  endfacet
  facet normal 0.587785 -0.809017 0
    outer loop
      vertex 15.7865 30.8817 37
      vertex 16.5365 31.4266 37
      vertex 15.7865 30.8817 39
    endloop
  endfacet
  facet normal 0.951056 -0.309017 0
    outer loop
      vertex 15.7865 30.8817 37
      vertex 15.7865 30.8817 39
      vertex 15.5 30 39
    endloop
  endfacet
  facet normal 0.951056 -0.309017 0
    outer loop
      vertex 15.5 30 37
      vertex 15.7865 30.8817 37
      vertex 15.5 30 39
    endloop
  endfacet
  facet normal 0.951056 0.309017 0
    outer loop
      vertex 31.5 30 39
      vertex 31.7865 29.1183 39
      vertex 31.7865 29.1183 37
    endloop
  endfacet
  facet normal 0.951056 0.309017 0
    outer loop
      vertex 31.5 30 37
      vertex 31.5 30 39
      vertex 31.7865 29.1183 37
    endloop
  endfacet
  facet normal 0.587785 0.809017 0
    outer loop
      vertex 32.5365 28.5734 39
      vertex 32.5365 28.5734 37
      vertex 31.7865 29.1183 39
    endloop
  endfacet
  facet normal 0.587785 0.809017 0
    outer loop
      vertex 31.7865 29.1183 39
      vertex 32.5365 28.5734 37
      vertex 31.7865 29.1183 37
    endloop
  endfacet
  facet normal 0 1 0
    outer loop
      vertex 33.4635 28.5734 39
      vertex 33.4635 28.5734 37
      vertex 32.5365 28.5734 39
    endloop
  endfacet
  facet normal 0 1 0
    outer loop
      vertex 32.5365 28.5734 39
      vertex 33.4635 28.5734 37
      vertex 32.5365 28.5734 37
    endloop
  endfacet
  facet normal -0.587785 0.809017 0
    outer loop
      vertex 34.2135 29.1183 39
      vertex 34.2135 29.1183 37
      vertex 33.4635 28.5734 39
    endloop
  endfacet
  facet normal -0.587785 0.809017 0
    outer loop
      vertex 33.4635 28.5734 39
      vertex 34.2135 29.1183 37
      vertex 33.4635 28.5734 37
    endloop
  endfacet
  facet normal -0.951056 0.309017 0
    outer loop
      vertex 34.5 30 39
      vertex 34.5 30 37
      vertex 34.2135 29.1183 39
    endloop
  endfacet
  facet normal -0.951056 0.309017 0
    outer loop
      vertex 34.2135 29.1183 39
      vertex 34.5 30 37
      vertex 34.2135 29.1183 37
    endloop
  endfacet
  facet normal -0.951056 -0.309017 0
    outer loop
      vertex 34.5 30 39
      vertex 34.2135 30.8817 39
      vertex 34.5 30 37
    endloop
  endfacet
  facet normal -0.951056 -0.309017 0
    outer loop
      vertex 34.5 30 37
      vertex 34.2135 30.8817 39
      vertex 34.2135 30.8817 37
    endloop
  endfacet
  facet normal -0.587785 -0.809017 0
    outer loop
      vertex 34.2135 30.8817 37
      vertex 34.2135 30.8817 39
      vertex 33.4635 31.4266 39
    endloop
  endfacet
  facet normal -0.587785 -0.809017 0
    outer loop
      vertex 33.4635 31.4266 37
      vertex 34.2135 30.8817 37
      vertex 33.4635 31.4266 39
    endloop
  endfacet
  facet normal 0 -1 0
    outer loop
      vertex 33.4635 31.4266 37
      vertex 33.4635 31.4266 39
      vertex 32.5365 31.4266 39
    endloop
  endfacet
  facet normal 0 -1 0
    outer loop
      vertex 32.5365 31.4266 37
      vertex 33.4635 31.4266 37
      vertex 32.5365 31.4266 39
    endloop
  endfacet
  facet normal 0.587785 -0.809017 0
    outer loop
      vertex 32.5365 31.4266 37
      vertex 32.5365 31.4266 39
      vertex 31.7865 30.8817 39
    endloop
  endfacet
  facet normal 0.587785 -0.809017 0
    outer loop
      vertex 31.7865 30.8817 37
      vertex 32.5365 31.4266 37
      vertex 31.7865 30.8817 39
    endloop
  endfacet
  facet normal 0.951056 -0.309017 0
    outer loop
      vertex 31.7865 30.8817 37
      vertex 31.7865 30.8817 39
      vertex 31.5 30 39
    endloop
  endfacet
  facet normal 0.951056 -0.309017 0
    outer loop
      vertex 31.5 30 37
      vertex 31.7865 30.8817 37
      vertex 31.5 30 39
    endloop
  endfacet
endsolid OpenSCAD_Model
