G04 (created by PCBNEW-RS274X (2012-apr-16-27)-stable) date lun 12 may 2014 23:04:42 CEST*
G01*
G70*
G90*
%MOIN*%
G04 Gerber Fmt 3.4, Leading zero omitted, Abs format*
%FSLAX34Y34*%
G04 APERTURE LIST*
%ADD10C,0.000200*%
%ADD11C,0.008000*%
%ADD12C,0.006000*%
%ADD13C,0.010000*%
%ADD14C,0.015000*%
%ADD15C,0.005000*%
%ADD16C,0.011300*%
G04 APERTURE END LIST*
G54D10*
G54D11*
X82500Y-32500D02*
X82500Y-29500D01*
X82500Y-29500D02*
X84500Y-29500D01*
X84500Y-32500D02*
X82500Y-32500D01*
X86500Y-29500D02*
X86500Y-32500D01*
X84500Y-29500D02*
X86500Y-29500D01*
X86500Y-32500D02*
X84500Y-32500D01*
G54D12*
X90500Y-32500D02*
X89500Y-32500D01*
X89500Y-32500D02*
X89500Y-29500D01*
X89500Y-29500D02*
X90500Y-29500D01*
X90500Y-29500D02*
X90500Y-32500D01*
X92500Y-32500D02*
X91500Y-32500D01*
X91500Y-32500D02*
X91500Y-29500D01*
X91500Y-29500D02*
X92500Y-29500D01*
X92500Y-29500D02*
X92500Y-32500D01*
G54D11*
X98000Y-41000D02*
X98000Y-40800D01*
X98000Y-38000D02*
X98000Y-38200D01*
X98000Y-38200D02*
X97600Y-38200D01*
X97600Y-38200D02*
X97600Y-40800D01*
X97600Y-40800D02*
X98400Y-40800D01*
X98400Y-40800D02*
X98400Y-38200D01*
X98400Y-38200D02*
X98000Y-38200D01*
X97800Y-40800D02*
X97600Y-40600D01*
X95000Y-41000D02*
X95000Y-40800D01*
X95000Y-38000D02*
X95000Y-38200D01*
X95000Y-38200D02*
X94600Y-38200D01*
X94600Y-38200D02*
X94600Y-40800D01*
X94600Y-40800D02*
X95400Y-40800D01*
X95400Y-40800D02*
X95400Y-38200D01*
X95400Y-38200D02*
X95000Y-38200D01*
X94800Y-40800D02*
X94600Y-40600D01*
X99500Y-41000D02*
X99500Y-40800D01*
X99500Y-38000D02*
X99500Y-38200D01*
X99500Y-38200D02*
X99100Y-38200D01*
X99100Y-38200D02*
X99100Y-40800D01*
X99100Y-40800D02*
X99900Y-40800D01*
X99900Y-40800D02*
X99900Y-38200D01*
X99900Y-38200D02*
X99500Y-38200D01*
X99300Y-40800D02*
X99100Y-40600D01*
X96500Y-41000D02*
X96500Y-40800D01*
X96500Y-38000D02*
X96500Y-38200D01*
X96500Y-38200D02*
X96100Y-38200D01*
X96100Y-38200D02*
X96100Y-40800D01*
X96100Y-40800D02*
X96900Y-40800D01*
X96900Y-40800D02*
X96900Y-38200D01*
X96900Y-38200D02*
X96500Y-38200D01*
X96300Y-40800D02*
X96100Y-40600D01*
G54D13*
X103000Y-29000D02*
X103000Y-33000D01*
X102000Y-29000D02*
X102000Y-33000D01*
X102000Y-33000D02*
X103000Y-33000D01*
X103000Y-29000D02*
X102000Y-29000D01*
X81000Y-29000D02*
X81000Y-33000D01*
X80000Y-29000D02*
X80000Y-33000D01*
X80000Y-33000D02*
X81000Y-33000D01*
X81000Y-29000D02*
X80000Y-29000D01*
X105000Y-29000D02*
X105000Y-33000D01*
X104000Y-29000D02*
X104000Y-33000D01*
X104000Y-33000D02*
X105000Y-33000D01*
X105000Y-29000D02*
X104000Y-29000D01*
G54D12*
X88500Y-32500D02*
X87500Y-32500D01*
X87500Y-32500D02*
X87500Y-29500D01*
X87500Y-29500D02*
X88500Y-29500D01*
X88500Y-29500D02*
X88500Y-32500D01*
X87500Y-31500D02*
X88500Y-31500D01*
X96500Y-29500D02*
X97500Y-29500D01*
X97500Y-29500D02*
X97500Y-32500D01*
X97500Y-32500D02*
X96500Y-32500D01*
X96500Y-32500D02*
X96500Y-29500D01*
X97500Y-30500D02*
X96500Y-30500D01*
X99000Y-42500D02*
X99000Y-43500D01*
X99000Y-43500D02*
X97000Y-43500D01*
X97000Y-43500D02*
X97000Y-42500D01*
X97000Y-42500D02*
X99000Y-42500D01*
G54D14*
X80000Y-43500D02*
X80000Y-44500D01*
X80000Y-44500D02*
X100000Y-44500D01*
X100000Y-44500D02*
X100000Y-43500D01*
X100000Y-43500D02*
X80000Y-43500D01*
X80000Y-33500D02*
X80000Y-34500D01*
X80000Y-34500D02*
X100000Y-34500D01*
X100000Y-34500D02*
X100000Y-33500D01*
X100000Y-33500D02*
X80000Y-33500D01*
X100000Y-35500D02*
X100000Y-34500D01*
X100000Y-34500D02*
X80000Y-34500D01*
X80000Y-34500D02*
X80000Y-35500D01*
X80000Y-35500D02*
X100000Y-35500D01*
G54D13*
X86250Y-37250D02*
X86500Y-37250D01*
X86500Y-37250D02*
X86500Y-40750D01*
X86500Y-40750D02*
X86250Y-40750D01*
X84750Y-37250D02*
X86250Y-37250D01*
X86250Y-37250D02*
X86250Y-40750D01*
X86250Y-40750D02*
X84750Y-40750D01*
X84750Y-40750D02*
X84750Y-37250D01*
G54D15*
X83250Y-40500D02*
X83226Y-40742D01*
X83155Y-40976D01*
X83041Y-41191D01*
X82886Y-41380D01*
X82698Y-41536D01*
X82484Y-41652D01*
X82251Y-41724D01*
X82008Y-41749D01*
X81766Y-41727D01*
X81532Y-41658D01*
X81316Y-41545D01*
X81126Y-41393D01*
X80969Y-41206D01*
X80852Y-40992D01*
X80778Y-40759D01*
X80751Y-40517D01*
X80771Y-40275D01*
X80838Y-40040D01*
X80950Y-39823D01*
X81101Y-39632D01*
X81287Y-39474D01*
X81500Y-39355D01*
X81732Y-39280D01*
X81974Y-39251D01*
X82217Y-39269D01*
X82452Y-39335D01*
X82669Y-39445D01*
X82862Y-39595D01*
X83021Y-39780D01*
X83141Y-39992D01*
X83218Y-40224D01*
X83249Y-40466D01*
X83250Y-40500D01*
X83250Y-37500D02*
X83226Y-37742D01*
X83155Y-37976D01*
X83041Y-38191D01*
X82886Y-38380D01*
X82698Y-38536D01*
X82484Y-38652D01*
X82251Y-38724D01*
X82008Y-38749D01*
X81766Y-38727D01*
X81532Y-38658D01*
X81316Y-38545D01*
X81126Y-38393D01*
X80969Y-38206D01*
X80852Y-37992D01*
X80778Y-37759D01*
X80751Y-37517D01*
X80771Y-37275D01*
X80838Y-37040D01*
X80950Y-36823D01*
X81101Y-36632D01*
X81287Y-36474D01*
X81500Y-36355D01*
X81732Y-36280D01*
X81974Y-36251D01*
X82217Y-36269D01*
X82452Y-36335D01*
X82669Y-36445D01*
X82862Y-36595D01*
X83021Y-36780D01*
X83141Y-36992D01*
X83218Y-37224D01*
X83249Y-37466D01*
X83250Y-37500D01*
G54D11*
X82143Y-31457D02*
X82162Y-31495D01*
X82162Y-31572D01*
X82143Y-31610D01*
X82124Y-31629D01*
X82086Y-31648D01*
X81971Y-31648D01*
X81933Y-31629D01*
X81914Y-31610D01*
X81895Y-31572D01*
X81895Y-31495D01*
X81914Y-31457D01*
X82162Y-31229D02*
X82143Y-31267D01*
X82124Y-31286D01*
X82086Y-31305D01*
X81971Y-31305D01*
X81933Y-31286D01*
X81914Y-31267D01*
X81895Y-31229D01*
X81895Y-31171D01*
X81914Y-31133D01*
X81933Y-31114D01*
X81971Y-31095D01*
X82086Y-31095D01*
X82124Y-31114D01*
X82143Y-31133D01*
X82162Y-31171D01*
X82162Y-31229D01*
X81895Y-30924D02*
X82162Y-30924D01*
X81933Y-30924D02*
X81914Y-30905D01*
X81895Y-30867D01*
X81895Y-30809D01*
X81914Y-30771D01*
X81952Y-30752D01*
X82162Y-30752D01*
X81933Y-30505D02*
X81914Y-30543D01*
X81895Y-30562D01*
X81857Y-30581D01*
X81838Y-30581D01*
X81800Y-30562D01*
X81781Y-30543D01*
X81762Y-30505D01*
X81762Y-30428D01*
X81781Y-30390D01*
X81800Y-30371D01*
X81838Y-30352D01*
X81857Y-30352D01*
X81895Y-30371D01*
X81914Y-30390D01*
X81933Y-30428D01*
X81933Y-30505D01*
X81952Y-30543D01*
X81971Y-30562D01*
X82010Y-30581D01*
X82086Y-30581D01*
X82124Y-30562D01*
X82143Y-30543D01*
X82162Y-30505D01*
X82162Y-30428D01*
X82143Y-30390D01*
X82124Y-30371D01*
X82086Y-30352D01*
X82010Y-30352D01*
X81971Y-30371D01*
X81952Y-30390D01*
X81933Y-30428D01*
X84143Y-31457D02*
X84162Y-31495D01*
X84162Y-31572D01*
X84143Y-31610D01*
X84124Y-31629D01*
X84086Y-31648D01*
X83971Y-31648D01*
X83933Y-31629D01*
X83914Y-31610D01*
X83895Y-31572D01*
X83895Y-31495D01*
X83914Y-31457D01*
X84162Y-31229D02*
X84143Y-31267D01*
X84124Y-31286D01*
X84086Y-31305D01*
X83971Y-31305D01*
X83933Y-31286D01*
X83914Y-31267D01*
X83895Y-31229D01*
X83895Y-31171D01*
X83914Y-31133D01*
X83933Y-31114D01*
X83971Y-31095D01*
X84086Y-31095D01*
X84124Y-31114D01*
X84143Y-31133D01*
X84162Y-31171D01*
X84162Y-31229D01*
X83895Y-30924D02*
X84162Y-30924D01*
X83933Y-30924D02*
X83914Y-30905D01*
X83895Y-30867D01*
X83895Y-30809D01*
X83914Y-30771D01*
X83952Y-30752D01*
X84162Y-30752D01*
X84162Y-30543D02*
X84162Y-30467D01*
X84143Y-30428D01*
X84124Y-30409D01*
X84067Y-30371D01*
X83990Y-30352D01*
X83838Y-30352D01*
X83800Y-30371D01*
X83781Y-30390D01*
X83762Y-30428D01*
X83762Y-30505D01*
X83781Y-30543D01*
X83800Y-30562D01*
X83838Y-30581D01*
X83933Y-30581D01*
X83971Y-30562D01*
X83990Y-30543D01*
X84010Y-30505D01*
X84010Y-30428D01*
X83990Y-30390D01*
X83971Y-30371D01*
X83933Y-30352D01*
G54D12*
X89293Y-31967D02*
X89312Y-31910D01*
X89312Y-31814D01*
X89293Y-31776D01*
X89274Y-31757D01*
X89236Y-31738D01*
X89198Y-31738D01*
X89160Y-31757D01*
X89140Y-31776D01*
X89121Y-31814D01*
X89102Y-31891D01*
X89083Y-31929D01*
X89064Y-31948D01*
X89026Y-31967D01*
X88988Y-31967D01*
X88950Y-31948D01*
X88931Y-31929D01*
X88912Y-31891D01*
X88912Y-31795D01*
X88931Y-31738D01*
X89102Y-31567D02*
X89102Y-31433D01*
X89312Y-31376D02*
X89312Y-31567D01*
X88912Y-31567D01*
X88912Y-31376D01*
X89312Y-30976D02*
X89121Y-31110D01*
X89312Y-31205D02*
X88912Y-31205D01*
X88912Y-31052D01*
X88931Y-31014D01*
X88950Y-30995D01*
X88988Y-30976D01*
X89045Y-30976D01*
X89083Y-30995D01*
X89102Y-31014D01*
X89121Y-31052D01*
X89121Y-31205D01*
X88912Y-30862D02*
X89312Y-30729D01*
X88912Y-30595D01*
X88912Y-30386D02*
X88912Y-30309D01*
X88931Y-30271D01*
X88969Y-30233D01*
X89045Y-30214D01*
X89179Y-30214D01*
X89255Y-30233D01*
X89293Y-30271D01*
X89312Y-30309D01*
X89312Y-30386D01*
X89293Y-30424D01*
X89255Y-30462D01*
X89179Y-30481D01*
X89045Y-30481D01*
X88969Y-30462D01*
X88931Y-30424D01*
X88912Y-30386D01*
X89312Y-29833D02*
X89312Y-30062D01*
X89312Y-29948D02*
X88912Y-29948D01*
X88969Y-29986D01*
X89007Y-30024D01*
X89026Y-30062D01*
X91293Y-31967D02*
X91312Y-31910D01*
X91312Y-31814D01*
X91293Y-31776D01*
X91274Y-31757D01*
X91236Y-31738D01*
X91198Y-31738D01*
X91160Y-31757D01*
X91140Y-31776D01*
X91121Y-31814D01*
X91102Y-31891D01*
X91083Y-31929D01*
X91064Y-31948D01*
X91026Y-31967D01*
X90988Y-31967D01*
X90950Y-31948D01*
X90931Y-31929D01*
X90912Y-31891D01*
X90912Y-31795D01*
X90931Y-31738D01*
X91102Y-31567D02*
X91102Y-31433D01*
X91312Y-31376D02*
X91312Y-31567D01*
X90912Y-31567D01*
X90912Y-31376D01*
X91312Y-30976D02*
X91121Y-31110D01*
X91312Y-31205D02*
X90912Y-31205D01*
X90912Y-31052D01*
X90931Y-31014D01*
X90950Y-30995D01*
X90988Y-30976D01*
X91045Y-30976D01*
X91083Y-30995D01*
X91102Y-31014D01*
X91121Y-31052D01*
X91121Y-31205D01*
X90912Y-30862D02*
X91312Y-30729D01*
X90912Y-30595D01*
X90912Y-30386D02*
X90912Y-30309D01*
X90931Y-30271D01*
X90969Y-30233D01*
X91045Y-30214D01*
X91179Y-30214D01*
X91255Y-30233D01*
X91293Y-30271D01*
X91312Y-30309D01*
X91312Y-30386D01*
X91293Y-30424D01*
X91255Y-30462D01*
X91179Y-30481D01*
X91045Y-30481D01*
X90969Y-30462D01*
X90931Y-30424D01*
X90912Y-30386D01*
X90950Y-30062D02*
X90931Y-30043D01*
X90912Y-30005D01*
X90912Y-29909D01*
X90931Y-29871D01*
X90950Y-29852D01*
X90988Y-29833D01*
X91026Y-29833D01*
X91083Y-29852D01*
X91312Y-30081D01*
X91312Y-29833D01*
G54D11*
X98273Y-39571D02*
X98011Y-39738D01*
X98273Y-39857D02*
X97723Y-39857D01*
X97723Y-39666D01*
X97749Y-39619D01*
X97775Y-39595D01*
X97827Y-39571D01*
X97906Y-39571D01*
X97958Y-39595D01*
X97985Y-39619D01*
X98011Y-39666D01*
X98011Y-39857D01*
X98273Y-39357D02*
X97723Y-39357D01*
X97932Y-39357D02*
X97906Y-39309D01*
X97906Y-39214D01*
X97932Y-39166D01*
X97958Y-39143D01*
X98011Y-39119D01*
X98168Y-39119D01*
X98220Y-39143D01*
X98246Y-39166D01*
X98273Y-39214D01*
X98273Y-39309D01*
X98246Y-39357D01*
X95273Y-39571D02*
X95011Y-39738D01*
X95273Y-39857D02*
X94723Y-39857D01*
X94723Y-39666D01*
X94749Y-39619D01*
X94775Y-39595D01*
X94827Y-39571D01*
X94906Y-39571D01*
X94958Y-39595D01*
X94985Y-39619D01*
X95011Y-39666D01*
X95011Y-39857D01*
X95273Y-39143D02*
X94985Y-39143D01*
X94932Y-39166D01*
X94906Y-39214D01*
X94906Y-39309D01*
X94932Y-39357D01*
X95246Y-39143D02*
X95273Y-39190D01*
X95273Y-39309D01*
X95246Y-39357D01*
X95194Y-39381D01*
X95142Y-39381D01*
X95089Y-39357D01*
X95063Y-39309D01*
X95063Y-39190D01*
X95037Y-39143D01*
X99773Y-39571D02*
X99511Y-39738D01*
X99773Y-39857D02*
X99223Y-39857D01*
X99223Y-39666D01*
X99249Y-39619D01*
X99275Y-39595D01*
X99327Y-39571D01*
X99406Y-39571D01*
X99458Y-39595D01*
X99485Y-39619D01*
X99511Y-39666D01*
X99511Y-39857D01*
X99773Y-39143D02*
X99485Y-39143D01*
X99432Y-39166D01*
X99406Y-39214D01*
X99406Y-39309D01*
X99432Y-39357D01*
X99746Y-39143D02*
X99773Y-39190D01*
X99773Y-39309D01*
X99746Y-39357D01*
X99694Y-39381D01*
X99642Y-39381D01*
X99589Y-39357D01*
X99563Y-39309D01*
X99563Y-39190D01*
X99537Y-39143D01*
X96773Y-39571D02*
X96511Y-39738D01*
X96773Y-39857D02*
X96223Y-39857D01*
X96223Y-39666D01*
X96249Y-39619D01*
X96275Y-39595D01*
X96327Y-39571D01*
X96406Y-39571D01*
X96458Y-39595D01*
X96485Y-39619D01*
X96511Y-39666D01*
X96511Y-39857D01*
X96773Y-39357D02*
X96223Y-39357D01*
X96432Y-39357D02*
X96406Y-39309D01*
X96406Y-39214D01*
X96432Y-39166D01*
X96458Y-39143D01*
X96511Y-39119D01*
X96668Y-39119D01*
X96720Y-39143D01*
X96746Y-39166D01*
X96773Y-39214D01*
X96773Y-39309D01*
X96746Y-39357D01*
X101662Y-31628D02*
X101262Y-31628D01*
X101662Y-31438D02*
X101262Y-31438D01*
X101548Y-31304D01*
X101262Y-31171D01*
X101662Y-31171D01*
X101262Y-30981D02*
X101586Y-30981D01*
X101624Y-30962D01*
X101643Y-30943D01*
X101662Y-30905D01*
X101662Y-30828D01*
X101643Y-30790D01*
X101624Y-30771D01*
X101586Y-30752D01*
X101262Y-30752D01*
X101662Y-30352D02*
X101662Y-30581D01*
X101662Y-30467D02*
X101262Y-30467D01*
X101319Y-30505D01*
X101357Y-30543D01*
X101376Y-30581D01*
X79662Y-31390D02*
X79262Y-31390D01*
X79662Y-30971D02*
X79471Y-31105D01*
X79662Y-31200D02*
X79262Y-31200D01*
X79262Y-31047D01*
X79281Y-31009D01*
X79300Y-30990D01*
X79338Y-30971D01*
X79395Y-30971D01*
X79433Y-30990D01*
X79452Y-31009D01*
X79471Y-31047D01*
X79471Y-31200D01*
X79662Y-30590D02*
X79662Y-30819D01*
X79662Y-30705D02*
X79262Y-30705D01*
X79319Y-30743D01*
X79357Y-30781D01*
X79376Y-30819D01*
X103662Y-31390D02*
X103262Y-31390D01*
X103662Y-30971D02*
X103471Y-31105D01*
X103662Y-31200D02*
X103262Y-31200D01*
X103262Y-31047D01*
X103281Y-31009D01*
X103300Y-30990D01*
X103338Y-30971D01*
X103395Y-30971D01*
X103433Y-30990D01*
X103452Y-31009D01*
X103471Y-31047D01*
X103471Y-31200D01*
X103300Y-30819D02*
X103281Y-30800D01*
X103262Y-30762D01*
X103262Y-30666D01*
X103281Y-30628D01*
X103300Y-30609D01*
X103338Y-30590D01*
X103376Y-30590D01*
X103433Y-30609D01*
X103662Y-30838D01*
X103662Y-30590D01*
G54D12*
X87312Y-31757D02*
X86912Y-31757D01*
X87102Y-31757D02*
X87102Y-31528D01*
X87312Y-31528D02*
X86912Y-31528D01*
X87102Y-31338D02*
X87102Y-31204D01*
X87312Y-31147D02*
X87312Y-31338D01*
X86912Y-31338D01*
X86912Y-31147D01*
X87198Y-30995D02*
X87198Y-30804D01*
X87312Y-31033D02*
X86912Y-30900D01*
X87312Y-30766D01*
X87312Y-30633D02*
X86912Y-30633D01*
X86912Y-30538D01*
X86931Y-30480D01*
X86969Y-30442D01*
X87007Y-30423D01*
X87083Y-30404D01*
X87140Y-30404D01*
X87217Y-30423D01*
X87255Y-30442D01*
X87293Y-30480D01*
X87312Y-30538D01*
X87312Y-30633D01*
X87312Y-30023D02*
X87312Y-30252D01*
X87312Y-30138D02*
X86912Y-30138D01*
X86969Y-30176D01*
X87007Y-30214D01*
X87026Y-30252D01*
X98012Y-32805D02*
X97612Y-32805D01*
X97612Y-32710D01*
X97631Y-32652D01*
X97669Y-32614D01*
X97707Y-32595D01*
X97783Y-32576D01*
X97840Y-32576D01*
X97917Y-32595D01*
X97955Y-32614D01*
X97993Y-32652D01*
X98012Y-32710D01*
X98012Y-32805D01*
X97821Y-32329D02*
X98012Y-32329D01*
X97612Y-32462D02*
X97821Y-32329D01*
X97612Y-32195D01*
X98012Y-32062D02*
X97612Y-32062D01*
X98012Y-31833D01*
X97612Y-31833D01*
X97898Y-31662D02*
X97898Y-31471D01*
X98012Y-31700D02*
X97612Y-31567D01*
X98012Y-31433D01*
X98012Y-31300D02*
X97612Y-31300D01*
X97898Y-31166D01*
X97612Y-31033D01*
X98012Y-31033D01*
X98012Y-30843D02*
X97612Y-30843D01*
X97612Y-30691D02*
X98012Y-30424D01*
X97612Y-30424D02*
X98012Y-30691D01*
X97802Y-30272D02*
X97802Y-30138D01*
X98012Y-30081D02*
X98012Y-30272D01*
X97612Y-30272D01*
X97612Y-30081D01*
X98012Y-29719D02*
X98012Y-29910D01*
X97612Y-29910D01*
X98012Y-29376D02*
X98012Y-29605D01*
X98012Y-29491D02*
X97612Y-29491D01*
X97669Y-29529D01*
X97707Y-29567D01*
X97726Y-29605D01*
X97107Y-43714D02*
X97150Y-43729D01*
X97165Y-43743D01*
X97179Y-43771D01*
X97179Y-43814D01*
X97165Y-43843D01*
X97150Y-43857D01*
X97122Y-43871D01*
X97007Y-43871D01*
X97007Y-43571D01*
X97107Y-43571D01*
X97136Y-43586D01*
X97150Y-43600D01*
X97165Y-43629D01*
X97165Y-43657D01*
X97150Y-43686D01*
X97136Y-43700D01*
X97107Y-43714D01*
X97007Y-43714D01*
X97293Y-43786D02*
X97436Y-43786D01*
X97265Y-43871D02*
X97365Y-43571D01*
X97465Y-43871D01*
X97522Y-43571D02*
X97693Y-43571D01*
X97607Y-43871D02*
X97607Y-43571D01*
X97751Y-43571D02*
X97922Y-43571D01*
X97836Y-43871D02*
X97836Y-43571D01*
X98022Y-43714D02*
X98122Y-43714D01*
X98165Y-43871D02*
X98022Y-43871D01*
X98022Y-43571D01*
X98165Y-43571D01*
X98465Y-43871D02*
X98365Y-43729D01*
X98293Y-43871D02*
X98293Y-43571D01*
X98408Y-43571D01*
X98436Y-43586D01*
X98451Y-43600D01*
X98465Y-43629D01*
X98465Y-43671D01*
X98451Y-43700D01*
X98436Y-43714D01*
X98408Y-43729D01*
X98293Y-43729D01*
X98651Y-43729D02*
X98651Y-43871D01*
X98551Y-43571D02*
X98651Y-43729D01*
X98751Y-43571D01*
X99008Y-43871D02*
X98836Y-43871D01*
X98922Y-43871D02*
X98922Y-43571D01*
X98893Y-43614D01*
X98865Y-43643D01*
X98836Y-43657D01*
G54D13*
X89543Y-42143D02*
X89505Y-42162D01*
X89428Y-42162D01*
X89390Y-42143D01*
X89371Y-42124D01*
X89352Y-42086D01*
X89352Y-41971D01*
X89371Y-41933D01*
X89390Y-41914D01*
X89428Y-41895D01*
X89505Y-41895D01*
X89543Y-41914D01*
X89771Y-42162D02*
X89733Y-42143D01*
X89714Y-42124D01*
X89695Y-42086D01*
X89695Y-41971D01*
X89714Y-41933D01*
X89733Y-41914D01*
X89771Y-41895D01*
X89829Y-41895D01*
X89867Y-41914D01*
X89886Y-41933D01*
X89905Y-41971D01*
X89905Y-42086D01*
X89886Y-42124D01*
X89867Y-42143D01*
X89829Y-42162D01*
X89771Y-42162D01*
X90076Y-41895D02*
X90076Y-42162D01*
X90076Y-41933D02*
X90095Y-41914D01*
X90133Y-41895D01*
X90191Y-41895D01*
X90229Y-41914D01*
X90248Y-41952D01*
X90248Y-42162D01*
X90419Y-41800D02*
X90438Y-41781D01*
X90476Y-41762D01*
X90572Y-41762D01*
X90610Y-41781D01*
X90629Y-41800D01*
X90648Y-41838D01*
X90648Y-41876D01*
X90629Y-41933D01*
X90400Y-42162D01*
X90648Y-42162D01*
G54D11*
X89000Y-44762D02*
X89077Y-44762D01*
X89115Y-44781D01*
X89153Y-44819D01*
X89172Y-44895D01*
X89172Y-45029D01*
X89153Y-45105D01*
X89115Y-45143D01*
X89077Y-45162D01*
X89000Y-45162D01*
X88962Y-45143D01*
X88924Y-45105D01*
X88905Y-45029D01*
X88905Y-44895D01*
X88924Y-44819D01*
X88962Y-44781D01*
X89000Y-44762D01*
X89343Y-44895D02*
X89343Y-45295D01*
X89343Y-44914D02*
X89381Y-44895D01*
X89458Y-44895D01*
X89496Y-44914D01*
X89515Y-44933D01*
X89534Y-44971D01*
X89534Y-45086D01*
X89515Y-45124D01*
X89496Y-45143D01*
X89458Y-45162D01*
X89381Y-45162D01*
X89343Y-45143D01*
X89858Y-45143D02*
X89820Y-45162D01*
X89743Y-45162D01*
X89705Y-45143D01*
X89686Y-45105D01*
X89686Y-44952D01*
X89705Y-44914D01*
X89743Y-44895D01*
X89820Y-44895D01*
X89858Y-44914D01*
X89877Y-44952D01*
X89877Y-44990D01*
X89686Y-45029D01*
X90048Y-44895D02*
X90048Y-45162D01*
X90048Y-44933D02*
X90067Y-44914D01*
X90105Y-44895D01*
X90163Y-44895D01*
X90201Y-44914D01*
X90220Y-44952D01*
X90220Y-45162D01*
X90639Y-45124D02*
X90620Y-45143D01*
X90563Y-45162D01*
X90525Y-45162D01*
X90467Y-45143D01*
X90429Y-45105D01*
X90410Y-45067D01*
X90391Y-44990D01*
X90391Y-44933D01*
X90410Y-44857D01*
X90429Y-44819D01*
X90467Y-44781D01*
X90525Y-44762D01*
X90563Y-44762D01*
X90620Y-44781D01*
X90639Y-44800D01*
X90810Y-45162D02*
X90810Y-44762D01*
X90944Y-45048D01*
X91077Y-44762D01*
X91077Y-45162D01*
G54D13*
X89543Y-32143D02*
X89505Y-32162D01*
X89428Y-32162D01*
X89390Y-32143D01*
X89371Y-32124D01*
X89352Y-32086D01*
X89352Y-31971D01*
X89371Y-31933D01*
X89390Y-31914D01*
X89428Y-31895D01*
X89505Y-31895D01*
X89543Y-31914D01*
X89771Y-32162D02*
X89733Y-32143D01*
X89714Y-32124D01*
X89695Y-32086D01*
X89695Y-31971D01*
X89714Y-31933D01*
X89733Y-31914D01*
X89771Y-31895D01*
X89829Y-31895D01*
X89867Y-31914D01*
X89886Y-31933D01*
X89905Y-31971D01*
X89905Y-32086D01*
X89886Y-32124D01*
X89867Y-32143D01*
X89829Y-32162D01*
X89771Y-32162D01*
X90076Y-31895D02*
X90076Y-32162D01*
X90076Y-31933D02*
X90095Y-31914D01*
X90133Y-31895D01*
X90191Y-31895D01*
X90229Y-31914D01*
X90248Y-31952D01*
X90248Y-32162D01*
X90610Y-31895D02*
X90610Y-32162D01*
X90514Y-31743D02*
X90419Y-32029D01*
X90667Y-32029D01*
G54D11*
X88066Y-34762D02*
X88143Y-34762D01*
X88181Y-34781D01*
X88219Y-34819D01*
X88238Y-34895D01*
X88238Y-35029D01*
X88219Y-35105D01*
X88181Y-35143D01*
X88143Y-35162D01*
X88066Y-35162D01*
X88028Y-35143D01*
X87990Y-35105D01*
X87971Y-35029D01*
X87971Y-34895D01*
X87990Y-34819D01*
X88028Y-34781D01*
X88066Y-34762D01*
X88409Y-34895D02*
X88409Y-35295D01*
X88409Y-34914D02*
X88447Y-34895D01*
X88524Y-34895D01*
X88562Y-34914D01*
X88581Y-34933D01*
X88600Y-34971D01*
X88600Y-35086D01*
X88581Y-35124D01*
X88562Y-35143D01*
X88524Y-35162D01*
X88447Y-35162D01*
X88409Y-35143D01*
X88924Y-35143D02*
X88886Y-35162D01*
X88809Y-35162D01*
X88771Y-35143D01*
X88752Y-35105D01*
X88752Y-34952D01*
X88771Y-34914D01*
X88809Y-34895D01*
X88886Y-34895D01*
X88924Y-34914D01*
X88943Y-34952D01*
X88943Y-34990D01*
X88752Y-35029D01*
X89114Y-34895D02*
X89114Y-35162D01*
X89114Y-34933D02*
X89133Y-34914D01*
X89171Y-34895D01*
X89229Y-34895D01*
X89267Y-34914D01*
X89286Y-34952D01*
X89286Y-35162D01*
X89705Y-35124D02*
X89686Y-35143D01*
X89629Y-35162D01*
X89591Y-35162D01*
X89533Y-35143D01*
X89495Y-35105D01*
X89476Y-35067D01*
X89457Y-34990D01*
X89457Y-34933D01*
X89476Y-34857D01*
X89495Y-34819D01*
X89533Y-34781D01*
X89591Y-34762D01*
X89629Y-34762D01*
X89686Y-34781D01*
X89705Y-34800D01*
X89876Y-35162D02*
X89876Y-34762D01*
X90010Y-35048D01*
X90143Y-34762D01*
X90143Y-35162D01*
X90638Y-34895D02*
X90638Y-35295D01*
X90638Y-34914D02*
X90676Y-34895D01*
X90753Y-34895D01*
X90791Y-34914D01*
X90810Y-34933D01*
X90829Y-34971D01*
X90829Y-35086D01*
X90810Y-35124D01*
X90791Y-35143D01*
X90753Y-35162D01*
X90676Y-35162D01*
X90638Y-35143D01*
X91000Y-35162D02*
X91000Y-34895D01*
X91000Y-34971D02*
X91019Y-34933D01*
X91038Y-34914D01*
X91076Y-34895D01*
X91115Y-34895D01*
X91305Y-35162D02*
X91267Y-35143D01*
X91248Y-35124D01*
X91229Y-35086D01*
X91229Y-34971D01*
X91248Y-34933D01*
X91267Y-34914D01*
X91305Y-34895D01*
X91363Y-34895D01*
X91401Y-34914D01*
X91420Y-34933D01*
X91439Y-34971D01*
X91439Y-35086D01*
X91420Y-35124D01*
X91401Y-35143D01*
X91363Y-35162D01*
X91305Y-35162D01*
X91553Y-34895D02*
X91705Y-34895D01*
X91610Y-34762D02*
X91610Y-35105D01*
X91629Y-35143D01*
X91667Y-35162D01*
X91705Y-35162D01*
X91896Y-35162D02*
X91858Y-35143D01*
X91839Y-35124D01*
X91820Y-35086D01*
X91820Y-34971D01*
X91839Y-34933D01*
X91858Y-34914D01*
X91896Y-34895D01*
X91954Y-34895D01*
X91992Y-34914D01*
X92011Y-34933D01*
X92030Y-34971D01*
X92030Y-35086D01*
X92011Y-35124D01*
X91992Y-35143D01*
X91954Y-35162D01*
X91896Y-35162D01*
G54D13*
X89543Y-37143D02*
X89505Y-37162D01*
X89428Y-37162D01*
X89390Y-37143D01*
X89371Y-37124D01*
X89352Y-37086D01*
X89352Y-36971D01*
X89371Y-36933D01*
X89390Y-36914D01*
X89428Y-36895D01*
X89505Y-36895D01*
X89543Y-36914D01*
X89771Y-37162D02*
X89733Y-37143D01*
X89714Y-37124D01*
X89695Y-37086D01*
X89695Y-36971D01*
X89714Y-36933D01*
X89733Y-36914D01*
X89771Y-36895D01*
X89829Y-36895D01*
X89867Y-36914D01*
X89886Y-36933D01*
X89905Y-36971D01*
X89905Y-37086D01*
X89886Y-37124D01*
X89867Y-37143D01*
X89829Y-37162D01*
X89771Y-37162D01*
X90076Y-36895D02*
X90076Y-37162D01*
X90076Y-36933D02*
X90095Y-36914D01*
X90133Y-36895D01*
X90191Y-36895D01*
X90229Y-36914D01*
X90248Y-36952D01*
X90248Y-37162D01*
X90400Y-36762D02*
X90648Y-36762D01*
X90514Y-36914D01*
X90572Y-36914D01*
X90610Y-36933D01*
X90629Y-36952D01*
X90648Y-36990D01*
X90648Y-37086D01*
X90629Y-37124D01*
X90610Y-37143D01*
X90572Y-37162D01*
X90457Y-37162D01*
X90419Y-37143D01*
X90400Y-37124D01*
G54D11*
X89000Y-33762D02*
X89077Y-33762D01*
X89115Y-33781D01*
X89153Y-33819D01*
X89172Y-33895D01*
X89172Y-34029D01*
X89153Y-34105D01*
X89115Y-34143D01*
X89077Y-34162D01*
X89000Y-34162D01*
X88962Y-34143D01*
X88924Y-34105D01*
X88905Y-34029D01*
X88905Y-33895D01*
X88924Y-33819D01*
X88962Y-33781D01*
X89000Y-33762D01*
X89343Y-33895D02*
X89343Y-34295D01*
X89343Y-33914D02*
X89381Y-33895D01*
X89458Y-33895D01*
X89496Y-33914D01*
X89515Y-33933D01*
X89534Y-33971D01*
X89534Y-34086D01*
X89515Y-34124D01*
X89496Y-34143D01*
X89458Y-34162D01*
X89381Y-34162D01*
X89343Y-34143D01*
X89858Y-34143D02*
X89820Y-34162D01*
X89743Y-34162D01*
X89705Y-34143D01*
X89686Y-34105D01*
X89686Y-33952D01*
X89705Y-33914D01*
X89743Y-33895D01*
X89820Y-33895D01*
X89858Y-33914D01*
X89877Y-33952D01*
X89877Y-33990D01*
X89686Y-34029D01*
X90048Y-33895D02*
X90048Y-34162D01*
X90048Y-33933D02*
X90067Y-33914D01*
X90105Y-33895D01*
X90163Y-33895D01*
X90201Y-33914D01*
X90220Y-33952D01*
X90220Y-34162D01*
X90639Y-34124D02*
X90620Y-34143D01*
X90563Y-34162D01*
X90525Y-34162D01*
X90467Y-34143D01*
X90429Y-34105D01*
X90410Y-34067D01*
X90391Y-33990D01*
X90391Y-33933D01*
X90410Y-33857D01*
X90429Y-33819D01*
X90467Y-33781D01*
X90525Y-33762D01*
X90563Y-33762D01*
X90620Y-33781D01*
X90639Y-33800D01*
X90810Y-34162D02*
X90810Y-33762D01*
X90944Y-34048D01*
X91077Y-33762D01*
X91077Y-34162D01*
X86643Y-39305D02*
X87129Y-39305D01*
X87186Y-39286D01*
X87214Y-39267D01*
X87243Y-39229D01*
X87243Y-39152D01*
X87214Y-39114D01*
X87186Y-39095D01*
X87129Y-39076D01*
X86643Y-39076D01*
X87243Y-38676D02*
X87243Y-38905D01*
X87243Y-38791D02*
X86643Y-38791D01*
X86729Y-38829D01*
X86786Y-38867D01*
X86814Y-38905D01*
X83893Y-39455D02*
X83893Y-39188D01*
X84493Y-39360D01*
X84150Y-38979D02*
X84121Y-39017D01*
X84093Y-39036D01*
X84036Y-39055D01*
X84007Y-39055D01*
X83950Y-39036D01*
X83921Y-39017D01*
X83893Y-38979D01*
X83893Y-38902D01*
X83921Y-38864D01*
X83950Y-38845D01*
X84007Y-38826D01*
X84036Y-38826D01*
X84093Y-38845D01*
X84121Y-38864D01*
X84150Y-38902D01*
X84150Y-38979D01*
X84179Y-39017D01*
X84207Y-39036D01*
X84264Y-39055D01*
X84379Y-39055D01*
X84436Y-39036D01*
X84464Y-39017D01*
X84493Y-38979D01*
X84493Y-38902D01*
X84464Y-38864D01*
X84436Y-38845D01*
X84379Y-38826D01*
X84264Y-38826D01*
X84207Y-38845D01*
X84179Y-38864D01*
X84150Y-38902D01*
X83893Y-38579D02*
X83893Y-38540D01*
X83921Y-38502D01*
X83950Y-38483D01*
X84007Y-38464D01*
X84121Y-38445D01*
X84264Y-38445D01*
X84379Y-38464D01*
X84436Y-38483D01*
X84464Y-38502D01*
X84493Y-38540D01*
X84493Y-38579D01*
X84464Y-38617D01*
X84436Y-38636D01*
X84379Y-38655D01*
X84264Y-38674D01*
X84121Y-38674D01*
X84007Y-38655D01*
X83950Y-38636D01*
X83921Y-38617D01*
X83893Y-38579D01*
X83893Y-38083D02*
X83893Y-38274D01*
X84179Y-38293D01*
X84150Y-38274D01*
X84121Y-38236D01*
X84121Y-38140D01*
X84150Y-38102D01*
X84179Y-38083D01*
X84236Y-38064D01*
X84379Y-38064D01*
X84436Y-38083D01*
X84464Y-38102D01*
X84493Y-38140D01*
X84493Y-38236D01*
X84464Y-38274D01*
X84436Y-38293D01*
X82739Y-40558D02*
X82761Y-40574D01*
X82782Y-40624D01*
X82782Y-40658D01*
X82761Y-40708D01*
X82718Y-40741D01*
X82675Y-40758D01*
X82589Y-40774D01*
X82525Y-40774D01*
X82439Y-40758D01*
X82396Y-40741D01*
X82354Y-40708D01*
X82332Y-40658D01*
X82332Y-40624D01*
X82354Y-40574D01*
X82375Y-40558D01*
X82375Y-40424D02*
X82354Y-40408D01*
X82332Y-40374D01*
X82332Y-40291D01*
X82354Y-40258D01*
X82375Y-40241D01*
X82418Y-40224D01*
X82461Y-40224D01*
X82525Y-40241D01*
X82782Y-40441D01*
X82782Y-40224D01*
X81539Y-40809D02*
X81561Y-40825D01*
X81582Y-40875D01*
X81582Y-40909D01*
X81561Y-40959D01*
X81518Y-40992D01*
X81475Y-41009D01*
X81389Y-41025D01*
X81325Y-41025D01*
X81239Y-41009D01*
X81196Y-40992D01*
X81154Y-40959D01*
X81132Y-40909D01*
X81132Y-40875D01*
X81154Y-40825D01*
X81175Y-40809D01*
X81582Y-40609D02*
X81561Y-40642D01*
X81539Y-40659D01*
X81496Y-40675D01*
X81368Y-40675D01*
X81325Y-40659D01*
X81304Y-40642D01*
X81282Y-40609D01*
X81282Y-40559D01*
X81304Y-40525D01*
X81325Y-40509D01*
X81368Y-40492D01*
X81496Y-40492D01*
X81539Y-40509D01*
X81561Y-40525D01*
X81582Y-40559D01*
X81582Y-40609D01*
X81282Y-40192D02*
X81582Y-40192D01*
X81282Y-40342D02*
X81518Y-40342D01*
X81561Y-40325D01*
X81582Y-40292D01*
X81582Y-40242D01*
X81561Y-40208D01*
X81539Y-40192D01*
X81282Y-40075D02*
X81282Y-39941D01*
X81132Y-40025D02*
X81518Y-40025D01*
X81561Y-40008D01*
X81582Y-39975D01*
X81582Y-39941D01*
G54D16*
X82182Y-42014D02*
X81882Y-42014D01*
X81732Y-42014D02*
X81754Y-42035D01*
X81775Y-42014D01*
X81754Y-41992D01*
X81732Y-42014D01*
X81775Y-42014D01*
X81882Y-41800D02*
X82268Y-41800D01*
X82311Y-41821D01*
X82332Y-41864D01*
X82332Y-41886D01*
X81732Y-41800D02*
X81754Y-41821D01*
X81775Y-41800D01*
X81754Y-41778D01*
X81732Y-41800D01*
X81775Y-41800D01*
X82182Y-41522D02*
X82161Y-41564D01*
X82139Y-41586D01*
X82096Y-41607D01*
X81968Y-41607D01*
X81925Y-41586D01*
X81904Y-41564D01*
X81882Y-41522D01*
X81882Y-41457D01*
X81904Y-41414D01*
X81925Y-41393D01*
X81968Y-41372D01*
X82096Y-41372D01*
X82139Y-41393D01*
X82161Y-41414D01*
X82182Y-41457D01*
X82182Y-41522D01*
X81882Y-41179D02*
X82182Y-41179D01*
X81925Y-41179D02*
X81904Y-41157D01*
X81882Y-41115D01*
X81882Y-41050D01*
X81904Y-41007D01*
X81946Y-40986D01*
X82182Y-40986D01*
X81775Y-41200D02*
X81754Y-41179D01*
X81732Y-41136D01*
X81775Y-41050D01*
X81754Y-41007D01*
X81732Y-40986D01*
G54D11*
X82739Y-37558D02*
X82761Y-37574D01*
X82782Y-37624D01*
X82782Y-37658D01*
X82761Y-37708D01*
X82718Y-37741D01*
X82675Y-37758D01*
X82589Y-37774D01*
X82525Y-37774D01*
X82439Y-37758D01*
X82396Y-37741D01*
X82354Y-37708D01*
X82332Y-37658D01*
X82332Y-37624D01*
X82354Y-37574D01*
X82375Y-37558D01*
X82782Y-37224D02*
X82782Y-37424D01*
X82782Y-37324D02*
X82332Y-37324D01*
X82396Y-37358D01*
X82439Y-37391D01*
X82461Y-37424D01*
X81539Y-37634D02*
X81561Y-37650D01*
X81582Y-37700D01*
X81582Y-37734D01*
X81561Y-37784D01*
X81518Y-37817D01*
X81475Y-37834D01*
X81389Y-37850D01*
X81325Y-37850D01*
X81239Y-37834D01*
X81196Y-37817D01*
X81154Y-37784D01*
X81132Y-37734D01*
X81132Y-37700D01*
X81154Y-37650D01*
X81175Y-37634D01*
X81582Y-37484D02*
X81282Y-37484D01*
X81132Y-37484D02*
X81154Y-37500D01*
X81175Y-37484D01*
X81154Y-37467D01*
X81132Y-37484D01*
X81175Y-37484D01*
X81282Y-37317D02*
X81582Y-37317D01*
X81325Y-37317D02*
X81304Y-37300D01*
X81282Y-37267D01*
X81282Y-37217D01*
X81304Y-37183D01*
X81346Y-37167D01*
X81582Y-37167D01*
G54D16*
M02*
