G04 (created by PCBNEW-RS274X (2012-apr-16-27)-stable) date lun 12 may 2014 23:04:42 CEST*
G01*
G70*
G90*
%MOIN*%
G04 Gerber Fmt 3.4, Leading zero omitted, Abs format*
%FSLAX34Y34*%
G04 APERTURE LIST*
%ADD10C,0.000200*%
%ADD11C,0.015000*%
%ADD12C,0.008000*%
%ADD13C,0.010000*%
G04 APERTURE END LIST*
G54D10*
G54D11*
X100000Y-47500D02*
X80000Y-47500D01*
X80000Y-47500D02*
X80000Y-45500D01*
X80000Y-45500D02*
X100000Y-45500D01*
X100000Y-47500D02*
X103000Y-47500D01*
X103000Y-47500D02*
X103000Y-45500D01*
X103000Y-45500D02*
X100000Y-45500D01*
X100000Y-28500D02*
X80000Y-28500D01*
X80000Y-28500D02*
X80000Y-26500D01*
X80000Y-26500D02*
X100000Y-26500D01*
X103000Y-28500D02*
X103000Y-26500D01*
X103000Y-26500D02*
X100000Y-26500D01*
X103000Y-28500D02*
X100000Y-28500D01*
G54D12*
X103000Y-28500D02*
X103000Y-26500D01*
G54D13*
X90457Y-48143D02*
X90495Y-48162D01*
X90572Y-48162D01*
X90610Y-48143D01*
X90629Y-48124D01*
X90648Y-48086D01*
X90648Y-47971D01*
X90629Y-47933D01*
X90610Y-47914D01*
X90572Y-47895D01*
X90495Y-47895D01*
X90457Y-47914D01*
X90229Y-48162D02*
X90267Y-48143D01*
X90286Y-48124D01*
X90305Y-48086D01*
X90305Y-47971D01*
X90286Y-47933D01*
X90267Y-47914D01*
X90229Y-47895D01*
X90171Y-47895D01*
X90133Y-47914D01*
X90114Y-47933D01*
X90095Y-47971D01*
X90095Y-48086D01*
X90114Y-48124D01*
X90133Y-48143D01*
X90171Y-48162D01*
X90229Y-48162D01*
X89924Y-47895D02*
X89924Y-48162D01*
X89924Y-47933D02*
X89905Y-47914D01*
X89867Y-47895D01*
X89809Y-47895D01*
X89771Y-47914D01*
X89752Y-47952D01*
X89752Y-48162D01*
X89352Y-48162D02*
X89581Y-48162D01*
X89467Y-48162D02*
X89467Y-47762D01*
X89505Y-47819D01*
X89543Y-47857D01*
X89581Y-47876D01*
G54D12*
X90295Y-45162D02*
X90295Y-44762D01*
X90142Y-44762D01*
X90104Y-44781D01*
X90085Y-44800D01*
X90066Y-44838D01*
X90066Y-44895D01*
X90085Y-44933D01*
X90104Y-44952D01*
X90142Y-44971D01*
X90295Y-44971D01*
X89876Y-45162D02*
X89800Y-45162D01*
X89761Y-45143D01*
X89742Y-45124D01*
X89704Y-45067D01*
X89685Y-44990D01*
X89685Y-44838D01*
X89704Y-44800D01*
X89723Y-44781D01*
X89761Y-44762D01*
X89838Y-44762D01*
X89876Y-44781D01*
X89895Y-44800D01*
X89914Y-44838D01*
X89914Y-44933D01*
X89895Y-44971D01*
X89876Y-44990D01*
X89838Y-45010D01*
X89761Y-45010D01*
X89723Y-44990D01*
X89704Y-44971D01*
X89685Y-44933D01*
X101957Y-48143D02*
X101995Y-48162D01*
X102072Y-48162D01*
X102110Y-48143D01*
X102129Y-48124D01*
X102148Y-48086D01*
X102148Y-47971D01*
X102129Y-47933D01*
X102110Y-47914D01*
X102072Y-47895D01*
X101995Y-47895D01*
X101957Y-47914D01*
X101729Y-48162D02*
X101767Y-48143D01*
X101786Y-48124D01*
X101805Y-48086D01*
X101805Y-47971D01*
X101786Y-47933D01*
X101767Y-47914D01*
X101729Y-47895D01*
X101671Y-47895D01*
X101633Y-47914D01*
X101614Y-47933D01*
X101595Y-47971D01*
X101595Y-48086D01*
X101614Y-48124D01*
X101633Y-48143D01*
X101671Y-48162D01*
X101729Y-48162D01*
X101424Y-47895D02*
X101424Y-48162D01*
X101424Y-47933D02*
X101405Y-47914D01*
X101367Y-47895D01*
X101309Y-47895D01*
X101271Y-47914D01*
X101252Y-47952D01*
X101252Y-48162D01*
X100890Y-47762D02*
X100967Y-47762D01*
X101005Y-47781D01*
X101024Y-47800D01*
X101062Y-47857D01*
X101081Y-47933D01*
X101081Y-48086D01*
X101062Y-48124D01*
X101043Y-48143D01*
X101005Y-48162D01*
X100928Y-48162D01*
X100890Y-48143D01*
X100871Y-48124D01*
X100852Y-48086D01*
X100852Y-47990D01*
X100871Y-47952D01*
X100890Y-47933D01*
X100928Y-47914D01*
X101005Y-47914D01*
X101043Y-47933D01*
X101062Y-47952D01*
X101081Y-47990D01*
G54D13*
X90647Y-29143D02*
X90685Y-29162D01*
X90762Y-29162D01*
X90800Y-29143D01*
X90819Y-29124D01*
X90838Y-29086D01*
X90838Y-28971D01*
X90819Y-28933D01*
X90800Y-28914D01*
X90762Y-28895D01*
X90685Y-28895D01*
X90647Y-28914D01*
X90419Y-29162D02*
X90457Y-29143D01*
X90476Y-29124D01*
X90495Y-29086D01*
X90495Y-28971D01*
X90476Y-28933D01*
X90457Y-28914D01*
X90419Y-28895D01*
X90361Y-28895D01*
X90323Y-28914D01*
X90304Y-28933D01*
X90285Y-28971D01*
X90285Y-29086D01*
X90304Y-29124D01*
X90323Y-29143D01*
X90361Y-29162D01*
X90419Y-29162D01*
X90114Y-28895D02*
X90114Y-29162D01*
X90114Y-28933D02*
X90095Y-28914D01*
X90057Y-28895D01*
X89999Y-28895D01*
X89961Y-28914D01*
X89942Y-28952D01*
X89942Y-29162D01*
X89542Y-29162D02*
X89771Y-29162D01*
X89657Y-29162D02*
X89657Y-28762D01*
X89695Y-28819D01*
X89733Y-28857D01*
X89771Y-28876D01*
X89295Y-28762D02*
X89256Y-28762D01*
X89218Y-28781D01*
X89199Y-28800D01*
X89180Y-28838D01*
X89161Y-28914D01*
X89161Y-29010D01*
X89180Y-29086D01*
X89199Y-29124D01*
X89218Y-29143D01*
X89256Y-29162D01*
X89295Y-29162D01*
X89333Y-29143D01*
X89352Y-29124D01*
X89371Y-29086D01*
X89390Y-29010D01*
X89390Y-28914D01*
X89371Y-28838D01*
X89352Y-28800D01*
X89333Y-28781D01*
X89295Y-28762D01*
G54D12*
X90876Y-26162D02*
X90876Y-25762D01*
X90876Y-26143D02*
X90914Y-26162D01*
X90991Y-26162D01*
X91029Y-26143D01*
X91048Y-26124D01*
X91067Y-26086D01*
X91067Y-25971D01*
X91048Y-25933D01*
X91029Y-25914D01*
X90991Y-25895D01*
X90914Y-25895D01*
X90876Y-25914D01*
X90514Y-25895D02*
X90514Y-26219D01*
X90533Y-26257D01*
X90552Y-26276D01*
X90591Y-26295D01*
X90648Y-26295D01*
X90686Y-26276D01*
X90514Y-26143D02*
X90552Y-26162D01*
X90629Y-26162D01*
X90667Y-26143D01*
X90686Y-26124D01*
X90705Y-26086D01*
X90705Y-25971D01*
X90686Y-25933D01*
X90667Y-25914D01*
X90629Y-25895D01*
X90552Y-25895D01*
X90514Y-25914D01*
X90324Y-26162D02*
X90324Y-25762D01*
X90152Y-26162D02*
X90152Y-25952D01*
X90171Y-25914D01*
X90209Y-25895D01*
X90267Y-25895D01*
X90305Y-25914D01*
X90324Y-25933D01*
X89790Y-26162D02*
X89790Y-25762D01*
X89790Y-26143D02*
X89828Y-26162D01*
X89905Y-26162D01*
X89943Y-26143D01*
X89962Y-26124D01*
X89981Y-26086D01*
X89981Y-25971D01*
X89962Y-25933D01*
X89943Y-25914D01*
X89905Y-25895D01*
X89828Y-25895D01*
X89790Y-25914D01*
X89600Y-26162D02*
X89600Y-25895D01*
X89600Y-25971D02*
X89581Y-25933D01*
X89562Y-25914D01*
X89524Y-25895D01*
X89485Y-25895D01*
X89409Y-25895D02*
X89257Y-25895D01*
X89352Y-25762D02*
X89352Y-26105D01*
X89333Y-26143D01*
X89295Y-26162D01*
X89257Y-26162D01*
X89123Y-26162D02*
X89123Y-25762D01*
X88951Y-26162D02*
X88951Y-25952D01*
X88970Y-25914D01*
X89008Y-25895D01*
X89066Y-25895D01*
X89104Y-25914D01*
X89123Y-25933D01*
X101957Y-29143D02*
X101995Y-29162D01*
X102072Y-29162D01*
X102110Y-29143D01*
X102129Y-29124D01*
X102148Y-29086D01*
X102148Y-28971D01*
X102129Y-28933D01*
X102110Y-28914D01*
X102072Y-28895D01*
X101995Y-28895D01*
X101957Y-28914D01*
X101729Y-29162D02*
X101767Y-29143D01*
X101786Y-29124D01*
X101805Y-29086D01*
X101805Y-28971D01*
X101786Y-28933D01*
X101767Y-28914D01*
X101729Y-28895D01*
X101671Y-28895D01*
X101633Y-28914D01*
X101614Y-28933D01*
X101595Y-28971D01*
X101595Y-29086D01*
X101614Y-29124D01*
X101633Y-29143D01*
X101671Y-29162D01*
X101729Y-29162D01*
X101424Y-28895D02*
X101424Y-29162D01*
X101424Y-28933D02*
X101405Y-28914D01*
X101367Y-28895D01*
X101309Y-28895D01*
X101271Y-28914D01*
X101252Y-28952D01*
X101252Y-29162D01*
X101100Y-28762D02*
X100833Y-28762D01*
X101005Y-29162D01*
M02*
